<svg xmlns="http://www.w3.org/2000/svg" xmlns:xlink="http://www.w3.org/1999/xlink" xmlns:inkscape="http://www.inkscape.org/namespaces/inkscape" version="1.1" width="299" height="230" viewBox="0 0 299 230">
<path transform="matrix(1.00003,0,0,-1.00005,-48.820035,228.37471)" stroke-width="3.9851" stroke-linecap="butt" stroke-miterlimit="10" stroke-linejoin="miter" fill="none" stroke="#000000" d="M56.69362 0V226.77448"/>
<path transform="matrix(1.00003,0,0,-1.00005,-48.820035,228.37471)" d="M62.67128 17.00824C62.67128 20.30965 59.99503 22.9859 56.69362 22.9859 53.3922 22.9859 50.71596 20.30965 50.71596 17.00824 50.71596 13.70683 53.3922 11.03058 56.69362 11.03058 59.99503 11.03058 62.67128 13.70683 62.67128 17.00824ZM56.69362 17.00824" fill="#0000ff"/>
<path transform="matrix(1.00003,0,0,-1.00005,-48.820035,228.37471)" d="M62.67128 34.0165C62.67128 37.31792 59.99503 39.99416 56.69362 39.99416 53.3922 39.99416 50.71596 37.31792 50.71596 34.0165 50.71596 30.71509 53.3922 28.03883 56.69362 28.03883 59.99503 28.03883 62.67128 30.71509 62.67128 34.0165ZM56.69362 34.0165" fill="#0000ff"/>
<path transform="matrix(1.00003,0,0,-1.00005,-48.820035,228.37471)" d="M62.67128 51.02477C62.67128 54.32617 59.99503 57.00243 56.69362 57.00243 53.3922 57.00243 50.71596 54.32617 50.71596 51.02477 50.71596 47.72334 53.3922 45.0471 56.69362 45.0471 59.99503 45.0471 62.67128 47.72334 62.67128 51.02477ZM56.69362 51.02477" fill="#00ff00"/>
<path transform="matrix(1.00003,0,0,-1.00005,-48.820035,228.37471)" stroke-width="3.9851" stroke-linecap="butt" stroke-miterlimit="10" stroke-linejoin="miter" fill="none" stroke="#000000" d="M113.38724 0V226.77448"/>
<path transform="matrix(1.00003,0,0,-1.00005,-48.820035,228.37471)" d="M119.3649 17.00824C119.3649 20.30965 116.68864 22.9859 113.38724 22.9859 110.08582 22.9859 107.40958 20.30965 107.40958 17.00824 107.40958 13.70683 110.08582 11.03058 113.38724 11.03058 116.68864 11.03058 119.3649 13.70683 119.3649 17.00824ZM113.38724 17.00824" fill="#0000ff"/>
<path transform="matrix(1.00003,0,0,-1.00005,-48.820035,228.37471)" d="M119.3649 34.0165C119.3649 37.31792 116.68864 39.99416 113.38724 39.99416 110.08582 39.99416 107.40958 37.31792 107.40958 34.0165 107.40958 30.71509 110.08582 28.03883 113.38724 28.03883 116.68864 28.03883 119.3649 30.71509 119.3649 34.0165ZM113.38724 34.0165" fill="#0000ff"/>
<path transform="matrix(1.00003,0,0,-1.00005,-48.820035,228.37471)" d="M119.3649 51.02477C119.3649 54.32617 116.68864 57.00243 113.38724 57.00243 110.08582 57.00243 107.40958 54.32617 107.40958 51.02477 107.40958 47.72334 110.08582 45.0471 113.38724 45.0471 116.68864 45.0471 119.3649 47.72334 119.3649 51.02477ZM113.38724 51.02477" fill="#0000ff"/>
<path transform="matrix(1.00003,0,0,-1.00005,-48.820035,228.37471)" d="M119.3649 68.03302C119.3649 71.33444 116.68864 74.01068 113.38724 74.01068 110.08582 74.01068 107.40958 71.33444 107.40958 68.03302 107.40958 64.73161 110.08582 62.05536 113.38724 62.05536 116.68864 62.05536 119.3649 64.73161 119.3649 68.03302ZM113.38724 68.03302" fill="#0000ff"/>
<path transform="matrix(1.00003,0,0,-1.00005,-48.820035,228.37471)" d="M119.3649 85.04128C119.3649 88.34268 116.68864 91.01894 113.38724 91.01894 110.08582 91.01894 107.40958 88.34268 107.40958 85.04128 107.40958 81.73985 110.08582 79.06361 113.38724 79.06361 116.68864 79.06361 119.3649 81.73985 119.3649 85.04128ZM113.38724 85.04128" fill="#00ff00"/>
<path transform="matrix(1.00003,0,0,-1.00005,-48.820035,228.37471)" stroke-width="3.9851" stroke-linecap="butt" stroke-miterlimit="10" stroke-linejoin="miter" fill="none" stroke="#000000" d="M170.08086 0V226.77448"/>
<path transform="matrix(1.00003,0,0,-1.00005,-48.820035,228.37471)" d="M176.05852 17.00824C176.05852 20.30965 173.38227 22.9859 170.08086 22.9859 166.77944 22.9859 164.1032 20.30965 164.1032 17.00824 164.1032 13.70683 166.77944 11.03058 170.08086 11.03058 173.38227 11.03058 176.05852 13.70683 176.05852 17.00824ZM170.08086 17.00824" fill="#0000ff"/>
<path transform="matrix(1.00003,0,0,-1.00005,-48.820035,228.37471)" d="M176.05852 34.0165C176.05852 37.31792 173.38227 39.99416 170.08086 39.99416 166.77944 39.99416 164.1032 37.31792 164.1032 34.0165 164.1032 30.71509 166.77944 28.03883 170.08086 28.03883 173.38227 28.03883 176.05852 30.71509 176.05852 34.0165ZM170.08086 34.0165" fill="#0000ff"/>
<path transform="matrix(1.00003,0,0,-1.00005,-48.820035,228.37471)" d="M176.05852 51.02477C176.05852 54.32617 173.38227 57.00243 170.08086 57.00243 166.77944 57.00243 164.1032 54.32617 164.1032 51.02477 164.1032 47.72334 166.77944 45.0471 170.08086 45.0471 173.38227 45.0471 176.05852 47.72334 176.05852 51.02477ZM170.08086 51.02477" fill="#0000ff"/>
<path transform="matrix(1.00003,0,0,-1.00005,-48.820035,228.37471)" d="M176.05852 68.03302C176.05852 71.33444 173.38227 74.01068 170.08086 74.01068 166.77944 74.01068 164.1032 71.33444 164.1032 68.03302 164.1032 64.73161 166.77944 62.05536 170.08086 62.05536 173.38227 62.05536 176.05852 64.73161 176.05852 68.03302ZM170.08086 68.03302" fill="#0000ff"/>
<path transform="matrix(1.00003,0,0,-1.00005,-48.820035,228.37471)" d="M176.05852 85.04128C176.05852 88.34268 173.38227 91.01894 170.08086 91.01894 166.77944 91.01894 164.1032 88.34268 164.1032 85.04128 164.1032 81.73985 166.77944 79.06361 170.08086 79.06361 173.38227 79.06361 176.05852 81.73985 176.05852 85.04128ZM170.08086 85.04128" fill="#0000ff"/>
<path transform="matrix(1.00003,0,0,-1.00005,-48.820035,228.37471)" d="M176.05852 102.04953C176.05852 105.35095 173.38227 108.02719 170.08086 108.02719 166.77944 108.02719 164.1032 105.35095 164.1032 102.04953 164.1032 98.74812 166.77944 96.07187 170.08086 96.07187 173.38227 96.07187 176.05852 98.74812 176.05852 102.04953ZM170.08086 102.04953" fill="#0000ff"/>
<path transform="matrix(1.00003,0,0,-1.00005,-48.820035,228.37471)" d="M176.05852 119.0578C176.05852 122.3592 173.38227 125.03546 170.08086 125.03546 166.77944 125.03546 164.1032 122.3592 164.1032 119.0578 164.1032 115.75638 166.77944 113.08014 170.08086 113.08014 173.38227 113.08014 176.05852 115.75638 176.05852 119.0578ZM170.08086 119.0578" fill="#00ff00"/>
<path transform="matrix(1.00003,0,0,-1.00005,-48.820035,228.37471)" stroke-width="3.9851" stroke-linecap="butt" stroke-miterlimit="10" stroke-linejoin="miter" fill="none" stroke="#000000" d="M226.77448 0V226.77448"/>
<path transform="matrix(1.00003,0,0,-1.00005,-48.820035,228.37471)" d="M232.75214 17.00824C232.75214 20.30965 230.07588 22.9859 226.77448 22.9859 223.47306 22.9859 220.79682 20.30965 220.79682 17.00824 220.79682 13.70683 223.47306 11.03058 226.77448 11.03058 230.07588 11.03058 232.75214 13.70683 232.75214 17.00824ZM226.77448 17.00824" fill="#0000ff"/>
<path transform="matrix(1.00003,0,0,-1.00005,-48.820035,228.37471)" d="M232.75214 34.0165C232.75214 37.31792 230.07588 39.99416 226.77448 39.99416 223.47306 39.99416 220.79682 37.31792 220.79682 34.0165 220.79682 30.71509 223.47306 28.03883 226.77448 28.03883 230.07588 28.03883 232.75214 30.71509 232.75214 34.0165ZM226.77448 34.0165" fill="#0000ff"/>
<path transform="matrix(1.00003,0,0,-1.00005,-48.820035,228.37471)" d="M232.75214 51.02477C232.75214 54.32617 230.07588 57.00243 226.77448 57.00243 223.47306 57.00243 220.79682 54.32617 220.79682 51.02477 220.79682 47.72334 223.47306 45.0471 226.77448 45.0471 230.07588 45.0471 232.75214 47.72334 232.75214 51.02477ZM226.77448 51.02477" fill="#0000ff"/>
<path transform="matrix(1.00003,0,0,-1.00005,-48.820035,228.37471)" d="M232.75214 68.03302C232.75214 71.33444 230.07588 74.01068 226.77448 74.01068 223.47306 74.01068 220.79682 71.33444 220.79682 68.03302 220.79682 64.73161 223.47306 62.05536 226.77448 62.05536 230.07588 62.05536 232.75214 64.73161 232.75214 68.03302ZM226.77448 68.03302" fill="#0000ff"/>
<path transform="matrix(1.00003,0,0,-1.00005,-48.820035,228.37471)" d="M232.75214 85.04128C232.75214 88.34268 230.07588 91.01894 226.77448 91.01894 223.47306 91.01894 220.79682 88.34268 220.79682 85.04128 220.79682 81.73985 223.47306 79.06361 226.77448 79.06361 230.07588 79.06361 232.75214 81.73985 232.75214 85.04128ZM226.77448 85.04128" fill="#0000ff"/>
<path transform="matrix(1.00003,0,0,-1.00005,-48.820035,228.37471)" d="M232.75214 102.04953C232.75214 105.35095 230.07588 108.02719 226.77448 108.02719 223.47306 108.02719 220.79682 105.35095 220.79682 102.04953 220.79682 98.74812 223.47306 96.07187 226.77448 96.07187 230.07588 96.07187 232.75214 98.74812 232.75214 102.04953ZM226.77448 102.04953" fill="#0000ff"/>
<path transform="matrix(1.00003,0,0,-1.00005,-48.820035,228.37471)" d="M232.75214 119.0578C232.75214 122.3592 230.07588 125.03546 226.77448 125.03546 223.47306 125.03546 220.79682 122.3592 220.79682 119.0578 220.79682 115.75638 223.47306 113.08014 226.77448 113.08014 230.07588 113.08014 232.75214 115.75638 232.75214 119.0578ZM226.77448 119.0578" fill="#0000ff"/>
<path transform="matrix(1.00003,0,0,-1.00005,-48.820035,228.37471)" d="M232.75214 136.06606C232.75214 139.36748 230.07588 142.04372 226.77448 142.04372 223.47306 142.04372 220.79682 139.36748 220.79682 136.06606 220.79682 132.76465 223.47306 130.0884 226.77448 130.0884 230.07588 130.0884 232.75214 132.76465 232.75214 136.06606ZM226.77448 136.06606" fill="#00ff00"/>
<path transform="matrix(1.00003,0,0,-1.00005,-48.820035,228.37471)" stroke-width="3.9851" stroke-linecap="butt" stroke-miterlimit="10" stroke-linejoin="miter" fill="none" stroke="#000000" d="M283.4681 0V226.77448"/>
<path transform="matrix(1.00003,0,0,-1.00005,-48.820035,228.37471)" d="M289.44578 17.00824C289.44578 20.30965 286.7695 22.9859 283.4681 22.9859 280.16667 22.9859 277.49043 20.30965 277.49043 17.00824 277.49043 13.70683 280.16667 11.03058 283.4681 11.03058 286.7695 11.03058 289.44578 13.70683 289.44578 17.00824ZM283.4681 17.00824" fill="#0000ff"/>
<path transform="matrix(1.00003,0,0,-1.00005,-48.820035,228.37471)" d="M289.44578 34.0165C289.44578 37.31792 286.7695 39.99416 283.4681 39.99416 280.16667 39.99416 277.49043 37.31792 277.49043 34.0165 277.49043 30.71509 280.16667 28.03883 283.4681 28.03883 286.7695 28.03883 289.44578 30.71509 289.44578 34.0165ZM283.4681 34.0165" fill="#0000ff"/>
<path transform="matrix(1.00003,0,0,-1.00005,-48.820035,228.37471)" d="M289.44578 51.02477C289.44578 54.32617 286.7695 57.00243 283.4681 57.00243 280.16667 57.00243 277.49043 54.32617 277.49043 51.02477 277.49043 47.72334 280.16667 45.0471 283.4681 45.0471 286.7695 45.0471 289.44578 47.72334 289.44578 51.02477ZM283.4681 51.02477" fill="#0000ff"/>
<path transform="matrix(1.00003,0,0,-1.00005,-48.820035,228.37471)" d="M289.44578 68.03302C289.44578 71.33444 286.7695 74.01068 283.4681 74.01068 280.16667 74.01068 277.49043 71.33444 277.49043 68.03302 277.49043 64.73161 280.16667 62.05536 283.4681 62.05536 286.7695 62.05536 289.44578 64.73161 289.44578 68.03302ZM283.4681 68.03302" fill="#0000ff"/>
<path transform="matrix(1.00003,0,0,-1.00005,-48.820035,228.37471)" d="M289.44578 85.04128C289.44578 88.34268 286.7695 91.01894 283.4681 91.01894 280.16667 91.01894 277.49043 88.34268 277.49043 85.04128 277.49043 81.73985 280.16667 79.06361 283.4681 79.06361 286.7695 79.06361 289.44578 81.73985 289.44578 85.04128ZM283.4681 85.04128" fill="#0000ff"/>
<path transform="matrix(1.00003,0,0,-1.00005,-48.820035,228.37471)" d="M289.44578 102.04953C289.44578 105.35095 286.7695 108.02719 283.4681 108.02719 280.16667 108.02719 277.49043 105.35095 277.49043 102.04953 277.49043 98.74812 280.16667 96.07187 283.4681 96.07187 286.7695 96.07187 289.44578 98.74812 289.44578 102.04953ZM283.4681 102.04953" fill="#0000ff"/>
<path transform="matrix(1.00003,0,0,-1.00005,-48.820035,228.37471)" d="M289.44578 119.0578C289.44578 122.3592 286.7695 125.03546 283.4681 125.03546 280.16667 125.03546 277.49043 122.3592 277.49043 119.0578 277.49043 115.75638 280.16667 113.08014 283.4681 113.08014 286.7695 113.08014 289.44578 115.75638 289.44578 119.0578ZM283.4681 119.0578" fill="#0000ff"/>
<path transform="matrix(1.00003,0,0,-1.00005,-48.820035,228.37471)" d="M289.44578 136.06606C289.44578 139.36748 286.7695 142.04372 283.4681 142.04372 280.16667 142.04372 277.49043 139.36748 277.49043 136.06606 277.49043 132.76465 280.16667 130.0884 283.4681 130.0884 286.7695 130.0884 289.44578 132.76465 289.44578 136.06606ZM283.4681 136.06606" fill="#0000ff"/>
<path transform="matrix(1.00003,0,0,-1.00005,-48.820035,228.37471)" d="M289.44578 153.07433C289.44578 156.37574 286.7695 159.05199 283.4681 159.05199 280.16667 159.05199 277.49043 156.37574 277.49043 153.07433 277.49043 149.7729 280.16667 147.09667 283.4681 147.09667 286.7695 147.09667 289.44578 149.7729 289.44578 153.07433ZM283.4681 153.07433" fill="#0000ff"/>
<path transform="matrix(1.00003,0,0,-1.00005,-48.820035,228.37471)" d="M289.44578 170.08257C289.44578 173.38399 286.7695 176.06023 283.4681 176.06023 280.16667 176.06023 277.49043 173.38399 277.49043 170.08257 277.49043 166.78116 280.16667 164.1049 283.4681 164.1049 286.7695 164.1049 289.44578 166.78116 289.44578 170.08257ZM283.4681 170.08257" fill="#00ff00"/>
<path transform="matrix(1.00003,0,0,-1.00005,-48.820035,228.37471)" stroke-width="3.9851" stroke-linecap="butt" stroke-miterlimit="10" stroke-linejoin="miter" fill="none" stroke="#000000" d="M340.1617 0V226.77448"/>
<path transform="matrix(1.00003,0,0,-1.00005,-48.820035,228.37471)" d="M346.13938 17.00824C346.13938 20.30965 343.46315 22.9859 340.1617 22.9859 336.8603 22.9859 334.18406 20.30965 334.18406 17.00824 334.18406 13.70683 336.8603 11.03058 340.1617 11.03058 343.46315 11.03058 346.13938 13.70683 346.13938 17.00824ZM340.1617 17.00824" fill="#0000ff"/>
<path transform="matrix(1.00003,0,0,-1.00005,-48.820035,228.37471)" d="M346.13938 34.0165C346.13938 37.31792 343.46315 39.99416 340.1617 39.99416 336.8603 39.99416 334.18406 37.31792 334.18406 34.0165 334.18406 30.71509 336.8603 28.03883 340.1617 28.03883 343.46315 28.03883 346.13938 30.71509 346.13938 34.0165ZM340.1617 34.0165" fill="#0000ff"/>
<path transform="matrix(1.00003,0,0,-1.00005,-48.820035,228.37471)" d="M346.13938 51.02477C346.13938 54.32617 343.46315 57.00243 340.1617 57.00243 336.8603 57.00243 334.18406 54.32617 334.18406 51.02477 334.18406 47.72334 336.8603 45.0471 340.1617 45.0471 343.46315 45.0471 346.13938 47.72334 346.13938 51.02477ZM340.1617 51.02477" fill="#0000ff"/>
<path transform="matrix(1.00003,0,0,-1.00005,-48.820035,228.37471)" d="M346.13938 68.03302C346.13938 71.33444 343.46315 74.01068 340.1617 74.01068 336.8603 74.01068 334.18406 71.33444 334.18406 68.03302 334.18406 64.73161 336.8603 62.05536 340.1617 62.05536 343.46315 62.05536 346.13938 64.73161 346.13938 68.03302ZM340.1617 68.03302" fill="#0000ff"/>
<path transform="matrix(1.00003,0,0,-1.00005,-48.820035,228.37471)" d="M346.13938 85.04128C346.13938 88.34268 343.46315 91.01894 340.1617 91.01894 336.8603 91.01894 334.18406 88.34268 334.18406 85.04128 334.18406 81.73985 336.8603 79.06361 340.1617 79.06361 343.46315 79.06361 346.13938 81.73985 346.13938 85.04128ZM340.1617 85.04128" fill="#0000ff"/>
<path transform="matrix(1.00003,0,0,-1.00005,-48.820035,228.37471)" d="M346.13938 102.04953C346.13938 105.35095 343.46315 108.02719 340.1617 108.02719 336.8603 108.02719 334.18406 105.35095 334.18406 102.04953 334.18406 98.74812 336.8603 96.07187 340.1617 96.07187 343.46315 96.07187 346.13938 98.74812 346.13938 102.04953ZM340.1617 102.04953" fill="#0000ff"/>
<path transform="matrix(1.00003,0,0,-1.00005,-48.820035,228.37471)" d="M346.13938 119.0578C346.13938 122.3592 343.46315 125.03546 340.1617 125.03546 336.8603 125.03546 334.18406 122.3592 334.18406 119.0578 334.18406 115.75638 336.8603 113.08014 340.1617 113.08014 343.46315 113.08014 346.13938 115.75638 346.13938 119.0578ZM340.1617 119.0578" fill="#0000ff"/>
<path transform="matrix(1.00003,0,0,-1.00005,-48.820035,228.37471)" d="M346.13938 136.06606C346.13938 139.36748 343.46315 142.04372 340.1617 142.04372 336.8603 142.04372 334.18406 139.36748 334.18406 136.06606 334.18406 132.76465 336.8603 130.0884 340.1617 130.0884 343.46315 130.0884 346.13938 132.76465 346.13938 136.06606ZM340.1617 136.06606" fill="#0000ff"/>
<path transform="matrix(1.00003,0,0,-1.00005,-48.820035,228.37471)" d="M346.13938 153.07433C346.13938 156.37574 343.46315 159.05199 340.1617 159.05199 336.8603 159.05199 334.18406 156.37574 334.18406 153.07433 334.18406 149.7729 336.8603 147.09667 340.1617 147.09667 343.46315 147.09667 346.13938 149.7729 346.13938 153.07433ZM340.1617 153.07433" fill="#0000ff"/>
<path transform="matrix(1.00003,0,0,-1.00005,-48.820035,228.37471)" d="M346.13938 170.08257C346.13938 173.38399 343.46315 176.06023 340.1617 176.06023 336.8603 176.06023 334.18406 173.38399 334.18406 170.08257 334.18406 166.78116 336.8603 164.1049 340.1617 164.1049 343.46315 164.1049 346.13938 166.78116 346.13938 170.08257ZM340.1617 170.08257" fill="#0000ff"/>
<path transform="matrix(1.00003,0,0,-1.00005,-48.820035,228.37471)" d="M346.13938 187.09084C346.13938 190.39225 343.46315 193.0685 340.1617 193.0685 336.8603 193.0685 334.18406 190.39225 334.18406 187.09084 334.18406 183.78942 336.8603 181.11318 340.1617 181.11318 343.46315 181.11318 346.13938 183.78942 346.13938 187.09084ZM340.1617 187.09084" fill="#0000ff"/>
<path transform="matrix(1.00003,0,0,-1.00005,-48.820035,228.37471)" d="M346.13938 204.09909C346.13938 207.40052 343.46315 210.07675 340.1617 210.07675 336.8603 210.07675 334.18406 207.40052 334.18406 204.09909 334.18406 200.79769 336.8603 198.12143 340.1617 198.12143 343.46315 198.12143 346.13938 200.79769 346.13938 204.09909ZM340.1617 204.09909" fill="#00ff00"/>
</svg>
