<svg xmlns="http://www.w3.org/2000/svg" xmlns:xlink="http://www.w3.org/1999/xlink" xmlns:inkscape="http://www.inkscape.org/namespaces/inkscape" version="1.1" width="108" height="144" viewBox="0 0 108 144">
<defs>
<path id="font_1_51" d="M.45700074 .16764832C.45700074 .20367432 .44599916 .24871826 .4079895 .29074098 .3889923 .31176759 .37298585 .32176209 .30899049 .36180116 .3809967 .39881898 .42999269 .4508667 .42999269 .51690676 .42999269 .6089783 .34098817 .6660156 .25 .6660156 .1499939 .6660156 .068984989 .5919647 .068984989 .49890138 .068984989 .48088075 .070999149 .43585206 .11299133 .38882447 .12399292 .3768158 .16099549 .35179139 .18598938 .33477784 .12799073 .30575563 .041992189 .24971009 .041992189 .15063477 .041992189 .044555665 .14399719-.022460938 .24899292-.022460938 .3619995-.022460938 .45700074 .060577394 .45700074 .16764832M.38598634 .51690676C.38598634 .45986939 .34700013 .41183473 .2869873 .3768158L.16299439 .4568634C.116989139 .4868927 .11299133 .5209198 .11299133 .53793337 .11299133 .5989685 .17799378 .64100649 .24899292 .64100649 .32199098 .64100649 .38598634 .588974 .38598634 .51690676M.40699769 .13162232C.40699769 .05757141 .33198548 .0055389406 .25 .0055389406 .1639862 .0055389406 .09199524 .06758118 .09199524 .15063477 .09199524 .2086792 .12399292 .2727356 .20899964 .31976319L.33198548 .24171448C.3600006 .22268677 .40699769 .19267273 .40699769 .13162232Z"/>
<path id="font_1_107" d="M.44898988 .17396546H.42399598C.4189911 .14398194 .4119873 .099990848 .4019928 .084991458 .394989 .07699585 .32899476 .07699585 .30699159 .07699585H.1269989L.23298645 .17996216C.3889923 .31803895 .44898988 .37210084 .44898988 .47216798 .44898988 .5860901 .35899354 .6660156 .23699951 .6660156 .12399292 .6660156 .049987794 .57411196 .049987794 .48516847 .049987794 .4291687 .099990848 .4291687 .102996829 .4291687 .11999512 .4291687 .15499878 .44117738 .15499878 .48217774 .15499878 .5081787 .13699341 .5341797 .101989749 .5341797 .09399414 .5341797 .09199524 .5341797 .08898926 .5331726 .11199951 .59806826 .1659851 .63500979 .22399903 .63500979 .31498719 .63500979 .35798646 .5541382 .35798646 .47216798 .35798646 .39196778 .30799867 .31297303 .25299073 .25097657L.06098938 .036987306C.049987794 .025985718 .049987794 .023986817 .049987794 0H.42099L.44898988 .17396546Z"/>
<path id="font_1_57" d="M.47099305 .16503906V.19602967H.37098695V.6507721C.37098695 .6707611 .37098695 .6767578 .35499574 .6767578 .34599305 .6767578 .34298707 .6767578 .33499146 .6647644L.027999878 .19602967V.16503906H.2939911V.07800293C.2939911 .041992189 .2919922 .0309906 .21798706 .0309906H.19699097V0C.23799134 .0029907227 .2899933 .0029907227 .33198548 .0029907227 .37399293 .0029907227 .4269867 .0029907227 .46798707 0V.0309906H.44699098C.37298585 .0309906 .37098695 .041992189 .37098695 .07800293V.16503906H.47099305M.2999878 .19602967H.055999757L.2999878 .56881716V.19602967Z"/>
<path id="font_1_82" d="M.4189911 0V.0309906H.3869934C.29699708 .0309906 .2939911 .041992189 .2939911 .07902527V.64012148C.2939911 .6640167 .2939911 .6660156 .2709961 .6660156 .20899964 .60227969 .12098694 .60227969 .08898926 .60227969V.57128909C.10899353 .57128909 .16799927 .57128909 .21998596 .5972748V.07902527C.21998596 .042999269 .21699524 .0309906 .1269989 .0309906H.09498596V0C.12998963 .0029907227 .21699524 .0029907227 .25698854 .0029907227 .29699708 .0029907227 .38398744 .0029907227 .4189911 0Z"/>
</defs>
<use data-text="8" xlink:href="#font_1_51" transform="matrix(9.963098,0,0,-9.962899,34.26776,7.555867)"/>
<use data-text="8" xlink:href="#font_1_51" transform="matrix(9.963098,0,0,-9.962899,39.249315,7.555867)"/>
<path transform="matrix(1.00005,0,0,-1.00003,39.24901,4.3477709)" stroke-width=".3985" stroke-linecap="butt" stroke-miterlimit="10" stroke-linejoin="miter" fill="none" stroke="#000000" d="M-19.5418-42.52022C-19.5418-37.6573-23.48387-33.71523-28.34679-33.71523-33.2097-33.71523-37.15178-37.6573-37.15178-42.52022-37.15178-47.38313-33.2097-51.3252-28.34679-51.3252-23.48387-51.3252-19.5418-47.38313-19.5418-42.52022ZM-28.34679-42.52022"/>
<use data-text="2" xlink:href="#font_1_107" transform="matrix(9.963098,0,0,-9.962899,8.410469,50.18715)"/>
<path transform="matrix(1.00005,0,0,-1.00003,39.24901,4.3477709)" stroke-width=".3985" stroke-linecap="butt" stroke-miterlimit="10" stroke-linejoin="miter" fill="none" stroke="#000000" d="M-4.62892-6.94699-23.35239-35.02856"/>
<use data-text="4" xlink:href="#font_1_57" transform="matrix(9.963098,0,0,-9.962899,62.615175,50.24215)"/>
<use data-text="4" xlink:href="#font_1_57" transform="matrix(9.963098,0,0,-9.962899,67.596729,50.24215)"/>
<path transform="matrix(1.00005,0,0,-1.00003,39.24901,4.3477709)" stroke-width=".3985" stroke-linecap="butt" stroke-miterlimit="10" stroke-linejoin="miter" fill="none" stroke="#000000" d="M4.63008-6.94699 23.75368-35.628"/>
<path transform="matrix(1.00005,0,0,-1.00003,39.24901,4.3477709)" stroke-width=".3985" stroke-linecap="butt" stroke-miterlimit="10" stroke-linejoin="miter" fill="none" stroke="#000000" d="M22.97844-85.04044C22.97844-80.17752 19.03636-76.23546 14.17345-76.23546 9.31053-76.23546 5.36847-80.17752 5.36847-85.04044 5.36847-89.90335 9.31053-93.84543 14.17345-93.84543 19.03636-93.84543 22.97844-89.90335 22.97844-85.04044ZM14.17345-85.04044"/>
<use data-text="2" xlink:href="#font_1_107" transform="matrix(9.963098,0,0,-9.962899,50.932596,92.70843)"/>
<path transform="matrix(1.00005,0,0,-1.00003,39.24901,4.3477709)" stroke-width=".3985" stroke-linecap="butt" stroke-miterlimit="10" stroke-linejoin="miter" fill="none" stroke="#000000" d="M26.0502-49.41243 17.02066-76.49867"/>
<use data-text="2" xlink:href="#font_1_107" transform="matrix(9.963098,0,0,-9.962899,76.78989,92.70843)"/>
<use data-text="2" xlink:href="#font_1_107" transform="matrix(9.963098,0,0,-9.962899,81.77144,92.70843)"/>
<path transform="matrix(1.00005,0,0,-1.00003,39.24901,4.3477709)" stroke-width=".3985" stroke-linecap="butt" stroke-miterlimit="10" stroke-linejoin="miter" fill="none" stroke="#000000" d="M30.64336-49.41243 40.242-78.20302"/>
<path transform="matrix(1.00005,0,0,-1.00003,39.24901,4.3477709)" stroke-width=".3985" stroke-linecap="butt" stroke-miterlimit="10" stroke-linejoin="miter" fill="none" stroke="#000000" d="M37.15187-127.56065C37.15187-122.69774 33.2098-118.75568 28.34688-118.75568 23.48396-118.75568 19.54189-122.69774 19.54189-127.56065 19.54189-132.42357 23.48396-136.36565 28.34688-136.36565 33.2098-136.36565 37.15187-132.42357 37.15187-127.56065ZM28.34688-127.56065"/>
<use data-text="2" xlink:href="#font_1_107" transform="matrix(9.963098,0,0,-9.962899,65.1063,135.22972)"/>
<path transform="matrix(1.00005,0,0,-1.00003,39.24901,4.3477709)" stroke-width=".3985" stroke-linecap="butt" stroke-miterlimit="10" stroke-linejoin="miter" fill="none" stroke="#000000" d="M40.2419-91.87787 31.19409-119.01889"/>
<path transform="matrix(1.00005,0,0,-1.00003,39.24901,4.3477709)" stroke-width=".3985" stroke-linecap="butt" stroke-miterlimit="10" stroke-linejoin="miter" fill="none" stroke="#000000" d="M67.31999-127.56065C67.31999-121.69185 62.5625-116.93436 56.6937-116.93436 50.82487-116.93436 46.06738-121.69185 46.06738-127.56065 46.06738-133.42948 50.82487-138.18697 56.6937-138.18697 62.5625-138.18697 67.31999-133.42948 67.31999-127.56065ZM56.6937-127.56065"/>
<use data-text="1" xlink:href="#font_1_82" transform="matrix(9.963098,0,0,-9.962899,90.96359,135.22972)"/>
<use data-text="1" xlink:href="#font_1_82" transform="matrix(9.963098,0,0,-9.962899,95.945148,135.22972)"/>
<path transform="matrix(1.00005,0,0,-1.00003,39.24901,4.3477709)" stroke-width=".3985" stroke-linecap="butt" stroke-miterlimit="10" stroke-linejoin="miter" fill="none" stroke="#000000" d="M44.79874-91.87787 53.27057-117.29112"/>
</svg>
