<svg xmlns="http://www.w3.org/2000/svg" xmlns:xlink="http://www.w3.org/1999/xlink" xmlns:inkscape="http://www.inkscape.org/namespaces/inkscape" version="1.1" width="95" height="95" viewBox="0 0 95 95">
<path transform="matrix(1.00006,0,0,-1.00005,2.2949982,92.71183)" d="M0 0V68.0326H68.0326V0ZM68.0326 68.0326" fill="#b3ffb3"/>
<path transform="matrix(1.00006,0,0,-1.00005,2.2949982,92.71183)" stroke-width=".79701" stroke-linecap="butt" stroke-miterlimit="10" stroke-linejoin="miter" fill="none" stroke="#0000ff" d="M0 0V90.71013H90.71013V0ZM90.71013 90.71013"/>
<path transform="matrix(1.00006,0,0,-1.00005,2.2949982,92.71183)" stroke-width=".3985" stroke-linecap="butt" stroke-miterlimit="10" stroke-linejoin="miter" fill="none" stroke="#7f807f" d="M0 0H90.71013M0 22.67752H90.71013M0 45.35506H90.71013M0 68.0326H90.71013M0 90.70215H90.71013M0 0V90.71013M22.67752 0V90.71013M45.35506 0V90.71013M68.0326 0V90.71013M90.70215 0V90.71013M90.71013 90.71013"/>
</svg>
