<svg xmlns="http://www.w3.org/2000/svg" xmlns:xlink="http://www.w3.org/1999/xlink" xmlns:inkscape="http://www.inkscape.org/namespaces/inkscape" version="1.1" width="178" height="108" viewBox="0 0 178 108">
<defs>
<path id="font_1_82" d="M.49398805 0V.04699707H.35398866V.6231079C.35398866 .6452179 .35398866 .65527346 .32798768 .65527346 .31698609 .65527346 .31498719 .65527346 .30599977 .6482239 .22898865 .5909424 .12599182 .5909424 .10499573 .5909424H.084991458V.5439453H.10499573C.12098694 .5439453 .17599488 .54493716 .23498535 .5639343V.04699707H.09599304V0C.13999939 .0029907227 .24598694 .0029907227 .29499818 .0029907227 .34399415 .0029907227 .44999696 .0029907227 .49398805 0Z"/>
<path id="font_1_107" d="M.5169983 .22200012H.46998597C.46699525 .20199585 .45799256 .13798523 .44400025 .1309967 .43299867 .125 .35798646 .125 .34199525 .125H.19499207C.24198914 .1639862 .2939911 .20698548 .33898927 .23999024 .45298768 .3242035 .5169983 .37124635 .5169983 .4663086 .5169983 .5812988 .41299439 .65527346 .27198792 .65527346 .15098572 .65527346 .056991579 .593277 .056991579 .50331118 .056991579 .44430543 .10499573 .42930604 .1289978 .42930604 .16099549 .42930604 .20098877 .4513092 .20098877 .50131228 .20098877 .55329897 .15899658 .5693054 .14399719 .5733032 .17298889 .5972748 .21099854 .6082611 .24699402 .6082611 .33299256 .6082611 .3789978 .54029849 .3789978 .4653015 .3789978 .39627076 .34098817 .3282013 .2709961 .25712586L.069992069 .051986696C.056991579 .039993287 .056991579 .037994386 .056991579 .017990113V0H.48599244L.5169983 .22200012Z"/>
<path id="font_1_43" d="M.47799684 .117126468C.47799684 .13113404 .46398927 .13113404 .45399476 .13113404 .43598939 .13113404 .43499757 .12913513 .42999269 .11613464 .4039917 .053131105 .35598756 .03413391 .30499269 .03413391 .1659851 .03413391 .1659851 .18112183 .1659851 .22712708 .1659851 .28312684 .1659851 .41311646 .29499818 .41311646 .32998658 .41311646 .34700013 .41011048 .3600006 .40711976 .34199525 .39111329 .33999635 .3701172 .33999635 .3611145 .33999635 .3171234 .375 .29811097 .4019928 .29811097 .43299867 .29811097 .46499635 .3191223 .46499635 .3611145 .46499635 .44711305 .34899903 .453125 .29100038 .453125 .11199951 .45314027 .037994386 .33813478 .037994386 .22213745 .037994386 .08912659 .13198853-.005859375 .28599549-.005859375 .44799806-.005859375 .47799684 .11013794 .47799684 .117126468Z"/>
<path id="font_1_75" d="M.93499758 0V.04699707H.8659973V.30613709C.8659973 .40919496 .8149872 .4501953 .71199038 .4501953 .62098696 .4501953 .56900027 .40019227 .54299929 .3541565 .522995 .44718934 .43099977 .4501953 .3929901 .4501953 .30599977 .4501953 .24899292 .40518189 .21699524 .3421631V.4501953L.04499817 .4423828V.39537049C.10699463 .39537049 .11399841 .39537049 .11399841 .3563385V.04699707H.04499817V0L.17098999 .0029907227 .29699708 0V.04699707H.22799683V.2562256C.22799683 .3653412 .31498719 .41436769 .3769989 .41436769 .41099549 .41436769 .43299867 .39437867 .43299867 .31729127V.04699707H.3639984V0L.48999024 .0029907227 .6159973 0V.04699707H.5469971V.2562256C.5469971 .3653412 .6339874 .41436769 .69599917 .41436769 .7299957 .41436769 .7519989 .39437867 .7519989 .31729127V.04699707H.68299868V0L.8089905 .0029907227 .93499758 0Z"/>
<path id="font_1_56" d="M.5169983 .20121765C.5169983 .31617738 .43798829 .4091797 .2899933 .4091797 .26098634 .4091797 .20799256 .4061737 .16099549 .37417604V.5060425C.18899536 .5010376 .19999695 .4990387 .23399353 .4990387 .37998963 .4990387 .47200013 .6120453 .47200013 .637146 .47200013 .64419558 .46998597 .65527346 .45799256 .65527346 .45498658 .65527346 .45399476 .65527346 .44299317 .6512451 .38598634 .62908938 .33299256 .6230469 .2899933 .6230469 .21398926 .6230469 .16099549 .6421814 .1349945 .6512451 .12599182 .65426638 .125 .65527346 .12199402 .65527346 .10798645 .65527346 .10798645 .64419558 .10798645 .6280823V.33618165C.10798645 .31817628 .10798645 .30519105 .12998963 .30519105 .14299011 .30519105 .14498902 .30918885 .1519928 .31718446 .19099427 .36317445 .24499512 .37316896 .28599549 .37316896 .375 .37316896 .375 .28518678 .375 .20521546 .375 .13223267 .375 .03225708 .25498963 .03225708 .23098755 .03225708 .16799927 .037246705 .12599182 .09423828 .1619873 .09648132 .19099427 .1204834 .19099427 .16148377 .19099427 .21447754 .147995 .22949219 .12399292 .22949219 .10899353 .22949219 .056991579 .2204895 .056991579 .15948487 .056991579 .074417117 .1349945-.0107421879 .25898744-.0107421879 .4189911-.0107421879 .5169983 .079437259 .5169983 .20147705V.20121765Z"/>
<path id="font_1_57" d="M.5419922 0V.04699707H.44499208V.15611267H.5419922V.203125H.44499208V.62423709C.44499208 .6512451 .44299317 .65625 .4149933 .65625 .3939972 .65625 .3929901 .6552429 .3809967 .6402283L.03199768 .203125V.15611267H.31999208V.04699707H.20799256V0C.24598694 .0029907227 .33699037 .0029907227 .37998963 .0029907227 .41999818 .0029907227 .5069885 .0029907227 .5419922 0M.33099366 .203125H.083999637L.33099366 .51319888V.203125Z"/>
</defs>
<path transform="matrix(1.00002,0,0,-1,2.29467,87.038)" stroke-width=".79701" stroke-linecap="butt" stroke-miterlimit="10" stroke-linejoin="miter" fill="none" stroke="#000000" d="M0 0H113.38724V56.69362H0Z"/>
<path transform="matrix(1.00002,0,0,-1,2.29467,87.038)" stroke-width=".79701" stroke-linecap="butt" stroke-miterlimit="10" stroke-linejoin="miter" fill="none" stroke="#000000" d="M28.3468 28.3468H141.73404V85.04042H28.3468Z"/>
<path transform="matrix(1.00002,0,0,-1,2.29467,87.038)" d="M0 0H113.38724L141.73404 28.3468H28.3468Z" fill="#b3b3ff"/>
<path transform="matrix(1.00002,0,0,-1,2.29467,87.038)" stroke-width=".79701" stroke-linecap="butt" stroke-miterlimit="10" stroke-linejoin="miter" fill="none" stroke="#000000" d="M0 0H113.38724V56.69362H0Z"/>
<path transform="matrix(1.00002,0,0,-1,2.29467,87.038)" stroke-width=".79701" stroke-linecap="butt" stroke-miterlimit="10" stroke-linejoin="miter" fill="none" stroke="#000000" d="M0 0 28.3468 28.3468"/>
<path transform="matrix(1.00002,0,0,-1,2.29467,87.038)" stroke-width=".79701" stroke-linecap="butt" stroke-miterlimit="10" stroke-linejoin="miter" fill="none" stroke="#000000" d="M113.38724 0 141.73404 28.3468"/>
<path transform="matrix(1.00002,0,0,-1,2.29467,87.038)" stroke-width=".79701" stroke-linecap="butt" stroke-miterlimit="10" stroke-linejoin="miter" fill="none" stroke="#000000" d="M113.38724 56.69362 141.73404 85.04042"/>
<path transform="matrix(1.00002,0,0,-1,2.29467,87.038)" stroke-width=".79701" stroke-linecap="butt" stroke-miterlimit="10" stroke-linejoin="miter" fill="none" stroke="#000000" d="M0 56.69362 28.3468 85.04042"/>
<path transform="matrix(1.00002,0,0,-1,2.29467,87.038)" stroke-width=".79701" stroke-linecap="butt" stroke-miterlimit="10" stroke-linejoin="miter" fill="none" stroke="#ff0000" d="M.70735-8.50412H112.67987"/>
<path transform="matrix(-1.00002,-0,0,1,3.0020343,95.54212)" stroke-width=".6376" stroke-linecap="round" stroke-linejoin="round" fill="none" stroke="#ff0000" d="M-1.55415 2.0722C-1.42464 1.29512 0 .1295 .38852 0 0-.1295-1.42464-1.29512-1.55415-2.0722"/>
<path transform="matrix(1.00002,0,0,-1,114.9768,95.54212)" stroke-width=".6376" stroke-linecap="round" stroke-linejoin="round" fill="none" stroke="#ff0000" d="M-1.55415 2.0722C-1.42464 1.29512 0 .1295 .38852 0 0-.1295-1.42464-1.29512-1.55415-2.0722"/>
<use data-text="1" xlink:href="#font_1_82" transform="matrix(9.962799,0,0,-9.9626,45.942544,105.787)" fill="#ff0000"/>
<use data-text="2" xlink:href="#font_1_107" transform="matrix(9.962799,0,0,-9.9626,51.67115,105.787)" fill="#ff0000"/>
<use data-text="c" xlink:href="#font_1_43" transform="matrix(9.962799,0,0,-9.9626,57.399759,105.787)" fill="#ff0000"/>
<use data-text="m" xlink:href="#font_1_75" transform="matrix(9.962799,0,0,-9.9626,62.490747,105.787)" fill="#ff0000"/>
<path transform="matrix(1.00002,0,0,-1,2.29467,87.038)" stroke-width=".79701" stroke-linecap="butt" stroke-miterlimit="10" stroke-linejoin="miter" fill="none" stroke="#0000ff" d="M150.23816 29.05417V84.33305"/>
<path transform="matrix(0,1,1.00002,0,152.53583,57.983835)" stroke-width=".6376" stroke-linecap="round" stroke-linejoin="round" fill="none" stroke="#0000ff" d="M-1.55415 2.0722C-1.42464 1.29512 0 .1295 .38852 0 0-.1295-1.42464-1.29512-1.55415-2.0722"/>
<path transform="matrix(0,-1,-1.00002,-0,152.53583,2.7049485)" stroke-width=".6376" stroke-linecap="round" stroke-linejoin="round" fill="none" stroke="#0000ff" d="M-1.55415 2.0722C-1.42464 1.29512 0 .1295 .38852 0 0-.1295-1.42464-1.29512-1.55415-2.0722"/>
<use data-text="5" xlink:href="#font_1_56" transform="matrix(9.962799,0,0,-9.9626,156.25476,33.552003)" fill="#0000ff"/>
<use data-text="c" xlink:href="#font_1_43" transform="matrix(9.962799,0,0,-9.9626,161.98337,33.552003)" fill="#0000ff"/>
<use data-text="m" xlink:href="#font_1_75" transform="matrix(9.962799,0,0,-9.9626,167.07434,33.552003)" fill="#0000ff"/>
<path transform="matrix(1.00002,0,0,-1,2.29467,87.038)" stroke-width=".79701" stroke-linecap="butt" stroke-miterlimit="10" stroke-linejoin="miter" fill="none" stroke="#00b300" d="M113.8874-8.00394 141.23387 19.3425"/>
<path transform="matrix(-.70711418,.7071,.70711418,.7071,116.18437,95.04192)" stroke-width=".6376" stroke-linecap="round" stroke-linejoin="round" fill="none" stroke="#00b300" d="M-1.55415 2.0722C-1.42464 1.29512 0 .1295 .38852 0 0-.1295-1.42464-1.29512-1.55415-2.0722"/>
<path transform="matrix(.70711418,-.7071,-.70711418,-.7071,143.53134,67.695529)" stroke-width=".6376" stroke-linecap="round" stroke-linejoin="round" fill="none" stroke="#00b300" d="M-1.55415 2.0722C-1.42464 1.29512 0 .1295 .38852 0 0-.1295-1.42464-1.29512-1.55415-2.0722"/>
<use data-text="4" xlink:href="#font_1_57" transform="matrix(9.962799,0,0,-9.9626,133.5773,91.623)" fill="#00b300"/>
<use data-text="c" xlink:href="#font_1_43" transform="matrix(9.962799,0,0,-9.9626,139.30591,91.623)" fill="#00b300"/>
<use data-text="m" xlink:href="#font_1_75" transform="matrix(9.962799,0,0,-9.9626,144.39688,91.623)" fill="#00b300"/>
</svg>
