<svg xmlns="http://www.w3.org/2000/svg" xmlns:xlink="http://www.w3.org/1999/xlink" xmlns:inkscape="http://www.inkscape.org/namespaces/inkscape" version="1.1" width="362" height="352" viewBox="0 0 362 352">
<defs>
<path id="font_1_63" d="M.5349884 0V.0309906C.48298646 .0309906 .45799256 .0309906 .45700074 .061019899V.25221253C.45700074 .3383026 .45700074 .36932374 .42599488 .405365 .4119873 .42237855 .3789978 .4423828 .32099916 .4423828 .23699951 .4423828 .19299317 .38233949 .1769867 .34629823H.17599488V.69433596L.03199768 .6826172V.6516113C.101989749 .6516113 .10998535 .64463809 .10998535 .59580996V.076034549C.10998535 .0309906 .09899902 .0309906 .03199768 .0309906V0L.14498902 .0029907227 .25698854 0V.0309906C.18998719 .0309906 .1789856 .0309906 .1789856 .076034549V.2602234C.1789856 .36431886 .25 .42037965 .31399537 .42037965 .3769989 .42037965 .3880005 .36631776 .3880005 .30926515V.076034549C.3880005 .0309906 .3769989 .0309906 .30999757 .0309906V0L.4229889 .0029907227 .5349884 0Z"/>
</defs>
<path transform="matrix(1.00008,0,0,-1.00005,12.800346,342.1713)" d="M0 56.69362H56.69362V113.38724H113.38724V170.08086H170.08086V226.77448H226.77448V283.4681H283.4681V340.1617H340.1617V0H0V56.69362" fill="#ffffff"/>
<path transform="matrix(1.00008,0,0,-1.00005,12.800346,342.1713)" stroke-width=".79701" stroke-linecap="butt" stroke-miterlimit="10" stroke-linejoin="miter" fill="none" stroke="#000000" d="M0 56.69362H56.69362V113.38724H113.38724V170.08086H170.08086V226.77448H226.77448V283.4681H283.4681V340.1617H340.1617V0H0V56.69362"/>
<path transform="matrix(1.00008,0,0,-1.00005,12.800346,342.1713)" d="M-8.50412 0V55.98625" fill="#ffffff"/>
<path transform="matrix(1.00008,0,0,-1.00005,12.800346,342.1713)" stroke-width=".79701" stroke-linecap="butt" stroke-miterlimit="10" stroke-linejoin="miter" fill="none" stroke="#000000" d="M-8.50412 0V55.98625"/>
<path transform="matrix(0,-1.00005,-1.00008,-0,4.2955467,286.18226)" stroke-width=".6376" stroke-linecap="round" stroke-linejoin="round" fill="none" stroke="#000000" d="M-1.55415 2.0722C-1.42464 1.29512 0 .1295 .38852 0 0-.1295-1.42464-1.29512-1.55415-2.0722"/>
<path transform="matrix(1.00008,0,0,-1.00005,12.800346,342.1713)" d="M48.18947 56.69362V112.67987" fill="#ffffff"/>
<path transform="matrix(1.00008,0,0,-1.00005,12.800346,342.1713)" stroke-width=".79701" stroke-linecap="butt" stroke-miterlimit="10" stroke-linejoin="miter" fill="none" stroke="#000000" d="M48.18947 56.69362V112.67987"/>
<path transform="matrix(0,-1.00005,-1.00008,-0,60.993669,229.4858)" stroke-width=".6376" stroke-linecap="round" stroke-linejoin="round" fill="none" stroke="#000000" d="M-1.55415 2.0722C-1.42464 1.29512 0 .1295 .38852 0 0-.1295-1.42464-1.29512-1.55415-2.0722"/>
<path transform="matrix(1.00008,0,0,-1.00005,12.800346,342.1713)" d="M104.88309 113.38724V169.37349" fill="#ffffff"/>
<path transform="matrix(1.00008,0,0,-1.00005,12.800346,342.1713)" stroke-width=".79701" stroke-linecap="butt" stroke-miterlimit="10" stroke-linejoin="miter" fill="none" stroke="#000000" d="M104.88309 113.38724V169.37349"/>
<path transform="matrix(0,-1.00005,-1.00008,-0,117.691829,172.78936)" stroke-width=".6376" stroke-linecap="round" stroke-linejoin="round" fill="none" stroke="#000000" d="M-1.55415 2.0722C-1.42464 1.29512 0 .1295 .38852 0 0-.1295-1.42464-1.29512-1.55415-2.0722"/>
<path transform="matrix(1.00008,0,0,-1.00005,12.800346,342.1713)" d="M161.5767 170.08086V226.06711" fill="#ffffff"/>
<path transform="matrix(1.00008,0,0,-1.00005,12.800346,342.1713)" stroke-width=".79701" stroke-linecap="butt" stroke-miterlimit="10" stroke-linejoin="miter" fill="none" stroke="#000000" d="M161.5767 170.08086V226.06711"/>
<path transform="matrix(0,-1.00005,-1.00008,-0,174.38999,116.092899)" stroke-width=".6376" stroke-linecap="round" stroke-linejoin="round" fill="none" stroke="#000000" d="M-1.55415 2.0722C-1.42464 1.29512 0 .1295 .38852 0 0-.1295-1.42464-1.29512-1.55415-2.0722"/>
<path transform="matrix(1.00008,0,0,-1.00005,12.800346,342.1713)" d="M218.27034 226.77448V282.76075" fill="#ffffff"/>
<path transform="matrix(1.00008,0,0,-1.00005,12.800346,342.1713)" stroke-width=".79701" stroke-linecap="butt" stroke-miterlimit="10" stroke-linejoin="miter" fill="none" stroke="#000000" d="M218.27034 226.77448V282.76075"/>
<path transform="matrix(0,-1.00005,-1.00008,-0,231.08814,59.396425)" stroke-width=".6376" stroke-linecap="round" stroke-linejoin="round" fill="none" stroke="#000000" d="M-1.55415 2.0722C-1.42464 1.29512 0 .1295 .38852 0 0-.1295-1.42464-1.29512-1.55415-2.0722"/>
<path transform="matrix(1.00008,0,0,-1.00005,12.800346,342.1713)" d="M274.96397 283.4681V339.45436" fill="#ffffff"/>
<path transform="matrix(1.00008,0,0,-1.00005,12.800346,342.1713)" stroke-width=".79701" stroke-linecap="butt" stroke-miterlimit="10" stroke-linejoin="miter" fill="none" stroke="#000000" d="M274.96397 283.4681V339.45436"/>
<path transform="matrix(0,-1.00005,-1.00008,-0,287.78633,2.6999818)" stroke-width=".6376" stroke-linecap="round" stroke-linejoin="round" fill="none" stroke="#000000" d="M-1.55415 2.0722C-1.42464 1.29512 0 .1295 .38852 0 0-.1295-1.42464-1.29512-1.55415-2.0722"/>
<path transform="matrix(1.00008,0,0,-1.00005,12.800346,342.1713)" d="M0 51.02432H55.98625" fill="#ffffff"/>
<path transform="matrix(1.00008,0,0,-1.00005,12.800346,342.1713)" stroke-width=".79701" stroke-linecap="butt" stroke-miterlimit="10" stroke-linejoin="miter" fill="none" stroke="#000000" d="M0 51.02432H55.98625"/>
<path transform="matrix(1.00008,0,0,-1.00005,68.79108,291.14445)" stroke-width=".6376" stroke-linecap="round" stroke-linejoin="round" fill="none" stroke="#000000" d="M-1.55415 2.0722C-1.42464 1.29512 0 .1295 .38852 0 0-.1295-1.42464-1.29512-1.55415-2.0722"/>
<path transform="matrix(1.00008,0,0,-1.00005,12.800346,342.1713)" d="M56.69362 107.71794H112.67987" fill="#ffffff"/>
<path transform="matrix(1.00008,0,0,-1.00005,12.800346,342.1713)" stroke-width=".79701" stroke-linecap="butt" stroke-miterlimit="10" stroke-linejoin="miter" fill="none" stroke="#000000" d="M56.69362 107.71794H112.67987"/>
<path transform="matrix(1.00008,0,0,-1.00005,125.48923,234.44797)" stroke-width=".6376" stroke-linecap="round" stroke-linejoin="round" fill="none" stroke="#000000" d="M-1.55415 2.0722C-1.42464 1.29512 0 .1295 .38852 0 0-.1295-1.42464-1.29512-1.55415-2.0722"/>
<path transform="matrix(1.00008,0,0,-1.00005,12.800346,342.1713)" d="M113.38724 164.41156H169.37349" fill="#ffffff"/>
<path transform="matrix(1.00008,0,0,-1.00005,12.800346,342.1713)" stroke-width=".79701" stroke-linecap="butt" stroke-miterlimit="10" stroke-linejoin="miter" fill="none" stroke="#000000" d="M113.38724 164.41156H169.37349"/>
<path transform="matrix(1.00008,0,0,-1.00005,182.18738,177.75153)" stroke-width=".6376" stroke-linecap="round" stroke-linejoin="round" fill="none" stroke="#000000" d="M-1.55415 2.0722C-1.42464 1.29512 0 .1295 .38852 0 0-.1295-1.42464-1.29512-1.55415-2.0722"/>
<path transform="matrix(1.00008,0,0,-1.00005,12.800346,342.1713)" d="M170.08086 221.10518H226.06711" fill="#ffffff"/>
<path transform="matrix(1.00008,0,0,-1.00005,12.800346,342.1713)" stroke-width=".79701" stroke-linecap="butt" stroke-miterlimit="10" stroke-linejoin="miter" fill="none" stroke="#000000" d="M170.08086 221.10518H226.06711"/>
<path transform="matrix(1.00008,0,0,-1.00005,238.88553,121.05507)" stroke-width=".6376" stroke-linecap="round" stroke-linejoin="round" fill="none" stroke="#000000" d="M-1.55415 2.0722C-1.42464 1.29512 0 .1295 .38852 0 0-.1295-1.42464-1.29512-1.55415-2.0722"/>
<path transform="matrix(1.00008,0,0,-1.00005,12.800346,342.1713)" d="M226.77448 277.7988H282.76075" fill="#ffffff"/>
<path transform="matrix(1.00008,0,0,-1.00005,12.800346,342.1713)" stroke-width=".79701" stroke-linecap="butt" stroke-miterlimit="10" stroke-linejoin="miter" fill="none" stroke="#000000" d="M226.77448 277.7988H282.76075"/>
<path transform="matrix(1.00008,0,0,-1.00005,295.5837,64.35861)" stroke-width=".6376" stroke-linecap="round" stroke-linejoin="round" fill="none" stroke="#000000" d="M-1.55415 2.0722C-1.42464 1.29512 0 .1295 .38852 0 0-.1295-1.42464-1.29512-1.55415-2.0722"/>
<path transform="matrix(1.00008,0,0,-1.00005,12.800346,342.1713)" d="M283.4681 334.49244H338.0369" fill="#ffffff"/>
<path transform="matrix(1.00008,0,0,-1.00005,12.800346,342.1713)" stroke-width=".79701" stroke-linecap="butt" stroke-miterlimit="10" stroke-linejoin="miter" fill="none" stroke="#000000" d="M283.4681 334.49244H338.0369"/>
<path transform="matrix(1.00008,0,0,-1.00005,350.8643,7.6621706)" stroke-width=".6376" stroke-linecap="round" stroke-linejoin="round" fill="none" stroke="#000000" d="M-1.55415 2.0722C-1.42464 1.29512 0 .1295 .38852 0 0-.1295-1.42464-1.29512-1.55415-2.0722"/>
<path transform="matrix(1.00008,0,0,-1.00005,12.800346,342.1713)" d="M0-5.66927H339.45436" fill="#ffffff"/>
<path transform="matrix(1.00008,0,0,-1.00005,12.800346,342.1713)" stroke-width=".79701" stroke-linecap="butt" stroke-miterlimit="10" stroke-linejoin="miter" fill="none" stroke="#000000" d="M0-5.66927H339.45436"/>
<path transform="matrix(1.00008,0,0,-1.00005,352.28187,347.84086)" stroke-width=".6376" stroke-linecap="round" stroke-linejoin="round" fill="none" stroke="#000000" d="M-1.55415 2.0722C-1.42464 1.29512 0 .1295 .38852 0 0-.1295-1.42464-1.29512-1.55415-2.0722"/>
<path transform="matrix(1.00008,0,0,-1.00005,12.800346,342.1713)" d="M345.831 0V339.45436" fill="#ffffff"/>
<path transform="matrix(1.00008,0,0,-1.00005,12.800346,342.1713)" stroke-width=".79701" stroke-linecap="butt" stroke-miterlimit="10" stroke-linejoin="miter" fill="none" stroke="#000000" d="M345.831 0V339.45436"/>
<path transform="matrix(0,-1.00005,-1.00008,-0,358.659,2.6999818)" stroke-width=".6376" stroke-linecap="round" stroke-linejoin="round" fill="none" stroke="#000000" d="M-1.55415 2.0722C-1.42464 1.29512 0 .1295 .38852 0 0-.1295-1.42464-1.29512-1.55415-2.0722"/>
<use data-text="h" xlink:href="#font_1_63" transform="matrix(9.963397,0,0,-9.963098,350.2193,203.88739)"/>
</svg>
