<svg xmlns="http://www.w3.org/2000/svg" xmlns:xlink="http://www.w3.org/1999/xlink" xmlns:inkscape="http://www.inkscape.org/namespaces/inkscape" version="1.1" width="285" height="212" viewBox="0 0 285 212">
<defs>
<path id="font_1_74" d="M1.0509949 0V.04699707H.94299319V.63853457H1.0509949V.6855469H.8299866C.80799868 .6855469 .7969971 .6855469 .7859955 .6605377L.54599 .13192749 .30599977 .6605377C.29499818 .6855469 .28399659 .6855469 .2619934 .6855469H.039993287V.63853457H.147995V.07597351C.147995 .05392456 .14698792 .05291748 .11898804 .049926759 .09498596 .04699707 .09298706 .04699707 .06498718 .04699707H.039993287V0C.07798767 .0029296876 .1349945 .0029296876 .17399597 .0029296876 .21598816 .0029907227 .2679901 .0029907227 .30899049 0V.04699707H.28399659C.2659912 .046920778 .24899292 .047927858 .23098755 .049926759 .20199585 .05291748 .20098877 .05392456 .20098877 .075927738V.6259308H.20199585L.47399903 .024917603C.48298646 .004989624 .49499513 0 .5059967 0 .526001 0 .5339966 .01499939 .5379944 .023986817L.81700137 .63853457H.81799319V.04699707H.70999148V0C.74598696 .0029296876 .83898928 .0029296876 .8799896 .0029296876 .92099 .0029907227 1.0149994 .0029907227 1.0509949 0Z"/>
<path id="font_1_66" d="M.28599549 0V.04699707H.22399903V.4501953L.049987794 .4423828V.39537049C.10899353 .39537049 .115997318 .39537049 .115997318 .3563385V.04699707H.04699707V0L.16899109 .0029907227 .28599549 0M.23799134 .60728457C.23799134 .6502838 .20298767 .6852875 .1599884 .6852875 .116989139 .6852875 .08198547 .6502838 .08198547 .60728457 .08198547 .5642853 .116989139 .5292969 .1599884 .5292969 .20298767 .5292969 .23799134 .5642853 .23799134 .60728457Z"/>
<path id="font_1_72" d="M.29299928 0V.04699707H.22399903V.69433596L.04699707 .6855469V.63853457C.10899353 .63853457 .115997318 .63853457 .115997318 .5995636V.04699707H.04699707V0L.16999817 .0029907227 .29299928 0Z"/>
<path id="font_1_50" d="M.49398805 .11706543C.49398805 .13504029 .47499085 .13504029 .46998597 .13504029 .45298768 .13504029 .45098878 .13005066 .44499208 .11405945 .42399598 .066101077 .36698915 .03413391 .3019867 .03413391 .16099549 .03413391 .1599884 .16700745 .1599884 .2179718H.46199037C.48399354 .2179718 .49398805 .2179718 .49398805 .2449646 .49398805 .27598573 .48799134 .34906007 .43798829 .3991089 .40098573 .43511964 .34799195 .453125 .2789917 .453125 .11898804 .453125 .03199768 .35005189 .03199768 .22497559 .03199768 .09107971 .13198853-.005859375 .29299928-.005859375 .45098878-.005859375 .49398805 .10006714 .49398805 .11706543M.39898683 .25097657H.1599884C.1619873 .29000855 .16299439 .3320465 .18399048 .36506654 .20999146 .4051056 .25 .41711427 .2789917 .41711427 .3959961 .41711427 .397995 .28599549 .39898683 .25097657Z"/>
<path id="font_1_105" d="M.38198854 .124176029V.17721558H.33499146V.12619019C.33499146 .058151246 .30299378 .03413391 .2749939 .03413391 .21699524 .03413391 .21699524 .09817505 .21699524 .1211853V.3973236H.36299134V.44433595H.21699524V.6357422H.16999817C.16899109 .53552249 .11999512 .43632508 .020996094 .43333436V.3973236H.102996829V.123184207C.102996829 .01612854 .18998719-.005859375 .26098634-.005859375 .33699037-.005859375 .38198854 .05114746 .38198854 .124176029Z"/>
<path id="font_2_82" d="M.4189911 0V.0309906H.3869934C.29699708 .0309906 .2939911 .041992189 .2939911 .07902527V.64012148C.2939911 .6640167 .2939911 .6660156 .2709961 .6660156 .20899964 .60227969 .12098694 .60227969 .08898926 .60227969V.57128909C.10899353 .57128909 .16799927 .57128909 .21998596 .5972748V.07902527C.21998596 .042999269 .21699524 .0309906 .1269989 .0309906H.09498596V0C.12998963 .0029907227 .21699524 .0029907227 .25698854 .0029907227 .29699708 .0029907227 .38398744 .0029907227 .4189911 0Z"/>
<path id="font_2_107" d="M.44898988 .17396546H.42399598C.4189911 .14398194 .4119873 .099990848 .4019928 .084991458 .394989 .07699585 .32899476 .07699585 .30699159 .07699585H.1269989L.23298645 .17996216C.3889923 .31803895 .44898988 .37210084 .44898988 .47216798 .44898988 .5860901 .35899354 .6660156 .23699951 .6660156 .12399292 .6660156 .049987794 .57411196 .049987794 .48516847 .049987794 .4291687 .099990848 .4291687 .102996829 .4291687 .11999512 .4291687 .15499878 .44117738 .15499878 .48217774 .15499878 .5081787 .13699341 .5341797 .101989749 .5341797 .09399414 .5341797 .09199524 .5341797 .08898926 .5331726 .11199951 .59806826 .1659851 .63500979 .22399903 .63500979 .31498719 .63500979 .35798646 .5541382 .35798646 .47216798 .35798646 .39196778 .30799867 .31297303 .25299073 .25097657L.06098938 .036987306C.049987794 .025985718 .049987794 .023986817 .049987794 0H.42099L.44898988 .17396546Z"/>
<path id="font_2_121" d="M.45999146 .31976319C.45999146 .39982606 .45498658 .47988893 .41999818 .5539398 .37399293 .65000918 .2919922 .6660156 .25 .6660156 .18998719 .6660156 .116989139 .64001467 .07598877 .54693606 .04399109 .47789 .038986207 .39982606 .038986207 .31976319 .038986207 .24472046 .042999269 .15464783 .083999637 .07859802 .1269989-.0024719239 .19999695-.022460938 .24899292-.022460938 .30299378-.022460938 .3789978-.0014648438 .4229889 .09359741 .45498658 .16265869 .45999146 .2407074 .45999146 .31976319M.3769989 .3317871C.3769989 .25672914 .3769989 .18867493 .3659973 .12461853 .35099793 .029556275 .2939911-.00047302247 .24899292-.00047302247 .20999146-.00047302247 .15098572 .024551392 .1329956 .12062073 .12199402 .18066406 .12199402 .2727356 .12199402 .3317871 .12199402 .39582826 .12199402 .46188355 .12998963 .5159149 .14898682 .63500979 .22399903 .64401248 .24899292 .64401248 .28199769 .64401248 .34799195 .6259918 .36698915 .52693179 .3769989 .47088624 .3769989 .39482118 .3769989 .3317871Z"/>
<path id="font_2_234" d="M.32598878 .5439453C.32598878 .62068179 .2639923 .6826172 .18798828 .6826172 .11099243 .6826172 .04899597 .62068179 .04899597 .5439453 .04899597 .46820069 .11099243 .40628053 .18798828 .40628053 .2639923 .40628053 .32598878 .46820069 .32598878 .5439453M.28599549 .5439453C.28599549 .49012757 .24198914 .44628907 .18798828 .44628907 .1329956 .44628907 .08898926 .49012757 .08898926 .5439453 .08898926 .5987549 .1329956 .64260867 .18798828 .64260867 .24198914 .64260867 .28599549 .5987549 .28599549 .5439453Z"/>
<path id="font_1_95" d="M.8580017 .09487915C.8580017 .11682129 .84399417 .11682129 .83399966 .11682129 .8129883 .11682129 .81199648 .1068573 .8109894 .09388733 .80599978 .04699707 .7769928 .024993897 .746994 .024993897 .68699648 .024993897 .6779938 .09587097 .6729889 .13778687 .67099 .14875794 .6629944 .21759033 .6619873 .22257996 .647995 .29241944 .59298709 .323349 .5499878 .3393402 .66600039 .36935426 .71699526 .43440248 .71699526 .5004425 .71699526 .6015167 .6069946 .6855469 .4189911 .6855469H.038986207V.63853457H.14698792V.04699707H.038986207V0C.07499695 .0029907227 .17298889 .0029907227 .21499634 .0029907227 .25698854 .0029907227 .35499574 .0029907227 .3909912 0V.04699707H.2829895V.32434083H.3999939C.4139862 .32434083 .45799256 .32434083 .4889984 .29042054 .5209961 .25550843 .5209961 .23654175 .5209961 .16371155 .5209961 .09786987 .5209961 .048980714 .59098818 .01499939 .6349945-.007003784 .69699099-.011001587 .73799136-.011001587 .8450012-.011001587 .8580017 .07891846 .8580017 .09487915M.56399539 .49943543C.56399539 .44340516 .56399539 .36035157 .39898683 .36035157H.2829895V.63853457H.40098573C.56199648 .63853457 .56399539 .56048586 .56399539 .49943543Z"/>
<path id="font_1_43" d="M.47799684 .117126468C.47799684 .13113404 .46398927 .13113404 .45399476 .13113404 .43598939 .13113404 .43499757 .12913513 .42999269 .11613464 .4039917 .053131105 .35598756 .03413391 .30499269 .03413391 .1659851 .03413391 .1659851 .18112183 .1659851 .22712708 .1659851 .28312684 .1659851 .41311646 .29499818 .41311646 .32998658 .41311646 .34700013 .41011048 .3600006 .40711976 .34199525 .39111329 .33999635 .3701172 .33999635 .3611145 .33999635 .3171234 .375 .29811097 .4019928 .29811097 .43299867 .29811097 .46499635 .3191223 .46499635 .3611145 .46499635 .44711305 .34899903 .453125 .29100038 .453125 .11199951 .45314027 .037994386 .33813478 .037994386 .22213745 .037994386 .08912659 .13198853-.005859375 .28599549-.005859375 .44799806-.005859375 .47799684 .11013794 .47799684 .117126468Z"/>
<path id="font_2_106" d="M.45700074 .17037964C.45700074 .252594 .3939972 .33088685 .2899933 .35191346 .37199403 .37893678 .42999269 .4490509 .42999269 .52809146 .42999269 .6100464 .34199525 .6660156 .24598694 .6660156 .14498902 .6660156 .068984989 .60606387 .068984989 .53009036 .068984989 .49710084 .09098816 .47808839 .11999512 .47808839 .15098572 .47808839 .17098999 .50009158 .17098999 .5290985 .17098999 .57910159 .12399292 .57910159 .10899353 .57910159 .13999939 .62802127 .20599365 .64100649 .24198914 .64100649 .2829895 .64100649 .33799745 .6190338 .33799745 .5290985 .33799745 .51708987 .33599855 .45906068 .30999757 .4149933 .27999879 .36691285 .24598694 .36390687 .22099304 .36291505 .21299744 .36190797 .18899536 .35990907 .18199158 .35990907 .17399597 .35890199 .16699219 .35791017 .16699219 .3479004 .16699219 .33691407 .17399597 .33691407 .19099427 .33691407H.23498535C.31698609 .33691407 .35398866 .2686615 .35398866 .17037964 .35398866 .034469606 .2849884 .0055389406 .24099732 .0055389406 .19799805 .0055389406 .12298584 .022491456 .08799744 .08137512 .12298584 .07637024 .1539917 .09837341 .1539917 .1363678 .1539917 .17237854 .1269989 .19238281 .09799194 .19238281 .07398987 .19238281 .041992189 .17837525 .041992189 .1343689 .041992189 .043441774 .1349945-.022460938 .24398804-.022460938 .3659973-.022460938 .45700074 .06838989 .45700074 .17037964Z"/>
<path id="font_1_28" d="M.5529938 .023986817C.5529938 .04699707 .5399933 .04699707 .5269928 .04699707 .46598817 .04798889 .46598817 .06100464 .46598817 .083999637V.29907228C.46598817 .3881073 .394989 .453125 .24598694 .453125 .18899536 .453125 .066986087 .44911195 .066986087 .36109925 .066986087 .3170929 .101989749 .29808045 .1289978 .29808045 .1599884 .29808045 .19198609 .3190918 .19198609 .36109925 .19198609 .39111329 .17298889 .40811158 .16999817 .41011048 .19799805 .41612245 .22999573 .41711427 .24198914 .41711427 .31698609 .41711427 .35198976 .3751068 .35198976 .29907228V.26506043C.2809906 .2620697 .026992798 .25306703 .026992798 .10801697 .026992798 .012130737 .15098572-.005859375 .21998596-.005859375 .2999878-.005859375 .34700013 .035125734 .36898805 .07713318 .36898805 .04598999 .36898805 0 .47299195 0H.5209961C.54100039 0 .5529938 0 .5529938 .023986817M.35198976 .13899231C.35198976 .043151857 .2599945 .030136109 .23498535 .030136109 .18399048 .030136109 .14399719 .06517029 .14399719 .10922241 .14399719 .21734619 .3019867 .23136902 .35198976 .234375V.13899231Z"/>
<path id="font_1_120" d="M.46199037 .20213318H.4149933C.4059906 .1010437 .3899994 .039993287 .2579956 .039993287H.17199707L.44898988 .4013214C.45700074 .412323 .45899964 .4143219 .45899964 .42332459 .45899964 .44433595 .44499208 .44433595 .4269867 .44433595H.05999756L.04798889 .26919557H.09498596C.100997928 .3722992 .13198853 .4083252 .23498535 .4083252H.31999208L.040985109 .04399109C.03199768 .032989503 .03199768 .0309906 .03199768 .021987915 .03199768 0 .04499817 0 .06399536 0H.44400025L.46199037 .20213318Z"/>
<path id="font_2_56" d="M.44898988 .20091248C.44898988 .31991578 .36698915 .41992188 .25898744 .41992188 .21099854 .41992188 .16799927 .4039154 .13198853 .36891175V.5641022C.1519928 .55778506 .18499756 .55078127 .21699524 .55078127 .33999635 .55078127 .4099884 .6418457 .4099884 .65493777 .4099884 .6609802 .40699769 .6660156 .3999939 .6660156 .3999939 .66607668 .39698792 .66607668 .3919983 .66308596 .37199403 .65408328 .32299806 .63378909 .2559967 .63378909 .21598816 .63409426 .16999817 .641098 .12298584 .6621094 .114990238 .6651001 .11099243 .6651001 .11099243 .6651001 .100997928 .66508486 .100997928 .657074 .100997928 .64108279V.3447113C.100997928 .3266449 .100997928 .31861878 .114990238 .31861878 .12199402 .31861878 .12399292 .32164 .12799073 .32765199 .13899231 .34371949 .17599488 .3979187 .25698854 .3979187 .30899049 .3979187 .33399964 .3517456 .34199525 .3336792 .35798646 .2965393 .3600006 .2574005 .3600006 .20721436 .3600006 .17218018 .3600006 .112197879 .33599855 .07032776 .31199647 .031448366 .2749939 .0055389406 .22898865 .0055389406 .1559906 .0055389406 .09899902 .05836487 .08198547 .1171875 .084991458 .11685181 .08799744 .115859989 .09899902 .115859989 .13198853 .115859989 .14898682 .14085388 .14898682 .16485596 .14898682 .18885803 .13198853 .21386719 .09899902 .21386719 .084991458 .21386719 .049987794 .2068634 .049987794 .16085816 .049987794 .07432556 .11898804-.022460938 .23098755-.022460938 .34700013-.022460938 .44898988 .07331848 .44898988 .20019531V.20091248Z"/>
<path id="font_1_34" d="M.7529907 .18592835C.7529907 .28189088 .6669922 .3488617 .5479889 .35786439 .6559906 .37686158 .72099307 .43678285 .72099307 .51368716 .72099307 .60557559 .6339874 .6855469 .47299195 .6855469H.038986207V.63853457H.14698792V.04699707H.038986207V0H.5029907C.6689911 0 .7529907 .08796692 .7529907 .18592835M.57899478 .51368716C.57899478 .43678285 .5309906 .37486268 .43399049 .37486268H.27799989V.63853457H.45999146C.5609894 .63853457 .57899478 .55963137 .57899478 .51368716M.60598757 .18693543C.60598757 .17492676 .60598757 .04699707 .46199037 .04699707H.27799989V.3388672H.47200013C.49198915 .3388672 .5389862 .3388672 .57299807 .29588319 .60598757 .253891 .60598757 .19792176 .60598757 .18693543Z"/>
<path id="font_1_77" d="M.61499026 0V.04699707H.54599V.30613709C.54599 .41119386 .49198915 .4501953 .3919983 .4501953 .29599 .4501953 .24299622 .39318849 .21699524 .3421631V.4501953L.04499817 .4423828V.39537049C.10699463 .39537049 .11399841 .39537049 .11399841 .3563385V.04699707H.04499817V0L.17098999 .0029907227 .29699708 0V.04699707H.22799683V.2562256C.22799683 .3653412 .31399537 .41436769 .3769989 .41436769 .41099549 .41436769 .43199159 .39337159 .43199159 .31729127V.04699707H.36299134V0L.4889984 .0029907227 .61499026 0Z"/>
<path id="font_1_98" d="M.4149933 .14012146C.4149933 .18312073 .394989 .21812439 .3600006 .24612427 .32099916 .27511598 .2889862 .28112794 .21099854 .29412843 .17399597 .30111695 .10899353 .31211854 .10899353 .3591156 .10899353 .42111207 .20199585 .42111207 .22099304 .42111207 .29599 .42111207 .33399964 .39212037 .33898927 .33711244 .33999635 .32211305 .34098817 .3171234 .3619995 .3171234 .38598634 .3171234 .38598634 .32211305 .38598634 .3451233V.42510987C.38598634 .4441223 .38598634 .453125 .36799623 .453125 .3639984 .453125 .3619995 .453125 .32299806 .43411256 .29699708 .44711305 .2619934 .453125 .22200012 .453125 .19198609 .453125 .037994386 .453125 .037994386 .32211305 .037994386 .28211976 .057998659 .25512696 .07798767 .23812866 .117996219 .203125 .1559906 .1971283 .23298645 .18312073 .2689972 .17712403 .34399415 .16412354 .34399415 .10513306 .34399415 .030136109 .2519989 .030136109 .22999573 .030136109 .12399292 .030136109 .09799194 .103134158 .085998538 .14613343 .08099365 .16012573 .07598877 .16012573 .06199646 .16012573 .037994386 .16012573 .037994386 .15412903 .037994386 .13113404V.022140503C.037994386 .0031280518 .037994386-.005859375 .055999757-.005859375 .06298828-.005859375 .06498718-.005859375 .085998538 .009140015L.11199951 .026138306C.1579895-.005859375 .20999146-.005859375 .22999573-.005859375 .26098634-.005859375 .4149933-.005859375 .4149933 .14013672V.14012146Z"/>
<path id="font_2_101" d="M.45700074 .2036438C.45700074 .33070375 .36799623 .4267578 .25698854 .4267578 .18899536 .4267578 .1519928 .37573243 .13198853 .327713V.35173036C.13198853 .6047821 .2559967 .64100649 .30699159 .64100649 .33099366 .64100649 .37298585 .634964 .394989 .6007538 .37998963 .6007538 .33999635 .6007538 .33999635 .5557556 .33999635 .524765 .3639984 .5097656 .38598634 .5097656 .4019928 .5097656 .43199159 .51875308 .43199159 .5577545 .43199159 .6178589 .3880005 .6660156 .30499269 .6660156 .1769867 .6660156 .041992189 .5367584 .041992189 .31570436 .041992189 .048553468 .1579895-.022460938 .25099183-.022460938 .3619995-.022460938 .45700074 .07156372 .45700074 .2036438M.36698915 .20463562C.36698915 .15661621 .36698915 .10658264 .34999085 .0705719 .31999208 .010528564 .27398683 .0055389406 .25099183 .0055389406 .18798828 .0055389406 .1579895 .06556702 .1519928 .080566409 .13398743 .127594 .13398743 .2076416 .13398743 .22564698 .13398743 .30369569 .1659851 .40374757 .2559967 .40374757 .27198792 .40374757 .31799317 .40374757 .34899903 .34172059 .36698915 .30470277 .36698915 .2536621 .36698915 .20463562Z"/>
<path id="font_3_83" d="M.61099246 .49769593C.61099246 .59465029 .5139923 .6826172 .3789978 .6826172H.041992189V.6536102H.06199646C.13398743 .6536102 .13699341 .6436157 .13699341 .6066284V.07595825C.13699341 .038986207 .13398743 .0289917 .06199646 .0289917H.041992189V0C.06599426 .0019989014 .147995 .0019989014 .1769867 .0019989014 .20698548 .0019989014 .2889862 .0019989014 .31298829 0V.0289917H.29299928C.22099304 .0289917 .21798706 .038986207 .21798706 .07595825V.3177948H.3869934C.5039978 .3177948 .61099246 .39675904 .61099246 .49769593M.5179901 .49769593C.5179901 .455719 .5179901 .34179688 .35499574 .34179688H.21598816V.6136322C.21598816 .64660647 .21798706 .6536102 .2619934 .6536102H.35598756C.5179901 .6536102 .5179901 .54067996 .5179901 .49769593Z"/>
<path id="font_3_66" d="M.24099732 0V.0289917C.17599488 .0289917 .17199707 .033996583 .17199707 .07304382V.44140626L.035995485 .4303589V.4013672C.099990848 .4013672 .10899353 .39535523 .10899353 .34629823V.074035648C.10899353 .0289917 .09799194 .0289917 .032989503 .0289917V0C.06098938 .0019989014 .10899353 .0019989014 .13798523 .0019989014 .14898682 .0019989014 .20698548 .0019989014 .24099732 0M.18499756 .6043091C.18499756 .63430789 .16099549 .6533203 .13699341 .6533203 .10899353 .6533203 .08799744 .63131716 .08799744 .6043091 .08799744 .5783081 .10998535 .55630496 .13598633 .55630496 .1659851 .55630496 .18499756 .580307 .18499756 .6043091Z"/>
<path id="font_3_50" d="M.40699769 .11932373C.40699769 .1253357 .4019928 .1293335 .3959961 .1293335 .3880005 .1293335 .38598634 .12432861 .38398744 .11932373 .35798646 .035247804 .29100038 .01222229 .24899292 .01222229 .20698548 .01222229 .10598755 .040252687 .10598755 .21340943V.23242188H.3829956C.40499879 .23242188 .40699769 .23242188 .40699769 .25141908 .40699769 .3523407 .35299684 .44628907 .23199463 .44628907 .117996219 .44628907 .02999878 .34335328 .02999878 .21940613 .02999878 .08729553 .13198853-.009765625 .24299622-.009765625 .3619995-.009765625 .40699769 .09829712 .40699769 .11932373M.34498597 .25141908H.10699463C.114990238 .40830995 .20298767 .42630006 .23098755 .42630006 .33799745 .42630006 .34399415 .28538514 .34498597 .25141908Z"/>
<path id="font_3_42" d="M.6519928 .23170471C.6519928 .24272156 .6519928 .24871826 .6409912 .24871826 .6309967 .24871826 .6299896 .24371338 .6299896 .2367096 .62098696 .07757568 .5049896 .007507324 .4079895 .007507324 .33799745 .007507324 .14698792 .049545289 .14698792 .34179688 .14698792 .63105776 .33499146 .6750946 .40699769 .6750946 .5119934 .6750946 .60398867 .5860138 .6239929 .43588258 .6259918 .4238739 .6259918 .42086793 .6380005 .42086793 .6519928 .42086793 .6519928 .4238739 .6519928 .44389344V.6810913C.6519928 .6990967 .6519928 .70410159 .6419983 .70410159 .6359863 .70410159 .6349945 .7020874 .6289978 .6920929L.5799866 .6130371C.5349884 .6690979 .46699525 .70410159 .394989 .70410159 .21199036 .70410159 .053985597 .54597476 .053985597 .34179688 .053985597 .13461304 .21398926-.021484375 .394989-.021484375 .5589905-.021484375 .6519928 .12161255 .6519928 .23170471Z"/>
<path id="font_3_63" d="M.5209961 0V.0289917C.47099305 .0289917 .44599916 .0289917 .44499208 .059020997V.24320984C.44499208 .3363037 .44499208 .3643341 .42199708 .39637757 .3929901 .4353943 .34599305 .44140626 .31199647 .44140626 .22599793 .44140626 .18598938 .37634278 .17199707 .34532167H.17098999V.69433596L.03199768 .6826172V.6536102C.099990848 .6536102 .10798645 .64663699 .10798645 .59780886V.074035648C.10798645 .0289917 .09700012 .0289917 .03199768 .0289917V0C.057998659 .0019989014 .11199951 .0019989014 .13999939 .0019989014 .16899109 .0019989014 .22299195 .0019989014 .24899292 0V.0289917C.18499756 .0289917 .17298889 .0289917 .17298889 .074035648V.2602234C.17298889 .3653412 .24198914 .42140199 .3039856 .42140199 .3659973 .42140199 .37998963 .37034608 .37998963 .3092804V.074035648C.37998963 .0289917 .36898805 .0289917 .3039856 .0289917V0C.32998658 .0019989014 .38398744 .0019989014 .4119873 .0019989014 .44099427 .0019989014 .49499513 .0019989014 .5209961 0Z"/>
<path id="font_3_28" d="M.47399903 .08912659V.14515686H.45199586V.08912659C.45199586 .03211975 .42799378 .024108887 .4139862 .024108887 .37599183 .024108887 .37599183 .07713318 .37599183 .09213257V.26719667C.37599183 .3211975 .37599183 .36120606 .33198548 .40023805 .29699708 .43226625 .2519989 .44628907 .20799256 .44628907 .12599182 .44628907 .06298828 .39222718 .06298828 .32720948 .06298828 .2982025 .08198547 .2842102 .10499573 .2842102 .1289978 .2842102 .1459961 .3012085 .1459961 .32521058 .1459961 .36621095 .10998535 .36621095 .09498596 .36621095 .117996219 .4082489 .1659851 .42625428 .20599365 .42625428 .2519989 .42625428 .31098939 .38822938 .31098939 .2982025V.25819398C.10998535 .255188 .033996583 .17115784 .033996583 .09413147 .033996583 .0152282719 .12599182-.009765625 .18699646-.009765625 .25299073-.009765625 .2979889 .030227662 .31698609 .07823181 .32099916 .03111267 .35198976-.0048828127 .394989-.0048828127 .41600038-.0048828127 .47399903 .009109497 .47399903 .089141849V.08912659M.31098939 .14117432C.31098939 .043121339 .23799134 .010116577 .19499207 .010116577 .1459961 .010116577 .10499573 .04612732 .10499573 .09414673 .10499573 .22621155 .2749939 .23822022 .31098939 .24023438V.14117432Z"/>
<path id="font_3_96" d="M.35299684 .38339234C.35299684 .4133911 .32598878 .44140626 .2829895 .44140626 .19799805 .44140626 .16899109 .34939576 .16299439 .33039857H.1619873V.44140626L.027999878 .4303589V.4013672C.09599304 .4013672 .10398865 .39434815 .10398865 .3453064V.074035648C.10398865 .0289917 .09298706 .0289917 .027999878 .0289917V0C.055999757 .0019989014 .11099243 .0019989014 .14099121 .0019989014 .16799927 .0019989014 .23899842 .0019989014 .2619934 0V.0289917H.24198914C.16899109 .02973938 .16699219 .040740968 .16699219 .07673645V.23374939C.16699219 .3307495 .20698548 .42173768 .28399659 .42173768 .2919922 .42173768 .2939911 .42173768 .2979889 .42074586 .2899933 .41674806 .27398683 .41073609 .27398683 .3837433 .27398683 .35473634 .29699708 .34375 .31298829 .34375 .33299256 .34375 .35299684 .35673524 .35299684 .3837433V.38339234Z"/>
<path id="font_3_105" d="M.32598878 .124069217V.1809845H.3039856V.12606812C.3039856 .0541687 .2749939 .01222229 .23599243 .01222229 .16799927 .01222229 .16799927 .10508728 .16799927 .12207031V.4016571H.30899049V.43066407H.16799927V.6142578H.1459961C.14498902 .52046206 .10899353 .4246521 .017990113 .42166139V.4016571H.102996829V.124069217C.102996829 .01322937 .1769867-.009765625 .22999573-.009765625 .29299928-.009765625 .32598878 .0521698 .32598878 .124069217Z"/>
<path id="font_3_84" d="M.5079956 .21640015C.5079956 .34339906 .4139862 .44140626 .30499269 .44140626 .21699524 .44140626 .16999817 .3784027 .16699219 .3744049V.44140626L.027999878 .4303589V.4013672C.09799194 .4013672 .10398865 .3943634 .10398865 .3503418V-.1199646C.10398865-.16503906 .09298706-.16503906 .027999878-.16503906V-.19404602C.053985597-.19204712 .10798645-.19204712 .13598633-.19204712 .16499329-.19204712 .21899414-.19204712 .24499512-.19404602V-.16503906C.18099976-.16503906 .16899109-.16503906 .16899109-.1199646V.054244996C.18699646 .02923584 .22799683-.009765625 .2919922-.009765625 .40699769-.009765625 .5079956 .087249759 .5079956 .21629334V.21640015M.43199159 .21629334C.43199159 .09725952 .3639984 .010223389 .2869873 .010223389 .2559967 .010223389 .22698975 .023223877 .20698548 .042236329 .18399048 .06524658 .16899109 .085250858 .16899109 .11326599V.31933595C.16899109 .33833314 .16899109 .3393402 .17999268 .35534669 .20999146 .40040589 .25898744 .41940309 .29699708 .41940309 .37199403 .41940309 .43199159 .32839967 .43199159 .21640015V.21629334Z"/>
<path id="font_3_98" d="M.35198976 .12739563C.35198976 .181427 .31900025 .21340943 .30999757 .22239685 .27398683 .25338746 .24699402 .25938417 .18099976 .27137757 .15098572 .27737428 .07798767 .29136659 .07798767 .35131837 .07798767 .38230897 .09899902 .4282837 .18899536 .4282837 .2979889 .4282837 .3039856 .33532716 .30599977 .3043518 .30699159 .2963562 .31399537 .2963562 .31698609 .2963562 .32798768 .2963562 .32798768 .30136109 .32798768 .3193512V.4232788C.32798768 .44128419 .32798768 .44628907 .31799317 .44628907 .30999757 .44628907 .29100038 .4242859 .28399659 .4152832 .25299073 .4402771 .22200012 .44628907 .18998719 .44628907 .068984989 .44628907 .032989503 .38031007 .032989503 .32533265 .032989503 .3143463 .032989503 .27937318 .070999149 .24438477 .102996829 .21640015 .13699341 .20941162 .18299866 .20040894 .23799134 .1894226 .25099183 .18641663 .27598573 .16642761 .2939911 .15142823 .30699159 .12940979 .30699159 .101364139 .30699159 .05831909 .28199769 .010253906 .19400025 .010253906 .12799073 .010253906 .07998657 .048294069 .057998659 .1484375 .053985597 .16642761 .052993776 .16842652 .052993776 .16842652 .050994874 .17242432 .04699707 .17242432 .04399109 .17242432 .032989503 .17242432 .032989503 .16743469 .032989503 .14942932V.013259888C.032989503-.004760742 .032989503-.009765625 .042999269-.009765625 .04798889-.009765625 .04899597-.008773804 .06599426 .012252808 .070999149 .019256592 .070999149 .021270752 .085998538 .03729248 .12399292-.009765625 .17799378-.009765625 .19499207-.009765625 .2999878-.009765625 .35198976 .048294069 .35198976 .12739563Z"/>
<path id="font_3_77" d="M.5209961 0V.0289917C.47099305 .0289917 .44599916 .0289917 .44499208 .059051515V.24342346C.44499208 .3365631 .44499208 .36450196 .42199708 .39640809 .3929901 .4353943 .34599305 .44140626 .31199647 .44140626 .21499634 .44140626 .1769867 .35850526 .16899109 .338562H.16799927V.44140626L.03199768 .4303589V.4013672C.099990848 .4013672 .10798645 .39437867 .10798645 .34553529V.07408142C.10798645 .0289917 .09700012 .0289917 .03199768 .0289917V0C.057998659 .0019989014 .11199951 .0019989014 .13999939 .0019989014 .16899109 .0019989014 .22299195 .0019989014 .24899292 0V.0289917C.18499756 .0289917 .17298889 .0289917 .17298889 .07408142V.26046754C.17298889 .36547853 .24198914 .4213562 .3039856 .4213562 .3659973 .4213562 .37998963 .37045289 .37998963 .3095703V.07408142C.37998963 .0289917 .36898805 .0289917 .3039856 .0289917V0C.32998658 .0019989014 .38398744 .0019989014 .4119873 .0019989014 .44099427 .0019989014 .49499513 .0019989014 .5209961 0Z"/>
<path id="font_3_59" d="M.47499085 .4064026C.47499085 .4243927 .46099855 .45239259 .42599488 .45239259 .37399293 .45239259 .33499146 .4203949 .32099916 .4053955 .29100038 .42840577 .2559967 .44140626 .21798706 .44140626 .12799073 .44140626 .06098938 .37339784 .06098938 .29640199 .06098938 .23939514 .09599304 .20239258 .10598755 .19340515 .09399414 .1783905 .07598877 .14936829 .07598877 .11010742 .07598877 .05178833 .11099243 .026779175 .11898804 .021774292 .07299805 .0087890629 .026992798-.027191163 .026992798-.0791626 .026992798-.14811707 .12098694-.20507813 .24398804-.20507813 .36299134-.20507813 .46199037-.15211487 .46199037-.0771637 .46199037-.0521698 .45498658 .006790161 .394989 .03778076 .34399415 .06378174 .2939911 .06378174 .20799256 .06378174 .14698792 .06378174 .13999939 .06378174 .12199402 .08291626 .11199951 .09298706 .102996829 .11212158 .102996829 .13327027 .102996829 .15039063 .10899353 .16738892 .11898804 .18138123 .1659851 .15039063 .20599365 .15039063 .21699524 .15039063 .30699159 .15039063 .37399293 .21838379 .37399293 .29537965 .37399293 .3223877 .3659973 .36038209 .33399964 .39237977 .37298585 .4323883 .41999818 .4323883 .4249878 .4323883 .42900086 .4323883 .43399049 .4323883 .43798829 .4303894 .42799378 .4263916 .4229889 .4163971 .4229889 .4053955 .4229889 .3914032 .43299867 .37939454 .44898988 .37939454 .45700074 .37939454 .47499085 .3843994 .47499085 .4064026M.30499269 .29638673C.30499269 .2783966 .30499269 .23738098 .28799439 .21038819 .2689972 .18138123 .23899842 .17138672 .21798706 .17138672 .12998963 .17138672 .12998963 .27238465 .12998963 .2953949 .12998963 .313385 .12998963 .35440064 .14698792 .38139344 .1659851 .4104004 .19599915 .4203949 .21699524 .4203949 .30499269 .41978456 .30499269 .31878663 .30499269 .29577638V.29638673M.41299439-.07815552C.41299439-.13711548 .33699037-.18408203 .24499512-.18408203 .14898682-.18408203 .07598877-.13511658 .07598877-.07815552 .07598877-.07015991 .07798767-.031188965 .115997318-.005203247 .13798523 .0087890629 .14698792 .0087890629 .21699524 .0087890629 .2999878 .0087890629 .41299439 .0087890629 .41299439-.07815552Z"/>
<path id="font_3_47" d="M.5149994 .00022888184V.029220581C.44699098 .029220581 .43899537 .036224367 .43899537 .085250858V.69433596L.2999878 .68333438V.6543274C.36799623 .6543274 .37599183 .64733889 .37599183 .5983429V.37738038C.35499574 .40638734 .31199647 .44140626 .25099183 .44140626 .1349945 .44140626 .034988405 .34336854 .034988405 .21530152 .034988405 .088256839 .12998963-.009765625 .23999024-.009765625 .31599427-.009765625 .3600006 .040237428 .37399293 .05923462V-.009765625L.5149994 .00022888184M.37399293 .117263797C.37399293 .09925842 .37399293 .09625244 .3600006 .07424927 .33599855 .039245607 .29499818 .010223389 .24499512 .010223389 .21899414 .010223389 .11099243 .020233155 .11099243 .21430969 .11099243 .28634645 .12298584 .32635499 .14498902 .359375 .16499329 .39038087 .20498657 .42140199 .25498963 .42140199 .31698609 .42140199 .35198976 .3763733 .3619995 .36036683 .37399293 .34336854 .37399293 .34136964 .37399293 .32336427V.117263797Z"/>
<path id="font_3_122" d="M.60899356 .6379852C.60899356 .67404177 .57398989 .70410159 .5239868 .70410159 .48399354 .70410159 .44599916 .6860657 .42099 .6620178 .394989 .6990814 .33898927 .70410159 .31199647 .70410159 .21598816 .70410159 .10398865 .65200808 .10398865 .5458374V.43066407H.025985718V.4016571H.10398865V.07394409C.10398865 .0289917 .09298706 .0289917 .027999878 .0289917V0C.055999757 .0019989014 .10499573 .0019989014 .1349945 .0019989014 .16499329 .0019989014 .21499634 .0019989014 .24299622 0V.0289917C.1789856 .0289917 .16699219 .0289917 .16699219 .07394409V.4016571H.375V.07394409C.375 .0289917 .3639984 .0289917 .29899598 .0289917V0C.32699586 .0019989014 .38198854 .0019989014 .4119873 .0019989014 .43899537 .0019989014 .5099945 .0019989014 .5329895 0V.0289917H.5130005C.43998719 .028656006 .43798829 .039657594 .43798829 .075653079V.4016571H.5519867V.43066407H.43598939V.5476532C.43598939 .63365176 .47999574 .6836548 .5239868 .6836548 .5389862 .6836548 .5529938 .6786499 .5589905 .6756592 .5549927 .6746521 .5299988 .6656494 .5299988 .6366577 .5299988 .6136627 .54599 .59765627 .56900027 .59765627 .59298709 .59765627 .60899356 .6136627 .60899356 .63764956V.6379852M.3899994 .6626587C.36299134 .6576538 .35499574 .6386566 .35499574 .6236572 .35499574 .60665896 .3639984 .59265139 .3789978 .58665469 .375 .5716553 .375 .5586548 .375 .5476532V.43066407H.16499329V.5436554C.16499329 .6456604 .25 .6836548 .30999757 .6836548 .31698609 .6836548 .36099244 .6836548 .3899994 .6626587Z"/>
<path id="font_3_118" d="M.49798585 .4016571V.43066407C.46899415 .4286499 .45498658 .4286499 .4229889 .4286499L.34199525 .43066407V.4016571C.3789978 .3996582 .3880005 .3766632 .3880005 .35865785 .3880005 .34965516 .38598634 .34465028 .38198854 .33465577L.27999879 .08265686 .16899109 .35466004C.16299439 .36865235 .16299439 .37565614 .16299439 .37565614 .16299439 .4016571 .19799805 .4016571 .21798706 .4016571V.43066407C.19198609 .4286499 .14299011 .4286499 .114990238 .4286499L.017990113 .43066407V.4016571C.07598877 .4016571 .083999637 .39665223 .09700012 .36567689L.24598694-.000076293948C.20199585-.10601807 .20199585-.10801697 .19799805-.11602783 .18099976-.14602661 .1539917-.184021 .10899353-.184021 .07798767-.184021 .05899048-.16601563 .05899048-.16601563 .05899048-.16601563 .09399414-.16201782 .09399414-.12702942 .09399414-.103027347 .07499695-.090026859 .056991579-.090026859 .039993287-.090148929 .018997193-.10014343 .018997193-.12913513 .018997193-.16712952 .055999757-.20410156 .10899353-.20410156 .16499329-.20410156 .20599365-.15512085 .23199463-.09214783L.40499879 .3336792C.43199159 .40065003 .47898866 .4016571 .49798585 .4016571Z"/>
<path id="font_3_81" d="M.45899964 .21424866C.45899964 .34326173 .36099244 .44628907 .24499512 .44628907 .125 .44628907 .02999878 .340271 .02999878 .21424866 .02999878 .086242679 .12998963-.009765625 .24398804-.009765625 .3619995-.009765625 .45899964 .08824158 .45899964 .21424866M.3829956 .22325135C.3829956 .18824768 .3829956 .12623596 .35699464 .07923889 .32899476 .031234742 .2829895 .01222229 .24499512 .01222229 .20799256 .01222229 .16299439 .02822876 .13398743 .07723999 .10699463 .12223816 .10598755 .1812439 .10598755 .22325135 .10598755 .261261 .10598755 .32226563 .13699341 .3672638 .16499329 .41027833 .20899964 .42626954 .24398804 .42626954 .2829895 .42626954 .32499696 .40827943 .35198976 .3692627 .3829956 .32325746 .3829956 .2602539 .3829956 .22325135Z"/>
<path id="font_3_55" d="M.34199525 .6379852C.34199525 .6750488 .30599977 .70410159 .2579956 .70410159 .18798828 .70410159 .10899353 .65000918 .10899353 .5478363V.43066407H.0309906V.4016571H.10899353V.07394409C.10899353 .0289917 .09799194 .0289917 .032989503 .0289917V0C.06098938 .0019989014 .115997318 .0019989014 .1459961 .0019989014 .17298889 .0019989014 .24398804 .0019989014 .2669983 0V.0289917H.24699402C.17399597 .0289917 .17199707 .039978029 .17199707 .07594299V.4016571H.2849884V.43066407H.16999817V.5478363C.16999817 .6379852 .21598816 .6840668 .25698854 .6840668 .2649994 .6840668 .27999879 .6820526 .2919922 .67604067 .28799439 .6750488 .2630005 .6660309 .2630005 .63697817 .2630005 .61395266 .2789917 .59791567 .3019867 .59791567 .32598878 .59791567 .34199525 .61395266 .34199525 .6379852Z"/>
</defs>
<path transform="matrix(1.00005,0,0,-1.00005,142.84339,86.64253)" d="M0 0H85.04045C85.04045 46.96715 46.96715 85.04045 0 85.04045-14.92384 85.04045-29.59575 81.10931-42.52022 73.64738Z" fill="#6666ff"/>
<use data-text="M" xlink:href="#font_1_74" transform="matrix(9.963098,0,0,-9.963098,158.96619,30.001702)"/>
<use data-text="i" xlink:href="#font_1_66" transform="matrix(9.963098,0,0,-9.963098,169.84589,30.001702)"/>
<use data-text="l" xlink:href="#font_1_72" transform="matrix(9.963098,0,0,-9.963098,173.02411,30.001702)"/>
<use data-text="l" xlink:href="#font_1_72" transform="matrix(9.963098,0,0,-9.963098,176.20233,30.001702)"/>
<use data-text="e" xlink:href="#font_1_50" transform="matrix(9.963098,0,0,-9.963098,179.38056,30.001702)"/>
<use data-text="t" xlink:href="#font_1_105" transform="matrix(9.963098,0,0,-9.963098,184.63114,30.001702)"/>
<use data-text="1" xlink:href="#font_2_82" transform="matrix(9.963098,0,0,-9.963098,164.68445,41.9573)"/>
<use data-text="2" xlink:href="#font_2_107" transform="matrix(9.963098,0,0,-9.963098,169.66599,41.9573)"/>
<use data-text="0" xlink:href="#font_2_121" transform="matrix(9.963098,0,0,-9.963098,174.64756,41.9573)"/>
<use data-text="&#x00b0;" xlink:href="#font_2_234" transform="matrix(9.963098,0,0,-9.963098,179.62909,41.9573)"/>
<path transform="matrix(1.00005,0,0,-1.00005,142.84339,86.64253)" d="M0 0-42.52022 73.64738C-55.44467 66.18547-66.18547 55.44467-73.64738 42.52022Z" fill="#ff6666"/>
<use data-text="R" xlink:href="#font_1_95" transform="matrix(9.963098,0,0,-9.963098,91.69281,43.882398)"/>
<use data-text="i" xlink:href="#font_1_66" transform="matrix(9.963098,0,0,-9.963098,100.290958,43.882398)"/>
<use data-text="c" xlink:href="#font_1_43" transform="matrix(9.963098,0,0,-9.963098,103.46921,43.882398)"/>
<use data-text="e" xlink:href="#font_1_50" transform="matrix(9.963098,0,0,-9.963098,108.56033,43.882398)"/>
<use data-text="3" xlink:href="#font_2_106" transform="matrix(9.963098,0,0,-9.963098,95.90204,55.837995)"/>
<use data-text="0" xlink:href="#font_2_121" transform="matrix(9.963098,0,0,-9.963098,100.883579,55.837995)"/>
<use data-text="&#x00b0;" xlink:href="#font_2_234" transform="matrix(9.963098,0,0,-9.963098,105.86514,55.837995)"/>
<path transform="matrix(1.00005,0,0,-1.00005,142.84339,86.64253)" d="M0 0-73.64738 42.52022C-97.13097 1.84537-83.19507-50.16382-42.52022-73.64738-16.21164-88.83661 16.21164-88.83661 42.52022-73.64738Z" fill="#66ff66"/>
<use data-text="M" xlink:href="#font_1_74" transform="matrix(9.963098,0,0,-9.963098,83.75844,128.0716)"/>
<use data-text="a" xlink:href="#font_1_28" transform="matrix(9.963098,0,0,-9.963098,94.63815,128.0716)"/>
<use data-text="i" xlink:href="#font_1_66" transform="matrix(9.963098,0,0,-9.963098,100.20752,128.0716)"/>
<use data-text="z" xlink:href="#font_1_120" transform="matrix(9.963098,0,0,-9.963098,103.38574,128.0716)"/>
<use data-text="e" xlink:href="#font_1_50" transform="matrix(9.963098,0,0,-9.963098,108.47687,128.0716)"/>
<use data-text="1" xlink:href="#font_2_82" transform="matrix(9.963098,0,0,-9.963098,89.4017,140.02719)"/>
<use data-text="5" xlink:href="#font_2_56" transform="matrix(9.963098,0,0,-9.963098,94.38324,140.02719)"/>
<use data-text="0" xlink:href="#font_2_121" transform="matrix(9.963098,0,0,-9.963098,99.36481,140.02719)"/>
<use data-text="&#x00b0;" xlink:href="#font_2_234" transform="matrix(9.963098,0,0,-9.963098,104.346347,140.02719)"/>
<path transform="matrix(1.00005,0,0,-1.00005,142.84339,86.64253)" d="M0 0 42.52022-73.64738C68.8288-58.45816 85.04045-30.37843 85.04045 0Z" fill="#fff684"/>
<use data-text="B" xlink:href="#font_1_34" transform="matrix(9.963098,0,0,-9.963098,181.92333,115.15495)"/>
<use data-text="e" xlink:href="#font_1_50" transform="matrix(9.963098,0,0,-9.963098,190.07314,115.15495)"/>
<use data-text="a" xlink:href="#font_1_28" transform="matrix(9.963098,0,0,-9.963098,195.32372,115.15495)"/>
<use data-text="n" xlink:href="#font_1_77" transform="matrix(9.963098,0,0,-9.963098,200.89308,115.15495)"/>
<use data-text="s" xlink:href="#font_1_98" transform="matrix(9.963098,0,0,-9.963098,207.2595,115.15495)"/>
<use data-text="6" xlink:href="#font_2_101" transform="matrix(9.963098,0,0,-9.963098,190.00371,127.11055)"/>
<use data-text="0" xlink:href="#font_2_121" transform="matrix(9.963098,0,0,-9.963098,194.98525,127.11055)"/>
<use data-text="&#x00b0;" xlink:href="#font_2_234" transform="matrix(9.963098,0,0,-9.963098,199.96681,127.11055)"/>
<use data-text="P" xlink:href="#font_3_83" transform="matrix(14.346916,0,0,-14.346916,1.2163086,207.98657)"/>
<use data-text="i" xlink:href="#font_3_66" transform="matrix(14.346916,0,0,-14.346916,10.771347,207.98657)"/>
<use data-text="e" xlink:href="#font_3_50" transform="matrix(14.346916,0,0,-14.346916,14.673706,207.98657)"/>
<use data-text="C" xlink:href="#font_3_42" transform="matrix(14.346916,0,0,-14.346916,25.577378,207.98657)"/>
<use data-text="h" xlink:href="#font_3_63" transform="matrix(14.346916,0,0,-14.346916,35.720643,207.98657)"/>
<use data-text="a" xlink:href="#font_3_28" transform="matrix(14.346916,0,0,-14.346916,43.52536,207.98657)"/>
<use data-text="r" xlink:href="#font_3_96" transform="matrix(14.346916,0,0,-14.346916,50.55536,207.98657)"/>
<use data-text="t" xlink:href="#font_3_105" transform="matrix(14.346916,0,0,-14.346916,56.021547,207.98657)"/>
<use data-text="r" xlink:href="#font_3_96" transform="matrix(14.346916,0,0,-14.346916,66.164798,207.98657)"/>
<use data-text="e" xlink:href="#font_3_50" transform="matrix(14.346916,0,0,-14.346916,71.63098,207.98657)"/>
<use data-text="p" xlink:href="#font_3_84" transform="matrix(14.346916,0,0,-14.346916,77.87189,207.98657)"/>
<use data-text="r" xlink:href="#font_3_96" transform="matrix(14.346916,0,0,-14.346916,85.676609,207.98657)"/>
<use data-text="e" xlink:href="#font_3_50" transform="matrix(14.346916,0,0,-14.346916,91.14279,207.98657)"/>
<use data-text="s" xlink:href="#font_3_98" transform="matrix(14.346916,0,0,-14.346916,97.3837,207.98657)"/>
<use data-text="e" xlink:href="#font_3_50" transform="matrix(14.346916,0,0,-14.346916,102.9216,207.98657)"/>
<use data-text="n" xlink:href="#font_3_77" transform="matrix(14.346916,0,0,-14.346916,109.16254,207.98657)"/>
<use data-text="t" xlink:href="#font_3_105" transform="matrix(14.346916,0,0,-14.346916,116.59421,207.98657)"/>
<use data-text="i" xlink:href="#font_3_66" transform="matrix(14.346916,0,0,-14.346916,122.060398,207.98657)"/>
<use data-text="n" xlink:href="#font_3_77" transform="matrix(14.346916,0,0,-14.346916,125.96274,207.98657)"/>
<use data-text="g" xlink:href="#font_3_59" transform="matrix(14.346916,0,0,-14.346916,133.76746,207.98657)"/>
<use data-text="d" xlink:href="#font_3_47" transform="matrix(14.346916,0,0,-14.346916,145.46018,207.98657)"/>
<use data-text="i" xlink:href="#font_3_66" transform="matrix(14.346916,0,0,-14.346916,153.2649,207.98657)"/>
<use data-text="f" xlink:href="#font_3_122" transform="matrix(14.346916,0,0,-14.346916,157.16724,207.98657)"/>
<use data-text="e" xlink:href="#font_3_50" transform="matrix(14.346916,0,0,-14.346916,165.35935,207.98657)"/>
<use data-text="r" xlink:href="#font_3_96" transform="matrix(14.346916,0,0,-14.346916,171.60025,207.98657)"/>
<use data-text="e" xlink:href="#font_3_50" transform="matrix(14.346916,0,0,-14.346916,177.06644,207.98657)"/>
<use data-text="n" xlink:href="#font_3_77" transform="matrix(14.346916,0,0,-14.346916,183.30735,207.98657)"/>
<use data-text="t" xlink:href="#font_3_105" transform="matrix(14.346916,0,0,-14.346916,190.73902,207.98657)"/>
<use data-text="t" xlink:href="#font_3_105" transform="matrix(14.346916,0,0,-14.346916,200.86795,207.98657)"/>
<use data-text="y" xlink:href="#font_3_118" transform="matrix(14.346916,0,0,-14.346916,205.96109,207.98657)"/>
<use data-text="p" xlink:href="#font_3_84" transform="matrix(14.346916,0,0,-14.346916,213.37845,207.98657)"/>
<use data-text="e" xlink:href="#font_3_50" transform="matrix(14.346916,0,0,-14.346916,221.55622,207.98657)"/>
<use data-text="s" xlink:href="#font_3_98" transform="matrix(14.346916,0,0,-14.346916,227.79712,207.98657)"/>
<use data-text="o" xlink:href="#font_3_81" transform="matrix(14.346916,0,0,-14.346916,238.01209,207.98657)"/>
<use data-text="f" xlink:href="#font_3_55" transform="matrix(14.346916,0,0,-14.346916,245.04209,207.98657)"/>
<use data-text="C" xlink:href="#font_3_42" transform="matrix(14.346916,0,0,-14.346916,254.00891,207.98657)"/>
<use data-text="r" xlink:href="#font_3_96" transform="matrix(14.346916,0,0,-14.346916,264.15217,207.98657)"/>
<use data-text="o" xlink:href="#font_3_81" transform="matrix(14.346916,0,0,-14.346916,269.61836,207.98657)"/>
<use data-text="p" xlink:href="#font_3_84" transform="matrix(14.346916,0,0,-14.346916,276.64836,207.98657)"/>
</svg>
