<svg xmlns="http://www.w3.org/2000/svg" xmlns:xlink="http://www.w3.org/1999/xlink" xmlns:inkscape="http://www.inkscape.org/namespaces/inkscape" version="1.1" width="401" height="259" viewBox="0 0 401 259">
<path transform="matrix(1.00008,0,0,-1.0001,200.73653,129.57236)" stroke-width=".79701" stroke-linecap="butt" stroke-miterlimit="10" stroke-linejoin="miter" fill="none" stroke="#0000ff" d="M-141.73404-70.867V70.867H141.73404V-70.867ZM141.73404 70.867"/>
<path transform="matrix(1.00008,0,0,-1.0001,200.73653,129.57236)" stroke-width=".79701" stroke-linecap="butt" stroke-miterlimit="10" stroke-linejoin="miter" fill="none" stroke="#0000ff" d="M-153.07259-82.20555V82.20555H153.07259V-82.20555ZM153.07259 82.20555"/>
<path transform="matrix(1.00008,0,0,-1.0001,200.73653,129.57236)" stroke-width=".79701" stroke-linecap="butt" stroke-miterlimit="10" stroke-linejoin="miter" fill="none" stroke="#0000ff" d="M-164.41156-93.54454V93.54454H164.41156V-93.54454ZM164.41156 93.54454"/>
<path transform="matrix(1.00008,0,0,-1.0001,200.73653,129.57236)" stroke-width=".79701" stroke-linecap="butt" stroke-miterlimit="10" stroke-linejoin="miter" fill="none" stroke="#0000ff" d="M-175.75012-104.88309V104.88309H175.75012V-104.88309ZM175.75012 104.88309"/>
<path transform="matrix(1.00008,0,0,-1.0001,200.73653,129.57236)" stroke-width=".79701" stroke-linecap="butt" stroke-miterlimit="10" stroke-linejoin="miter" fill="none" stroke="#0000ff" d="M-187.0891-116.22208V116.22208H187.0891V-116.22208ZM187.0891 116.22208"/>
<path transform="matrix(1.00008,0,0,-1.0001,200.73653,129.57236)" stroke-width=".79701" stroke-linecap="butt" stroke-miterlimit="10" stroke-linejoin="miter" fill="none" stroke="#0000ff" d="M-198.42766-127.56062V127.56062H198.42766V-127.56062ZM198.42766 127.56062"/>
<path transform="matrix(1.00008,0,0,-1.0001,200.73653,129.57236)" d="M-141.73404-70.867V70.867H141.73404V-70.867ZM141.73404 70.867" fill="#00ff00"/>
<path transform="matrix(1.00008,0,0,-1.0001,200.73653,129.57236)" stroke-width=".79701" stroke-linecap="butt" stroke-miterlimit="10" stroke-linejoin="miter" fill="none" stroke="#ffffff" d="M-141.73404-70.867V70.867H141.73404V-70.867ZM141.73404 70.867"/>
<path transform="matrix(1.00008,0,0,-1.0001,200.73653,129.57236)" stroke-width=".79701" stroke-linecap="butt" stroke-miterlimit="10" stroke-linejoin="miter" fill="none" stroke="#ffffff" d="M28.3468 0C28.3468 15.6557 15.6557 28.3468 0 28.3468-15.6557 28.3468-28.3468 15.6557-28.3468 0-28.3468-15.6557-15.6557-28.3468 0-28.3468 15.6557-28.3468 28.3468-15.6557 28.3468 0ZM0 0"/>
<path transform="matrix(1.00008,0,0,-1.0001,200.73653,129.57236)" stroke-width=".79701" stroke-linecap="butt" stroke-miterlimit="10" stroke-linejoin="miter" fill="none" stroke="#ffffff" d="M0-70.867V70.867"/>
<path transform="matrix(1.00008,0,0,-1.0001,200.73653,129.57236)" stroke-width=".79701" stroke-linecap="butt" stroke-miterlimit="10" stroke-linejoin="miter" fill="none" stroke="#ffffff" d="M-141.73404-28.3468V28.3468H-113.38724V-28.3468ZM-113.38724 28.3468"/>
<path transform="matrix(1.00008,0,0,-1.0001,200.73653,129.57236)" stroke-width=".79701" stroke-linecap="butt" stroke-miterlimit="10" stroke-linejoin="miter" fill="none" stroke="#ffffff" d="M141.73404-28.3468V28.3468H113.38724V-28.3468ZM113.38724 28.3468"/>
<path transform="matrix(1.00008,0,0,-1.0001,200.73653,129.57236)" stroke-width=".79701" stroke-linecap="butt" stroke-miterlimit="10" stroke-linejoin="miter" fill="none" stroke="#ffffff" d="M-141.73404-56.69362V56.69362H-85.04042V-56.69362ZM-85.04042 56.69362"/>
<path transform="matrix(1.00008,0,0,-1.0001,200.73653,129.57236)" stroke-width=".79701" stroke-linecap="butt" stroke-miterlimit="10" stroke-linejoin="miter" fill="none" stroke="#ffffff" d="M141.73404-56.69362V56.69362H85.04042V-56.69362ZM85.04042 56.69362"/>
<path transform="matrix(1.00008,0,0,-1.0001,200.73653,129.57236)" d="M-124.72578 0C-124.72578 1.56564-125.99498 2.83484-127.56062 2.83484-129.12628 2.83484-130.39548 1.56564-130.39548 0-130.39548-1.56564-129.12628-2.83484-127.56062-2.83484-125.99498-2.83484-124.72578-1.56564-124.72578 0ZM-127.56062 0" fill="#ffffff"/>
<path transform="matrix(1.00008,0,0,-1.0001,200.73653,129.57236)" d="M130.39548 0C130.39548 1.56564 129.12628 2.83484 127.56062 2.83484 125.99498 2.83484 124.72578 1.56564 124.72578 0 124.72578-1.56564 125.99498-2.83484 127.56062-2.83484 129.12628-2.83484 130.39548-1.56564 130.39548 0ZM127.56062 0" fill="#ffffff"/>
<path transform="matrix(1.00008,0,0,-1.0001,200.73653,129.57236)" stroke-width=".79701" stroke-linecap="butt" stroke-miterlimit="10" stroke-linejoin="miter" fill="none" stroke="#ffbfbf" d="M-113.38724 0C-113.38724 11.74178-122.90555 21.2601-134.64734 21.2601-146.38912 21.2601-155.90744 11.74178-155.90744 0"/>
<path transform="matrix(1.00008,0,0,-1.0001,200.73653,129.57236)" stroke-width=".79701" stroke-linecap="butt" stroke-miterlimit="10" stroke-linejoin="miter" fill="none" stroke="#ffffff" d="M113.38724 0C113.38724-11.74178 122.90555-21.2601 134.64734-21.2601 146.38912-21.2601 155.90744-11.74178 155.90744 0"/>
</svg>
