<svg xmlns="http://www.w3.org/2000/svg" xmlns:xlink="http://www.w3.org/1999/xlink" xmlns:inkscape="http://www.inkscape.org/namespaces/inkscape" version="1.1" width="402" height="238" viewBox="0 0 402 238">
<defs>
<path id="font_1_57" d="M.5299988 0V.042999269H.43299867V.15718079H.5299988V.20019531H.43299867V.62919619C.43299867 .65419009 .43199159 .6582031 .40699769 .6582031 .3889923 .6582031 .3869934 .6582031 .375 .6431885L.0309906 .20019531V.15718079H.31498719V.042999269H.20599365V0C.23498535 .0019989014 .33399964 .0019989014 .36999513 .0019989014 .4039917 .0019989014 .5029907 .0019989014 .5299988 0M.32398988 .20019531H.07699585L.32398988 .5181885V.20019531Z"/>
<path id="font_1_107" d="M.5049896 .21514893H.46299745C.45999146 .19412232 .45298768 .13502503 .43798829 .125 .42999269 .117996219 .35198976 .117996219 .33699037 .117996219H.18199158L.32598878 .23718262C.43699647 .3203125 .5049896 .37139894 .5049896 .46749879 .5049896 .5853729 .397995 .65625 .2659912 .65625 .15299988 .65625 .055999757 .5923462 .055999757 .49749757 .055999757 .44448854 .09899902 .42948915 .12199402 .42948915 .15299988 .42948915 .18899536 .45048524 .18899536 .49649049 .18899536 .5384979 .1579895 .559494 .1269989 .5634918 .16699219 .6092682 .21998596 .6132355 .24099732 .6132355 .33299256 .6132355 .3769989 .5384979 .3769989 .4664917 .3769989 .38842774 .32398988 .3163147 .2829895 .27323915L.06599426 .04598999C.055999757 .036987306 .055999757 .034988405 .055999757 .016998291V0H.47599793L.5049896 .21514893Z"/>
<path id="font_1_75" d="M.9129944 0V.042999269H.84399417V.30636598C.84399417 .39823915 .8049927 .4501953 .69299319 .4501953 .59199526 .4501953 .54499819 .38227845 .5289917 .3503723 .5130005 .43518067 .44499208 .4501953 .3809967 .4501953 .2849884 .4501953 .23298645 .38827516 .21199036 .3403778H.21099854V.4501953L.041992189 .4423828V.3993683C.10398865 .3993683 .11099243 .3993683 .11099243 .36035157V.042999269H.041992189V0C.06498718 .0019989014 .13699341 .0019989014 .16499329 .0019989014 .19299317 .0019989014 .2659912 .0019989014 .2889862 0V.042999269H.21998596V.25627137C.21998596 .36532594 .30099488 .41719056 .3639984 .41719056 .40098573 .41719056 .4229889 .3952484 .4229889 .3173828V.042999269H.35398866V0C.3769989 .0019989014 .44898988 .0019989014 .47698976 .0019989014 .5049896 .0019989014 .5779877 .0019989014 .6009979 0V.042999269H.5319977V.25628663C.5319977 .36532594 .61299136 .41719056 .6759949 .41719056 .71299746 .41719056 .7350006 .3952484 .7350006 .3173828V.042999269H.66600039V0C.68899539 .0019989014 .7609863 .0019989014 .78900149 .0019989014 .81700137 .0019989014 .8899994 .0019989014 .9129944 0Z"/>
<path id="font_1_82" d="M.48298646 0V.042999269H.34599305V.6270447C.34599305 .65625 .34399415 .65625 .31199647 .65625 .23799134 .5918274 .1269989 .5918274 .10499573 .5918274H.085998538V.5488281H.10499573C.13999939 .5488281 .19299317 .5548248 .23298645 .5678253V.042999269H.09399414V0L.28799439 .0019989014 .48298646 0Z"/>
</defs>
<path transform="matrix(1.00006,0,0,-1.00002,2.494011,200.6257)" d="M0 0H297.6415L396.85533 198.42766H99.21382Z" fill="#ffffff"/>
<path transform="matrix(1.00006,0,0,-1.00002,2.494011,200.6257)" stroke-width="1.19553" stroke-linecap="butt" stroke-miterlimit="10" stroke-linejoin="miter" fill="none" stroke="#000000" d="M0 0H297.6415L396.85533 198.42766H99.21382Z"/>
<path transform="matrix(1.00006,0,0,-1.00002,2.494011,200.6257)" stroke-width=".79701" stroke-linecap="butt" stroke-dasharray="2.98883,2.98883" stroke-miterlimit="10" stroke-linejoin="miter" fill="none" stroke="#000000" d="M99.21382 0V198.42766"/>
<path transform="matrix(1.00006,0,0,-1.00002,2.494011,200.6257)" stroke-width=".3985" stroke-linecap="butt" stroke-miterlimit="10" stroke-linejoin="miter" fill="none" stroke="#000000" d="M99.21382 0V14.17339H113.38722V0ZM113.38722 14.17339"/>
<use data-text="4" xlink:href="#font_1_57" transform="matrix(24.788586,0,0,-24.787596,125.7424,237.12844)"/>
<use data-text="2" xlink:href="#font_1_107" transform="matrix(24.788586,0,0,-24.787596,139.69838,237.12844)"/>
<use data-text="m" xlink:href="#font_1_75" transform="matrix(24.788586,0,0,-24.787596,162.9253,237.12844)"/>
<use data-text="2" xlink:href="#font_1_107" transform="matrix(0,-24.787596,-24.788586,-0,75.826419,141.16449)"/>
<use data-text="1" xlink:href="#font_1_82" transform="matrix(0,-24.787596,-24.788586,-0,75.826419,127.20908)"/>
<use data-text="m" xlink:href="#font_1_75" transform="matrix(0,-24.787596,-24.788586,-0,75.826419,103.98309)"/>
</svg>
