<svg xmlns="http://www.w3.org/2000/svg" xmlns:xlink="http://www.w3.org/1999/xlink" xmlns:inkscape="http://www.inkscape.org/namespaces/inkscape" version="1.1" width="89" height="89" viewBox="0 0 89 89">
<path transform="matrix(1.00003,0,0,-1.00002,2.2955018,87.03942)" stroke-width=".79701" stroke-linecap="butt" stroke-miterlimit="10" stroke-linejoin="miter" fill="none" stroke="#0000ff" d="M0 0V85.04042"/>
<path transform="matrix(1.00003,0,0,-1.00002,2.2955018,87.03942)" stroke-width=".79701" stroke-linecap="butt" stroke-miterlimit="10" stroke-linejoin="miter" fill="none" stroke="#0000ff" d="M28.3468 0V85.04042"/>
<path transform="matrix(1.00003,0,0,-1.00002,2.2955018,87.03942)" stroke-width=".79701" stroke-linecap="butt" stroke-miterlimit="10" stroke-linejoin="miter" fill="none" stroke="#0000ff" d="M56.69362 0V85.04042"/>
<path transform="matrix(1.00003,0,0,-1.00002,2.2955018,87.03942)" stroke-width=".79701" stroke-linecap="butt" stroke-miterlimit="10" stroke-linejoin="miter" fill="none" stroke="#0000ff" d="M85.04042 0V85.04042"/>
<path transform="matrix(1.00003,0,0,-1.00002,2.2955018,87.03942)" stroke-width=".79701" stroke-linecap="butt" stroke-miterlimit="10" stroke-linejoin="miter" fill="none" stroke="#0000ff" d="M0 0H85.04042"/>
<path transform="matrix(1.00003,0,0,-1.00002,2.2955018,87.03942)" stroke-width=".79701" stroke-linecap="butt" stroke-miterlimit="10" stroke-linejoin="miter" fill="none" stroke="#0000ff" d="M0 28.3468H85.04042"/>
<path transform="matrix(1.00003,0,0,-1.00002,2.2955018,87.03942)" stroke-width=".79701" stroke-linecap="butt" stroke-miterlimit="10" stroke-linejoin="miter" fill="none" stroke="#0000ff" d="M0 56.69362H85.04042"/>
<path transform="matrix(1.00003,0,0,-1.00002,2.2955018,87.03942)" stroke-width=".79701" stroke-linecap="butt" stroke-miterlimit="10" stroke-linejoin="miter" fill="none" stroke="#0000ff" d="M0 85.04042H85.04042"/>
</svg>
