<svg xmlns="http://www.w3.org/2000/svg" xmlns:xlink="http://www.w3.org/1999/xlink" xmlns:inkscape="http://www.inkscape.org/namespaces/inkscape" version="1.1" width="144" height="102" viewBox="0 0 144 102">
<defs>
<path id="font_1_1" d="M.2869873 .68333438C.2869873 .6843262 .2869873 .69433596 .27398683 .69433596 .25099183 .69433596 .17799378 .6863251 .1519928 .6843262 .14399719 .68333438 .1329956 .6823273 .1329956 .6643219 .1329956 .6523285 .14199829 .6523285 .15699768 .6523285 .20498657 .6523285 .20698548 .6453247 .20698548 .6353302L.20399475 .6153412 .05899048 .039260866C.054992677 .025253296 .054992677 .023254395 .054992677 .01725769 .054992677-.0057525637 .07499695-.0107421879 .083999637-.0107421879 .09700012-.0107421879 .11199951-.0017547608 .117996219 .010253906 .12298584 .019256592 .16799927 .20431519 .17399597 .22932434 .20799256 .22631836 .2899933 .21031189 .2899933 .14428711 .2899933 .13729859 .2899933 .13328552 .2869873 .123291019 .2849884 .11128235 .2829895 .09927368 .2829895 .088272098 .2829895 .029251099 .32299806-.0107421879 .375-.0107421879 .40499879-.0107421879 .43199159 .0052490236 .45399476 .042266847 .47898866 .08627319 .48999024 .14129639 .48999024 .14329529 .48999024 .1532898 .48098756 .1532898 .47799684 .1532898 .46798707 .1532898 .46699525 .14929199 .46398927 .13528443 .44400025 .06227112 .42099 .011245728 .3769989 .011245728 .35798646 .011245728 .34498597 .022247315 .34498597 .058273317 .34498597 .07527161 .34899903 .09828186 .35299684 .11428833 .35699464 .13128662 .35699464 .13528443 .35699464 .14529419 .35699464 .21031189 .2939911 .23931885 .20899964 .2503357 .23999024 .26834107 .27198792 .30033876 .29499818 .32435609 .34298707 .37734986 .3889923 .42037965 .43798829 .42037965 .44400025 .42037965 .44499208 .42037965 .44699098 .41937257 .45899964 .41737367 .45999146 .41737367 .46798707 .4113617 .46998597 .4103546 .46998597 .40934754 .47200013 .40734864 .42399598 .4043579 .4149933 .36535646 .4149933 .35334779 .4149933 .33735658 .42599488 .31835938 .45298768 .31835938 .47898866 .31835938 .5079956 .3403473 .5079956 .37934876 .5079956 .40934754 .4850006 .4423828 .43998719 .4423828 .4119873 .4423828 .3659973 .43437196 .2939911 .35435487 .2599945 .3163452 .22099304 .27633668 .18299866 .26133729L.2869873 .68333438Z"/>
<path id="font_2_2" d="M.2939911 .64004519C.2939911 .66400149 .2939911 .6660156 .2709961 .6660156 .20899964 .60227969 .12098694 .60227969 .08898926 .60227969V.57128909C.10899353 .57128909 .16799927 .57128909 .21998596 .5972748V.07902527C.21998596 .042999269 .21699524 .0309906 .1269989 .0309906H.09498596V0C.12998963 .0029907227 .21699524 .0029907227 .25698854 .0029907227 .29699708 .0029907227 .38398744 .0029907227 .4189911 0V.0309906H.3869934C.29699708 .0309906 .2939911 .041992189 .2939911 .07902527V.64004519Z"/>
<path id="font_2_1" d="M.45999146 .31976319C.45999146 .39982606 .45498658 .47988893 .41999818 .5539398 .37399293 .65000918 .2919922 .6660156 .25 .6660156 .18998719 .6660156 .116989139 .64001467 .07598877 .54693606 .04399109 .47789 .038986207 .39982606 .038986207 .31976319 .038986207 .24472046 .042999269 .15464783 .083999637 .07859802 .1269989-.0024719239 .19999695-.022460938 .24899292-.022460938 .30299378-.022460938 .3789978-.0014648438 .4229889 .09359741 .45498658 .16265869 .45999146 .2407074 .45999146 .31976319M.24899292-.00047302247C.20999146-.00047302247 .15098572 .024551392 .1329956 .12062073 .12199402 .18066406 .12199402 .2727356 .12199402 .3317871 .12199402 .39582826 .12199402 .46188355 .12998963 .5159149 .14898682 .63500979 .22399903 .64401248 .24899292 .64401248 .28199769 .64401248 .34799195 .6259918 .36698915 .52693179 .3769989 .47088624 .3769989 .39482118 .3769989 .3317871 .3769989 .25672914 .3769989 .18867493 .3659973 .12461853 .35099793 .029556275 .2939911-.00047302247 .24899292-.00047302247Z"/>
<path id="font_3_1" d="M.5069885 .24998474C.5069885 .3710022 .4099884 .4650116 .2919922 .4650116 .17199707 .4650116 .07699585 .36799623 .07699585 .25097657 .07699585 .1299591 .17399597 .035949708 .2919922 .035949708 .4119873 .035949708 .5069885 .13296509 .5069885 .24998474M.2919922 .08496094C.19799805 .08496094 .12599182 .16096497 .12599182 .24998474 .12599182 .34300233 .19999695 .41601563 .2919922 .41601563 .38598634 .41601563 .45799256 .33999635 .45799256 .25097657 .45799256 .15795899 .38398744 .08496094 .2919922 .08496094Z"/>
</defs>
<path transform="matrix(1.00002,0,0,-1.00003,57.988817,75.64679)" d="M0 0 4.96077 8.59233C.2153 11.33212-5.85254 9.70622-8.59233 4.96077-9.4629 3.4529-9.92155 1.74113-9.92155 0" fill="#00ff00"/>
<path transform="matrix(1.00002,0,0,-1.00003,57.988817,75.64679)" stroke-width=".3985" stroke-linecap="butt" stroke-miterlimit="10" stroke-linejoin="miter" fill="none" stroke="#000000" d="M0 0 4.96077 8.59233C.2153 11.33212-5.85254 9.70622-8.59233 4.96077-9.4629 3.4529-9.92155 1.74113-9.92155 0"/>
<path transform="matrix(1.00002,0,0,-1.00003,57.988817,75.64679)" stroke-width=".3985" stroke-linecap="butt" stroke-miterlimit="10" stroke-linejoin="miter" fill="none" stroke="#000000" d="M-7.08669 12.27454"/>
<use data-text="k" xlink:href="#font_1_1" transform="matrix(9.962799,0,0,-9.962899,48.15162,66.83153)"/>
<path transform="matrix(1.00002,0,0,-1.00003,57.988817,75.64679)" d="M0 0H12.75597C12.75597 4.55673 10.32423 8.76865 6.37798 11.04701" fill="#ffffff"/>
<path transform="matrix(1.00002,0,0,-1.00003,57.988817,75.64679)" stroke-width=".3985" stroke-linecap="butt" stroke-miterlimit="10" stroke-linejoin="miter" fill="none" stroke="#000000" d="M0 0H12.75597C12.75597 4.55673 10.32423 8.76865 6.37798 11.04701"/>
<path transform="matrix(1.00002,0,0,-1.00003,57.988817,75.64679)" d="M0 0H-14.17339C-14.17339-5.06305-11.47144-9.74301-7.08669-12.27454" fill="#ffffff"/>
<path transform="matrix(1.00002,0,0,-1.00003,57.988817,75.64679)" stroke-width=".3985" stroke-linecap="butt" stroke-miterlimit="10" stroke-linejoin="miter" fill="none" stroke="#000000" d="M0 0H-14.17339C-14.17339-5.06305-11.47144-9.74301-7.08669-12.27454"/>
<path transform="matrix(1.00002,0,0,-1.00003,57.988817,75.64679)" d="M0 0-5.66927-9.81949C-.24605-12.95058 6.68839-11.09248 9.81949-5.66927 10.81438-3.94604 11.33855-1.98979 11.33855 0" fill="#ffffff"/>
<path transform="matrix(1.00002,0,0,-1.00003,57.988817,75.64679)" stroke-width=".3985" stroke-linecap="butt" stroke-miterlimit="10" stroke-linejoin="miter" fill="none" stroke="#000000" d="M0 0-5.66927-9.81949C-.24605-12.95058 6.68839-11.09248 9.81949-5.66927 10.81438-3.94604 11.33855-1.98979 11.33855 0"/>
<path transform="matrix(1.00002,0,0,-1.00003,57.988817,75.64679)" d="M28.3468 49.09825H17.00826C17.00826 45.04787 19.1698 41.30396 22.67754 39.27876" fill="#ffffff"/>
<path transform="matrix(1.00002,0,0,-1.00003,57.988817,75.64679)" stroke-width=".3985" stroke-linecap="butt" stroke-miterlimit="10" stroke-linejoin="miter" fill="none" stroke="#000000" d="M28.3468 49.09825H17.00826C17.00826 45.04787 19.1698 41.30396 22.67754 39.27876"/>
<path transform="matrix(1.00002,0,0,-1.00003,57.988817,75.64679)" d="M28.3468 49.09825 24.09474 41.73344C28.16226 39.38509 33.36322 40.77867 35.7116 44.84619 36.4578 46.13864 36.85092 47.60585 36.85092 49.09825" fill="#ffffff"/>
<path transform="matrix(1.00002,0,0,-1.00003,57.988817,75.64679)" stroke-width=".3985" stroke-linecap="butt" stroke-miterlimit="10" stroke-linejoin="miter" fill="none" stroke="#000000" d="M28.3468 49.09825 24.09474 41.73344C28.16226 39.38509 33.36322 40.77867 35.7116 44.84619 36.4578 46.13864 36.85092 47.60585 36.85092 49.09825"/>
<path transform="matrix(1.00002,0,0,-1.00003,57.988817,75.64679)" stroke-width=".3985" stroke-linecap="butt" stroke-miterlimit="10" stroke-linejoin="miter" fill="none" stroke="#ffffff" d="M28.3468 49.09825H41.10278C41.10278 53.65498 38.67105 57.8669 34.7248 60.14526"/>
<path transform="matrix(1.00002,0,0,-1.00003,57.988817,75.64679)" d="M28.3468 49.09825 32.59886 56.46304C28.53134 58.81142 23.33038 57.41782 20.98201 53.3503 20.23582 52.05786 19.84268 50.59064 19.84268 49.09825" fill="#fff200"/>
<path transform="matrix(1.00002,0,0,-1.00003,57.988817,75.64679)" stroke-width=".3985" stroke-linecap="butt" stroke-miterlimit="10" stroke-linejoin="miter" fill="none" stroke="#000000" d="M28.3468 49.09825 32.59886 56.46304C28.53134 58.81142 23.33038 57.41782 20.98201 53.3503 20.23582 52.05786 19.84268 50.59064 19.84268 49.09825"/>
<path transform="matrix(1.00002,0,0,-1.00003,57.988817,75.64679)" stroke-width=".3985" stroke-linecap="butt" stroke-miterlimit="10" stroke-linejoin="miter" fill="none" stroke="#000000" d="M21.26012 61.3728"/>
<use data-text="1" xlink:href="#font_2_2" transform="matrix(9.962799,0,0,-9.962899,69.487049,17.70205)"/>
<use data-text="1" xlink:href="#font_2_2" transform="matrix(9.962799,0,0,-9.962899,74.46843,17.70205)"/>
<use data-text="0" xlink:href="#font_2_1" transform="matrix(9.962799,0,0,-9.962899,79.44983,17.70205)"/>
<use data-text="&#x25e6;" xlink:href="#font_3_1" transform="matrix(6.97394,0,0,-6.9740097,84.431339,14.086937)"/>
<path transform="matrix(1.00002,0,0,-1.00003,57.988817,75.64679)" stroke-width=".79701" stroke-linecap="butt" stroke-miterlimit="10" stroke-linejoin="miter" fill="none" stroke="#000000" d="M-14.17339-24.5491 42.52022 73.64738"/>
<path transform="matrix(1.00002,0,0,-1.00003,57.988817,75.64679)" stroke-width=".79701" stroke-linecap="butt" stroke-miterlimit="10" stroke-linejoin="miter" fill="none" stroke="#ff0000" d="M-56.69362 0H85.04042"/>
<path transform="matrix(1.00002,0,0,-1.00003,57.988817,75.64679)" stroke-width=".79701" stroke-linecap="butt" stroke-miterlimit="10" stroke-linejoin="miter" fill="none" stroke="#0000ff" d="M-56.69362 49.09825H85.04042"/>
</svg>
