<svg xmlns="http://www.w3.org/2000/svg" xmlns:xlink="http://www.w3.org/1999/xlink" xmlns:inkscape="http://www.inkscape.org/namespaces/inkscape" version="1.1" width="118" height="66" viewBox="0 0 118 66">
<path transform="matrix(1.00002,0,0,-1,2.29467,61.327)" stroke-width=".79701" stroke-linecap="butt" stroke-miterlimit="10" stroke-linejoin="miter" fill="none" stroke="#00ff00" d="M0 56.69362V0H113.38724L56.69362 56.69362H0"/>
<path transform="matrix(1.00002,0,0,-1,2.29467,61.327)" stroke-width=".3985" stroke-linecap="butt" stroke-miterlimit="10" stroke-linejoin="miter" fill="none" stroke="#00ff00" d="M0 0V8.50412H8.50412V0"/>
<path transform="matrix(1.00002,0,0,-1,2.29467,61.327)" stroke-width=".3985" stroke-linecap="butt" stroke-miterlimit="10" stroke-linejoin="miter" fill="none" stroke="#00ff00" d="M0 56.69362H8.50412V48.18947H0"/>
<path transform="matrix(1.00002,0,0,-1,2.29467,61.327)" stroke-width=".3985" stroke-linecap="butt" stroke-miterlimit="10" stroke-linejoin="miter" fill="none" stroke="#0000ff" d="M25.51193 59.52846 28.3468 56.69362 25.51193 53.85875"/>
<path transform="matrix(1.00002,0,0,-1,2.29467,61.327)" stroke-width=".3985" stroke-linecap="butt" stroke-miterlimit="10" stroke-linejoin="miter" fill="none" stroke="#0000ff" d="M25.51193 2.83484 28.3468 0 25.51193-2.83484"/>
</svg>
