<svg xmlns="http://www.w3.org/2000/svg" xmlns:xlink="http://www.w3.org/1999/xlink" xmlns:inkscape="http://www.inkscape.org/namespaces/inkscape" version="1.1" width="288" height="288" viewBox="0 0 288 288">
<defs>
<path id="font_1_1" d="M.08799744 .059265138C.084991458 .044265748 .07899475 .021255494 .07899475 .01625061 .07899475-.0017547608 .09298706-.0107421879 .10798645-.0107421879 .11999512-.0107421879 .13798523-.002746582 .14498902 .01725769 .14698792 .021255494 .18099976 .15730286 .18499756 .17530823 .19299317 .20831299 .21099854 .27833558 .21699524 .30534364 .22099304 .31835938 .24899292 .36535646 .272995 .38734437 .2809906 .39434815 .30999757 .42037965 .35299684 .42037965 .3789978 .42037965 .3939972 .4083557 .394989 .4083557 .36499024 .40335084 .34298707 .37934876 .34298707 .35334779 .34298707 .33735658 .35398866 .31835938 .3809967 .31835938 .4079895 .31835938 .43598939 .34135438 .43598939 .37734986 .43598939 .41235353 .4039917 .4423828 .35299684 .4423828 .28799439 .4423828 .24398804 .39335633 .22499085 .36535646 .21699524 .4103546 .18099976 .4423828 .13398743 .4423828 .08799744 .4423828 .068984989 .40335084 .05999756 .38534547 .041992189 .35134889 .0289917 .29133607 .0289917 .28834535 .0289917 .27833558 .038986207 .27833558 .040985109 .27833558 .050994874 .27833558 .051986696 .27934266 .057998659 .30134584 .07499695 .37234498 .09498596 .42037965 .1309967 .42037965 .147995 .42037965 .1619873 .41235353 .1619873 .37435914 .1619873 .35334779 .15899658 .3423462 .1459961 .29034425L.08799744 .059265138Z"/>
<path id="font_2_88" d="M.19198609 .052993776C.19198609 .08198547 .16799927 .10598755 .13899231 .10598755 .10998535 .10598755 .085998538 .08198547 .085998538 .052993776 .085998538 .023986817 .10998535 0 .13899231 0 .16799927 0 .19198609 .023986817 .19198609 .052993776Z"/>
</defs>
<path transform="matrix(1.00003,0,0,-1.00002,144.23177,143.93157)" d="M141.73404 0C141.73404 78.27855 78.27855 141.73404 0 141.73404-78.27855 141.73404-141.73404 78.27855-141.73404 0-141.73404-78.27855-78.27855-141.73404 0-141.73404 78.27855-141.73404 141.73404-78.27855 141.73404 0ZM0 0" fill="#ffffff"/>
<path transform="matrix(1.00003,0,0,-1.00002,144.23177,143.93157)" stroke-width="1.19553" stroke-linecap="butt" stroke-miterlimit="10" stroke-linejoin="miter" fill="none" stroke="#000000" d="M141.73404 0C141.73404 78.27855 78.27855 141.73404 0 141.73404-78.27855 141.73404-141.73404 78.27855-141.73404 0-141.73404-78.27855-78.27855-141.73404 0-141.73404 78.27855-141.73404 141.73404-78.27855 141.73404 0ZM0 0"/>
<path transform="matrix(1.00003,0,0,-1.00002,144.23177,143.93157)" d="M0 0H141.73404"/>
<path transform="matrix(1.00003,0,0,-1.00002,144.23177,143.93157)" stroke-width=".79701" stroke-linecap="butt" stroke-miterlimit="10" stroke-linejoin="miter" fill="none" stroke="#000000" d="M0 0H141.73404"/>
<use data-text="r" xlink:href="#font_1_1" transform="matrix(9.962899,0,0,-9.962799,212.71483,131.90233)"/>
<use data-text="." xlink:href="#font_2_88" transform="matrix(9.962899,0,0,-9.962799,142.84673,144.45958)"/>
</svg>
