<svg xmlns="http://www.w3.org/2000/svg" xmlns:xlink="http://www.w3.org/1999/xlink" xmlns:inkscape="http://www.inkscape.org/namespaces/inkscape" version="1.1" width="145" height="136" viewBox="0 0 145 136">
<defs>
<path id="font_1_106" d="M.526001 .18013C.526001 .23513794 .49699403 .32113648 .35198976 .35212709 .42099 .3731537 .49398805 .4303589 .49398805 .5164032 .49398805 .5933533 .41799928 .65527346 .2769928 .65527346 .1579895 .65527346 .07998657 .59135439 .07998657 .5113983 .07998657 .46839906 .11099243 .44140626 .14898682 .44140626 .19400025 .44140626 .21899414 .47340394 .21899414 .51039126 .21899414 .56840518 .16499329 .5793915 .16099549 .58039858 .19599915 .6082916 .23999024 .616272 .2709961 .616272 .35398866 .616272 .35699464 .5523987 .35699464 .5193939 .35699464 .50639346 .35598756 .3751526 .2519989 .36914063 .21099854 .36712647 .20899964 .36613465 .20399475 .36512757 .19400025 .36413575 .19198609 .35412599 .19198609 .34812928 .19198609 .33013917 .20199585 .33013917 .21998596 .33013917H.2639923C.37298585 .33013917 .37298585 .23243714 .37298585 .18159485 .37298585 .13456726 .37298585 .03225708 .2689972 .03225708 .24299622 .03225708 .19099427 .03627014 .14299011 .06636047 .17599488 .07537842 .20098877 .10046387 .20098877 .14160156 .20098877 .18644715 .16899109 .217453 .125 .217453 .08299255 .217453 .04798889 .19044495 .04798889 .13945008 .04798889 .049346925 .14498902-.0107421879 .27398683-.0107421879 .45298768-.010406494 .526001 .08959961 .526001 .18058777V.18013Z"/>
<path id="font_1_75" d="M.93499758 0V.04699707H.8659973V.30613709C.8659973 .40919496 .8149872 .4501953 .71199038 .4501953 .62098696 .4501953 .56900027 .40019227 .54299929 .3541565 .522995 .44718934 .43099977 .4501953 .3929901 .4501953 .30599977 .4501953 .24899292 .40518189 .21699524 .3421631V.4501953L.04499817 .4423828V.39537049C.10699463 .39537049 .11399841 .39537049 .11399841 .3563385V.04699707H.04499817V0L.17098999 .0029907227 .29699708 0V.04699707H.22799683V.2562256C.22799683 .3653412 .31498719 .41436769 .3769989 .41436769 .41099549 .41436769 .43299867 .39437867 .43299867 .31729127V.04699707H.3639984V0L.48999024 .0029907227 .6159973 0V.04699707H.5469971V.2562256C.5469971 .3653412 .6339874 .41436769 .69599917 .41436769 .7299957 .41436769 .7519989 .39437867 .7519989 .31729127V.04699707H.68299868V0L.8089905 .0029907227 .93499758 0Z"/>
</defs>
<path transform="matrix(1.00003,0,0,-1.00002,2.2955018,115.385997)" stroke-width=".79701" stroke-linecap="butt" stroke-miterlimit="10" stroke-linejoin="miter" fill="none" stroke="#000000" d="M0 0H85.04042V85.04042H0Z"/>
<path transform="matrix(1.00003,0,0,-1.00002,2.2955018,115.385997)" d="M0 0H85.04042L113.38724 28.3468H28.3468Z" fill="#b3b3ff"/>
<path transform="matrix(1.00003,0,0,-1.00002,2.2955018,115.385997)" stroke-width=".79701" stroke-linecap="butt" stroke-miterlimit="10" stroke-linejoin="miter" fill="none" stroke="#000000" d="M0 0H85.04042V85.04042H0Z"/>
<path transform="matrix(1.00003,0,0,-1.00002,2.2955018,115.385997)" stroke-width=".79701" stroke-linecap="butt" stroke-miterlimit="10" stroke-linejoin="miter" fill="none" stroke="#000000" d="M28.3468 28.3468H113.38724V113.38724H28.3468Z"/>
<path transform="matrix(1.00003,0,0,-1.00002,2.2955018,115.385997)" stroke-width=".79701" stroke-linecap="butt" stroke-miterlimit="10" stroke-linejoin="miter" fill="none" stroke="#000000" d="M0 0 28.3468 28.3468"/>
<path transform="matrix(1.00003,0,0,-1.00002,2.2955018,115.385997)" stroke-width=".79701" stroke-linecap="butt" stroke-miterlimit="10" stroke-linejoin="miter" fill="none" stroke="#000000" d="M85.04042 0 113.38724 28.3468"/>
<path transform="matrix(1.00003,0,0,-1.00002,2.2955018,115.385997)" stroke-width=".79701" stroke-linecap="butt" stroke-miterlimit="10" stroke-linejoin="miter" fill="none" stroke="#000000" d="M85.04042 85.04042 113.38724 113.38724"/>
<path transform="matrix(1.00003,0,0,-1.00002,2.2955018,115.385997)" stroke-width=".79701" stroke-linecap="butt" stroke-miterlimit="10" stroke-linejoin="miter" fill="none" stroke="#000000" d="M0 85.04042 28.3468 113.38724"/>
<path transform="matrix(1.00003,0,0,-1.00002,2.2955018,115.385997)" stroke-width=".79701" stroke-linecap="butt" stroke-miterlimit="10" stroke-linejoin="miter" fill="none" stroke="#ff0000" d="M.70735-8.50412H84.33305"/>
<path transform="matrix(-1.00003,-0,0,1.00002,3.002873,123.89028)" stroke-width=".6376" stroke-linecap="round" stroke-linejoin="round" fill="none" stroke="#ff0000" d="M-1.55415 2.0722C-1.42464 1.29512 0 .1295 .38852 0 0-.1295-1.42464-1.29512-1.55415-2.0722"/>
<path transform="matrix(1.00003,0,0,-1.00002,86.63109,123.89028)" stroke-width=".6376" stroke-linecap="round" stroke-linejoin="round" fill="none" stroke="#ff0000" d="M-1.55415 2.0722C-1.42464 1.29512 0 .1295 .38852 0 0-.1295-1.42464-1.29512-1.55415-2.0722"/>
<use data-text="3" xlink:href="#font_1_106" transform="matrix(9.962899,0,0,-9.962799,37.18055,134.13538)" fill="#ff0000"/>
<use data-text="m" xlink:href="#font_1_75" transform="matrix(9.962899,0,0,-9.962799,42.909219,134.13538)" fill="#ff0000"/>
<path transform="matrix(1.00003,0,0,-1.00002,2.2955018,115.385997)" stroke-width=".79701" stroke-linecap="butt" stroke-miterlimit="10" stroke-linejoin="miter" fill="none" stroke="#0000ff" d="M121.89136 29.05417V112.67987"/>
<path transform="matrix(0,1.00002,1.00003,0,124.19052,86.33124)" stroke-width=".6376" stroke-linecap="round" stroke-linejoin="round" fill="none" stroke="#0000ff" d="M-1.55415 2.0722C-1.42464 1.29512 0 .1295 .38852 0 0-.1295-1.42464-1.29512-1.55415-2.0722"/>
<path transform="matrix(0,-1.00002,-1.00003,-0,124.19052,2.703865)" stroke-width=".6376" stroke-linecap="round" stroke-linejoin="round" fill="none" stroke="#0000ff" d="M-1.55415 2.0722C-1.42464 1.29512 0 .1295 .38852 0 0-.1295-1.42464-1.29512-1.55415-2.0722"/>
<use data-text="3" xlink:href="#font_1_106" transform="matrix(9.962899,0,0,-9.962799,127.90928,47.72564)" fill="#0000ff"/>
<use data-text="m" xlink:href="#font_1_75" transform="matrix(9.962899,0,0,-9.962799,133.63794,47.72564)" fill="#0000ff"/>
<path transform="matrix(1.00003,0,0,-1.00002,2.2955018,115.385997)" stroke-width=".79701" stroke-linecap="butt" stroke-miterlimit="10" stroke-linejoin="miter" fill="none" stroke="#00b300" d="M91.20987 .50017 118.55634 27.84663"/>
<path transform="matrix(-.7071212,.70711418,.7071212,.70711418,93.50812,114.8858)" stroke-width=".6376" stroke-linecap="round" stroke-linejoin="round" fill="none" stroke="#00b300" d="M-1.55415 2.0722C-1.42464 1.29512 0 .1295 .38852 0 0-.1295-1.42464-1.29512-1.55415-2.0722"/>
<path transform="matrix(.7071212,-.70711418,-.7071212,-.70711418,120.855388,87.53882)" stroke-width=".6376" stroke-linecap="round" stroke-linejoin="round" fill="none" stroke="#00b300" d="M-1.55415 2.0722C-1.42464 1.29512 0 .1295 .38852 0 0-.1295-1.42464-1.29512-1.55415-2.0722"/>
<use data-text="3" xlink:href="#font_1_106" transform="matrix(9.962899,0,0,-9.962799,110.900768,111.45692)" fill="#00b300"/>
<use data-text="m" xlink:href="#font_1_75" transform="matrix(9.962899,0,0,-9.962799,116.62943,111.45692)" fill="#00b300"/>
</svg>
