<svg xmlns="http://www.w3.org/2000/svg" xmlns:xlink="http://www.w3.org/1999/xlink" xmlns:inkscape="http://www.inkscape.org/namespaces/inkscape" version="1.1" width="174" height="175" viewBox="0 0 174 175">
<path transform="matrix(1.00003,0,0,-1.00002,86.73607,87.43744)" d="M85.04042 0C85.04042 46.96713 46.96713 85.04042 0 85.04042-46.96713 85.04042-85.04042 46.96713-85.04042 0-85.04042-46.96713-46.96713-85.04042 0-85.04042 46.96713-85.04042 85.04042-46.96713 85.04042 0ZM0 0" fill="#0000ff"/>
<path transform="matrix(1.00003,0,0,-1.00002,86.73607,87.43744)" stroke-width="1.19553" stroke-linecap="butt" stroke-miterlimit="10" stroke-linejoin="miter" fill="none" stroke="#000000" d="M85.04042 0C85.04042 46.96713 46.96713 85.04042 0 85.04042-46.96713 85.04042-85.04042 46.96713-85.04042 0-85.04042-46.96713-46.96713-85.04042 0-85.04042 46.96713-85.04042 85.04042-46.96713 85.04042 0ZM0 0"/>
<path transform="matrix(1.00003,0,0,-1.00002,86.73607,87.43744)" stroke-width="1.59404" stroke-linecap="butt" stroke-miterlimit="10" stroke-linejoin="miter" fill="none" stroke="#0000ff" d="M0 0H85.04042"/>
<path transform="matrix(1.00003,0,0,-1.00002,86.73607,87.43744)" stroke-width="1.59404" stroke-linecap="butt" stroke-miterlimit="10" stroke-linejoin="miter" fill="none" stroke="#0000ff" d="M0 0 73.64735 42.5202"/>
<path transform="matrix(1.00003,0,0,-1.00002,86.73607,87.43744)" stroke-width="1.59404" stroke-linecap="butt" stroke-miterlimit="10" stroke-linejoin="miter" fill="none" stroke="#0000ff" d="M0 0 42.5202 73.64735"/>
<path transform="matrix(1.00003,0,0,-1.00002,86.73607,87.43744)" stroke-width="1.59404" stroke-linecap="butt" stroke-miterlimit="10" stroke-linejoin="miter" fill="none" stroke="#0000ff" d="M0 0V85.04042"/>
<path transform="matrix(1.00003,0,0,-1.00002,86.73607,87.43744)" stroke-width="1.59404" stroke-linecap="butt" stroke-miterlimit="10" stroke-linejoin="miter" fill="none" stroke="#0000ff" d="M0 0-42.5202 73.64735"/>
<path transform="matrix(1.00003,0,0,-1.00002,86.73607,87.43744)" stroke-width="1.59404" stroke-linecap="butt" stroke-miterlimit="10" stroke-linejoin="miter" fill="none" stroke="#0000ff" d="M0 0-73.64735 42.5202"/>
<path transform="matrix(1.00003,0,0,-1.00002,86.73607,87.43744)" stroke-width="1.59404" stroke-linecap="butt" stroke-miterlimit="10" stroke-linejoin="miter" fill="none" stroke="#0000ff" d="M0 0H-85.04042"/>
<path transform="matrix(1.00003,0,0,-1.00002,86.73607,87.43744)" stroke-width="1.59404" stroke-linecap="butt" stroke-miterlimit="10" stroke-linejoin="miter" fill="none" stroke="#0000ff" d="M0 0-73.64735-42.5202"/>
<path transform="matrix(1.00003,0,0,-1.00002,86.73607,87.43744)" stroke-width="1.59404" stroke-linecap="butt" stroke-miterlimit="10" stroke-linejoin="miter" fill="none" stroke="#0000ff" d="M0 0-42.5202-73.64735"/>
<path transform="matrix(1.00003,0,0,-1.00002,86.73607,87.43744)" stroke-width="1.59404" stroke-linecap="butt" stroke-miterlimit="10" stroke-linejoin="miter" fill="none" stroke="#0000ff" d="M0 0V-85.04042"/>
<path transform="matrix(1.00003,0,0,-1.00002,86.73607,87.43744)" stroke-width="1.59404" stroke-linecap="butt" stroke-miterlimit="10" stroke-linejoin="miter" fill="none" stroke="#0000ff" d="M0 0 42.5202-73.64735"/>
<path transform="matrix(1.00003,0,0,-1.00002,86.73607,87.43744)" stroke-width="1.59404" stroke-linecap="butt" stroke-miterlimit="10" stroke-linejoin="miter" fill="none" stroke="#0000ff" d="M0 0 73.64735-42.5202"/>
<path transform="matrix(1.00003,0,0,-1.00002,86.73607,87.43744)" d="M0 0H85.04042C85.04042 14.92384 81.10863 29.59598 73.64735 42.5202Z" fill="#00ff00"/>
<path transform="matrix(1.00003,0,0,-1.00002,86.73607,87.43744)" d="M0 0 42.5202 73.64735C29.59598 81.10863 14.92384 85.04042 0 85.04042Z" fill="#00ff00"/>
<path transform="matrix(1.00003,0,0,-1.00002,86.73607,87.43744)" d="M0 0-42.5202 73.64735C-55.44443 66.1861-66.1861 55.44443-73.64735 42.5202Z" fill="#00ff00"/>
<path transform="matrix(1.00003,0,0,-1.00002,86.73607,87.43744)" d="M0 0H-85.04042C-85.04042-14.92384-81.10863-29.59598-73.64735-42.5202Z" fill="#00ff00"/>
<path transform="matrix(1.00003,0,0,-1.00002,86.73607,87.43744)" d="M0 0-42.5202-73.64735C-29.59598-81.10863-14.92384-85.04042 0-85.04042Z" fill="#00ff00"/>
<path transform="matrix(1.00003,0,0,-1.00002,86.73607,87.43744)" d="M0 0 42.5202-73.64735C55.44443-66.1861 66.1861-55.44443 73.64735-42.5202Z" fill="#00ff00"/>
</svg>
