<svg xmlns="http://www.w3.org/2000/svg" xmlns:xlink="http://www.w3.org/1999/xlink" xmlns:inkscape="http://www.inkscape.org/namespaces/inkscape" version="1.1" width="288" height="231" viewBox="0 0 288 231">
<defs>
<path id="font_1_35" d="M.5209961 .2163086C.5209961 .34335328 .4229889 .4423828 .30899049 .4423828 .23098755 .4423828 .18798828 .39537049 .17199707 .3773651V.69433596L.027999878 .68333438V.6523285C.09799194 .6523285 .10598755 .6453247 .10598755 .596344V.00024414063H.1309967L.16699219 .06227112C.18199158 .039260866 .22399903-.0107421879 .2979889-.0107421879 .4169922-.0107421879 .5209961 .08728027 .5209961 .2163086M.43798829 .21731568C.43798829 .18029785 .43598939 .120285037 .40699769 .07527161 .38598634 .044265748 .34799195 .011245728 .2939911 .011245728 .24899292 .011260986 .21299744 .03526306 .18899536 .072265628 .1749878 .09326172 .1749878 .09625244 .1749878 .11425781V.32034303C.1749878 .3393402 .1749878 .3403473 .18598938 .35635377 .22499085 .41236878 .27999879 .42037965 .3039856 .42037965 .34899903 .42037965 .3849945 .3943634 .40899659 .35635377 .43499757 .31533814 .43798829 .25831605 .43798829 .21730042V.21731568Z"/>
<path id="font_1_81" d="M.47099305 .21424866C.47099305 .34223939 .37098695 .4482422 .25 .4482422 .125 .4482422 .027999878 .3392334 .027999878 .21424866 .027999878 .085250858 .13198853-.0107421879 .24899292-.0107421879 .36999513-.0107421879 .47099305 .087249759 .47099305 .21424866M.3880005 .22224427C.3880005 .18624878 .3880005 .13224793 .3659973 .08824158 .34399415 .04324341 .2999878 .014251709 .25 .014251709 .20698548 .014251709 .16299439 .035247804 .13598633 .08125305 .11099243 .12524414 .11099243 .18624878 .11099243 .22224427 .11099243 .26124574 .11099243 .31523133 .1349945 .35923768 .1619873 .40522767 .20899964 .426239 .24899292 .426239 .29299928 .426239 .33599855 .40423585 .3619995 .36123658 .3880005 .3182373 .3880005 .26023866 .3880005 .22224427Z"/>
<path id="font_1_96" d="M.3639984 .38137818C.3639984 .41337586 .33299256 .4423828 .2899933 .4423828 .21699524 .4423828 .18099976 .37538148 .16699219 .3323822V.4423828L.027999878 .43066407V.3996582C.09799194 .3996582 .10598755 .39266969 .10598755 .34370423V.07595825C.10598755 .0309906 .09498596 .0309906 .027999878 .0309906V0L.14199829 .0029907227C.18199158 .0029907227 .22898865 .0029907227 .2689972 0V.0309906H.24798584C.17399597 .0309906 .17199707 .04197693 .17199707 .07795715V.23181153C.17199707 .33137513 .21398926 .42037965 .2899933 .42037965 .29699708 .42037965 .29899598 .42037965 .30099488 .41937257 .2979889 .41838075 .27799989 .40637208 .27799989 .3803711 .27799989 .35237123 .29899598 .33737184 .32099916 .33737184 .33898927 .33737184 .3639984 .3493805 .3639984 .38137818Z"/>
<path id="font_1_114" d="M.7029877 .3996582V.43066407C.68099978 .4286499 .6519928 .42765809 .6299896 .42765809L.5369873 .43066407V.3996582C.57299807 .39866639 .59498599 .38075257 .59498599 .35176087 .59498599 .34576417 .59498599 .34376527 .58999636 .33078004L.49899293 .07513428 .3999939 .35375978C.3959961 .36575318 .394989 .36775209 .394989 .37275697 .394989 .3996582 .43399049 .3996582 .45399476 .3996582V.43066407L.34999085 .42765809C.31999208 .42765809 .29100038 .4286499 .26098634 .43066407V.3996582C.2979889 .3996582 .31399537 .39767457 .32398988 .38476563 .32899476 .37875367 .33999635 .34877015 .34700013 .3297882L.26098634 .08811951 .1659851 .3547516C.16099549 .36676026 .16099549 .36875917 .16099549 .37275697 .16099549 .3996582 .19999695 .3996582 .21998596 .3996582V.43066407L.11099243 .42765809 .017990113 .43066407V.3996582C.067993167 .3996582 .07998657 .39668275 .09199524 .36476136L.21798706 .01121521C.22299195-.0027618409 .22599793-.0107421879 .23899842-.0107421879 .2519989-.0107421879 .2539978-.004760742 .25898744 .009216309L.3600006 .2918396 .46199037 .008224487C.46598817-.0027618409 .46899415-.0107421879 .48199464-.0107421879 .49499513-.0107421879 .49798585-.0017547608 .5019989 .008224487L.61898806 .3357849C.6369934 .38575746 .66799929 .39866639 .7029877 .3996582Z"/>
<path id="font_1_43" d="M.4149933 .119140628C.4149933 .12911988 .40499879 .12911988 .4019928 .12911988 .3929901 .12911988 .3909912 .12512207 .3889923 .119140628 .3600006 .026229859 .29499818 .014251709 .2579956 .014251709 .20498657 .014251709 .116989139 .0572052 .116989139 .21801758 .116989139 .38093568 .19898987 .42323304 .2519989 .42323304 .26098634 .42323304 .32398988 .42222596 .35899354 .38594056 .31799317 .38293458 .31199647 .3529358 .31199647 .3399353 .31199647 .31393434 .32998658 .2939453 .35798646 .2939453 .38398744 .2939453 .4039917 .3109436 .4039917 .34094239 .4039917 .40911866 .32798768 .4482422 .25099183 .4482422 .12599182 .4482422 .033996583 .3399353 .033996583 .21601868 .033996583 .08816528 .1329956-.0107421879 .24899292-.0107421879 .3829956-.0107421879 .4149933 .10914612 .4149933 .119140628Z"/>
<path id="font_1_98" d="M.3600006 .12823487C.3600006 .18122864 .32998658 .21122742 .31799317 .22323609 .2849884 .25523377 .24598694 .26322938 .20399475 .27124024 .147995 .28224183 .08099365 .29522706 .08099365 .35324098 .08099365 .38822938 .10699463 .42922975 .19299317 .42922975 .30299378 .42922975 .30799867 .3392334 .30999757 .30822755 .31098939 .2992401 .32199098 .2992401 .32199098 .2992401 .33499146 .2992401 .33499146 .30422975 .33499146 .32322694V.4242401C.33499146 .4412384 .33499146 .4482422 .32398988 .4482422 .31900025 .4482422 .31698609 .4482422 .3039856 .43623353 .30099488 .43223573 .29100038 .42323304 .2869873 .42022706 .24899292 .4482422 .20799256 .4482422 .19299317 .4482422 .070999149 .4482422 .032989503 .38124085 .032989503 .3252411 .032989503 .29023744 .04899597 .26223756 .07598877 .24023438 .10798645 .2142334 .13598633 .2082367 .20799256 .19422913 .22999573 .19021607 .31199647 .17422486 .31199647 .10221863 .31199647 .051223756 .2769928 .011245728 .19898987 .011245728 .114990238 .011245728 .07899475 .068222049 .05999756 .1532135 .056991579 .16621399 .055999757 .17021179 .04598999 .17021179 .032989503 .17021179 .032989503 .16322327 .032989503 .1452179V.013214111C.032989503-.003753662 .032989503-.0107421879 .04399109-.0107421879 .04899597-.0107421879 .049987794-.009750366 .068984989 .009246826 .070999149 .011245728 .070999149 .013214111 .08898926 .032226564 .1329956-.009750366 .17799378-.0107421879 .19898987-.0107421879 .31399537-.0107421879 .3600006 .05621338 .3600006 .1282196V.12823487Z"/>
<path id="font_1_28" d="M.48298646 .08912659V.14511109H.45799256V.08912659C.45799256 .03112793 .43299867 .025131226 .42199708 .025131226 .3889923 .025131226 .3849945 .070129398 .3849945 .07511902V.27508546C.3849945 .31707765 .3849945 .3560791 .34899903 .39312745 .30999757 .43223573 .2599945 .4482422 .21199036 .4482422 .12998963 .4482422 .06098938 .40115357 .06098938 .335083 .06098938 .30508424 .08099365 .28808595 .10699463 .28808595 .1349945 .28808595 .15299988 .30807496 .15299988 .33407594 .15299988 .3460846 .147995 .37908937 .101989749 .38008119 .1289978 .41519166 .17799378 .426239 .20999146 .426239 .25898744 .426239 .31599427 .38710023 .31599427 .29808045V.26107789C.2649994 .25808717 .19499207 .25508119 .13198853 .22509766 .056991579 .19110108 .03199768 .13911438 .03199768 .09512329 .03199768 .014251709 .1289978-.0107421879 .19198609-.0107421879 .2579956-.0107421879 .3039856 .029251099 .32299806 .07624817 .32699586 .036132814 .35398866-.005859375 .40098573-.005859375 .42199708-.005859375 .48298646 .008132935 .48298646 .08912659M.31599427 .14013672C.31599427 .04525757 .24398804 .011245728 .19898987 .011245728 .1499939 .011245728 .10899353 .04624939 .10899353 .09625244 .10899353 .15124512 .15098572 .23425293 .31599427 .24024964V.14013672Z"/>
<path id="font_1_50" d="M.4149933 .11933899C.4149933 .12934876 .40699769 .13134766 .4019928 .13134766 .3929901 .13134766 .3909912 .12535095 .3889923 .11734009 .35398866 .014251709 .2639923 .014251709 .2539978 .014251709 .20399475 .014251709 .1639862 .044281007 .14099121 .08131409 .11099243 .12934876 .11099243 .19540406 .11099243 .23144531H.3899994C.4119873 .23144531 .4149933 .23144531 .4149933 .2524414 .4149933 .35131837 .36099244 .4482422 .23599243 .4482422 .11999512 .4482422 .027999878 .34532167 .027999878 .22042847 .027999878 .08631897 .1329956-.0107421879 .24798584-.0107421879 .36999513-.0107421879 .4149933 .10032654 .4149933 .11933899M.34899903 .2524414H.11199951C.117996219 .40126039 .20199585 .426239 .23599243 .426239 .33898927 .426239 .34899903 .2913971 .34899903 .2524414Z"/>
<path id="font_1_66" d="M.24699402 0V.0309906C.18099976 .0309906 .1769867 .035995485 .1769867 .075042728V.4423828L.036987306 .43066407V.3996582C.101989749 .3996582 .11099243 .3936615 .11099243 .3447113V.07595825C.11099243 .0309906 .099990848 .0309906 .032989503 .0309906V0L.14299011 .0029907227C.17799378 .0029907227 .21299744 .0009918213 .24699402 0M.19198609 .603775C.19198609 .6307678 .16899109 .6567688 .13899231 .6567688 .10499573 .6567688 .084991458 .6287689 .084991458 .603775 .084991458 .57676699 .10798645 .55078127 .13798523 .55078127 .17199707 .55078127 .19198609 .5787811 .19198609 .603775Z"/>
<path id="font_1_105" d="M.33198548 .12385559V.18066406H.30699159V.12585449C.30699159 .052108766 .2769928 .014251709 .23999024 .014251709 .17298889 .014251709 .17298889 .10491943 .17298889 .12187195V.3996582H.31599427V.43066407H.17298889V.6142578H.147995C.14698792 .5324249 .116989139 .42565919 .018997193 .42166139V.3996582H.10398865V.12408447C.10398865 .0012512207 .19699097-.0107421879 .23298645-.0107421879 .3039856-.0107421879 .33198548 .060180665 .33198548 .12408447V.12385559Z"/>
<path id="font_1_63" d="M.5349884 0V.0309906C.48298646 .0309906 .45799256 .0309906 .45700074 .061019899V.25221253C.45700074 .3383026 .45700074 .36932374 .42599488 .405365 .4119873 .42237855 .3789978 .4423828 .32099916 .4423828 .23699951 .4423828 .19299317 .38233949 .1769867 .34629823H.17599488V.69433596L.03199768 .6826172V.6516113C.101989749 .6516113 .10998535 .64463809 .10998535 .59580996V.076034549C.10998535 .0309906 .09899902 .0309906 .03199768 .0309906V0L.14498902 .0029907227 .25698854 0V.0309906C.18998719 .0309906 .1789856 .0309906 .1789856 .076034549V.2602234C.1789856 .36431886 .25 .42037965 .31399537 .42037965 .3769989 .42037965 .3880005 .36631776 .3880005 .30926515V.076034549C.3880005 .0309906 .3769989 .0309906 .30999757 .0309906V0L.4229889 .0029907227 .5349884 0Z"/>
<path id="font_1_47" d="M.5269928 0V.0309906C.45700074 .0309906 .44898988 .038009645 .44898988 .0871582V.69433596L.30499269 .6826172V.6516113C.375 .6516113 .3829956 .64463809 .3829956 .59580996V.38035584C.35398866 .41636659 .31098939 .4423828 .25698854 .4423828 .13899231 .4423828 .033996583 .3443451 .033996583 .21531677 .033996583 .088272098 .13198853-.0107421879 .24598694-.0107421879 .30999757-.0107421879 .35499574 .023254395 .37998963 .055267335V-.0107421879L.5269928 0M.37998963 .117996219C.37998963 .099990848 .37998963 .09799194 .36898805 .08099365 .33898927 .033218385 .2939911 .011245728 .25099183 .011245728 .20599365 .011245728 .16999817 .037216188 .1459961 .075164798 .11999512 .1161499 .116989139 .17320252 .116989139 .21421814 .116989139 .25125123 .11898804 .31129457 .147995 .35632325 .16899109 .38734437 .20698548 .42037965 .26098634 .42037965 .29599 .42037965 .33799745 .405365 .36898805 .3603363 .37998963 .34332276 .37998963 .34132386 .37998963 .32330323V.117996219Z"/>
<path id="font_1_55" d="M.35699464 .63479617C.35699464 .6717987 .31999208 .7050781 .2669983 .7050781 .19699097 .7050781 .11199951 .65179446 .11199951 .5457611V.43066407H.032989503V.3996582H.11199951V.07595825C.11199951 .0309906 .100997928 .0309906 .033996583 .0309906V0L.147995 .0029907227C.18798828 .0029907227 .23498535 .0029907227 .2749939 0V.0309906H.2539978C.17999268 .0309906 .17799378 .04197693 .17799378 .07795715V.3996582H.2919922V.43066407H.1749878V.5467529C.1749878 .63479617 .22299195 .68307498 .2669983 .68307498 .269989 .68307498 .2849884 .68307498 .2999878 .675827 .28799439 .6717987 .269989 .6587982 .269989 .6338043 .269989 .61079409 .28599549 .5907898 .31298829 .5907898 .34199525 .5907898 .35699464 .61079409 .35699464 .63479617Z"/>
<path id="font_1_112" d="M.5079956 .3996582V.43066407C.4850006 .4286499 .45599366 .42765809 .43299867 .42765809L.34599305 .43066407V.3996582C.3829956 .39865113 .3939972 .37568666 .3939972 .35671998 .3939972 .34773255 .3919983 .34373475 .3880005 .3327484L.28599549 .078125 .17399597 .35671998C.16799927 .3697052 .16799927 .37368775 .16799927 .37368775 .16799927 .3996582 .20698548 .3996582 .22499085 .3996582V.43066407L.115997318 .42765809C.08898926 .42765809 .04899597 .4286499 .018997193 .43066407V.3996582C.08198547 .3996582 .085998538 .3936615 .09899902 .36271668L.24299622 .008224487C.24899292-.0057525637 .25099183-.0107421879 .2639923-.0107421879 .2769928-.0107421879 .2809906-.0017700195 .2849884 .008224487L.41600038 .3327484C.4249878 .3557129 .44198609 .39865113 .5079956 .3996582Z"/>
<path id="font_1_70" d="M.5109863 0V.0309906C.47399903 .0309906 .45199586 .0309906 .4139862 .0839386L.2869873 .26278688C.28599549 .26478578 .2809906 .2707672 .2809906 .2737732 .2809906 .277771 .35198976 .33770753 .3619995 .34570313 .4249878 .39666749 .46699525 .39865113 .48799134 .3996582V.43066407C.45899964 .42765809 .44599916 .42765809 .41799928 .42765809 .38198854 .42765809 .31999208 .42965699 .30599977 .43066407V.3996582C.32499696 .39865113 .33499146 .3876648 .33499146 .37467958 .33499146 .3547058 .32099916 .3427124 .31298829 .33570863L.17199707 .21382141V.69433596L.027999878 .6826172V.6516113C.09799194 .6516113 .10598755 .64460757 .10598755 .5956421V.07595825C.10598755 .0309906 .09498596 .0309906 .027999878 .0309906V0L.13699341 .0029907227 .24699402 0V.0309906C.17999268 .0309906 .16899109 .0309906 .16899109 .07595825V.17889405L.23298645 .23387146C.30999757 .12792969 .35198976 .07196045 .35198976 .053985597 .35198976 .034988405 .33499146 .0309906 .31599427 .0309906V0L.42399598 .0029907227C.45298768 .0029907227 .48199464 .0019989014 .5109863 0Z"/>
<path id="font_1_84" d="M.5209961 .21636963C.5209961 .34336854 .42399598 .4423828 .31199647 .4423828 .23399353 .4423828 .19198609 .39837647 .17199707 .3763733V.4423828L.027999878 .43066407V.3996582C.09899902 .3996582 .10598755 .3936615 .10598755 .34973146V-.117996219C.10598755-.16308594 .09498596-.16308594 .027999878-.16308594V-.1940918L.13999939-.19110108 .25299073-.1940918V-.16308594C.18598938-.16308594 .1749878-.16308594 .1749878-.117996219V.050186159 .059173585C.17999268 .04319763 .22200012-.0107421879 .2979889-.0107421879 .4169922-.0107421879 .5209961 .087127689 .5209961 .21594239V.21636963M.43798829 .21594239C.43798829 .09512329 .36799623 .011245728 .2939911 .011245728 .2539978 .011245728 .21598816 .031219483 .18899536 .07215881 .1749878 .09312439 .1749878 .09411621 .1749878 .114089969V.33674623C.20399475 .38838197 .25299073 .41737367 .3039856 .41737367 .3769989 .41737367 .43798829 .32937623 .43798829 .21636963V.21594239Z"/>
<path id="font_1_118" d="M.5079956 .3996582V.43066407C.4850006 .4286499 .45599366 .42765809 .43299867 .42765809L.34599305 .43066407V.3996582C.3769989 .39866639 .3929901 .3816681 .3929901 .35668946 .3929901 .34669496 .3919983 .34469605 .3869934 .33270265L.28599549 .08685303 .1749878 .35568238C.17098999 .36567689 .16899109 .36967469 .16899109 .3736725 .16899109 .3996582 .20599365 .3996582 .22499085 .3996582V.43066407L.115997318 .42765809C.08898926 .42765809 .04899597 .4286499 .018997193 .43066407V.3996582C.066986087 .3996582 .085998538 .3996582 .099990848 .36468507L.25-.000091552738 .22499085-.059066774C.20298767-.11407471 .1749878-.18309021 .11099243-.18309021 .10598755-.18309021 .08299255-.18309021 .06399536-.16503906 .09498596-.16104126 .102996829-.13905335 .102996829-.123046878 .102996829-.0970459 .083999637-.08103943 .06098938-.08103943 .040985109-.08103943 .018997193-.09403992 .018997193-.124053958 .018997193-.16905213 .06098938-.20507813 .11099243-.20507813 .17399597-.20507813 .21499634-.14804077 .23899842-.091049198L.4149933 .33569337C.44099427 .39865113 .49198915 .3996582 .5079956 .3996582Z"/>
<path id="font_1_77" d="M.5349884 0V.0309906C.48298646 .0309906 .45799256 .0309906 .45700074 .061019899V.25221253C.45700074 .3383026 .45700074 .36932374 .42599488 .405365 .4119873 .42237855 .3789978 .4423828 .32099916 .4423828 .24798584 .4423828 .20098877 .39935304 .17298889 .33729554V.4423828L.03199768 .43066407V.3996582C.101989749 .3996582 .10998535 .39266969 .10998535 .34370423V.07595825C.10998535 .0309906 .09899902 .0309906 .03199768 .0309906V0L.14498902 .0029907227 .25698854 0V.0309906C.18998719 .0309906 .1789856 .0309906 .1789856 .07595825V.25978089C.1789856 .36431886 .25 .42037965 .31399537 .42037965 .3769989 .42037965 .3880005 .36631776 .3880005 .30926515V.076034549C.3880005 .0309906 .3769989 .0309906 .30999757 .0309906V0L.4229889 .0029907227 .5349884 0Z"/>
<path id="font_1_68" d="M.20999146-.049972536V.4423828L.057998659 .43138124V.40037538C.1349945 .40037538 .14399719 .39337159 .14399719 .34432984V-.051971437C.14399719-.09700012 .1349945-.18309021 .070999149-.18309021 .06599426-.18309021 .042999269-.18309021 .016998291-.17001343 .03199768-.16600037 .051986696-.1519928 .051986696-.125 .051986696-.09899902 .033996583-.07899475 .005996704-.07899475-.022003174-.07899475-.040008546-.09899902-.040008546-.125-.040008546-.17704773 .015991211-.20507813 .07299805-.20507813 .147995-.20507813 .20999146-.14100647 .20999146-.049972536M.20999146 .6042175C.20999146 .6312256 .18699646 .65722659 .15699768 .65722659 .12298584 .65722659 .102996829 .6292114 .102996829 .6042175 .102996829 .57722476 .12599182 .55122378 .1559906 .55122378 .18998719 .55122378 .20999146 .57922366 .20999146 .6042175Z"/>
<path id="font_1_109" d="M.5349884 0V.0309906C.46499635 .0309906 .45700074 .037994386 .45700074 .08705139V.4423828L.30999757 .43066407V.3996582C.37998963 .3996582 .3880005 .39266969 .3880005 .34373475V.16601563C.3880005 .07910156 .33999635 .011245728 .2669983 .011245728 .18299866 .011245728 .1789856 .058135988 .1789856 .11009216V.4423828L.03199768 .43066407V.3996582C.10998535 .3996582 .10998535 .39666749 .10998535 .3078003V.15802002C.10998535 .080093387 .10998535-.0107421879 .2619934-.0107421879 .31799317-.0107421879 .3619995 .017242432 .3909912 .07910156V-.0107421879L.5349884 0Z"/>
<path id="font_1_59" d="M.4850006 .40411378C.4850006 .42111207 .47299195 .453125 .43399049 .453125 .4139862 .453125 .36999513 .44711305 .32798768 .40611268 .28599549 .43937684 .24398804 .4423828 .22200012 .4423828 .1289978 .4423828 .05999756 .37338258 .05999756 .29638673 .05999756 .25239564 .08198547 .21440125 .10699463 .19340515 .09399414 .17840576 .07598877 .14538574 .07598877 .11035156 .07598877 .07899475 .08898926 .04083252 .11999512 .020828248 .05999756 .003829956 .027999878-.039138795 .027999878-.07911682 .027999878-.15107727 .1269989-.20605469 .24899292-.20605469 .36698915-.20605469 .47099305-.15507508 .47099305-.07711792 .47099305-.042144777 .45700074 .008834839 .4059906 .036834718 .35299684 .064834598 .29499818 .064834598 .23399353 .064834598 .20899964 .064834598 .1659851 .064834598 .15899658 .065841678 .1269989 .069885257 .10598755 .101242069 .10598755 .13334656 .10598755 .13735962 .10598755 .16040039 .12298584 .18040467 .1619873 .15240479 .20298767 .14941406 .22200012 .14941406 .31498719 .14941406 .38398744 .21839905 .38398744 .2953949 .38398744 .3323822 .36799623 .36938478 .34298707 .39237977 .3789978 .42637635 .4149933 .43138124 .43299867 .43138124 .43299867 .43112184 .43998719 .43112184 .44299317 .43011476 .43199159 .42611695 .4269867 .41513063 .4269867 .40315248 .4269867 .38616944 .43998719 .37417604 .45599366 .37417604 .46598817 .37417604 .4850006 .3811798 .4850006 .4041443V.40411378M.30899049 .29626466C.30899049 .26930238 .30799867 .2373352 .29299928 .21235657 .2849884 .20037842 .2619934 .17240906 .22200012 .17240906 .1349945 .17240906 .1349945 .2722931 .1349945 .29527284 .1349945 .3222351 .13598633 .35420228 .15098572 .3791809 .15899658 .3913269 .18199158 .41937257 .22200012 .41937257 .30899049 .41937257 .30899049 .31922914 .30899049 .29618836V.29626466M.4189911-.07911682C.4189911-.13308716 .34799195-.18305969 .25-.18305969 .14898682-.18305969 .07998657-.13209534 .07998657-.07911682 .07998657-.03314209 .117996219 .003829956 .1619873 .0068359377H.22099304C.30699159 .0068359377 .4189911 .0068359377 .4189911-.07911682Z"/>
<path id="font_1_120" d="M.40098573 .18684387H.37599183C.36698915 .06895447 .34599305 .024993897 .22999573 .024993897H.11199951L.3899994 .40066529C.39898683 .4116516 .39898683 .4136505 .39898683 .41766358 .39898683 .43066407 .3909912 .43066407 .37298585 .43066407H.052993776L.041992189 .2697754H.066986087C.07299805 .37168885 .09199524 .4086609 .20199585 .4086609H.31599427L.036987306 .031982423C.027999878 .020996094 .027999878 .018997193 .027999878 .01399231 .027999878 0 .034988405 0 .053985597 0H.38398744L.40098573 .18684387Z"/>
<path id="font_1_72" d="M.25498963 0V.0309906C.18798828 .0309906 .1769867 .0309906 .1769867 .07601929V.69433596L.032989503 .6826172V.6516113C.102996829 .6516113 .11099243 .64460757 .11099243 .5956421V.07595825C.11099243 .0309906 .099990848 .0309906 .032989503 .0309906V0L.14399719 .0029907227 .25498963 0Z"/>
<path id="font_1_75" d="M.8129883 0V.0309906C.7609863 .0309906 .73599246 .0309906 .7350006 .061019899V.25221253C.7350006 .3383026 .7350006 .36932374 .70399478 .405365 .6899872 .42237855 .6569977 .4423828 .598999 .4423828 .5149994 .4423828 .47099305 .38233949 .45399476 .34429933 .43998719 .43138124 .3659973 .4423828 .32099916 .4423828 .24798584 .4423828 .20098877 .39935304 .17298889 .33729554V.4423828L.03199768 .43066407V.3996582C.101989749 .3996582 .10998535 .39266969 .10998535 .34370423V.07595825C.10998535 .0309906 .09899902 .0309906 .03199768 .0309906V0L.14498902 .0029907227 .25698854 0V.0309906C.18998719 .0309906 .1789856 .0309906 .1789856 .07595825V.25978089C.1789856 .36431886 .25 .42037965 .31399537 .42037965 .3769989 .42037965 .3880005 .36631776 .3880005 .30926515V.076034549C.3880005 .0309906 .3769989 .0309906 .30999757 .0309906V0L.4229889 .0029907227 .5349884 0V.0309906C.46798707 .0309906 .45700074 .0309906 .45700074 .076034549V.2602234C.45700074 .36431886 .5279999 .42037965 .59199526 .42037965 .6549988 .42037965 .66600039 .36631776 .66600039 .30926515V.076034549C.66600039 .0309906 .6549988 .0309906 .58799746 .0309906V0L.70098879 .0029907227 .8129883 0Z"/>
</defs>
<path transform="matrix(1.00006,0,0,-1,2.2949982,228.77)" stroke-width=".79701" stroke-linecap="butt" stroke-miterlimit="10" stroke-linejoin="miter" fill="none" stroke="#ff0000" d="M0 198.42766V226.77448H28.3468V198.42766ZM28.3468 226.77448"/>
<path transform="matrix(1.00006,0,0,-1,2.2949982,228.77)" stroke-width=".79701" stroke-linecap="butt" stroke-miterlimit="10" stroke-linejoin="miter" fill="none" stroke="#ff0000" d="M28.3468 198.42766V226.77448H56.69362V198.42766ZM56.69362 226.77448"/>
<path transform="matrix(1.00006,0,0,-1,2.2949982,228.77)" stroke-width=".79701" stroke-linecap="butt" stroke-miterlimit="10" stroke-linejoin="miter" fill="none" stroke="#ff0000" d="M56.69362 198.42766V226.77448H85.04042V198.42766ZM85.04042 226.77448"/>
<path transform="matrix(1.00006,0,0,-1,2.2949982,228.77)" stroke-width=".79701" stroke-linecap="butt" stroke-miterlimit="10" stroke-linejoin="miter" fill="none" stroke="#ff0000" d="M85.04042 198.42766V226.77448H113.38724V198.42766ZM113.38724 226.77448"/>
<path transform="matrix(1.00006,0,0,-1,2.2949982,228.77)" stroke-width=".79701" stroke-linecap="butt" stroke-miterlimit="10" stroke-linejoin="miter" fill="none" stroke="#ff0000" d="M113.38724 198.42766V226.77448H141.73404V198.42766ZM141.73404 226.77448"/>
<path transform="matrix(1.00006,0,0,-1,2.2949982,228.77)" stroke-width=".79701" stroke-linecap="butt" stroke-miterlimit="10" stroke-linejoin="miter" fill="none" stroke="#ff0000" d="M141.73404 198.42766V226.77448H170.08086V198.42766ZM170.08086 226.77448"/>
<path transform="matrix(1.00006,0,0,-1,2.2949982,228.77)" stroke-width=".79701" stroke-linecap="butt" stroke-miterlimit="10" stroke-linejoin="miter" fill="none" stroke="#ff0000" d="M170.08086 198.42766V226.77448H198.42766V198.42766ZM198.42766 226.77448"/>
<path transform="matrix(1.00006,0,0,-1,2.2949982,228.77)" stroke-width=".79701" stroke-linecap="butt" stroke-miterlimit="10" stroke-linejoin="miter" fill="none" stroke="#ff0000" d="M198.42766 198.42766V226.77448H226.77448V198.42766ZM226.77448 226.77448"/>
<path transform="matrix(1.00006,0,0,-1,2.2949982,228.77)" stroke-width=".79701" stroke-linecap="butt" stroke-miterlimit="10" stroke-linejoin="miter" fill="none" stroke="#ff0000" d="M226.77448 198.42766V226.77448H255.12128V198.42766ZM255.12128 226.77448"/>
<path transform="matrix(1.00006,0,0,-1,2.2949982,228.77)" stroke-width=".79701" stroke-linecap="butt" stroke-miterlimit="10" stroke-linejoin="miter" fill="none" stroke="#ff0000" d="M255.12128 198.42766V226.77448H283.4681V198.42766ZM283.4681 226.77448"/>
<path transform="matrix(1.00006,0,0,-1,2.2949982,228.77)" stroke-width=".79701" stroke-linecap="butt" stroke-miterlimit="10" stroke-linejoin="miter" fill="none" stroke="#ff0000" d="M0 170.08086V198.42766H28.3468V170.08086ZM28.3468 198.42766"/>
<path transform="matrix(1.00006,0,0,-1,2.2949982,228.77)" stroke-width=".79701" stroke-linecap="butt" stroke-miterlimit="10" stroke-linejoin="miter" fill="none" stroke="#ff0000" d="M28.3468 170.08086V198.42766H56.69362V170.08086ZM56.69362 198.42766"/>
<path transform="matrix(1.00006,0,0,-1,2.2949982,228.77)" stroke-width=".79701" stroke-linecap="butt" stroke-miterlimit="10" stroke-linejoin="miter" fill="none" stroke="#ff0000" d="M56.69362 170.08086V198.42766H85.04042V170.08086ZM85.04042 198.42766"/>
<path transform="matrix(1.00006,0,0,-1,2.2949982,228.77)" stroke-width=".79701" stroke-linecap="butt" stroke-miterlimit="10" stroke-linejoin="miter" fill="none" stroke="#ff0000" d="M85.04042 170.08086V198.42766H113.38724V170.08086ZM113.38724 198.42766"/>
<path transform="matrix(1.00006,0,0,-1,2.2949982,228.77)" stroke-width=".79701" stroke-linecap="butt" stroke-miterlimit="10" stroke-linejoin="miter" fill="none" stroke="#ff0000" d="M113.38724 170.08086V198.42766H141.73404V170.08086ZM141.73404 198.42766"/>
<path transform="matrix(1.00006,0,0,-1,2.2949982,228.77)" stroke-width=".79701" stroke-linecap="butt" stroke-miterlimit="10" stroke-linejoin="miter" fill="none" stroke="#ff0000" d="M141.73404 170.08086V198.42766H170.08086V170.08086ZM170.08086 198.42766"/>
<path transform="matrix(1.00006,0,0,-1,2.2949982,228.77)" stroke-width=".79701" stroke-linecap="butt" stroke-miterlimit="10" stroke-linejoin="miter" fill="none" stroke="#ff0000" d="M170.08086 170.08086V198.42766H198.42766V170.08086ZM198.42766 198.42766"/>
<path transform="matrix(1.00006,0,0,-1,2.2949982,228.77)" stroke-width=".79701" stroke-linecap="butt" stroke-miterlimit="10" stroke-linejoin="miter" fill="none" stroke="#ff0000" d="M198.42766 170.08086V198.42766H226.77448V170.08086ZM226.77448 198.42766"/>
<path transform="matrix(1.00006,0,0,-1,2.2949982,228.77)" stroke-width=".79701" stroke-linecap="butt" stroke-miterlimit="10" stroke-linejoin="miter" fill="none" stroke="#ff0000" d="M226.77448 170.08086V198.42766H255.12128V170.08086ZM255.12128 198.42766"/>
<path transform="matrix(1.00006,0,0,-1,2.2949982,228.77)" stroke-width=".79701" stroke-linecap="butt" stroke-miterlimit="10" stroke-linejoin="miter" fill="none" stroke="#ff0000" d="M255.12128 170.08086V198.42766H283.4681V170.08086ZM283.4681 198.42766"/>
<path transform="matrix(1.00006,0,0,-1,2.2949982,228.77)" stroke-width=".79701" stroke-linecap="butt" stroke-miterlimit="10" stroke-linejoin="miter" fill="none" stroke="#ff0000" d="M0 141.73404V170.08086H28.3468V141.73404ZM28.3468 170.08086"/>
<path transform="matrix(1.00006,0,0,-1,2.2949982,228.77)" stroke-width=".79701" stroke-linecap="butt" stroke-miterlimit="10" stroke-linejoin="miter" fill="none" stroke="#ff0000" d="M28.3468 141.73404V170.08086H56.69362V141.73404ZM56.69362 170.08086"/>
<path transform="matrix(1.00006,0,0,-1,2.2949982,228.77)" stroke-width=".79701" stroke-linecap="butt" stroke-miterlimit="10" stroke-linejoin="miter" fill="none" stroke="#ff0000" d="M56.69362 141.73404V170.08086H85.04042V141.73404ZM85.04042 170.08086"/>
<path transform="matrix(1.00006,0,0,-1,2.2949982,228.77)" stroke-width=".79701" stroke-linecap="butt" stroke-miterlimit="10" stroke-linejoin="miter" fill="none" stroke="#ff0000" d="M85.04042 141.73404V170.08086H113.38724V141.73404ZM113.38724 170.08086"/>
<path transform="matrix(1.00006,0,0,-1,2.2949982,228.77)" stroke-width=".79701" stroke-linecap="butt" stroke-miterlimit="10" stroke-linejoin="miter" fill="none" stroke="#ff0000" d="M113.38724 141.73404V170.08086H141.73404V141.73404ZM141.73404 170.08086"/>
<path transform="matrix(1.00006,0,0,-1,2.2949982,228.77)" stroke-width=".79701" stroke-linecap="butt" stroke-miterlimit="10" stroke-linejoin="miter" fill="none" stroke="#ff0000" d="M141.73404 141.73404V170.08086H170.08086V141.73404ZM170.08086 170.08086"/>
<path transform="matrix(1.00006,0,0,-1,2.2949982,228.77)" stroke-width=".79701" stroke-linecap="butt" stroke-miterlimit="10" stroke-linejoin="miter" fill="none" stroke="#ff0000" d="M170.08086 141.73404V170.08086H198.42766V141.73404ZM198.42766 170.08086"/>
<path transform="matrix(1.00006,0,0,-1,2.2949982,228.77)" stroke-width=".79701" stroke-linecap="butt" stroke-miterlimit="10" stroke-linejoin="miter" fill="none" stroke="#ff0000" d="M198.42766 141.73404V170.08086H226.77448V141.73404ZM226.77448 170.08086"/>
<path transform="matrix(1.00006,0,0,-1,2.2949982,228.77)" stroke-width=".79701" stroke-linecap="butt" stroke-miterlimit="10" stroke-linejoin="miter" fill="none" stroke="#ff0000" d="M226.77448 141.73404V170.08086H255.12128V141.73404ZM255.12128 170.08086"/>
<path transform="matrix(1.00006,0,0,-1,2.2949982,228.77)" stroke-width=".79701" stroke-linecap="butt" stroke-miterlimit="10" stroke-linejoin="miter" fill="none" stroke="#ff0000" d="M255.12128 141.73404V170.08086H283.4681V141.73404ZM283.4681 170.08086"/>
<path transform="matrix(1.00006,0,0,-1,2.2949982,228.77)" stroke-width=".79701" stroke-linecap="butt" stroke-miterlimit="10" stroke-linejoin="miter" fill="none" stroke="#ff0000" d="M0 113.38724V141.73404H28.3468V113.38724ZM28.3468 141.73404"/>
<path transform="matrix(1.00006,0,0,-1,2.2949982,228.77)" stroke-width=".79701" stroke-linecap="butt" stroke-miterlimit="10" stroke-linejoin="miter" fill="none" stroke="#ff0000" d="M28.3468 113.38724V141.73404H56.69362V113.38724ZM56.69362 141.73404"/>
<path transform="matrix(1.00006,0,0,-1,2.2949982,228.77)" stroke-width=".79701" stroke-linecap="butt" stroke-miterlimit="10" stroke-linejoin="miter" fill="none" stroke="#ff0000" d="M56.69362 113.38724V141.73404H85.04042V113.38724ZM85.04042 141.73404"/>
<path transform="matrix(1.00006,0,0,-1,2.2949982,228.77)" stroke-width=".79701" stroke-linecap="butt" stroke-miterlimit="10" stroke-linejoin="miter" fill="none" stroke="#ff0000" d="M85.04042 113.38724V141.73404H113.38724V113.38724ZM113.38724 141.73404"/>
<path transform="matrix(1.00006,0,0,-1,2.2949982,228.77)" stroke-width=".79701" stroke-linecap="butt" stroke-miterlimit="10" stroke-linejoin="miter" fill="none" stroke="#ff0000" d="M113.38724 113.38724V141.73404H141.73404V113.38724ZM141.73404 141.73404"/>
<path transform="matrix(1.00006,0,0,-1,2.2949982,228.77)" stroke-width=".79701" stroke-linecap="butt" stroke-miterlimit="10" stroke-linejoin="miter" fill="none" stroke="#ff0000" d="M141.73404 113.38724V141.73404H170.08086V113.38724ZM170.08086 141.73404"/>
<path transform="matrix(1.00006,0,0,-1,2.2949982,228.77)" stroke-width=".79701" stroke-linecap="butt" stroke-miterlimit="10" stroke-linejoin="miter" fill="none" stroke="#ff0000" d="M170.08086 113.38724V141.73404H198.42766V113.38724ZM198.42766 141.73404"/>
<path transform="matrix(1.00006,0,0,-1,2.2949982,228.77)" stroke-width=".79701" stroke-linecap="butt" stroke-miterlimit="10" stroke-linejoin="miter" fill="none" stroke="#ff0000" d="M198.42766 113.38724V141.73404H226.77448V113.38724ZM226.77448 141.73404"/>
<path transform="matrix(1.00006,0,0,-1,2.2949982,228.77)" stroke-width=".79701" stroke-linecap="butt" stroke-miterlimit="10" stroke-linejoin="miter" fill="none" stroke="#ff0000" d="M226.77448 113.38724V141.73404H255.12128V113.38724ZM255.12128 141.73404"/>
<path transform="matrix(1.00006,0,0,-1,2.2949982,228.77)" stroke-width=".79701" stroke-linecap="butt" stroke-miterlimit="10" stroke-linejoin="miter" fill="none" stroke="#ff0000" d="M255.12128 113.38724V141.73404H283.4681V113.38724ZM283.4681 141.73404"/>
<path transform="matrix(1.00006,0,0,-1,2.2949982,228.77)" stroke-width=".79701" stroke-linecap="butt" stroke-miterlimit="10" stroke-linejoin="miter" fill="none" stroke="#ff0000" d="M0 85.04042V113.38724H28.3468V85.04042ZM28.3468 113.38724"/>
<path transform="matrix(1.00006,0,0,-1,2.2949982,228.77)" stroke-width=".79701" stroke-linecap="butt" stroke-miterlimit="10" stroke-linejoin="miter" fill="none" stroke="#ff0000" d="M28.3468 85.04042V113.38724H56.69362V85.04042ZM56.69362 113.38724"/>
<path transform="matrix(1.00006,0,0,-1,2.2949982,228.77)" stroke-width=".79701" stroke-linecap="butt" stroke-miterlimit="10" stroke-linejoin="miter" fill="none" stroke="#ff0000" d="M56.69362 85.04042V113.38724H85.04042V85.04042ZM85.04042 113.38724"/>
<path transform="matrix(1.00006,0,0,-1,2.2949982,228.77)" stroke-width=".79701" stroke-linecap="butt" stroke-miterlimit="10" stroke-linejoin="miter" fill="none" stroke="#ff0000" d="M85.04042 85.04042V113.38724H113.38724V85.04042ZM113.38724 113.38724"/>
<path transform="matrix(1.00006,0,0,-1,2.2949982,228.77)" stroke-width=".79701" stroke-linecap="butt" stroke-miterlimit="10" stroke-linejoin="miter" fill="none" stroke="#ff0000" d="M113.38724 85.04042V113.38724H141.73404V85.04042ZM141.73404 113.38724"/>
<path transform="matrix(1.00006,0,0,-1,2.2949982,228.77)" stroke-width=".79701" stroke-linecap="butt" stroke-miterlimit="10" stroke-linejoin="miter" fill="none" stroke="#ff0000" d="M141.73404 85.04042V113.38724H170.08086V85.04042ZM170.08086 113.38724"/>
<path transform="matrix(1.00006,0,0,-1,2.2949982,228.77)" stroke-width=".79701" stroke-linecap="butt" stroke-miterlimit="10" stroke-linejoin="miter" fill="none" stroke="#ff0000" d="M170.08086 85.04042V113.38724H198.42766V85.04042ZM198.42766 113.38724"/>
<path transform="matrix(1.00006,0,0,-1,2.2949982,228.77)" stroke-width=".79701" stroke-linecap="butt" stroke-miterlimit="10" stroke-linejoin="miter" fill="none" stroke="#ff0000" d="M198.42766 85.04042V113.38724H226.77448V85.04042ZM226.77448 113.38724"/>
<path transform="matrix(1.00006,0,0,-1,2.2949982,228.77)" stroke-width=".79701" stroke-linecap="butt" stroke-miterlimit="10" stroke-linejoin="miter" fill="none" stroke="#ff0000" d="M226.77448 85.04042V113.38724H255.12128V85.04042ZM255.12128 113.38724"/>
<path transform="matrix(1.00006,0,0,-1,2.2949982,228.77)" stroke-width=".79701" stroke-linecap="butt" stroke-miterlimit="10" stroke-linejoin="miter" fill="none" stroke="#ff0000" d="M255.12128 85.04042V113.38724H283.4681V85.04042ZM283.4681 113.38724"/>
<path transform="matrix(1.00006,0,0,-1,2.2949982,228.77)" stroke-width=".79701" stroke-linecap="butt" stroke-miterlimit="10" stroke-linejoin="miter" fill="none" stroke="#ff0000" d="M0 56.69362V85.04042H28.3468V56.69362ZM28.3468 85.04042"/>
<path transform="matrix(1.00006,0,0,-1,2.2949982,228.77)" stroke-width=".79701" stroke-linecap="butt" stroke-miterlimit="10" stroke-linejoin="miter" fill="none" stroke="#ff0000" d="M28.3468 56.69362V85.04042H56.69362V56.69362ZM56.69362 85.04042"/>
<path transform="matrix(1.00006,0,0,-1,2.2949982,228.77)" stroke-width=".79701" stroke-linecap="butt" stroke-miterlimit="10" stroke-linejoin="miter" fill="none" stroke="#ff0000" d="M56.69362 56.69362V85.04042H85.04042V56.69362ZM85.04042 85.04042"/>
<path transform="matrix(1.00006,0,0,-1,2.2949982,228.77)" stroke-width=".79701" stroke-linecap="butt" stroke-miterlimit="10" stroke-linejoin="miter" fill="none" stroke="#ff0000" d="M85.04042 56.69362V85.04042H113.38724V56.69362ZM113.38724 85.04042"/>
<path transform="matrix(1.00006,0,0,-1,2.2949982,228.77)" stroke-width=".79701" stroke-linecap="butt" stroke-miterlimit="10" stroke-linejoin="miter" fill="none" stroke="#ff0000" d="M113.38724 56.69362V85.04042H141.73404V56.69362ZM141.73404 85.04042"/>
<path transform="matrix(1.00006,0,0,-1,2.2949982,228.77)" stroke-width=".79701" stroke-linecap="butt" stroke-miterlimit="10" stroke-linejoin="miter" fill="none" stroke="#ff0000" d="M141.73404 56.69362V85.04042H170.08086V56.69362ZM170.08086 85.04042"/>
<path transform="matrix(1.00006,0,0,-1,2.2949982,228.77)" stroke-width=".79701" stroke-linecap="butt" stroke-miterlimit="10" stroke-linejoin="miter" fill="none" stroke="#ff0000" d="M170.08086 56.69362V85.04042H198.42766V56.69362ZM198.42766 85.04042"/>
<path transform="matrix(1.00006,0,0,-1,2.2949982,228.77)" stroke-width=".79701" stroke-linecap="butt" stroke-miterlimit="10" stroke-linejoin="miter" fill="none" stroke="#ff0000" d="M198.42766 56.69362V85.04042H226.77448V56.69362ZM226.77448 85.04042"/>
<path transform="matrix(1.00006,0,0,-1,2.2949982,228.77)" stroke-width=".79701" stroke-linecap="butt" stroke-miterlimit="10" stroke-linejoin="miter" fill="none" stroke="#ff0000" d="M226.77448 56.69362V85.04042H255.12128V56.69362ZM255.12128 85.04042"/>
<path transform="matrix(1.00006,0,0,-1,2.2949982,228.77)" stroke-width=".79701" stroke-linecap="butt" stroke-miterlimit="10" stroke-linejoin="miter" fill="none" stroke="#ff0000" d="M255.12128 56.69362V85.04042H283.4681V56.69362ZM283.4681 85.04042"/>
<path transform="matrix(1.00006,0,0,-1,2.2949982,228.77)" stroke-width=".79701" stroke-linecap="butt" stroke-miterlimit="10" stroke-linejoin="miter" fill="none" stroke="#ff0000" d="M0 28.3468V56.69362H28.3468V28.3468ZM28.3468 56.69362"/>
<path transform="matrix(1.00006,0,0,-1,2.2949982,228.77)" stroke-width=".79701" stroke-linecap="butt" stroke-miterlimit="10" stroke-linejoin="miter" fill="none" stroke="#ff0000" d="M28.3468 28.3468V56.69362H56.69362V28.3468ZM56.69362 56.69362"/>
<path transform="matrix(1.00006,0,0,-1,2.2949982,228.77)" stroke-width=".79701" stroke-linecap="butt" stroke-miterlimit="10" stroke-linejoin="miter" fill="none" stroke="#ff0000" d="M56.69362 28.3468V56.69362H85.04042V28.3468ZM85.04042 56.69362"/>
<path transform="matrix(1.00006,0,0,-1,2.2949982,228.77)" stroke-width=".79701" stroke-linecap="butt" stroke-miterlimit="10" stroke-linejoin="miter" fill="none" stroke="#ff0000" d="M85.04042 28.3468V56.69362H113.38724V28.3468ZM113.38724 56.69362"/>
<path transform="matrix(1.00006,0,0,-1,2.2949982,228.77)" stroke-width=".79701" stroke-linecap="butt" stroke-miterlimit="10" stroke-linejoin="miter" fill="none" stroke="#ff0000" d="M113.38724 28.3468V56.69362H141.73404V28.3468ZM141.73404 56.69362"/>
<path transform="matrix(1.00006,0,0,-1,2.2949982,228.77)" stroke-width=".79701" stroke-linecap="butt" stroke-miterlimit="10" stroke-linejoin="miter" fill="none" stroke="#ff0000" d="M141.73404 28.3468V56.69362H170.08086V28.3468ZM170.08086 56.69362"/>
<path transform="matrix(1.00006,0,0,-1,2.2949982,228.77)" stroke-width=".79701" stroke-linecap="butt" stroke-miterlimit="10" stroke-linejoin="miter" fill="none" stroke="#ff0000" d="M170.08086 28.3468V56.69362H198.42766V28.3468ZM198.42766 56.69362"/>
<path transform="matrix(1.00006,0,0,-1,2.2949982,228.77)" stroke-width=".79701" stroke-linecap="butt" stroke-miterlimit="10" stroke-linejoin="miter" fill="none" stroke="#ff0000" d="M198.42766 28.3468V56.69362H226.77448V28.3468ZM226.77448 56.69362"/>
<path transform="matrix(1.00006,0,0,-1,2.2949982,228.77)" stroke-width=".79701" stroke-linecap="butt" stroke-miterlimit="10" stroke-linejoin="miter" fill="none" stroke="#ff0000" d="M226.77448 28.3468V56.69362H255.12128V28.3468ZM255.12128 56.69362"/>
<path transform="matrix(1.00006,0,0,-1,2.2949982,228.77)" stroke-width=".79701" stroke-linecap="butt" stroke-miterlimit="10" stroke-linejoin="miter" fill="none" stroke="#ff0000" d="M255.12128 28.3468V56.69362H283.4681V28.3468ZM283.4681 56.69362"/>
<path transform="matrix(1.00006,0,0,-1,2.2949982,228.77)" stroke-width=".79701" stroke-linecap="butt" stroke-miterlimit="10" stroke-linejoin="miter" fill="none" stroke="#ff0000" d="M0 0V28.3468H28.3468V0ZM28.3468 28.3468"/>
<path transform="matrix(1.00006,0,0,-1,2.2949982,228.77)" stroke-width=".79701" stroke-linecap="butt" stroke-miterlimit="10" stroke-linejoin="miter" fill="none" stroke="#ff0000" d="M28.3468 0V28.3468H56.69362V0ZM56.69362 28.3468"/>
<path transform="matrix(1.00006,0,0,-1,2.2949982,228.77)" stroke-width=".79701" stroke-linecap="butt" stroke-miterlimit="10" stroke-linejoin="miter" fill="none" stroke="#ff0000" d="M56.69362 0V28.3468H85.04042V0ZM85.04042 28.3468"/>
<path transform="matrix(1.00006,0,0,-1,2.2949982,228.77)" stroke-width=".79701" stroke-linecap="butt" stroke-miterlimit="10" stroke-linejoin="miter" fill="none" stroke="#ff0000" d="M85.04042 0V28.3468H113.38724V0ZM113.38724 28.3468"/>
<path transform="matrix(1.00006,0,0,-1,2.2949982,228.77)" stroke-width=".79701" stroke-linecap="butt" stroke-miterlimit="10" stroke-linejoin="miter" fill="none" stroke="#ff0000" d="M113.38724 0V28.3468H141.73404V0ZM141.73404 28.3468"/>
<path transform="matrix(1.00006,0,0,-1,2.2949982,228.77)" stroke-width=".79701" stroke-linecap="butt" stroke-miterlimit="10" stroke-linejoin="miter" fill="none" stroke="#ff0000" d="M141.73404 0V28.3468H170.08086V0ZM170.08086 28.3468"/>
<path transform="matrix(1.00006,0,0,-1,2.2949982,228.77)" stroke-width=".79701" stroke-linecap="butt" stroke-miterlimit="10" stroke-linejoin="miter" fill="none" stroke="#ff0000" d="M170.08086 0V28.3468H198.42766V0ZM198.42766 28.3468"/>
<path transform="matrix(1.00006,0,0,-1,2.2949982,228.77)" stroke-width=".79701" stroke-linecap="butt" stroke-miterlimit="10" stroke-linejoin="miter" fill="none" stroke="#ff0000" d="M198.42766 0V28.3468H226.77448V0ZM226.77448 28.3468"/>
<path transform="matrix(1.00006,0,0,-1,2.2949982,228.77)" stroke-width=".79701" stroke-linecap="butt" stroke-miterlimit="10" stroke-linejoin="miter" fill="none" stroke="#ff0000" d="M226.77448 0V28.3468H255.12128V0ZM255.12128 28.3468"/>
<path transform="matrix(1.00006,0,0,-1,2.2949982,228.77)" stroke-width=".79701" stroke-linecap="butt" stroke-miterlimit="10" stroke-linejoin="miter" fill="none" stroke="#ff0000" d="M255.12128 0V28.3468H283.4681V0ZM283.4681 28.3468"/>
<use data-text="b" xlink:href="#font_1_35" transform="matrix(14.944795,0,0,-14.943899,12.314087,21.272004)"/>
<use data-text="o" xlink:href="#font_1_81" transform="matrix(14.944795,0,0,-14.943899,41.08181,19.43399)"/>
<use data-text="r" xlink:href="#font_1_96" transform="matrix(14.944795,0,0,-14.943899,70.23656,19.471985)"/>
<use data-text="r" xlink:href="#font_1_96" transform="matrix(14.944795,0,0,-14.943899,98.585269,19.471985)"/>
<use data-text="o" xlink:href="#font_1_81" transform="matrix(14.944795,0,0,-14.943899,126.126918,19.43399)"/>
<use data-text="w" xlink:href="#font_1_114" transform="matrix(14.944795,0,0,-14.943899,152.81652,19.307007)"/>
<use data-text="c" xlink:href="#font_1_43" transform="matrix(14.944795,0,0,-14.943899,183.24234,19.43399)"/>
<use data-text="s" xlink:href="#font_1_98" transform="matrix(14.944795,0,0,-14.943899,211.96405,19.43399)"/>
<use data-text="a" xlink:href="#font_1_28" transform="matrix(14.944795,0,0,-14.943899,239.52072,19.43399)"/>
<use data-text="r" xlink:href="#font_1_96" transform="matrix(14.944795,0,0,-14.943899,268.67646,19.471985)"/>
<use data-text="e" xlink:href="#font_1_50" transform="matrix(14.944795,0,0,-14.943899,13.151138,47.781007)"/>
<use data-text="w" xlink:href="#font_1_114" transform="matrix(14.944795,0,0,-14.943899,39.422716,47.65399)"/>
<use data-text="i" xlink:href="#font_1_66" transform="matrix(14.944795,0,0,-14.943899,71.08861,49.424989)"/>
<use data-text="t" xlink:href="#font_1_105" transform="matrix(14.944795,0,0,-14.943899,98.60826,49.02899)"/>
<use data-text="h" xlink:href="#font_1_63" transform="matrix(14.944795,0,0,-14.943899,125.70889,49.70099)"/>
<use data-text="d" xlink:href="#font_1_47" transform="matrix(14.944795,0,0,-14.943899,154.05658,49.618989)"/>
<use data-text="r" xlink:href="#font_1_96" transform="matrix(14.944795,0,0,-14.943899,183.63135,47.817995)"/>
<use data-text="a" xlink:href="#font_1_28" transform="matrix(14.944795,0,0,-14.943899,211.172,47.781007)"/>
<use data-text="w" xlink:href="#font_1_114" transform="matrix(14.944795,0,0,-14.943899,237.8616,47.65399)"/>
<use data-text="e" xlink:href="#font_1_50" transform="matrix(14.944795,0,0,-14.943899,268.28846,47.781007)"/>
<use data-text="f" xlink:href="#font_1_55" transform="matrix(14.944795,0,0,-14.943899,14.182198,78.130008)"/>
<use data-text="t" xlink:href="#font_1_105" transform="matrix(14.944795,0,0,-14.943899,41.910867,77.37601)"/>
<use data-text="c" xlink:href="#font_1_43" transform="matrix(14.944795,0,0,-14.943899,69.84854,76.12799)"/>
<use data-text="a" xlink:href="#font_1_28" transform="matrix(14.944795,0,0,-14.943899,97.77821,76.12799)"/>
<use data-text="r" xlink:href="#font_1_96" transform="matrix(14.944795,0,0,-14.943899,126.93396,76.16501)"/>
<use data-text="e" xlink:href="#font_1_50" transform="matrix(14.944795,0,0,-14.943899,154.89365,76.12799)"/>
<use data-text="e" xlink:href="#font_1_50" transform="matrix(14.944795,0,0,-14.943899,183.24234,76.12799)"/>
<use data-text="v" xlink:href="#font_1_112" transform="matrix(14.944795,0,0,-14.943899,210.96298,76.00101)"/>
<use data-text="s" xlink:href="#font_1_98" transform="matrix(14.944795,0,0,-14.943899,240.31278,76.12799)"/>
<use data-text="c" xlink:href="#font_1_43" transform="matrix(14.944795,0,0,-14.943899,268.28846,76.12799)"/>
<use data-text="r" xlink:href="#font_1_96" transform="matrix(14.944795,0,0,-14.943899,13.540161,104.51199)"/>
<use data-text="s" xlink:href="#font_1_98" transform="matrix(14.944795,0,0,-14.943899,41.873865,104.475009)"/>
<use data-text="h" xlink:href="#font_1_63" transform="matrix(14.944795,0,0,-14.943899,69.01149,106.395008)"/>
<use data-text="k" xlink:href="#font_1_70" transform="matrix(14.944795,0,0,-14.943899,97.5692,106.395008)"/>
<use data-text="e" xlink:href="#font_1_50" transform="matrix(14.944795,0,0,-14.943899,126.54494,104.475009)"/>
<use data-text="p" xlink:href="#font_1_84" transform="matrix(14.944795,0,0,-14.943899,154.05658,103.062)"/>
<use data-text="d" xlink:href="#font_1_47" transform="matrix(14.944795,0,0,-14.943899,182.40528,106.313)"/>
<use data-text="i" xlink:href="#font_1_66" transform="matrix(14.944795,0,0,-14.943899,212.83112,106.119)"/>
<use data-text="y" xlink:href="#font_1_118" transform="matrix(14.944795,0,0,-14.943899,239.3117,102.897998)"/>
<use data-text="e" xlink:href="#font_1_50" transform="matrix(14.944795,0,0,-14.943899,268.28846,104.475009)"/>
<use data-text="i" xlink:href="#font_1_66" transform="matrix(14.944795,0,0,-14.943899,14.392212,134.465)"/>
<use data-text="e" xlink:href="#font_1_50" transform="matrix(14.944795,0,0,-14.943899,41.49984,132.821)"/>
<use data-text="p" xlink:href="#font_1_84" transform="matrix(14.944795,0,0,-14.943899,69.01149,131.409)"/>
<use data-text="e" xlink:href="#font_1_50" transform="matrix(14.944795,0,0,-14.943899,98.197238,132.821)"/>
<use data-text="n" xlink:href="#font_1_77" transform="matrix(14.944795,0,0,-14.943899,125.70889,132.859)"/>
<use data-text="o" xlink:href="#font_1_81" transform="matrix(14.944795,0,0,-14.943899,154.47562,132.821)"/>
<use data-text="i" xlink:href="#font_1_66" transform="matrix(14.944795,0,0,-14.943899,184.48242,134.465)"/>
<use data-text="n" xlink:href="#font_1_77" transform="matrix(14.944795,0,0,-14.943899,210.75397,132.859)"/>
<use data-text="p" xlink:href="#font_1_84" transform="matrix(14.944795,0,0,-14.943899,239.10269,131.409)"/>
<use data-text="i" xlink:href="#font_1_66" transform="matrix(14.944795,0,0,-14.943899,269.5285,134.465)"/>
<use data-text="e" xlink:href="#font_1_50" transform="matrix(14.944795,0,0,-14.943899,13.151138,161.168)"/>
<use data-text="n" xlink:href="#font_1_77" transform="matrix(14.944795,0,0,-14.943899,40.66279,161.206)"/>
<use data-text="j" xlink:href="#font_1_68" transform="matrix(14.944795,0,0,-14.943899,70.8796,161.28)"/>
<use data-text="n" xlink:href="#font_1_77" transform="matrix(14.944795,0,0,-14.943899,97.36018,161.206)"/>
<use data-text="u" xlink:href="#font_1_109" transform="matrix(14.944795,0,0,-14.943899,125.70889,161.123)"/>
<use data-text="s" xlink:href="#font_1_98" transform="matrix(14.944795,0,0,-14.943899,155.26767,161.168)"/>
<use data-text="t" xlink:href="#font_1_105" transform="matrix(14.944795,0,0,-14.943899,183.65335,162.416)"/>
<use data-text="g" xlink:href="#font_1_59" transform="matrix(14.944795,0,0,-14.943899,211.172,159.749)"/>
<use data-text="z" xlink:href="#font_1_120" transform="matrix(14.944795,0,0,-14.943899,239.93973,161.123)"/>
<use data-text="v" xlink:href="#font_1_112" transform="matrix(14.944795,0,0,-14.943899,267.6604,161.041)"/>
<use data-text="d" xlink:href="#font_1_47" transform="matrix(14.944795,0,0,-14.943899,12.314087,191.353)"/>
<use data-text="d" xlink:href="#font_1_47" transform="matrix(14.944795,0,0,-14.943899,40.66279,191.353)"/>
<use data-text="e" xlink:href="#font_1_50" transform="matrix(14.944795,0,0,-14.943899,69.84854,189.515)"/>
<use data-text="l" xlink:href="#font_1_72" transform="matrix(14.944795,0,0,-14.943899,99.43731,191.435)"/>
<use data-text="a" xlink:href="#font_1_28" transform="matrix(14.944795,0,0,-14.943899,126.126918,189.515)"/>
<use data-text="i" xlink:href="#font_1_66" transform="matrix(14.944795,0,0,-14.943899,156.1347,191.159)"/>
<use data-text="w" xlink:href="#font_1_114" transform="matrix(14.944795,0,0,-14.943899,181.16522,189.388)"/>
<use data-text="s" xlink:href="#font_1_98" transform="matrix(14.944795,0,0,-14.943899,211.96405,189.515)"/>
<use data-text="k" xlink:href="#font_1_70" transform="matrix(14.944795,0,0,-14.943899,239.3117,191.435)"/>
<use data-text="e" xlink:href="#font_1_50" transform="matrix(14.944795,0,0,-14.943899,268.28846,189.515)"/>
<use data-text="s" xlink:href="#font_1_98" transform="matrix(14.944795,0,0,-14.943899,13.525162,217.862)"/>
<use data-text="t" xlink:href="#font_1_105" transform="matrix(14.944795,0,0,-14.943899,41.910867,219.11)"/>
<use data-text="a" xlink:href="#font_1_28" transform="matrix(14.944795,0,0,-14.943899,69.42951,217.862)"/>
<use data-text="t" xlink:href="#font_1_105" transform="matrix(14.944795,0,0,-14.943899,98.60826,219.11)"/>
<use data-text="e" xlink:href="#font_1_50" transform="matrix(14.944795,0,0,-14.943899,126.54494,217.862)"/>
<use data-text="t" xlink:href="#font_1_105" transform="matrix(14.944795,0,0,-14.943899,155.30466,219.11)"/>
<use data-text="i" xlink:href="#font_1_66" transform="matrix(14.944795,0,0,-14.943899,184.48242,219.506)"/>
<use data-text="m" xlink:href="#font_1_75" transform="matrix(14.944795,0,0,-14.943899,208.68387,217.899)"/>
<use data-text="e" xlink:href="#font_1_50" transform="matrix(14.944795,0,0,-14.943899,239.93973,217.862)"/>
<use data-text="o" xlink:href="#font_1_81" transform="matrix(14.944795,0,0,-14.943899,267.86943,217.862)"/>
<g>
<path transform="matrix(1.00006,0,0,-1,2.2949982,228.77)" d="M28.3468 170.08086V198.42766H255.12128V170.08086ZM255.12128 198.42766" fill="#0000ff" fill-opacity=".7"/>
<path transform="matrix(1.00006,0,0,-1,2.2949982,228.77)" stroke-width=".3985" stroke-linecap="butt" stroke-miterlimit="10" stroke-linejoin="miter" fill="none" stroke="#000000" stroke-opacity=".7" d="M28.3468 170.08086V198.42766H255.12128V170.08086ZM255.12128 198.42766"/>
</g>
</svg>
