<svg xmlns="http://www.w3.org/2000/svg" xmlns:xlink="http://www.w3.org/1999/xlink" xmlns:inkscape="http://www.inkscape.org/namespaces/inkscape" version="1.1" width="118" height="71" viewBox="0 0 118 71">
<path transform="matrix(1.00002,0,0,-1.00009,2.29467,64.167339)" stroke-width=".79701" stroke-linecap="butt" stroke-miterlimit="10" stroke-linejoin="miter" fill="none" stroke="#bf0040" d="M56.69362 56.69362 0 0H56.69362L113.38724 56.69362H56.69362"/>
<path transform="matrix(1.00002,0,0,-1.00009,2.29467,64.167339)" stroke-width=".3985" stroke-linecap="butt" stroke-miterlimit="10" stroke-linejoin="miter" fill="none" stroke="#ff0000" d="M22.67752 5.66927 25.51193 0 22.67752-5.66927"/>
<path transform="matrix(1.00002,0,0,-1.00009,2.29467,64.167339)" stroke-width=".3985" stroke-linecap="butt" stroke-miterlimit="10" stroke-linejoin="miter" fill="none" stroke="#ff0000" d="M28.3468 5.66927 31.18166 0 28.3468-5.66927"/>
<path transform="matrix(1.00002,0,0,-1.00009,2.29467,64.167339)" stroke-width=".3985" stroke-linecap="butt" stroke-miterlimit="10" stroke-linejoin="miter" fill="none" stroke="#ff0000" d="M79.37114 62.36288 82.20555 56.69362 79.37114 51.02432"/>
<path transform="matrix(1.00002,0,0,-1.00009,2.29467,64.167339)" stroke-width=".3985" stroke-linecap="butt" stroke-miterlimit="10" stroke-linejoin="miter" fill="none" stroke="#ff0000" d="M85.04042 62.36288 87.87527 56.69362 85.04042 51.02432"/>
<path transform="matrix(1.00002,0,0,-1.00009,2.29467,64.167339)" stroke-width=".3985" stroke-linecap="butt" stroke-miterlimit="10" stroke-linejoin="miter" fill="none" stroke="#0000ff" d="M19.84267 22.67752 25.51193 25.51193 28.3468 22.67752"/>
<path transform="matrix(1.00002,0,0,-1.00009,2.29467,64.167339)" stroke-width=".3985" stroke-linecap="butt" stroke-miterlimit="10" stroke-linejoin="miter" fill="none" stroke="#0000ff" d="M76.53629 22.67752 82.20555 25.51193V22.67752"/>
</svg>
