<svg xmlns="http://www.w3.org/2000/svg" xmlns:xlink="http://www.w3.org/1999/xlink" xmlns:inkscape="http://www.inkscape.org/namespaces/inkscape" version="1.1" width="450" height="115" viewBox="0 0 450 115">
<defs>
<path id="font_1_1" d="M.2939911 .64004519C.2939911 .66400149 .2939911 .6660156 .2709961 .6660156 .20899964 .60227969 .12098694 .60227969 .08898926 .60227969V.57128909C.10899353 .57128909 .16799927 .57128909 .21998596 .5972748V.07902527C.21998596 .042999269 .21699524 .0309906 .1269989 .0309906H.09498596V0C.12998963 .0029907227 .21699524 .0029907227 .25698854 .0029907227 .29699708 .0029907227 .38398744 .0029907227 .4189911 0V.0309906H.3869934C.29699708 .0309906 .2939911 .041992189 .2939911 .07902527V.64004519Z"/>
<path id="font_2_1" d="M.19198609 .052993776C.19198609 .08198547 .16799927 .10598755 .13899231 .10598755 .10998535 .10598755 .085998538 .08198547 .085998538 .052993776 .085998538 .023986817 .10998535 0 .13899231 0 .16799927 0 .19198609 .023986817 .19198609 .052993776Z"/>
<path id="font_3_104" d="M.68499758 .45214845 .66600039 .6767578H.054992677L.035995485 .45214845H.06098938C.07499695 .6128235 .08999634 .64575198 .24099732 .64575198 .25898744 .64575198 .2849884 .64575198 .29499818 .64375308 .31599427 .6397705 .31599427 .6287842 .31599427 .60583499V.07901001C.31599427 .04499817 .31599427 .0309906 .21099854 .0309906H.17098999V0C.21199036 .0029907227 .31399537 .0029907227 .3600006 .0029907227 .4059906 .0029907227 .5089874 .0029907227 .5499878 0V.0309906H.5099945C.40499879 .0309906 .40499879 .04499817 .40499879 .07901001V.60583499C.40499879 .62579348 .40499879 .6397705 .4229889 .64375308 .43399049 .64575198 .46099855 .64575198 .47999574 .64575198 .6309967 .64575198 .6459961 .6128235 .6599884 .45214845H.68499758Z"/>
<path id="font_3_96" d="M.3639984 .38137818C.3639984 .41337586 .33299256 .4423828 .2899933 .4423828 .21699524 .4423828 .18099976 .37538148 .16699219 .3323822V.4423828L.027999878 .43066407V.3996582C.09799194 .3996582 .10598755 .39266969 .10598755 .34370423V.07595825C.10598755 .0309906 .09498596 .0309906 .027999878 .0309906V0L.14199829 .0029907227C.18199158 .0029907227 .22898865 .0029907227 .2689972 0V.0309906H.24798584C.17399597 .0309906 .17199707 .04197693 .17199707 .07795715V.23181153C.17199707 .33137513 .21398926 .42037965 .2899933 .42037965 .29699708 .42037965 .29899598 .42037965 .30099488 .41937257 .2979889 .41838075 .27799989 .40637208 .27799989 .3803711 .27799989 .35237123 .29899598 .33737184 .32099916 .33737184 .33898927 .33737184 .3639984 .3493805 .3639984 .38137818Z"/>
<path id="font_3_28" d="M.48298646 .08912659V.14511109H.45799256V.08912659C.45799256 .03112793 .43299867 .025131226 .42199708 .025131226 .3889923 .025131226 .3849945 .070129398 .3849945 .07511902V.27508546C.3849945 .31707765 .3849945 .3560791 .34899903 .39312745 .30999757 .43223573 .2599945 .4482422 .21199036 .4482422 .12998963 .4482422 .06098938 .40115357 .06098938 .335083 .06098938 .30508424 .08099365 .28808595 .10699463 .28808595 .1349945 .28808595 .15299988 .30807496 .15299988 .33407594 .15299988 .3460846 .147995 .37908937 .101989749 .38008119 .1289978 .41519166 .17799378 .426239 .20999146 .426239 .25898744 .426239 .31599427 .38710023 .31599427 .29808045V.26107789C.2649994 .25808717 .19499207 .25508119 .13198853 .22509766 .056991579 .19110108 .03199768 .13911438 .03199768 .09512329 .03199768 .014251709 .1289978-.0107421879 .19198609-.0107421879 .2579956-.0107421879 .3039856 .029251099 .32299806 .07624817 .32699586 .036132814 .35398866-.005859375 .40098573-.005859375 .42199708-.005859375 .48298646 .008132935 .48298646 .08912659M.31599427 .14013672C.31599427 .04525757 .24398804 .011245728 .19898987 .011245728 .1499939 .011245728 .10899353 .04624939 .10899353 .09625244 .10899353 .15124512 .15098572 .23425293 .31599427 .24024964V.14013672Z"/>
<path id="font_3_43" d="M.4149933 .119140628C.4149933 .12911988 .40499879 .12911988 .4019928 .12911988 .3929901 .12911988 .3909912 .12512207 .3889923 .119140628 .3600006 .026229859 .29499818 .014251709 .2579956 .014251709 .20498657 .014251709 .116989139 .0572052 .116989139 .21801758 .116989139 .38093568 .19898987 .42323304 .2519989 .42323304 .26098634 .42323304 .32398988 .42222596 .35899354 .38594056 .31799317 .38293458 .31199647 .3529358 .31199647 .3399353 .31199647 .31393434 .32998658 .2939453 .35798646 .2939453 .38398744 .2939453 .4039917 .3109436 .4039917 .34094239 .4039917 .40911866 .32798768 .4482422 .25099183 .4482422 .12599182 .4482422 .033996583 .3399353 .033996583 .21601868 .033996583 .08816528 .1329956-.0107421879 .24899292-.0107421879 .3829956-.0107421879 .4149933 .10914612 .4149933 .119140628Z"/>
<path id="font_3_50" d="M.4149933 .11933899C.4149933 .12934876 .40699769 .13134766 .4019928 .13134766 .3929901 .13134766 .3909912 .12535095 .3889923 .11734009 .35398866 .014251709 .2639923 .014251709 .2539978 .014251709 .20399475 .014251709 .1639862 .044281007 .14099121 .08131409 .11099243 .12934876 .11099243 .19540406 .11099243 .23144531H.3899994C.4119873 .23144531 .4149933 .23144531 .4149933 .2524414 .4149933 .35131837 .36099244 .4482422 .23599243 .4482422 .11999512 .4482422 .027999878 .34532167 .027999878 .22042847 .027999878 .08631897 .1329956-.0107421879 .24798584-.0107421879 .36999513-.0107421879 .4149933 .10032654 .4149933 .11933899M.34899903 .2524414H.11199951C.117996219 .40126039 .20199585 .426239 .23599243 .426239 .33898927 .426239 .34899903 .2913971 .34899903 .2524414Z"/>
<path id="font_3_77" d="M.5349884 0V.0309906C.48298646 .0309906 .45799256 .0309906 .45700074 .061019899V.25221253C.45700074 .3383026 .45700074 .36932374 .42599488 .405365 .4119873 .42237855 .3789978 .4423828 .32099916 .4423828 .24798584 .4423828 .20098877 .39935304 .17298889 .33729554V.4423828L.03199768 .43066407V.3996582C.101989749 .3996582 .10998535 .39266969 .10998535 .34370423V.07595825C.10998535 .0309906 .09899902 .0309906 .03199768 .0309906V0L.14498902 .0029907227 .25698854 0V.0309906C.18998719 .0309906 .1789856 .0309906 .1789856 .07595825V.25978089C.1789856 .36431886 .25 .42037965 .31399537 .42037965 .3769989 .42037965 .3880005 .36631776 .3880005 .30926515V.076034549C.3880005 .0309906 .3769989 .0309906 .30999757 .0309906V0L.4229889 .0029907227 .5349884 0Z"/>
<path id="font_3_47" d="M.5269928 0V.0309906C.45700074 .0309906 .44898988 .038009645 .44898988 .0871582V.69433596L.30499269 .6826172V.6516113C.375 .6516113 .3829956 .64463809 .3829956 .59580996V.38035584C.35398866 .41636659 .31098939 .4423828 .25698854 .4423828 .13899231 .4423828 .033996583 .3443451 .033996583 .21531677 .033996583 .088272098 .13198853-.0107421879 .24598694-.0107421879 .30999757-.0107421879 .35499574 .023254395 .37998963 .055267335V-.0107421879L.5269928 0M.37998963 .117996219C.37998963 .099990848 .37998963 .09799194 .36898805 .08099365 .33898927 .033218385 .2939911 .011245728 .25099183 .011245728 .20599365 .011245728 .16999817 .037216188 .1459961 .075164798 .11999512 .1161499 .116989139 .17320252 .116989139 .21421814 .116989139 .25125123 .11898804 .31129457 .147995 .35632325 .16899109 .38734437 .20698548 .42037965 .26098634 .42037965 .29599 .42037965 .33799745 .405365 .36898805 .3603363 .37998963 .34332276 .37998963 .34132386 .37998963 .32330323V.117996219Z"/>
<path id="font_3_109" d="M.5349884 0V.0309906C.46499635 .0309906 .45700074 .037994386 .45700074 .08705139V.4423828L.30999757 .43066407V.3996582C.37998963 .3996582 .3880005 .39266969 .3880005 .34373475V.16601563C.3880005 .07910156 .33999635 .011245728 .2669983 .011245728 .18299866 .011245728 .1789856 .058135988 .1789856 .11009216V.4423828L.03199768 .43066407V.3996582C.10998535 .3996582 .10998535 .39666749 .10998535 .3078003V.15802002C.10998535 .080093387 .10998535-.0107421879 .2619934-.0107421879 .31799317-.0107421879 .3619995 .017242432 .3909912 .07910156V-.0107421879L.5349884 0Z"/>
<path id="font_3_105" d="M.33198548 .12385559V.18066406H.30699159V.12585449C.30699159 .052108766 .2769928 .014251709 .23999024 .014251709 .17298889 .014251709 .17298889 .10491943 .17298889 .12187195V.3996582H.31599427V.43066407H.17298889V.6142578H.147995C.14698792 .5324249 .116989139 .42565919 .018997193 .42166139V.3996582H.10398865V.12408447C.10398865 .0012512207 .19699097-.0107421879 .23298645-.0107421879 .3039856-.0107421879 .33198548 .060180665 .33198548 .12408447V.12385559Z"/>
<path id="font_3_63" d="M.5349884 0V.0309906C.48298646 .0309906 .45799256 .0309906 .45700074 .061019899V.25221253C.45700074 .3383026 .45700074 .36932374 .42599488 .405365 .4119873 .42237855 .3789978 .4423828 .32099916 .4423828 .23699951 .4423828 .19299317 .38233949 .1769867 .34629823H.17599488V.69433596L.03199768 .6826172V.6516113C.101989749 .6516113 .10998535 .64463809 .10998535 .59580996V.076034549C.10998535 .0309906 .09899902 .0309906 .03199768 .0309906V0L.14498902 .0029907227 .25698854 0V.0309906C.18998719 .0309906 .1789856 .0309906 .1789856 .076034549V.2602234C.1789856 .36431886 .25 .42037965 .31399537 .42037965 .3769989 .42037965 .3880005 .36631776 .3880005 .30926515V.076034549C.3880005 .0309906 .3769989 .0309906 .30999757 .0309906V0L.4229889 .0029907227 .5349884 0Z"/>
<path id="font_3_125" d="M.5269928 0V.0309906C.45999146 .0309906 .44898988 .0309906 .44898988 .07595825V.44265748L.32299806 .4336548C.30699159 .43266297 .30499269 .43165589 .30499269 .43165589 .30299378 .43066407 .30099488 .43066407 .2869873 .43066407H.16899109V.5436554C.16899109 .64260867 .25498963 .68307498 .31698609 .68307498 .34700013 .68307498 .3829956 .6729431 .40299989 .64964297 .3619995 .6476288 .35598756 .61961367 .35598756 .6036072 .35598756 .5706024 .38198854 .5576172 .40098573 .5576172 .42399598 .5576172 .44699098 .5736084 .44699098 .6036072 .44699098 .6628113 .3919983 .7050781 .31799317 .7050781 .22499085 .7050781 .10598755 .6537018 .10598755 .5446167V.43066407H.026992798V.3996582H.10598755V.07595825C.10598755 .0309906 .09498596 .0309906 .027999878 .0309906V0L.13899231 .0029907227 .25 0V.0309906C.18299866 .0309906 .17199707 .0309906 .17199707 .07595825V.3996582H.32998658C.37599183 .3996582 .3829956 .38667298 .3829956 .34570313V.07595825C.3829956 .0309906 .37199403 .0309906 .30499269 .0309906V0L.41600038 .0029907227 .5269928 0Z"/>
<path id="font_3_59" d="M.4850006 .40411378C.4850006 .42111207 .47299195 .453125 .43399049 .453125 .4139862 .453125 .36999513 .44711305 .32798768 .40611268 .28599549 .43937684 .24398804 .4423828 .22200012 .4423828 .1289978 .4423828 .05999756 .37338258 .05999756 .29638673 .05999756 .25239564 .08198547 .21440125 .10699463 .19340515 .09399414 .17840576 .07598877 .14538574 .07598877 .11035156 .07598877 .07899475 .08898926 .04083252 .11999512 .020828248 .05999756 .003829956 .027999878-.039138795 .027999878-.07911682 .027999878-.15107727 .1269989-.20605469 .24899292-.20605469 .36698915-.20605469 .47099305-.15507508 .47099305-.07711792 .47099305-.042144777 .45700074 .008834839 .4059906 .036834718 .35299684 .064834598 .29499818 .064834598 .23399353 .064834598 .20899964 .064834598 .1659851 .064834598 .15899658 .065841678 .1269989 .069885257 .10598755 .101242069 .10598755 .13334656 .10598755 .13735962 .10598755 .16040039 .12298584 .18040467 .1619873 .15240479 .20298767 .14941406 .22200012 .14941406 .31498719 .14941406 .38398744 .21839905 .38398744 .2953949 .38398744 .3323822 .36799623 .36938478 .34298707 .39237977 .3789978 .42637635 .4149933 .43138124 .43299867 .43138124 .43299867 .43112184 .43998719 .43112184 .44299317 .43011476 .43199159 .42611695 .4269867 .41513063 .4269867 .40315248 .4269867 .38616944 .43998719 .37417604 .45599366 .37417604 .46598817 .37417604 .4850006 .3811798 .4850006 .4041443V.40411378M.30899049 .29626466C.30899049 .26930238 .30799867 .2373352 .29299928 .21235657 .2849884 .20037842 .2619934 .17240906 .22200012 .17240906 .1349945 .17240906 .1349945 .2722931 .1349945 .29527284 .1349945 .3222351 .13598633 .35420228 .15098572 .3791809 .15899658 .3913269 .18199158 .41937257 .22200012 .41937257 .30899049 .41937257 .30899049 .31922914 .30899049 .29618836V.29626466M.4189911-.07911682C.4189911-.13308716 .34799195-.18305969 .25-.18305969 .14898682-.18305969 .07998657-.13209534 .07998657-.07911682 .07998657-.03314209 .117996219 .003829956 .1619873 .0068359377H.22099304C.30699159 .0068359377 .4189911 .0068359377 .4189911-.07911682Z"/>
<path id="font_3_72" d="M.25498963 0V.0309906C.18798828 .0309906 .1769867 .0309906 .1769867 .07601929V.69433596L.032989503 .6826172V.6516113C.102996829 .6516113 .11099243 .64460757 .11099243 .5956421V.07595825C.11099243 .0309906 .099990848 .0309906 .032989503 .0309906V0L.14399719 .0029907227 .25498963 0Z"/>
<path id="font_3_81" d="M.47099305 .21424866C.47099305 .34223939 .37098695 .4482422 .25 .4482422 .125 .4482422 .027999878 .3392334 .027999878 .21424866 .027999878 .085250858 .13198853-.0107421879 .24899292-.0107421879 .36999513-.0107421879 .47099305 .087249759 .47099305 .21424866M.3880005 .22224427C.3880005 .18624878 .3880005 .13224793 .3659973 .08824158 .34399415 .04324341 .2999878 .014251709 .25 .014251709 .20698548 .014251709 .16299439 .035247804 .13598633 .08125305 .11099243 .12524414 .11099243 .18624878 .11099243 .22224427 .11099243 .26124574 .11099243 .31523133 .1349945 .35923768 .1619873 .40522767 .20899964 .426239 .24899292 .426239 .29299928 .426239 .33599855 .40423585 .3619995 .36123658 .3880005 .3182373 .3880005 .26023866 .3880005 .22224427Z"/>
<path id="font_3_98" d="M.3600006 .12823487C.3600006 .18122864 .32998658 .21122742 .31799317 .22323609 .2849884 .25523377 .24598694 .26322938 .20399475 .27124024 .147995 .28224183 .08099365 .29522706 .08099365 .35324098 .08099365 .38822938 .10699463 .42922975 .19299317 .42922975 .30299378 .42922975 .30799867 .3392334 .30999757 .30822755 .31098939 .2992401 .32199098 .2992401 .32199098 .2992401 .33499146 .2992401 .33499146 .30422975 .33499146 .32322694V.4242401C.33499146 .4412384 .33499146 .4482422 .32398988 .4482422 .31900025 .4482422 .31698609 .4482422 .3039856 .43623353 .30099488 .43223573 .29100038 .42323304 .2869873 .42022706 .24899292 .4482422 .20799256 .4482422 .19299317 .4482422 .070999149 .4482422 .032989503 .38124085 .032989503 .3252411 .032989503 .29023744 .04899597 .26223756 .07598877 .24023438 .10798645 .2142334 .13598633 .2082367 .20799256 .19422913 .22999573 .19021607 .31199647 .17422486 .31199647 .10221863 .31199647 .051223756 .2769928 .011245728 .19898987 .011245728 .114990238 .011245728 .07899475 .068222049 .05999756 .1532135 .056991579 .16621399 .055999757 .17021179 .04598999 .17021179 .032989503 .17021179 .032989503 .16322327 .032989503 .1452179V.013214111C.032989503-.003753662 .032989503-.0107421879 .04399109-.0107421879 .04899597-.0107421879 .049987794-.009750366 .068984989 .009246826 .070999149 .011245728 .070999149 .013214111 .08898926 .032226564 .1329956-.009750366 .17799378-.0107421879 .19898987-.0107421879 .31399537-.0107421879 .3600006 .05621338 .3600006 .1282196V.12823487Z"/>
<path id="font_3_66" d="M.24699402 0V.0309906C.18099976 .0309906 .1769867 .035995485 .1769867 .075042728V.4423828L.036987306 .43066407V.3996582C.101989749 .3996582 .11099243 .3936615 .11099243 .3447113V.07595825C.11099243 .0309906 .099990848 .0309906 .032989503 .0309906V0L.14299011 .0029907227C.17799378 .0029907227 .21299744 .0009918213 .24699402 0M.19198609 .603775C.19198609 .6307678 .16899109 .6567688 .13899231 .6567688 .10499573 .6567688 .084991458 .6287689 .084991458 .603775 .084991458 .57676699 .10798645 .55078127 .13798523 .55078127 .17199707 .55078127 .19198609 .5787811 .19198609 .603775Z"/>
<path id="font_3_88" d="M.19198609 .052993776C.19198609 .08198547 .16799927 .10598755 .13899231 .10598755 .10998535 .10598755 .085998538 .08198547 .085998538 .052993776 .085998538 .023986817 .10998535 0 .13899231 0 .16799927 0 .19198609 .023986817 .19198609 .052993776Z"/>
<path id="font_1_2" d="M.1269989 .07699585 .23298645 .18003845C.3889923 .31811524 .44898988 .3721466 .44898988 .47216798 .44898988 .5860901 .35899354 .6660156 .23699951 .6660156 .12399292 .6660156 .049987794 .57411196 .049987794 .48516847 .049987794 .4291687 .099990848 .4291687 .102996829 .4291687 .11999512 .4291687 .15499878 .44117738 .15499878 .48217774 .15499878 .5081787 .13699341 .5341797 .101989749 .5341797 .09399414 .5341797 .09199524 .5341797 .08898926 .5331726 .11199951 .59806826 .1659851 .63500979 .22399903 .63500979 .31498719 .63500979 .35798646 .5541382 .35798646 .47216798 .35798646 .39215089 .30799867 .31311036 .25299073 .25108338L.06098938 .036987306C.049987794 .025985718 .049987794 .023986817 .049987794 0H.42099L.44898988 .17404175H.42399598C.4189911 .14402771 .4119873 .1000061 .4019928 .084991458 .394989 .07699585 .32899476 .07699585 .30699159 .07699585H.1269989Z"/>
<path id="font_3_62" d="M.71598818 0V.0309906H.69200137C.61499026 .0309906 .61299136 .041992189 .61299136 .07797241V.6046448C.61299136 .640625 .61499026 .6516113 .69200137 .6516113H.71598818V.6826172C.68099978 .6796112 .6069946 .6796112 .56900027 .6796112 .5309906 .6796112 .45599366 .6796112 .42099 .6826172V.6516113H.44499208C.5219879 .6516113 .5239868 .640625 .5239868 .6046448V.37083436H.22499085V.6046448C.22499085 .640625 .22698975 .6516113 .3039856 .6516113H.32798768V.6826172C.29299928 .6796112 .21899414 .6796112 .18099976 .6796112 .14299011 .6796112 .067993167 .6796112 .032989503 .6826172V.6516113H.056991579C.13398743 .6516113 .13598633 .640625 .13598633 .6046448V.07797241C.13598633 .041992189 .13398743 .0309906 .056991579 .0309906H.032989503V0C.067993167 .0029907227 .14199829 .0029907227 .17999268 .0029907227 .21798706 .0029907227 .29299928 .0029907227 .32798768 0V.0309906H.3039856C.22698975 .0309906 .22499085 .041992189 .22499085 .07797241V.33984376H.5239868V.07797241C.5239868 .041992189 .5219879 .0309906 .44499208 .0309906H.42099V0C.45599366 .0029907227 .5299988 .0029907227 .56799319 .0029907227 .60598757 .0029907227 .68099978 .0029907227 .71598818 0Z"/>
<path id="font_3_114" d="M.7029877 .3996582V.43066407C.68099978 .4286499 .6519928 .42765809 .6299896 .42765809L.5369873 .43066407V.3996582C.57299807 .39866639 .59498599 .38075257 .59498599 .35176087 .59498599 .34576417 .59498599 .34376527 .58999636 .33078004L.49899293 .07513428 .3999939 .35375978C.3959961 .36575318 .394989 .36775209 .394989 .37275697 .394989 .3996582 .43399049 .3996582 .45399476 .3996582V.43066407L.34999085 .42765809C.31999208 .42765809 .29100038 .4286499 .26098634 .43066407V.3996582C.2979889 .3996582 .31399537 .39767457 .32398988 .38476563 .32899476 .37875367 .33999635 .34877015 .34700013 .3297882L.26098634 .08811951 .1659851 .3547516C.16099549 .36676026 .16099549 .36875917 .16099549 .37275697 .16099549 .3996582 .19999695 .3996582 .21998596 .3996582V.43066407L.11099243 .42765809 .017990113 .43066407V.3996582C.067993167 .3996582 .07998657 .39668275 .09199524 .36476136L.21798706 .01121521C.22299195-.0027618409 .22599793-.0107421879 .23899842-.0107421879 .2519989-.0107421879 .2539978-.004760742 .25898744 .009216309L.3600006 .2918396 .46199037 .008224487C.46598817-.0027618409 .46899415-.0107421879 .48199464-.0107421879 .49499513-.0107421879 .49798585-.0017547608 .5019989 .008224487L.61898806 .3357849C.6369934 .38575746 .66799929 .39866639 .7029877 .3996582Z"/>
<path id="font_3_75" d="M.8129883 0V.0309906C.7609863 .0309906 .73599246 .0309906 .7350006 .061019899V.25221253C.7350006 .3383026 .7350006 .36932374 .70399478 .405365 .6899872 .42237855 .6569977 .4423828 .598999 .4423828 .5149994 .4423828 .47099305 .38233949 .45399476 .34429933 .43998719 .43138124 .3659973 .4423828 .32099916 .4423828 .24798584 .4423828 .20098877 .39935304 .17298889 .33729554V.4423828L.03199768 .43066407V.3996582C.101989749 .3996582 .10998535 .39266969 .10998535 .34370423V.07595825C.10998535 .0309906 .09899902 .0309906 .03199768 .0309906V0L.14498902 .0029907227 .25698854 0V.0309906C.18998719 .0309906 .1789856 .0309906 .1789856 .07595825V.25978089C.1789856 .36431886 .25 .42037965 .31399537 .42037965 .3769989 .42037965 .3880005 .36631776 .3880005 .30926515V.076034549C.3880005 .0309906 .3769989 .0309906 .30999757 .0309906V0L.4229889 .0029907227 .5349884 0V.0309906C.46798707 .0309906 .45700074 .0309906 .45700074 .076034549V.2602234C.45700074 .36431886 .5279999 .42037965 .59199526 .42037965 .6549988 .42037965 .66600039 .36631776 .66600039 .30926515V.076034549C.66600039 .0309906 .6549988 .0309906 .58799746 .0309906V0L.70098879 .0029907227 .8129883 0Z"/>
<path id="font_3_118" d="M.5079956 .3996582V.43066407C.4850006 .4286499 .45599366 .42765809 .43299867 .42765809L.34599305 .43066407V.3996582C.3769989 .39866639 .3929901 .3816681 .3929901 .35668946 .3929901 .34669496 .3919983 .34469605 .3869934 .33270265L.28599549 .08685303 .1749878 .35568238C.17098999 .36567689 .16899109 .36967469 .16899109 .3736725 .16899109 .3996582 .20599365 .3996582 .22499085 .3996582V.43066407L.115997318 .42765809C.08898926 .42765809 .04899597 .4286499 .018997193 .43066407V.3996582C.066986087 .3996582 .085998538 .3996582 .099990848 .36468507L.25-.000091552738 .22499085-.059066774C.20298767-.11407471 .1749878-.18309021 .11099243-.18309021 .10598755-.18309021 .08299255-.18309021 .06399536-.16503906 .09498596-.16104126 .102996829-.13905335 .102996829-.123046878 .102996829-.0970459 .083999637-.08103943 .06098938-.08103943 .040985109-.08103943 .018997193-.09403992 .018997193-.124053958 .018997193-.16905213 .06098938-.20507813 .11099243-.20507813 .17399597-.20507813 .21499634-.14804077 .23899842-.091049198L.4149933 .33569337C.44099427 .39865113 .49198915 .3996582 .5079956 .3996582Z"/>
<path id="font_3_84" d="M.5209961 .21636963C.5209961 .34336854 .42399598 .4423828 .31199647 .4423828 .23399353 .4423828 .19198609 .39837647 .17199707 .3763733V.4423828L.027999878 .43066407V.3996582C.09899902 .3996582 .10598755 .3936615 .10598755 .34973146V-.117996219C.10598755-.16308594 .09498596-.16308594 .027999878-.16308594V-.1940918L.13999939-.19110108 .25299073-.1940918V-.16308594C.18598938-.16308594 .1749878-.16308594 .1749878-.117996219V.050186159 .059173585C.17999268 .04319763 .22200012-.0107421879 .2979889-.0107421879 .4169922-.0107421879 .5209961 .087127689 .5209961 .21594239V.21636963M.43798829 .21594239C.43798829 .09512329 .36799623 .011245728 .2939911 .011245728 .2539978 .011245728 .21598816 .031219483 .18899536 .07215881 .1749878 .09312439 .1749878 .09411621 .1749878 .114089969V.33674623C.20399475 .38838197 .25299073 .41737367 .3039856 .41737367 .3769989 .41737367 .43798829 .32937623 .43798829 .21636963V.21594239Z"/>
<path id="font_3_55" d="M.35699464 .63479617C.35699464 .6717987 .31999208 .7050781 .2669983 .7050781 .19699097 .7050781 .11199951 .65179446 .11199951 .5457611V.43066407H.032989503V.3996582H.11199951V.07595825C.11199951 .0309906 .100997928 .0309906 .033996583 .0309906V0L.147995 .0029907227C.18798828 .0029907227 .23498535 .0029907227 .2749939 0V.0309906H.2539978C.17999268 .0309906 .17799378 .04197693 .17799378 .07795715V.3996582H.2919922V.43066407H.1749878V.5467529C.1749878 .63479617 .22299195 .68307498 .2669983 .68307498 .269989 .68307498 .2849884 .68307498 .2999878 .675827 .28799439 .6717987 .269989 .6587982 .269989 .6338043 .269989 .61079409 .28599549 .5907898 .31298829 .5907898 .34199525 .5907898 .35699464 .61079409 .35699464 .63479617Z"/>
<path id="font_1_3" d="M.2899933 .35191346C.37199403 .37893678 .42999269 .4490509 .42999269 .52809146 .42999269 .6100464 .34199525 .6660156 .24598694 .6660156 .14498902 .6660156 .068984989 .60606387 .068984989 .53009036 .068984989 .49710084 .09098816 .47808839 .11999512 .47808839 .15098572 .47808839 .17098999 .50009158 .17098999 .5290985 .17098999 .57910159 .12399292 .57910159 .10899353 .57910159 .13999939 .62802127 .20599365 .64100649 .24198914 .64100649 .2829895 .64100649 .33799745 .6190338 .33799745 .5290985 .33799745 .51708987 .33599855 .45906068 .30999757 .4149933 .27999879 .36691285 .24598694 .36390687 .22099304 .36291505 .21299744 .36190797 .18899536 .35990907 .18199158 .35990907 .17399597 .35890199 .16699219 .35791017 .16699219 .3479004 .16699219 .33691407 .17399597 .33691407 .19099427 .33691407H.23498535C.31698609 .33691407 .35398866 .2686615 .35398866 .17037964 .35398866 .034469606 .2849884 .0055389406 .24099732 .0055389406 .19799805 .0055389406 .12298584 .022491456 .08799744 .08137512 .12298584 .07637024 .1539917 .09837341 .1539917 .1363678 .1539917 .17237854 .1269989 .19238281 .09799194 .19238281 .07398987 .19238281 .041992189 .17837525 .041992189 .1343689 .041992189 .043441774 .1349945-.022460938 .24398804-.022460938 .3659973-.022460938 .45700074 .06838989 .45700074 .17037964 .45700074 .252594 .3939972 .33088685 .2899933 .35191346Z"/>
<path id="font_3_113" d="M1.0089874 .6516113V.6826172C.97898867 .680603 .94799807 .6796112 .91799929 .6796112L.798996 .6826172V.6516113C.8659973 .65060427 .8860016 .6174164 .8860016 .5983734 .8860016 .59236147 .8829956 .58436587 .8809967 .57836917L.73098757 .116363529 .57099917 .606369C.56999209 .6103668 .56799319 .6164093 .56799319 .62142947 .56799319 .6516113 .6259918 .6516113 .6519928 .6516113V.6826172C.6159973 .6796112 .5479889 .6796112 .5099945 .6796112L.3880005 .6826172V.6516113C.44499208 .6516113 .46598817 .6516113 .47799684 .61595156L.5 .5459595 .36099244 .11695862 .19999695 .60894778C.19898987 .61195376 .19799805 .618927 .19799805 .62190249 .19799805 .6516113 .2559967 .6516113 .28199769 .6516113V.6826172C.24598694 .6796112 .17799378 .6796112 .13999939 .6796112L.017990113 .6826172V.6516113C.09298706 .6513672 .09700012 .6463623 .10899353 .609375L.30899049-.003479004C.31199647-.012466431 .31498719-.022460938 .32798768-.022460938 .34199525-.022460938 .34399415-.015472412 .34799195-.0024719239L.5130005 .50538638 .67900088-.003479004C.6819916-.012466431 .68499758-.022460938 .69799807-.022460938 .71199038-.022460938 .71398928-.015472412 .71798709-.0024719239L.9089966 .58496096C.9269867 .6417084 .9700012 .6516113 1.0089874 .6516113Z"/>
<path id="font_1_4" d="M.2939911 .16503906V.07800293C.2939911 .041992189 .2919922 .0309906 .21798706 .0309906H.19699097V0C.23799134 .0029907227 .2899933 .0029907227 .33198548 .0029907227 .37399293 .0029907227 .4269867 .0029907227 .46798707 0V.0309906H.44699098C.37298585 .0309906 .37098695 .041992189 .37098695 .07800293V.16503906H.47099305V.19602967H.37098695V.65075686C.37098695 .67074587 .37098695 .6767578 .35499574 .6767578 .34599305 .6767578 .34298707 .6767578 .33499146 .66474917L.027999878 .19602967V.16503906H.2939911M.2999878 .19602967H.055999757L.2999878 .5688019V.19602967Z"/>
<path id="font_3_108" d="M.71598818 .6516113V.6826172L.59799197 .6796112 .47898866 .6826172V.6516113C.58200076 .6516113 .58200076 .6044922 .58200076 .57748416V.23051453C.58200076 .088531497 .4850006 .008529663 .3899994 .008529663 .34298707 .008529663 .22499085 .03352356 .22499085 .22351074V.6044922C.22499085 .6405792 .22698975 .6516113 .3039856 .6516113H.32798768V.6826172C.29299928 .6796112 .21899414 .6796112 .18099976 .6796112 .14299011 .6796112 .067993167 .6796112 .032989503 .6826172V.6516113H.056991579C.13398743 .6516113 .13598633 .6405792 .13598633 .6044922V.22750855C.13598633 .086517337 .2519989-.022460938 .3880005-.022460938 .5029907-.022460938 .59298709 .07052612 .6100006 .18450928 .61299136 .20451355 .61299136 .21351624 .61299136 .25350953V.5734863C.61299136 .6064911 .61299136 .6516113 .71598818 .6516113Z"/>
<path id="font_3_45" d="M.20298767 .0009918213C.20298767 .06498718 .1789856 .10598755 .13899231 .10598755 .10398865 .10598755 .085998538 .07899475 .085998538 .052993776 .085998538 .026992798 .102996829 0 .13899231 0 .1539917 0 .16799927 .005996704 .1789856 .015991211 .18099976-.06312561 .15299988-.12423706 .10899353-.17132569 .102996829-.17733765 .101989749-.17834473 .101989749-.18234253 .101989749-.18936157 .10699463-.19335938 .11199951-.19335938 .12399292-.19335938 .20298767-.114227298 .20298767 .0009918213Z"/>
<path id="font_3_120" d="M.40098573 .18684387H.37599183C.36698915 .06895447 .34599305 .024993897 .22999573 .024993897H.11199951L.3899994 .40066529C.39898683 .4116516 .39898683 .4136505 .39898683 .41766358 .39898683 .43066407 .3909912 .43066407 .37298585 .43066407H.052993776L.041992189 .2697754H.066986087C.07299805 .37168885 .09199524 .4086609 .20199585 .4086609H.31599427L.036987306 .031982423C.027999878 .020996094 .027999878 .018997193 .027999878 .01399231 .027999878 0 .034988405 0 .053985597 0H.38398744L.40098573 .18684387Z"/>
<path id="font_1_5" d="M.44898988 .20022583C.44898988 .3193512 .36698915 .41944886 .25898744 .41944886 .21099854 .41944886 .16799927 .40345765 .13198853 .36842347V.5637665C.1519928 .5577698 .18499756 .55078127 .21699524 .55078127 .33999635 .55078127 .4099884 .6417694 .4099884 .6547699 .4099884 .6607666 .40699769 .6657715 .3999939 .6657715 .39898683 .6657715 .39698792 .6657715 .3919983 .66278079 .37199403 .6537781 .32299806 .6337738 .2559967 .6337738 .21598816 .6337738 .16999817 .6407776 .12298584 .6617737 .114990238 .66477969 .11299133 .66477969 .11099243 .66477969 .100997928 .66477969 .100997928 .6567688 .100997928 .6407776V.34439088C.100997928 .32637025 .100997928 .31835938 .114990238 .31835938 .12199402 .31835938 .12399292 .32136537 .12799073 .32736207 .13899231 .3433838 .17599488 .39746095 .25698854 .39746095 .30899049 .39746095 .33399964 .35139466 .34199525 .33337403 .35798646 .29632569 .3600006 .25727845 .3600006 .20722962 .3600006 .17222595 .3600006 .11222839 .33599855 .07035828 .31199647 .031463624 .2749939 .0055389406 .22898865 .0055389406 .1559906 .0055389406 .09899902 .058380128 .08198547 .11723328 .084991458 .1162262 .08799744 .115234378 .09899902 .115234378 .13198853 .115234378 .14898682 .14022827 .14898682 .16423035 .14898682 .18823242 .13198853 .21322632 .09899902 .21322632 .084991458 .21322632 .049987794 .20622254 .049987794 .16023255 .049987794 .07434082 .11898804-.022460938 .23098755-.022460938 .34700013-.022460938 .44898988 .073349 .44898988 .20022583Z"/>
<path id="font_3_97" d="M.49899293 .18579102C.49899293 .2858429 .43299867 .36791993 .34899903 .38793946L.22099304 .4189453C.15899658 .43388368 .11999512 .48773194 .11999512 .5458069 .11999512 .61595156 .17399597 .677063 .2519989 .677063 .4189911 .677063 .44099427 .5127411 .44699098 .46777345 .44799806 .461792 .44799806 .45581056 .45899964 .45581056 .47200013 .45581056 .47200013 .46080018 .47200013 .47973634V.68107607C.47200013 .69807437 .47200013 .7050781 .46099855 .7050781 .45399476 .7050781 .45298768 .70407107 .44599916 .69207766L.41099549 .63497927C.3809967 .66404727 .33999635 .7050781 .25099183 .7050781 .13999939 .7050781 .055999757 .61694338 .055999757 .5107422 .055999757 .42790223 .10899353 .35490418 .18699646 .32788087 .19799805 .32388307 .24899292 .3118744 .31900025 .29486085 .34599305 .28785707 .37599183 .280838 .4039917 .24382019 .4249878 .2177887 .43499757 .18478394 .43499757 .1517334 .43499757 .0806427 .3849945 .008529663 .30099488 .008529663 .27198792 .008529663 .19599915 .013534546 .14299011 .06260681 .084991458 .11668396 .08198547 .18078614 .08099365 .21679688 .07998657 .22679138 .07199097 .22679138 .068984989 .22679138 .055999757 .22679138 .055999757 .2197876 .055999757 .20178223V.0015258789C.055999757-.015472412 .055999757-.022460938 .066986087-.022460938 .07398987-.022460938 .07499695-.020462037 .08198547-.009475708 .08198547-.009475708 .084991458-.0054626467 .117996219 .047592164 .14898682 .013534546 .21299744-.022460938 .3019867-.022460938 .4189911-.022460938 .49899293 .07562256 .49899293 .18579102Z"/>
<path id="font_3_70" d="M.5109863 0V.0309906C.47399903 .0309906 .45199586 .0309906 .4139862 .0839386L.2869873 .26278688C.28599549 .26478578 .2809906 .2707672 .2809906 .2737732 .2809906 .277771 .35198976 .33770753 .3619995 .34570313 .4249878 .39666749 .46699525 .39865113 .48799134 .3996582V.43066407C.45899964 .42765809 .44599916 .42765809 .41799928 .42765809 .38198854 .42765809 .31999208 .42965699 .30599977 .43066407V.3996582C.32499696 .39865113 .33499146 .3876648 .33499146 .37467958 .33499146 .3547058 .32099916 .3427124 .31298829 .33570863L.17199707 .21382141V.69433596L.027999878 .6826172V.6516113C.09799194 .6516113 .10598755 .64460757 .10598755 .5956421V.07595825C.10598755 .0309906 .09498596 .0309906 .027999878 .0309906V0L.13699341 .0029907227 .24699402 0V.0309906C.17999268 .0309906 .16899109 .0309906 .16899109 .07595825V.17889405L.23298645 .23387146C.30999757 .12792969 .35198976 .07196045 .35198976 .053985597 .35198976 .034988405 .33499146 .0309906 .31599427 .0309906V0L.42399598 .0029907227C.45298768 .0029907227 .48199464 .0019989014 .5109863 0Z"/>
</defs>
<path transform="matrix(1,0,0,-1.00005,334.768,70.0017)" stroke-width=".79701" stroke-linecap="butt" stroke-miterlimit="10" stroke-linejoin="miter" fill="none" stroke="#0000ff" d="M0 56.69362V0H113.38724L56.69362 56.69362H0"/>
<path transform="matrix(1,0,0,-1.00005,334.768,70.0017)" stroke-width=".3985" stroke-linecap="butt" stroke-miterlimit="10" stroke-linejoin="miter" fill="none" stroke="#00ff00" d="M0 0V8.50412H8.50412V0"/>
<path transform="matrix(1,0,0,-1.00005,334.768,70.0017)" stroke-width=".3985" stroke-linecap="butt" stroke-miterlimit="10" stroke-linejoin="miter" fill="none" stroke="#00ff00" d="M0 56.69362H8.50412V48.18947H0"/>
<path transform="matrix(1,0,0,-1.00005,334.768,70.0017)" stroke-width=".3985" stroke-linecap="butt" stroke-miterlimit="10" stroke-linejoin="miter" fill="none" stroke="#00ff00" d="M25.51193 59.52846 28.3468 56.69362 25.51193 53.85875"/>
<path transform="matrix(1,0,0,-1.00005,334.768,70.0017)" stroke-width=".3985" stroke-linecap="butt" stroke-miterlimit="10" stroke-linejoin="miter" fill="none" stroke="#00ff00" d="M25.51193 2.83484 28.3468 0 25.51193-2.83484"/>
<path transform="matrix(1,0,0,-1.00005,334.768,70.0017)" stroke-width=".3985" stroke-linecap="butt" stroke-miterlimit="10" stroke-linejoin="miter" fill="none" stroke="#000000" d=""/>
<path transform="matrix(1,0,0,-1.00005,334.768,70.0017)" d="M-16.4581 68.3998H-328.8908C-331.09175 68.3998-332.8759 66.61563-332.8759 64.41469V-39.86559C-332.8759-42.06653-331.09175-43.8507-328.8908-43.8507H-16.4581C-14.25716-43.8507-12.47299-42.06653-12.47299-39.86559V64.41469C-12.47299 66.61563-14.25716 68.3998-16.4581 68.3998ZM-332.8759-43.8507" fill="#ffcccc"/>
<use data-text="1" xlink:href="#font_1_1" transform="matrix(9.9626,0,0,-9.963098,82.46399,17.848092)"/>
<use data-text="." xlink:href="#font_2_1" transform="matrix(9.9626,0,0,-9.963098,87.44498,17.848092)"/>
<use data-text="T" xlink:href="#font_3_104" transform="matrix(9.9626,0,0,-9.963098,90.21298,17.848092)"/>
<use data-text="r" xlink:href="#font_3_96" transform="matrix(9.9626,0,0,-9.963098,96.57907,17.848092)"/>
<use data-text="a" xlink:href="#font_3_28" transform="matrix(9.9626,0,0,-9.963098,100.484409,17.848092)"/>
<use data-text="c" xlink:href="#font_3_43" transform="matrix(9.9626,0,0,-9.963098,105.46573,17.848092)"/>
<use data-text="e" xlink:href="#font_3_50" transform="matrix(9.9626,0,0,-9.963098,109.88913,17.848092)"/>
<use data-text="a" xlink:href="#font_3_28" transform="matrix(9.9626,0,0,-9.963098,117.6301,17.848092)"/>
<use data-text="n" xlink:href="#font_3_77" transform="matrix(9.9626,0,0,-9.963098,122.61142,17.848092)"/>
<use data-text="d" xlink:href="#font_3_47" transform="matrix(9.9626,0,0,-9.963098,128.1506,17.848092)"/>
<use data-text="c" xlink:href="#font_3_43" transform="matrix(9.9626,0,0,-9.963098,137.00736,17.848092)"/>
<use data-text="u" xlink:href="#font_3_109" transform="matrix(9.9626,0,0,-9.963098,141.43076,17.848092)"/>
<use data-text="t" xlink:href="#font_3_105" transform="matrix(9.9626,0,0,-9.963098,146.96994,17.848092)"/>
<use data-text="t" xlink:href="#font_3_105" transform="matrix(9.9626,0,0,-9.963098,154.16294,17.848092)"/>
<use data-text="h" xlink:href="#font_3_63" transform="matrix(9.9626,0,0,-9.963098,158.03836,17.848092)"/>
<use data-text="e" xlink:href="#font_3_50" transform="matrix(9.9626,0,0,-9.963098,163.57755,17.848092)"/>
<use data-text="f" xlink:href="#font_3_125" transform="matrix(9.9626,0,0,-9.963098,171.32846,17.848092)"/>
<use data-text="g" xlink:href="#font_3_59" transform="matrix(9.9626,0,0,-9.963098,176.86765,17.848092)"/>
<use data-text="u" xlink:href="#font_3_109" transform="matrix(9.9626,0,0,-9.963098,181.84897,17.848092)"/>
<use data-text="r" xlink:href="#font_3_96" transform="matrix(9.9626,0,0,-9.963098,187.38816,17.848092)"/>
<use data-text="e" xlink:href="#font_3_50" transform="matrix(9.9626,0,0,-9.963098,191.29349,17.848092)"/>
<use data-text="a" xlink:href="#font_3_28" transform="matrix(9.9626,0,0,-9.963098,199.03446,17.848092)"/>
<use data-text="l" xlink:href="#font_3_72" transform="matrix(9.9626,0,0,-9.963098,204.01578,17.848092)"/>
<use data-text="o" xlink:href="#font_3_81" transform="matrix(9.9626,0,0,-9.963098,206.78537,17.848092)"/>
<use data-text="n" xlink:href="#font_3_77" transform="matrix(9.9626,0,0,-9.963098,211.7667,17.848092)"/>
<use data-text="g" xlink:href="#font_3_59" transform="matrix(9.9626,0,0,-9.963098,217.30588,17.848092)"/>
<use data-text="s" xlink:href="#font_3_98" transform="matrix(9.9626,0,0,-9.963098,222.2872,17.848092)"/>
<use data-text="i" xlink:href="#font_3_66" transform="matrix(9.9626,0,0,-9.963098,226.2125,17.848092)"/>
<use data-text="d" xlink:href="#font_3_47" transform="matrix(9.9626,0,0,-9.963098,228.98209,17.848092)"/>
<use data-text="e" xlink:href="#font_3_50" transform="matrix(9.9626,0,0,-9.963098,234.52127,17.848092)"/>
<use data-text="." xlink:href="#font_3_88" transform="matrix(9.9626,0,0,-9.963098,238.94467,17.848092)"/>
<use data-text="2" xlink:href="#font_1_2" transform="matrix(9.9626,0,0,-9.963098,28.701996,35.781984)"/>
<use data-text="." xlink:href="#font_2_1" transform="matrix(9.9626,0,0,-9.963098,33.682985,35.781984)"/>
<use data-text="H" xlink:href="#font_3_62" transform="matrix(9.9626,0,0,-9.963098,36.44998,35.781984)"/>
<use data-text="o" xlink:href="#font_3_81" transform="matrix(9.9626,0,0,-9.963098,43.921937,35.781984)"/>
<use data-text="w" xlink:href="#font_3_114" transform="matrix(9.9626,0,0,-9.963098,48.634248,35.781984)"/>
<use data-text="m" xlink:href="#font_3_75" transform="matrix(9.9626,0,0,-9.963098,59.134828,35.781984)"/>
<use data-text="a" xlink:href="#font_3_28" transform="matrix(9.9626,0,0,-9.963098,67.433689,35.781984)"/>
<use data-text="n" xlink:href="#font_3_77" transform="matrix(9.9626,0,0,-9.963098,72.41498,35.781984)"/>
<use data-text="y" xlink:href="#font_3_118" transform="matrix(9.9626,0,0,-9.963098,77.68521,35.781984)"/>
<use data-text="p" xlink:href="#font_3_84" transform="matrix(9.9626,0,0,-9.963098,86.25305,35.781984)"/>
<use data-text="a" xlink:href="#font_3_28" transform="matrix(9.9626,0,0,-9.963098,91.79227,35.781984)"/>
<use data-text="i" xlink:href="#font_3_66" transform="matrix(9.9626,0,0,-9.963098,96.77356,35.781984)"/>
<use data-text="r" xlink:href="#font_3_96" transform="matrix(9.9626,0,0,-9.963098,99.54315,35.781984)"/>
<use data-text="s" xlink:href="#font_3_98" transform="matrix(9.9626,0,0,-9.963098,103.44852,35.781984)"/>
<use data-text="o" xlink:href="#font_3_81" transform="matrix(9.9626,0,0,-9.963098,110.691379,35.781984)"/>
<use data-text="f" xlink:href="#font_3_55" transform="matrix(9.9626,0,0,-9.963098,115.6727,35.781984)"/>
<use data-text="p" xlink:href="#font_3_84" transform="matrix(9.9626,0,0,-9.963098,122.0488,35.781984)"/>
<use data-text="a" xlink:href="#font_3_28" transform="matrix(9.9626,0,0,-9.963098,127.58798,35.781984)"/>
<use data-text="r" xlink:href="#font_3_96" transform="matrix(9.9626,0,0,-9.963098,132.5693,35.781984)"/>
<use data-text="a" xlink:href="#font_3_28" transform="matrix(9.9626,0,0,-9.963098,136.47464,35.781984)"/>
<use data-text="l" xlink:href="#font_3_72" transform="matrix(9.9626,0,0,-9.963098,141.45597,35.781984)"/>
<use data-text="l" xlink:href="#font_3_72" transform="matrix(9.9626,0,0,-9.963098,144.22556,35.781984)"/>
<use data-text="e" xlink:href="#font_3_50" transform="matrix(9.9626,0,0,-9.963098,146.99515,35.781984)"/>
<use data-text="l" xlink:href="#font_3_72" transform="matrix(9.9626,0,0,-9.963098,151.41855,35.781984)"/>
<use data-text="l" xlink:href="#font_3_72" transform="matrix(9.9626,0,0,-9.963098,157.5057,35.781984)"/>
<use data-text="i" xlink:href="#font_3_66" transform="matrix(9.9626,0,0,-9.963098,160.2753,35.781984)"/>
<use data-text="n" xlink:href="#font_3_77" transform="matrix(9.9626,0,0,-9.963098,163.04489,35.781984)"/>
<use data-text="e" xlink:href="#font_3_50" transform="matrix(9.9626,0,0,-9.963098,168.58408,35.781984)"/>
<use data-text="s" xlink:href="#font_3_98" transform="matrix(9.9626,0,0,-9.963098,173.00748,35.781984)"/>
<use data-text="a" xlink:href="#font_3_28" transform="matrix(9.9626,0,0,-9.963098,180.25034,35.781984)"/>
<use data-text="r" xlink:href="#font_3_96" transform="matrix(9.9626,0,0,-9.963098,185.23166,35.781984)"/>
<use data-text="e" xlink:href="#font_3_50" transform="matrix(9.9626,0,0,-9.963098,189.137,35.781984)"/>
<use data-text="t" xlink:href="#font_3_105" transform="matrix(9.9626,0,0,-9.963098,196.88791,35.781984)"/>
<use data-text="h" xlink:href="#font_3_63" transform="matrix(9.9626,0,0,-9.963098,200.76334,35.781984)"/>
<use data-text="e" xlink:href="#font_3_50" transform="matrix(9.9626,0,0,-9.963098,206.30252,35.781984)"/>
<use data-text="r" xlink:href="#font_3_96" transform="matrix(9.9626,0,0,-9.963098,210.72592,35.781984)"/>
<use data-text="e" xlink:href="#font_3_50" transform="matrix(9.9626,0,0,-9.963098,214.63126,35.781984)"/>
<use data-text="i" xlink:href="#font_3_66" transform="matrix(9.9626,0,0,-9.963098,222.37223,35.781984)"/>
<use data-text="n" xlink:href="#font_3_77" transform="matrix(9.9626,0,0,-9.963098,225.14182,35.781984)"/>
<use data-text="t" xlink:href="#font_3_105" transform="matrix(9.9626,0,0,-9.963098,233.99857,35.781984)"/>
<use data-text="h" xlink:href="#font_3_63" transform="matrix(9.9626,0,0,-9.963098,237.874,35.781984)"/>
<use data-text="e" xlink:href="#font_3_50" transform="matrix(9.9626,0,0,-9.963098,243.41318,35.781984)"/>
<use data-text="t" xlink:href="#font_3_105" transform="matrix(9.9626,0,0,-9.963098,251.1641,35.781984)"/>
<use data-text="h" xlink:href="#font_3_63" transform="matrix(9.9626,0,0,-9.963098,255.03952,35.781984)"/>
<use data-text="e" xlink:href="#font_3_50" transform="matrix(9.9626,0,0,-9.963098,260.5787,35.781984)"/>
<use data-text="f" xlink:href="#font_3_125" transform="matrix(9.9626,0,0,-9.963098,268.31968,35.781984)"/>
<use data-text="g" xlink:href="#font_3_59" transform="matrix(9.9626,0,0,-9.963098,273.85887,35.781984)"/>
<use data-text="u" xlink:href="#font_3_109" transform="matrix(9.9626,0,0,-9.963098,278.84019,35.781984)"/>
<use data-text="r" xlink:href="#font_3_96" transform="matrix(9.9626,0,0,-9.963098,284.37937,35.781984)"/>
<use data-text="e" xlink:href="#font_3_50" transform="matrix(9.9626,0,0,-9.963098,288.2847,35.781984)"/>
<use data-text="." xlink:href="#font_3_88" transform="matrix(9.9626,0,0,-9.963098,292.7081,35.781984)"/>
<use data-text="3" xlink:href="#font_1_3" transform="matrix(9.9626,0,0,-9.963098,80.95697,53.71588)"/>
<use data-text="." xlink:href="#font_2_1" transform="matrix(9.9626,0,0,-9.963098,85.93796,53.71588)"/>
<use data-text="W" xlink:href="#font_3_113" transform="matrix(9.9626,0,0,-9.963098,88.704959,53.71588)"/>
<use data-text="h" xlink:href="#font_3_63" transform="matrix(9.9626,0,0,-9.963098,98.9465,53.71588)"/>
<use data-text="a" xlink:href="#font_3_28" transform="matrix(9.9626,0,0,-9.963098,104.48569,53.71588)"/>
<use data-text="t" xlink:href="#font_3_105" transform="matrix(9.9626,0,0,-9.963098,109.46701,53.71588)"/>
<use data-text="i" xlink:href="#font_3_66" transform="matrix(9.9626,0,0,-9.963098,116.66,53.71588)"/>
<use data-text="s" xlink:href="#font_3_98" transform="matrix(9.9626,0,0,-9.963098,119.429599,53.71588)"/>
<use data-text="t" xlink:href="#font_3_105" transform="matrix(9.9626,0,0,-9.963098,126.672458,53.71588)"/>
<use data-text="h" xlink:href="#font_3_63" transform="matrix(9.9626,0,0,-9.963098,130.54788,53.71588)"/>
<use data-text="e" xlink:href="#font_3_50" transform="matrix(9.9626,0,0,-9.963098,136.08707,53.71588)"/>
<use data-text="n" xlink:href="#font_3_77" transform="matrix(9.9626,0,0,-9.963098,143.82804,53.71588)"/>
<use data-text="a" xlink:href="#font_3_28" transform="matrix(9.9626,0,0,-9.963098,149.36722,53.71588)"/>
<use data-text="m" xlink:href="#font_3_75" transform="matrix(9.9626,0,0,-9.963098,154.34854,53.71588)"/>
<use data-text="e" xlink:href="#font_3_50" transform="matrix(9.9626,0,0,-9.963098,162.64737,53.71588)"/>
<use data-text="o" xlink:href="#font_3_81" transform="matrix(9.9626,0,0,-9.963098,170.39829,53.71588)"/>
<use data-text="f" xlink:href="#font_3_55" transform="matrix(9.9626,0,0,-9.963098,175.37961,53.71588)"/>
<use data-text="t" xlink:href="#font_3_105" transform="matrix(9.9626,0,0,-9.963098,181.74576,53.71588)"/>
<use data-text="h" xlink:href="#font_3_63" transform="matrix(9.9626,0,0,-9.963098,185.62119,53.71588)"/>
<use data-text="e" xlink:href="#font_3_50" transform="matrix(9.9626,0,0,-9.963098,191.16037,53.71588)"/>
<use data-text="t" xlink:href="#font_3_105" transform="matrix(9.9626,0,0,-9.963098,198.90134,53.71588)"/>
<use data-text="h" xlink:href="#font_3_63" transform="matrix(9.9626,0,0,-9.963098,202.77677,53.71588)"/>
<use data-text="e" xlink:href="#font_3_50" transform="matrix(9.9626,0,0,-9.963098,208.31595,53.71588)"/>
<use data-text="f" xlink:href="#font_3_125" transform="matrix(9.9626,0,0,-9.963098,216.06687,53.71588)"/>
<use data-text="g" xlink:href="#font_3_59" transform="matrix(9.9626,0,0,-9.963098,221.60605,53.71588)"/>
<use data-text="u" xlink:href="#font_3_109" transform="matrix(9.9626,0,0,-9.963098,226.58737,53.71588)"/>
<use data-text="r" xlink:href="#font_3_96" transform="matrix(9.9626,0,0,-9.963098,232.12656,53.71588)"/>
<use data-text="e" xlink:href="#font_3_50" transform="matrix(9.9626,0,0,-9.963098,236.03189,53.71588)"/>
<use data-text="." xlink:href="#font_3_88" transform="matrix(9.9626,0,0,-9.963098,240.45529,53.71588)"/>
<use data-text="4" xlink:href="#font_1_4" transform="matrix(9.9626,0,0,-9.963098,13.2899479,71.64877)"/>
<use data-text="." xlink:href="#font_2_1" transform="matrix(9.9626,0,0,-9.963098,18.270936,71.64877)"/>
<use data-text="U" xlink:href="#font_3_108" transform="matrix(9.9626,0,0,-9.963098,21.037934,71.64877)"/>
<use data-text="i" xlink:href="#font_3_66" transform="matrix(9.9626,0,0,-9.963098,28.509888,71.64877)"/>
<use data-text="n" xlink:href="#font_3_77" transform="matrix(9.9626,0,0,-9.963098,31.27948,71.64877)"/>
<use data-text="g" xlink:href="#font_3_59" transform="matrix(9.9626,0,0,-9.963098,36.818696,71.64877)"/>
<use data-text="a" xlink:href="#font_3_28" transform="matrix(9.9626,0,0,-9.963098,45.117525,71.64877)"/>
<use data-text="p" xlink:href="#font_3_84" transform="matrix(9.9626,0,0,-9.963098,53.41635,71.64877)"/>
<use data-text="r" xlink:href="#font_3_96" transform="matrix(9.9626,0,0,-9.963098,58.955568,71.64877)"/>
<use data-text="o" xlink:href="#font_3_81" transform="matrix(9.9626,0,0,-9.963098,62.8609,71.64877)"/>
<use data-text="t" xlink:href="#font_3_105" transform="matrix(9.9626,0,0,-9.963098,67.84219,71.64877)"/>
<use data-text="r" xlink:href="#font_3_96" transform="matrix(9.9626,0,0,-9.963098,71.71765,71.64877)"/>
<use data-text="a" xlink:href="#font_3_28" transform="matrix(9.9626,0,0,-9.963098,75.622989,71.64877)"/>
<use data-text="c" xlink:href="#font_3_43" transform="matrix(9.9626,0,0,-9.963098,80.60428,71.64877)"/>
<use data-text="t" xlink:href="#font_3_105" transform="matrix(9.9626,0,0,-9.963098,85.02768,71.64877)"/>
<use data-text="o" xlink:href="#font_3_81" transform="matrix(9.9626,0,0,-9.963098,88.90314,71.64877)"/>
<use data-text="r" xlink:href="#font_3_96" transform="matrix(9.9626,0,0,-9.963098,93.88443,71.64877)"/>
<use data-text="," xlink:href="#font_3_45" transform="matrix(9.9626,0,0,-9.963098,97.789768,71.64877)"/>
<use data-text="m" xlink:href="#font_3_75" transform="matrix(9.9626,0,0,-9.963098,103.87692,71.64877)"/>
<use data-text="e" xlink:href="#font_3_50" transform="matrix(9.9626,0,0,-9.963098,112.17575,71.64877)"/>
<use data-text="a" xlink:href="#font_3_28" transform="matrix(9.9626,0,0,-9.963098,116.59915,71.64877)"/>
<use data-text="s" xlink:href="#font_3_98" transform="matrix(9.9626,0,0,-9.963098,121.580478,71.64877)"/>
<use data-text="u" xlink:href="#font_3_109" transform="matrix(9.9626,0,0,-9.963098,125.50577,71.64877)"/>
<use data-text="r" xlink:href="#font_3_96" transform="matrix(9.9626,0,0,-9.963098,131.04496,71.64877)"/>
<use data-text="e" xlink:href="#font_3_50" transform="matrix(9.9626,0,0,-9.963098,134.95029,71.64877)"/>
<use data-text="t" xlink:href="#font_3_105" transform="matrix(9.9626,0,0,-9.963098,142.7012,71.64877)"/>
<use data-text="h" xlink:href="#font_3_63" transform="matrix(9.9626,0,0,-9.963098,146.57663,71.64877)"/>
<use data-text="e" xlink:href="#font_3_50" transform="matrix(9.9626,0,0,-9.963098,152.11582,71.64877)"/>
<use data-text="s" xlink:href="#font_3_98" transform="matrix(9.9626,0,0,-9.963098,159.85678,71.64877)"/>
<use data-text="i" xlink:href="#font_3_66" transform="matrix(9.9626,0,0,-9.963098,163.78208,71.64877)"/>
<use data-text="z" xlink:href="#font_3_120" transform="matrix(9.9626,0,0,-9.963098,166.55167,71.64877)"/>
<use data-text="e" xlink:href="#font_3_50" transform="matrix(9.9626,0,0,-9.963098,170.97507,71.64877)"/>
<use data-text="o" xlink:href="#font_3_81" transform="matrix(9.9626,0,0,-9.963098,178.71604,71.64877)"/>
<use data-text="f" xlink:href="#font_3_55" transform="matrix(9.9626,0,0,-9.963098,183.69736,71.64877)"/>
<use data-text="i" xlink:href="#font_3_66" transform="matrix(9.9626,0,0,-9.963098,190.07346,71.64877)"/>
<use data-text="n" xlink:href="#font_3_77" transform="matrix(9.9626,0,0,-9.963098,192.84305,71.64877)"/>
<use data-text="t" xlink:href="#font_3_105" transform="matrix(9.9626,0,0,-9.963098,198.11325,71.64877)"/>
<use data-text="e" xlink:href="#font_3_50" transform="matrix(9.9626,0,0,-9.963098,201.98868,71.64877)"/>
<use data-text="r" xlink:href="#font_3_96" transform="matrix(9.9626,0,0,-9.963098,206.41208,71.64877)"/>
<use data-text="i" xlink:href="#font_3_66" transform="matrix(9.9626,0,0,-9.963098,210.31742,71.64877)"/>
<use data-text="o" xlink:href="#font_3_81" transform="matrix(9.9626,0,0,-9.963098,213.087,71.64877)"/>
<use data-text="r" xlink:href="#font_3_96" transform="matrix(9.9626,0,0,-9.963098,218.06833,71.64877)"/>
<use data-text="a" xlink:href="#font_3_28" transform="matrix(9.9626,0,0,-9.963098,225.28122,71.64877)"/>
<use data-text="n" xlink:href="#font_3_77" transform="matrix(9.9626,0,0,-9.963098,230.26255,71.64877)"/>
<use data-text="g" xlink:href="#font_3_59" transform="matrix(9.9626,0,0,-9.963098,235.80173,71.64877)"/>
<use data-text="l" xlink:href="#font_3_72" transform="matrix(9.9626,0,0,-9.963098,240.78305,71.64877)"/>
<use data-text="e" xlink:href="#font_3_50" transform="matrix(9.9626,0,0,-9.963098,243.55265,71.64877)"/>
<use data-text="s" xlink:href="#font_3_98" transform="matrix(9.9626,0,0,-9.963098,247.97605,71.64877)"/>
<use data-text="o" xlink:href="#font_3_81" transform="matrix(9.9626,0,0,-9.963098,255.2189,71.64877)"/>
<use data-text="f" xlink:href="#font_3_55" transform="matrix(9.9626,0,0,-9.963098,260.20024,71.64877)"/>
<use data-text="t" xlink:href="#font_3_105" transform="matrix(9.9626,0,0,-9.963098,266.57633,71.64877)"/>
<use data-text="h" xlink:href="#font_3_63" transform="matrix(9.9626,0,0,-9.963098,270.45176,71.64877)"/>
<use data-text="e" xlink:href="#font_3_50" transform="matrix(9.9626,0,0,-9.963098,275.99095,71.64877)"/>
<use data-text="f" xlink:href="#font_3_125" transform="matrix(9.9626,0,0,-9.963098,283.7319,71.64877)"/>
<use data-text="g" xlink:href="#font_3_59" transform="matrix(9.9626,0,0,-9.963098,289.2711,71.64877)"/>
<use data-text="u" xlink:href="#font_3_109" transform="matrix(9.9626,0,0,-9.963098,294.2524,71.64877)"/>
<use data-text="r" xlink:href="#font_3_96" transform="matrix(9.9626,0,0,-9.963098,299.7916,71.64877)"/>
<use data-text="e" xlink:href="#font_3_50" transform="matrix(9.9626,0,0,-9.963098,303.69694,71.64877)"/>
<use data-text="." xlink:href="#font_3_88" transform="matrix(9.9626,0,0,-9.963098,308.12034,71.64877)"/>
<use data-text="W" xlink:href="#font_3_113" transform="matrix(9.9626,0,0,-9.963098,57.898927,89.58268)"/>
<use data-text="h" xlink:href="#font_3_63" transform="matrix(9.9626,0,0,-9.963098,68.14047,89.58268)"/>
<use data-text="a" xlink:href="#font_3_28" transform="matrix(9.9626,0,0,-9.963098,73.67969,89.58268)"/>
<use data-text="t" xlink:href="#font_3_105" transform="matrix(9.9626,0,0,-9.963098,78.66098,89.58268)"/>
<use data-text="i" xlink:href="#font_3_66" transform="matrix(9.9626,0,0,-9.963098,85.85397,89.58268)"/>
<use data-text="s" xlink:href="#font_3_98" transform="matrix(9.9626,0,0,-9.963098,88.623569,89.58268)"/>
<use data-text="t" xlink:href="#font_3_105" transform="matrix(9.9626,0,0,-9.963098,95.86636,89.58268)"/>
<use data-text="h" xlink:href="#font_3_63" transform="matrix(9.9626,0,0,-9.963098,99.74182,89.58268)"/>
<use data-text="e" xlink:href="#font_3_50" transform="matrix(9.9626,0,0,-9.963098,105.28104,89.58268)"/>
<use data-text="s" xlink:href="#font_3_98" transform="matrix(9.9626,0,0,-9.963098,113.022,89.58268)"/>
<use data-text="u" xlink:href="#font_3_109" transform="matrix(9.9626,0,0,-9.963098,116.947299,89.58268)"/>
<use data-text="m" xlink:href="#font_3_75" transform="matrix(9.9626,0,0,-9.963098,122.48648,89.58268)"/>
<use data-text="o" xlink:href="#font_3_81" transform="matrix(9.9626,0,0,-9.963098,134.11283,89.58268)"/>
<use data-text="f" xlink:href="#font_3_55" transform="matrix(9.9626,0,0,-9.963098,139.09415,89.58268)"/>
<use data-text="i" xlink:href="#font_3_66" transform="matrix(9.9626,0,0,-9.963098,145.4603,89.58268)"/>
<use data-text="n" xlink:href="#font_3_77" transform="matrix(9.9626,0,0,-9.963098,148.22989,89.58268)"/>
<use data-text="t" xlink:href="#font_3_105" transform="matrix(9.9626,0,0,-9.963098,153.50009,89.58268)"/>
<use data-text="e" xlink:href="#font_3_50" transform="matrix(9.9626,0,0,-9.963098,157.37552,89.58268)"/>
<use data-text="r" xlink:href="#font_3_96" transform="matrix(9.9626,0,0,-9.963098,161.79892,89.58268)"/>
<use data-text="i" xlink:href="#font_3_66" transform="matrix(9.9626,0,0,-9.963098,165.70426,89.58268)"/>
<use data-text="o" xlink:href="#font_3_81" transform="matrix(9.9626,0,0,-9.963098,168.47385,89.58268)"/>
<use data-text="r" xlink:href="#font_3_96" transform="matrix(9.9626,0,0,-9.963098,173.45517,89.58268)"/>
<use data-text="a" xlink:href="#font_3_28" transform="matrix(9.9626,0,0,-9.963098,180.66806,89.58268)"/>
<use data-text="n" xlink:href="#font_3_77" transform="matrix(9.9626,0,0,-9.963098,185.64939,89.58268)"/>
<use data-text="g" xlink:href="#font_3_59" transform="matrix(9.9626,0,0,-9.963098,191.18857,89.58268)"/>
<use data-text="l" xlink:href="#font_3_72" transform="matrix(9.9626,0,0,-9.963098,196.16989,89.58268)"/>
<use data-text="e" xlink:href="#font_3_50" transform="matrix(9.9626,0,0,-9.963098,198.93949,89.58268)"/>
<use data-text="s" xlink:href="#font_3_98" transform="matrix(9.9626,0,0,-9.963098,203.36289,89.58268)"/>
<use data-text="o" xlink:href="#font_3_81" transform="matrix(9.9626,0,0,-9.963098,210.61569,89.58268)"/>
<use data-text="f" xlink:href="#font_3_55" transform="matrix(9.9626,0,0,-9.963098,215.59702,89.58268)"/>
<use data-text="t" xlink:href="#font_3_105" transform="matrix(9.9626,0,0,-9.963098,221.96317,89.58268)"/>
<use data-text="h" xlink:href="#font_3_63" transform="matrix(9.9626,0,0,-9.963098,225.8386,89.58268)"/>
<use data-text="e" xlink:href="#font_3_50" transform="matrix(9.9626,0,0,-9.963098,231.37778,89.58268)"/>
<use data-text="f" xlink:href="#font_3_125" transform="matrix(9.9626,0,0,-9.963098,239.11875,89.58268)"/>
<use data-text="g" xlink:href="#font_3_59" transform="matrix(9.9626,0,0,-9.963098,244.65793,89.58268)"/>
<use data-text="u" xlink:href="#font_3_109" transform="matrix(9.9626,0,0,-9.963098,249.63925,89.58268)"/>
<use data-text="r" xlink:href="#font_3_96" transform="matrix(9.9626,0,0,-9.963098,255.17844,89.58268)"/>
<use data-text="e" xlink:href="#font_3_50" transform="matrix(9.9626,0,0,-9.963098,259.08378,89.58268)"/>
<use data-text="." xlink:href="#font_3_88" transform="matrix(9.9626,0,0,-9.963098,263.50718,89.58268)"/>
<use data-text="5" xlink:href="#font_1_5" transform="matrix(9.9626,0,0,-9.963098,62.580934,107.51656)"/>
<use data-text="." xlink:href="#font_2_1" transform="matrix(9.9626,0,0,-9.963098,67.56192,107.51656)"/>
<use data-text="S" xlink:href="#font_3_97" transform="matrix(9.9626,0,0,-9.963098,70.32892,107.51656)"/>
<use data-text="h" xlink:href="#font_3_63" transform="matrix(9.9626,0,0,-9.963098,75.86813,107.51656)"/>
<use data-text="a" xlink:href="#font_3_28" transform="matrix(9.9626,0,0,-9.963098,81.40735,107.51656)"/>
<use data-text="r" xlink:href="#font_3_96" transform="matrix(9.9626,0,0,-9.963098,86.38864,107.51656)"/>
<use data-text="e" xlink:href="#font_3_50" transform="matrix(9.9626,0,0,-9.963098,90.293979,107.51656)"/>
<use data-text="y" xlink:href="#font_3_118" transform="matrix(9.9626,0,0,-9.963098,98.03491,107.51656)"/>
<use data-text="o" xlink:href="#font_3_81" transform="matrix(9.9626,0,0,-9.963098,103.02615,107.51656)"/>
<use data-text="u" xlink:href="#font_3_109" transform="matrix(9.9626,0,0,-9.963098,108.00748,107.51656)"/>
<use data-text="r" xlink:href="#font_3_96" transform="matrix(9.9626,0,0,-9.963098,113.54666,107.51656)"/>
<use data-text="w" xlink:href="#font_3_114" transform="matrix(9.9626,0,0,-9.963098,120.75955,107.51656)"/>
<use data-text="o" xlink:href="#font_3_81" transform="matrix(9.9626,0,0,-9.963098,127.68356,107.51656)"/>
<use data-text="r" xlink:href="#font_3_96" transform="matrix(9.9626,0,0,-9.963098,132.66489,107.51656)"/>
<use data-text="k" xlink:href="#font_3_70" transform="matrix(9.9626,0,0,-9.963098,136.57022,107.51656)"/>
<use data-text="w" xlink:href="#font_3_114" transform="matrix(9.9626,0,0,-9.963098,145.13803,107.51656)"/>
<use data-text="i" xlink:href="#font_3_66" transform="matrix(9.9626,0,0,-9.963098,152.33103,107.51656)"/>
<use data-text="t" xlink:href="#font_3_105" transform="matrix(9.9626,0,0,-9.963098,155.10062,107.51656)"/>
<use data-text="h" xlink:href="#font_3_63" transform="matrix(9.9626,0,0,-9.963098,158.97605,107.51656)"/>
<use data-text="o" xlink:href="#font_3_81" transform="matrix(9.9626,0,0,-9.963098,167.84275,107.51656)"/>
<use data-text="t" xlink:href="#font_3_105" transform="matrix(9.9626,0,0,-9.963098,172.82407,107.51656)"/>
<use data-text="h" xlink:href="#font_3_63" transform="matrix(9.9626,0,0,-9.963098,176.6995,107.51656)"/>
<use data-text="e" xlink:href="#font_3_50" transform="matrix(9.9626,0,0,-9.963098,182.23868,107.51656)"/>
<use data-text="r" xlink:href="#font_3_96" transform="matrix(9.9626,0,0,-9.963098,186.66208,107.51656)"/>
<use data-text="l" xlink:href="#font_3_72" transform="matrix(9.9626,0,0,-9.963098,193.88498,107.51656)"/>
<use data-text="e" xlink:href="#font_3_50" transform="matrix(9.9626,0,0,-9.963098,196.65457,107.51656)"/>
<use data-text="a" xlink:href="#font_3_28" transform="matrix(9.9626,0,0,-9.963098,201.07798,107.51656)"/>
<use data-text="r" xlink:href="#font_3_96" transform="matrix(9.9626,0,0,-9.963098,206.0593,107.51656)"/>
<use data-text="n" xlink:href="#font_3_77" transform="matrix(9.9626,0,0,-9.963098,209.96463,107.51656)"/>
<use data-text="e" xlink:href="#font_3_50" transform="matrix(9.9626,0,0,-9.963098,215.50382,107.51656)"/>
<use data-text="s" xlink:href="#font_3_98" transform="matrix(9.9626,0,0,-9.963098,219.92722,107.51656)"/>
<use data-text="i" xlink:href="#font_3_66" transform="matrix(9.9626,0,0,-9.963098,227.17008,107.51656)"/>
<use data-text="n" xlink:href="#font_3_77" transform="matrix(9.9626,0,0,-9.963098,229.93967,107.51656)"/>
<use data-text="c" xlink:href="#font_3_43" transform="matrix(9.9626,0,0,-9.963098,238.80637,107.51656)"/>
<use data-text="l" xlink:href="#font_3_72" transform="matrix(9.9626,0,0,-9.963098,243.22977,107.51656)"/>
<use data-text="a" xlink:href="#font_3_28" transform="matrix(9.9626,0,0,-9.963098,245.99936,107.51656)"/>
<use data-text="s" xlink:href="#font_3_98" transform="matrix(9.9626,0,0,-9.963098,250.98069,107.51656)"/>
<use data-text="s" xlink:href="#font_3_98" transform="matrix(9.9626,0,0,-9.963098,254.90598,107.51656)"/>
<use data-text="." xlink:href="#font_3_88" transform="matrix(9.9626,0,0,-9.963098,258.83128,107.51656)"/>
</svg>
