<svg xmlns="http://www.w3.org/2000/svg" xmlns:xlink="http://www.w3.org/1999/xlink" xmlns:inkscape="http://www.inkscape.org/namespaces/inkscape" version="1.1" width="269" height="135" viewBox="0 0 269 135">
<defs>
<path id="font_1_27" d="M.6689911 0V.025985718C.6159973 .025985718 .59799197 .025985718 .58499148 .06303406L.36299134 .6910248C.35798646 .70402529 .35598756 .70703127 .34599305 .70703127 .33599855 .70703127 .33399964 .70402529 .32899476 .6910248L.116989139 .091049198C.09799194 .037002565 .057998659 .025985718 .022994996 .025985718V0C.040985109 .0019989014 .08099365 .0019989014 .099990848 .0019989014 .125 .0019989014 .16499329 .0019989014 .18899536 0V.025985718C.14199829 .027999878 .1349945 .060028078 .1349945 .07203674 .1349945 .08103943 .13699341 .08604431 .13899231 .092056278L.19198609 .24121094H.45399476L.5139923 .07102966C.5189972 .059020997 .5189972 .057022096 .5189972 .053024293 .5189972 .025985718 .47599793 .025985718 .45700074 .025985718V0C.48599244 .0019989014 .5379944 .0019989014 .56900027 .0019989014 .59498599 .0019989014 .644989 .0019989014 .6689911 0M.44499208 .26719667H.20098877L.32299806 .61105349 .44499208 .26719667Z"/>
<path id="font_1_34" d="M.6069946 .18190003C.6069946 .27183534 .5249939 .34880067 .41799928 .35578919 .5139923 .37478639 .58099368 .43873597 .58099368 .5146942 .58099368 .597641 .49899293 .6826172 .36999513 .6826172H.051986696V.6566162C.12098694 .6566162 .13198853 .6566162 .13198853 .6116333V.07096863C.13198853 .025985718 .12098694 .025985718 .051986696 .025985718V0H.3959961C.5239868-.00033569337 .6069946 .090667728 .6069946 .18167115V.18190003M.5079956 .5146332C.5079956 .43865968 .44699098 .3626709 .33898927 .3626709H.19499207V.61761477C.19499207 .6516113 .19699097 .6566162 .23699951 .6566162H.36499024C.46398927 .65667727 .5079956 .5766754 .5079956 .51467898V.5146332M.5329895 .18283081C.5329895 .10990906 .47599793 .025985718 .36698915 .025985718H.23699951C.19699097 .025985718 .19499207 .0309906 .19499207 .064956668V.3466797H.37998963C.48298646 .34700013 .5329895 .2559967 .5329895 .18299866V.18283081Z"/>
<path id="font_1_42" d="M.62098696 .23431397C.62098696 .24430847 .62098696 .24830628 .6119995 .24830628 .60398867 .24830628 .60398867 .24531555 .6029968 .23631287 .59498599 .096343997 .49499513 .010360718 .3869934 .010360718 .2849884 .010360718 .12199402 .082351688 .12199402 .34228517 .12199402 .6032257 .28799439 .6732178 .3849945 .6732178 .49798585 .6732178 .5799866 .5752411 .598999 .43626405 .6009979 .42427064 .6009979 .42227174 .6100006 .42227174 .62098696 .42227174 .62098696 .42427064 .62098696 .44226075V.6792145C.62098696 .6972046 .6199951 .69821169 .6139984 .69821169 .6100006 .69821169 .60899356 .6972046 .60198977 .6852112L.55799868 .6012268C.5089874 .663208 .44898988 .69921877 .37199403 .69921877 .20098877 .69921877 .04598999 .54823306 .04598999 .34228517 .04598999 .13433838 .20098877-.015625 .37298585-.015625 .526001-.015625 .62098696 .11933899 .62098696 .23431397Z"/>
<path id="font_1_46" d="M.6599884 .33580018C.6599884 .5246887 .5329895 .6826172 .36999513 .6826172H.051986696V.6566162C.12098694 .6566162 .13198853 .6566162 .13198853 .6116333V.07096863C.13198853 .025985718 .12098694 .025985718 .051986696 .025985718V0H.36999513C.5309906 0 .6599884 .1479187 .6599884 .33580018M.58599856 .33580018C.58599856 .19488526 .54499819 .1379242 .526001 .110946658 .5019989 .079956058 .44499208 .025985718 .34999085 .025985718H.23799134C.19799805 .025985718 .19599915 .0309906 .19599915 .064971927V.61763C.19599915 .6516113 .19799805 .6566162 .23799134 .6566162H.34999085C.43299867 .6566162 .58599856 .6076355 .58599856 .33580018Z"/>
<path id="font_2_1" d="M.30099488 .119277957C.29599 .102264408 .29599 .1002655 .28199769 .08125305 .2599945 .053237916 .21598816 .010223389 .16899109 .010223389 .12799073 .010223389 .10499573 .04724121 .10499573 .10626221 .10499573 .1612854 .13598633 .2733307 .15499878 .3153534 .18899536 .38539125 .23599243 .42140199 .2749939 .42140199 .34098817 .42140199 .35398866 .33937074 .35398866 .33135987 .35398866 .33036805 .35099793 .3173523 .34999085 .3153534L.30099488 .119277957M.36499024 .37538148C.35398866 .4013977 .32699586 .44140626 .2749939 .44140626 .1619873 .44140626 .039993287 .29534913 .039993287 .14727783 .039993287 .04824829 .09799194-.009765625 .1659851-.009765625 .22099304-.009765625 .2679901 .033233644 .29599 .06625366 .30599977 .007232666 .35299684-.009765625 .3829956-.009765625 .41299439-.009765625 .43699647 .008224487 .45498658 .04423523 .47099305 .07824707 .4850006 .13926697 .4850006 .14326477 .4850006 .14826966 .48098756 .15226746 .47499085 .15226746 .46598817 .15226746 .46499635 .14726258 .46099855 .13226319 .44599916 .07324219 .4269867 .010223389 .38598634 .010223389 .35699464 .010223389 .35499574 .036239625 .35499574 .056243898 .35499574 .07923889 .35798646 .09025574 .36698915 .1292572 .37399293 .15426636 .3789978 .17626953 .3869934 .20527649 .42399598 .35533143 .43299867 .39134217 .43299867 .39733888 .43299867 .41133119 .42199708 .42233277 .40699769 .42233277 .375 .42233277 .36698915 .3873291 .36499024 .3753357V.37538148Z"/>
<path id="font_2_2" d="M.23098755 .6693268C.23199463 .6733246 .23399353 .6793213 .23399353 .6843262 .23399353 .69433596 .22399903 .69433596 .22200012 .69433596 .22099304 .69433596 .18499756 .69132998 .16699219 .68933108 .1499939 .688324 .1349945 .6863251 .116989139 .68533328 .09298706 .68333438 .085998538 .6823273 .085998538 .6643219 .085998538 .6543274 .09599304 .6543274 .10598755 .6543274 .15699768 .6543274 .15699768 .6453247 .15699768 .6353302 .15699768 .6283417 .14898682 .59935 .14498902 .58135989L.12098694 .48538209C.11099243 .44540406 .053985597 .2183075 .049987794 .20030213 .04499817 .17529297 .04499817 .15829468 .04499817 .14527893 .04499817 .04324341 .101989749-.009765625 .16699219-.009765625 .2829895-.009765625 .40299989 .13928223 .40299989 .28434754 .40299989 .3763733 .35099793 .44140626 .27598573 .44140626 .22399903 .44140626 .1769867 .39839173 .1579895 .37838746L.23098755 .6693268M.16799927 .010223389C.13598633 .010223389 .100997928 .034240724 .100997928 .11227417 .100997928 .14527893 .10398865 .16429138 .12199402 .23431397 .125 .24732971 .14099121 .3113556 .14498902 .32435609 .14698792 .33236695 .20599365 .42140199 .27398683 .42140199 .31799317 .42140199 .33799745 .37738038 .33799745 .32536317 .33799745 .27734376 .30999757 .16429138 .2849884 .11227417 .2599945 .058242799 .21398926 .010223389 .16799927 .010223389Z"/>
<path id="font_2_3" d="M.2809906 .6693268C.28199769 .6733246 .28399659 .6793213 .28399659 .6843262 .28399659 .69433596 .27398683 .69433596 .27198792 .69433596 .2709961 .69433596 .22200012 .6903229 .21699524 .68933108 .19999695 .688324 .18499756 .6863251 .16699219 .68533328 .14199829 .68333438 .1349945 .6823273 .1349945 .6643219 .1349945 .6543274 .14299011 .6543274 .15699768 .6543274 .20599365 .6543274 .20698548 .6453247 .20698548 .6353302 .20698548 .6293335 .20498657 .6213379 .20399475 .61834719L.05899048 .039245607C.054992677 .024230957 .054992677 .022232056 .054992677 .016235352 .054992677-.0057678224 .07199097-.009765625 .08198547-.009765625 .09899902-.009765625 .11199951 .0032196046 .116989139 .014221191L.1619873 .19529724C.16699219 .21731568 .17298889 .23832703 .17799378 .2603302 .18899536 .3023529 .18899536 .30334474 .20799256 .33236695 .22698975 .3613739 .27198792 .42140199 .34899903 .42140199 .3889923 .42140199 .40299989 .39138795 .40299989 .35136415 .40299989 .29534913 .3639984 .18629456 .34199525 .12628174 .33299256 .102264408 .32798768 .089263919 .32798768 .071258548 .32798768 .026229859 .35899354-.009765625 .40699769-.009765625 .5-.009765625 .5349884 .13728333 .5349884 .14328003 .5349884 .14828491 .5309906 .15228272 .5249939 .15228272 .5159912 .15228272 .5149994 .14929199 .5099945 .13227844 .4869995 .052246095 .44999696 .010223389 .4099884 .010223389 .3999939 .010223389 .38398744 .011230469 .38398744 .04324341 .38398744 .069244388 .3959961 .101257327 .3999939 .11227417 .41799928 .16029358 .46299745 .27833558 .46299745 .33636476 .46299745 .39639283 .42799378 .44140626 .35198976 .44140626 .29499818 .44140626 .24499512 .4143982 .20399475 .36238099L.2809906 .6693268Z"/>
</defs>
<path transform="matrix(1.00009,0,0,-1.00005,78.614719,113.36701)" d="M-56.69362 0H170.08086L113.38724 85.04042H0Z" fill="#ffbfbf"/>
<path transform="matrix(1.00009,0,0,-1.00005,78.614719,113.36701)" stroke-width="1.19553" stroke-linecap="butt" stroke-miterlimit="10" stroke-linejoin="miter" fill="none" stroke="#000000" d="M-56.69362 0H170.08086L113.38724 85.04042H0Z"/>
<path transform="matrix(1.00009,0,0,-1.00005,78.614719,113.36701)" stroke-width=".3985" stroke-linecap="butt" stroke-dasharray="2.98883,2.98883" stroke-miterlimit="10" stroke-linejoin="miter" fill="none" stroke="#000000" d="M0 85.04042V0"/>
<path transform="matrix(1.00009,0,0,-1.00005,78.614719,113.36701)" stroke-width=".3985" stroke-linecap="butt" stroke-miterlimit="10" stroke-linejoin="miter" fill="none" stroke="#000000" d="M-14.17339 0V14.17339H0V0ZM0 14.17339"/>
<use data-text="A" xlink:href="#font_1_27" transform="matrix(24.789332,0,0,-24.788338,1.2167511,122.12945)"/>
<use data-text="B" xlink:href="#font_1_34" transform="matrix(24.789332,0,0,-24.788338,252.23134,121.832439)"/>
<use data-text="C" xlink:href="#font_1_42" transform="matrix(24.789332,0,0,-24.788338,195.53223,36.787195)"/>
<use data-text="D" xlink:href="#font_1_46" transform="matrix(24.789332,0,0,-24.788338,57.568819,36.787195)"/>
<use data-text="a" xlink:href="#font_2_1" transform="matrix(24.789332,0,0,-24.788338,128.94225,133.229)"/>
<use data-text="b" xlink:href="#font_2_2" transform="matrix(24.789332,0,0,-24.788338,130.15335,19.132302)"/>
<use data-text="h" xlink:href="#font_2_3" transform="matrix(24.789332,0,0,-24.788338,80.96593,79.45232)"/>
</svg>
