<svg xmlns="http://www.w3.org/2000/svg" xmlns:xlink="http://www.w3.org/1999/xlink" xmlns:inkscape="http://www.inkscape.org/namespaces/inkscape" version="1.1" width="288" height="288" viewBox="0 0 288 288">
<defs>
<path id="font_1_1" d="M.2659912 .63912966C.2659912 .66012576 .2649994 .6611328 .25099183 .6611328 .21199036 .61424258 .15299988 .5993042 .09700012 .5973053 .09399414 .5973053 .08898926 .5973053 .08799744 .5953064 .08699036 .5933075 .08699036 .5913086 .08699036 .5703125 .117996219 .5703125 .16999817 .5763092 .20999146 .600296V.073013309C.20999146 .037994386 .20799256 .025985718 .12199402 .025985718H.09199524V0C.13999939 .0009918213 .18998719 .0019989014 .23799134 .0019989014 .28599549 .0019989014 .33599855 .0009918213 .38398744 0V.025985718H.35398866C.2679901 .025985718 .2659912 .037002565 .2659912 .073013309V.63912966Z"/>
<path id="font_1_2" d="M.33599855 .64694216C.33599855 .66793826 .33499146 .6689453 .31698609 .6689453L.019989014 .1959076V.16992188H.27799989V.07196045C.27799989 .035980226 .27598573 .025985718 .20599365 .025985718H.18699646V0C.21899414 .0019989014 .272995 .0019989014 .30699159 .0019989014 .34098817 .0019989014 .394989 .0019989014 .4269867 0V.025985718H.4079895C.33799745 .025985718 .33599855 .035980226 .33599855 .07196045V.16992188H.43798829V.1959076H.33599855V.64694216M.2809906 .5809326V.1959076H.039993287L.2809906 .5809326Z"/>
<path id="font_2_1" d="M.3909912 .37597657C.37199403 .37597657 .36299134 .37597657 .34899903 .3639679 .34298707 .358963 .33198548 .34396363 .33198548 .3279724 .33198548 .30796815 .34700013 .29597474 .3659973 .29597474 .3899994 .29597474 .4169922 .31596376 .4169922 .3559723 .4169922 .40423585 .37098695 .44140626 .3019867 .44140626 .17098999 .44140626 .039993287 .29797364 .039993287 .15609741 .039993287 .06916809 .09399414-.009765625 .19599915-.009765625 .33198548-.009765625 .41799928 .09614563 .41799928 .10913086 .41799928 .11512756 .4119873 .12013245 .4079895 .12013245 .40499879 .12013245 .4039917 .119125369 .394989 .11013794 .33099366 .02520752 .23599243 .010223389 .19799805 .010223389 .1289978 .010223389 .10699463 .07017517 .10699463 .12013245 .10699463 .15509033 .12399292 .25201417 .1599884 .31996156 .18598938 .36697389 .23999024 .42140199 .30299378 .42140199 .31599427 .42140199 .37098695 .41937257 .3909912 .37597657Z"/>
<path id="font_2_2" d="M.20599365 .29335023C.20799256 .29934693 .23298645 .34936524 .269989 .38137818 .29599 .4053955 .32998658 .42140199 .36898805 .42140199 .40899659 .42140199 .4229889 .39138795 .4229889 .35136415 .4229889 .34536744 .4229889 .32536317 .41099549 .27833558L.38598634 .17529297C.37799073 .14527893 .35899354 .071258548 .35699464 .0602417 .35299684 .04524231 .34700013 .019226075 .34700013 .0152282719 .34700013 .0012207031 .35798646-.009765625 .37298585-.009765625 .40299989-.009765625 .4079895 .01322937 .4169922 .049240114L.47698976 .28834535C.47898866 .29634095 .5309906 .42140199 .6409912 .42140199 .68099978 .42140199 .69499209 .39138795 .69499209 .35136415 .69499209 .29534913 .6559906 .18629456 .6339874 .12628174 .625 .102264408 .6199951 .089263919 .6199951 .071258548 .6199951 .026229859 .651001-.009765625 .69898989-.009765625 .7919922-.009765625 .82699587 .13728333 .82699587 .14328003 .82699587 .14828491 .82299807 .15228272 .81700137 .15228272 .80799868 .15228272 .8069916 .14929199 .8019867 .13227844 .7789917 .052246095 .74198916 .010223389 .70199587 .010223389 .69200137 .010223389 .6759949 .011230469 .6759949 .04324341 .6759949 .069244388 .6879883 .101257327 .69200137 .11227417 .70999148 .16029358 .7549896 .27833558 .7549896 .33636476 .7549896 .39639283 .7200012 .44140626 .6439972 .44140626 .57699587 .44140626 .522995 .4033966 .48298646 .34436036 .47999574 .39839173 .44699098 .44140626 .37199403 .44140626 .2829895 .44140626 .23599243 .37838746 .21798706 .35336305 .21499634 .4104004 .17399597 .44140626 .12998963 .44140626 .100997928 .44140626 .07798767 .42739869 .05899048 .38938905 .040985109 .35336305 .026992798 .29234315 .026992798 .28834535 .026992798 .28434754 .0309906 .27934266 .037994386 .27934266 .04598999 .27934266 .04699707 .28033448 .052993776 .30334474 .067993167 .36238099 .08699036 .42140199 .1269989 .42140199 .1499939 .42140199 .1579895 .4053955 .1579895 .37538148 .1579895 .35336305 .147995 .31436158 .14099121 .28334046L.11299133 .17529297C.10899353 .15628052 .09799194 .11126709 .09298706 .09326172 .085998538 .06724548 .07499695 .020233155 .07499695 .0152282719 .07499695 .0012207031 .085998538-.009765625 .100997928-.009765625 .11299133-.009765625 .1269989-.003768921 .1349945 .011230469 .13699341 .016235352 .1459961 .051239015 .15098572 .071258548L.17298889 .1612854 .20599365 .29335023Z"/>
</defs>
<path transform="matrix(1.00008,0,0,-1.00002,144.23903,143.93157)" d="M141.73404 0C141.73404 78.27855 78.27855 141.73404 0 141.73404-78.27855 141.73404-141.73404 78.27855-141.73404 0-141.73404-78.27855-78.27855-141.73404 0-141.73404 78.27855-141.73404 141.73404-78.27855 141.73404 0ZM0 0" fill="#ffffff"/>
<path transform="matrix(1.00008,0,0,-1.00002,144.23903,143.93157)" stroke-width="1.19553" stroke-linecap="butt" stroke-miterlimit="10" stroke-linejoin="miter" fill="none" stroke="#000000" d="M141.73404 0C141.73404 78.27855 78.27855 141.73404 0 141.73404-78.27855 141.73404-141.73404 78.27855-141.73404 0-141.73404-78.27855-78.27855-141.73404 0-141.73404 78.27855-141.73404 141.73404-78.27855 141.73404 0ZM0 0"/>
<path transform="matrix(1.00008,0,0,-1.00002,144.23903,143.93157)" d="M0 0H141.73404"/>
<path transform="matrix(1.00008,0,0,-1.00002,144.23903,143.93157)" stroke-width="1.59404" stroke-linecap="butt" stroke-miterlimit="10" stroke-linejoin="miter" fill="none" stroke="#000000" d="M0 0H141.73404"/>
<path transform="matrix(1.00008,0,0,-1.00002,144.23903,143.93157)" d="M2.98883 0C2.98883 1.6507 1.6507 2.98883 0 2.98883-1.6507 2.98883-2.98883 1.6507-2.98883 0-2.98883-1.6507-1.6507-2.98883 0-2.98883 1.6507-2.98883 2.98883-1.6507 2.98883 0ZM0 0"/>
<path transform="matrix(1.00008,0,0,-1.00002,144.23903,143.93157)" stroke-width=".3985" stroke-linecap="butt" stroke-miterlimit="10" stroke-linejoin="miter" fill="none" stroke="#000000" d="M2.98883 0C2.98883 1.6507 1.6507 2.98883 0 2.98883-1.6507 2.98883-2.98883 1.6507-2.98883 0-2.98883-1.6507-1.6507-2.98883 0-2.98883 1.6507-2.98883 2.98883-1.6507 2.98883 0ZM0 0"/>
<use data-text="1" xlink:href="#font_1_1" transform="matrix(24.789084,0,0,-24.787596,165.2247,137.74744)"/>
<use data-text="4" xlink:href="#font_1_2" transform="matrix(24.789084,0,0,-24.787596,176.5781,137.74744)"/>
<use data-text="c" xlink:href="#font_2_1" transform="matrix(24.789084,0,0,-24.787596,187.96152,137.74744)"/>
<use data-text="m" xlink:href="#font_2_2" transform="matrix(24.789084,0,0,-24.787596,198.3977,137.74744)"/>
</svg>
