<svg xmlns="http://www.w3.org/2000/svg" xmlns:xlink="http://www.w3.org/1999/xlink" xmlns:inkscape="http://www.inkscape.org/namespaces/inkscape" version="1.1" width="367" height="49" viewBox="0 0 367 49">
<defs>
<path id="font_1_56" d="M.46199037 .19992066C.46199037 .3209076 .37599183 .41992188 .2669983 .41992188 .21899414 .41992188 .16999817 .4039154 .1349945 .36791993V.5647888C.16499329 .55578616 .19599915 .55078127 .22698975 .55078127 .34999085 .55078127 .42199708 .63983157 .42199708 .6529236 .42199708 .6619873 .41600038 .6660156 .41099549 .6660156 .41099549 .6660156 .40699769 .6660156 .397995 .6609802 .35099793 .6418457 .30499269 .63378909 .2630005 .63378909 .21998596 .63378909 .1749878 .6418457 .1289978 .6609802 .11898804 .6660156 .115997318 .6660156 .115997318 .6660156 .10398865 .6660156 .10398865 .6559448 .10398865 .63882449V.34490968C.10398865 .32699586 .10398865 .31599427 .117996219 .31599427 .12599182 .31562806 .1289978 .3196411 .1349945 .32867433 .16499329 .37083436 .21299744 .39491273 .2649994 .39491273 .37199403 .39491273 .37199403 .24035645 .37199403 .20422364 .37199403 .17321778 .37199403 .11122131 .34399415 .06636047 .31698609 .024475098 .2749939 .0055389406 .23599243 .0055389406 .1769867 .0055389406 .10998535 .042419435 .085998538 .11621094 .085998538 .116882327 .09298706 .11488342 .099990848 .11488342 .11999512 .11488342 .14898682 .12788391 .14898682 .1638794 .14898682 .19488526 .1269989 .21289063 .099990848 .21289063 .07899475 .21289063 .050994874 .20088196 .050994874 .16088867 .050994874 .069732669 .1269989-.022460938 .23799134-.022460938 .35899354-.02279663 .46199037 .07521057 .46199037 .19921875V.19992066Z"/>
<path id="font_1_88" d="M.19599915 .053985597C.19599915 .08299255 .17199707 .10798645 .14199829 .10798645 .11199951 .10798645 .08799744 .08299255 .08799744 .053985597 .08799744 .023986817 .11199951 0 .14199829 0 .17199707 0 .19599915 .023986817 .19599915 .053985597Z"/>
<path id="font_1_121" d="M.47299195 .31976319C.47299195 .38682557 .46998597 .47288514 .43499757 .5479431 .3909912 .64201357 .31498719 .6660156 .25698854 .6660156 .19699097 .6660156 .12098694 .64201357 .07699585 .5459442 .04499817 .47688294 .039993287 .39582826 .039993287 .31976319 .039993287 .25471498 .041992189 .15765381 .084991458 .07858276 .13198853-.0064697267 .20999146-.022460938 .2559967-.022460938 .32099916-.022460938 .394989 .0055389406 .43699647 .097595218 .46699525 .1646576 .47299195 .23971558 .47299195 .31976319M.3869934 .33177186C.3869934 .2697296 .3869934 .18566895 .3769989 .12661743 .35598756 .012542725 .28199769 .002532959 .25698854 .002532959 .22698975 .002532959 .15499878 .016540528 .13598633 .12962342 .12599182 .18867493 .12599182 .2747345 .12599182 .33177186 .12599182 .39982606 .12599182 .47888185 .13798523 .53393557 .1579895 .6230011 .22200012 .64100649 .2559967 .64100649 .2939911 .64100649 .35699464 .62098696 .37599183 .5279236 .3869934 .47288514 .3869934 .39482118 .3869934 .33177186Z"/>
<path id="font_1_57" d="M.48399354 .16503906V.19602967H.38198854V.649765C.38198854 .669754 .38198854 .6767578 .36299134 .6767578 .35099793 .6767578 .34999085 .67575076 .34098817 .6617584L.0289917 .19602967V.16503906H.3019867V.07901001C.3019867 .041992189 .29899598 .0309906 .22399903 .0309906H.20199585V0C.2649994 .0029907227 .33499146 .0029907227 .34199525 .0029907227 .34700013 .0029907227 .4189911 .0029907227 .48199464 0V.0309906H.45999146C.3849945 .0309906 .38198854 .041992189 .38198854 .07901001V.16503906H.48399354M.30799867 .19602967H.06098938L.30799867 .56581118V.19602967Z"/>
<path id="font_1_106" d="M.46998597 .17008972C.46998597 .25709535 .40098573 .33110047 .30499269 .35209657 .397995 .38710023 .44198609 .46009828 .44198609 .5290985 .44198609 .60606387 .35699464 .6660156 .25299073 .6660156 .14898682 .6660156 .070999149 .60705569 .070999149 .5310974 .070999149 .49809266 .09298706 .47909547 .12199402 .47909547 .15098572 .47909547 .17199707 .50009158 .17199707 .5290985 .17199707 .5640869 .147995 .57910159 .11399841 .57910159 .13999939 .6210327 .20098877 .64100649 .25 .64100649 .33299256 .64100649 .34899903 .5750885 .34899903 .52809146 .34899903 .49809266 .34298707 .45005799 .31799317 .41201783 .2869873 .36695863 .2519989 .36495973 .22299195 .36296083 .19799805 .36094667 .19599915 .36094667 .18798828 .36094667 .1789856 .35995484 .17098999 .35894776 .17098999 .34794618 .17098999 .33496095 .1789856 .33496095 .19599915 .33496095H.24299622C.32998658 .33496095 .36799623 .2646637 .36799623 .16937256 .36799623 .04145813 .2999878 .0055389406 .24899292 .0055389406 .22999573 .0055389406 .1329956 .010528564 .08799744 .0843811 .12399292 .07939148 .1519928 .10437012 .1519928 .13838196 .1519928 .17137146 .1269989 .19238281 .09799194 .19238281 .07299805 .19238281 .042999269 .17736817 .042999269 .13537598 .042999269 .046447755 .13598633-.022460938 .2519989-.022460938 .3769989-.022460938 .46998597 .06741333 .46998597 .16937256V.17008972Z"/>
<path id="font_1_107" d="M.46199037 .17704773H.43399049C.43199159 .16404724 .42399598 .10501099 .41099549 .08900452 .40499879 .07998657 .33599855 .07998657 .31599427 .07998657H.13798523L.23699951 .17404175C.40098573 .3161316 .46199037 .36915589 .46199037 .4711914 .46199037 .5860901 .36698915 .6660156 .24398804 .6660156 .1289978 .6660156 .050994874 .575119 .050994874 .4841919 .050994874 .43418885 .09399414 .42919923 .102996829 .42919923 .125 .42919923 .15499878 .44519044 .15499878 .48120118 .15499878 .51119998 .13398743 .5332031 .102996829 .5332031 .09799194 .5332031 .09498596 .5332031 .09098816 .53219607 .114990238 .6030731 .1789856 .63500979 .23298645 .63500979 .33499146 .63500979 .36999513 .5401764 .36999513 .4711914 .36999513 .36915589 .29299928 .28611756 .24499512 .23408509L.06199646 .035995485C.050994874 .024993897 .050994874 .022994996 .050994874 0H.43399049L.46199037 .17704773Z"/>
<path id="font_1_82" d="M.43199159 0V.0309906H.3999939C.30699159 .0309906 .3039856 .042999269 .3039856 .08001709V.63912966C.3039856 .6640167 .30299378 .6660156 .27799989 .6660156 .21598816 .60227969 .12399292 .60227969 .09298706 .60227969V.57128909C.11199951 .57128909 .17298889 .57128909 .22698975 .5972748V.08001709C.22698975 .042999269 .22399903 .0309906 .1309967 .0309906H.09899902V0C.1349945 .0029907227 .22399903 .0029907227 .2649994 .0029907227 .30599977 .0029907227 .3959961 .0029907227 .43199159 0Z"/>
<path id="font_2_234" d="M.32598878 .5439453C.32598878 .62068179 .2639923 .6826172 .18798828 .6826172 .11099243 .6826172 .04899597 .62068179 .04899597 .5439453 .04899597 .46820069 .11099243 .40628053 .18798828 .40628053 .2639923 .40628053 .32598878 .46820069 .32598878 .5439453M.28599549 .5439453C.28599549 .49012757 .24198914 .44628907 .18798828 .44628907 .1329956 .44628907 .08898926 .49012757 .08898926 .5439453 .08898926 .5987549 .1329956 .64260867 .18798828 .64260867 .24198914 .64260867 .28599549 .5987549 .28599549 .5439453Z"/>
<path id="font_2_42" d="M.6649933 .23271179C.6649933 .24272156 .6649933 .24972534 .6519928 .24972534 .6409912 .24972534 .6409912 .24372864 .6399994 .23371887 .6319885 .09059143 .5249939 .008529663 .41600038 .008529663 .35499574 .008529663 .15899658 .042556764 .15899658 .34080506 .15899658 .64004519 .35398866 .67407229 .4149933 .67407229 .5239868 .67407229 .61299136 .58299258 .6329956 .4368744 .6349945 .42286683 .6349945 .41986085 .6489868 .41986085 .6649933 .41986085 .6649933 .42286683 .6649933 .44387818V.68107607C.6649933 .69807437 .6649933 .7050781 .6539917 .7050781 .6499939 .7050781 .6459961 .7050781 .6380005 .69306948L.58799746 .61901858C.5509949 .6550598 .5 .7050781 .4039917 .7050781 .21699524 .7050781 .055999757 .5459595 .055999757 .34179688 .055999757 .1346283 .21798706-.022460938 .4039917-.022460938 .5669861-.022460938 .6649933 .116622928 .6649933 .23271179Z"/>
<path id="font_1_51" d="M.46998597 .16764832C.46998597 .26472474 .3959961 .3127594 .37098695 .32876588 .3600006 .33677674 .33099366 .35479737 .31900025 .36180116 .36898805 .38581849 .44198609 .43585206 .44198609 .51690676 .44198609 .6109772 .34799195 .6660156 .2579956 .6660156 .15299988 .6660156 .070999149 .5909729 .070999149 .49890138 .070999149 .46087647 .084991458 .42485047 .10899353 .39582826 .12599182 .3768158 .13198853 .37280274 .18998719 .3357849 .101989749 .29374696 .042999269 .23269654 .042999269 .15063477 .042999269 .044555665 .147995-.022460938 .2559967-.022460938 .37199403-.022460938 .46998597 .059570314 .46998597 .16764832M.3939972 .51690676C.3939972 .44685365 .33399964 .40083314 .2939911 .37780763L.17199707 .45387269C.14199829 .47288514 .11898804 .4998932 .11898804 .53692629 .11898804 .6019745 .18899536 .64100649 .25498963 .64100649 .33198548 .64100649 .3939972 .58695986 .3939972 .51690676M.41600038 .1326294C.41600038 .05357361 .33599855 .0055389406 .25698854 .0055389406 .16999817 .0055389406 .09700012 .06758118 .09700012 .15063477 .09700012 .22268677 .14698792 .28274537 .21699524 .31877137L.34298707 .2407074C.3659973 .22569275 .41600038 .19366455 .41600038 .1326294Z"/>
<path id="font_1_78" d="M.46998597 .3287964C.46998597 .5999756 .34999085 .6660156 .2599945 .6660156 .14498902 .6660156 .042999269 .5729675 .042999269 .44187928 .042999269 .31478883 .1349945 .21875 .24798584 .21875 .32099916 .21875 .36099244 .27175904 .3789978 .31478883V.2927704C.3789978 .04875183 .2679901 .0055389406 .21099854 .0055389406 .18798828 .0055389406 .13699341 .009552002 .11099243 .042755128H.114990238C.12298584 .040740968 .1619873 .04875183 .1619873 .088760379 .1619873 .11476135 .14399719 .13476563 .115997318 .13476563 .08799744 .13476563 .068984989 .116760257 .068984989 .086761478 .068984989 .020629883 .12199402-.022460938 .21199036-.022460938 .34098817-.022460938 .46998597 .10975647 .46998597 .32888795V.3287964M.3769989 .42089845C.3769989 .34788514 .34399415 .2437439 .25 .2437439 .23399353 .2437439 .18499756 .2437439 .15299988 .30584718 .13398743 .34388734 .13398743 .3928833 .13398743 .4409027 .13398743 .48892213 .13398743 .5389557 .15499878 .5769806 .18499756 .628006 .22399903 .64100649 .2599945 .64100649 .32798768 .64100649 .35499574 .5719757 .35899354 .56196597 .37298585 .5249481 .3769989 .46391297 .3769989 .42089845Z"/>
<path id="font_1_100" d="M.49899293 .6435547H.25C.12399292 .6435547 .12098694 .6566467 .117996219 .67578127H.08999634L.056991579 .46655274H.084991458C.08898926 .48954774 .09700012 .5455475 .10998535 .55755618 .116989139 .56355288 .19599915 .56355288 .20999146 .56355288H.41999818L.32398988 .4325409C.19400025 .25354005 .18199158 .090530399 .18199158 .03353882 .18199158 .022537232 .18199158-.022460938 .22799683-.022460938 .2749939-.022460938 .2749939 .021530152 .2749939 .03453064V.08354187C.2749939 .23054505 .29699708 .34654237 .34999085 .41854859L.48999024 .60954287C.49899293 .62054446 .49899293 .62254336 .49899293 .6435547Z"/>
<path id="font_2_69" d="M.73599246 0V.0309906C.6819916 .0309906 .6609955 .034988405 .6309967 .07896423L.3999939 .41874696 .5799866 .5916443C.58799746 .5996399 .6409912 .65060427 .7220001 .6516113V.6826172C.69599917 .6796112 .6639862 .6796112 .6369934 .6796112 .6009979 .6796112 .5439911 .6796112 .5099945 .6826172V.6516113C.5499878 .65060427 .55599978 .6276245 .55599978 .6186218 .55599978 .6026306 .54599 .5926361 .5379944 .5856476L.22499085 .28683473V.6046295C.22499085 .64060977 .22698975 .6516113 .3039856 .6516113H.32798768V.6826172C.29299928 .6796112 .21899414 .6796112 .18099976 .6796112 .14299011 .6796112 .067993167 .6796112 .032989503 .6826172V.6516113H.056991579C.13398743 .6516113 .13598633 .64060977 .13598633 .6046295V.07795715C.13598633 .041992189 .13398743 .0309906 .056991579 .0309906H.032989503V0C.067993167 .0029907227 .14199829 .0029907227 .17999268 .0029907227 .21798706 .0029907227 .29299928 .0029907227 .32798768 0V.0309906H.3039856C.22698975 .0309906 .22499085 .041992189 .22499085 .07795715V.2528534L.34098817 .3627777 .5219879 .094955448C.5279999 .08595276 .5369873 .07296753 .5369873 .06097412 .5369873 .0309906 .49798585 .0309906 .47799684 .0309906V0C.5130005 .0029907227 .58299258 .0029907227 .62098696 .0029907227L.73599246 0Z"/>
</defs>
<path transform="matrix(1.00005,0,0,-1.00003,11.717834,31.526589)" stroke-width=".79701" stroke-linecap="butt" stroke-miterlimit="10" stroke-linejoin="miter" fill="none" stroke="#000000" d="M0 0V14.17339H340.1617V0ZM340.1617 14.17339"/>
<path transform="matrix(1.00005,0,0,-1.00003,11.717834,31.526589)" stroke-width=".79701" stroke-linecap="butt" stroke-miterlimit="10" stroke-linejoin="miter" fill="none" stroke="#000000" d="M0 14.17339V19.84267"/>
<use data-text="5" xlink:href="#font_1_56" transform="matrix(8.966848,0,0,-8.966669,3.5224229,7.9658815)"/>
<use data-text="5" xlink:href="#font_1_56" transform="matrix(8.966848,0,0,-8.966669,8.131378,7.9658815)"/>
<use data-text="." xlink:href="#font_1_88" transform="matrix(8.966848,0,0,-8.966669,12.740341,7.9658815)"/>
<use data-text="0" xlink:href="#font_1_121" transform="matrix(8.966848,0,0,-8.966669,15.304855,7.9658815)"/>
<path transform="matrix(1.00005,0,0,-1.00003,11.717834,31.526589)" stroke-width=".79701" stroke-linecap="butt" stroke-miterlimit="10" stroke-linejoin="miter" fill="none" stroke="#000000" d="M28.3468 14.17339V19.84267"/>
<use data-text="5" xlink:href="#font_1_56" transform="matrix(8.966848,0,0,-8.966669,31.869843,7.9658815)"/>
<use data-text="0" xlink:href="#font_1_121" transform="matrix(8.966848,0,0,-8.966669,36.478799,7.9658815)"/>
<use data-text="." xlink:href="#font_1_88" transform="matrix(8.966848,0,0,-8.966669,41.08776,7.9658815)"/>
<use data-text="0" xlink:href="#font_1_121" transform="matrix(8.966848,0,0,-8.966669,43.652276,7.9658815)"/>
<path transform="matrix(1.00005,0,0,-1.00003,11.717834,31.526589)" stroke-width=".79701" stroke-linecap="butt" stroke-miterlimit="10" stroke-linejoin="miter" fill="none" stroke="#000000" d="M56.69362 14.17339V19.84267"/>
<use data-text="4" xlink:href="#font_1_57" transform="matrix(8.966848,0,0,-8.966669,60.218259,7.9658815)"/>
<use data-text="5" xlink:href="#font_1_56" transform="matrix(8.966848,0,0,-8.966669,64.82721,7.9658815)"/>
<use data-text="." xlink:href="#font_1_88" transform="matrix(8.966848,0,0,-8.966669,69.43617,7.9658815)"/>
<use data-text="0" xlink:href="#font_1_121" transform="matrix(8.966848,0,0,-8.966669,72.00069,7.9658815)"/>
<path transform="matrix(1.00005,0,0,-1.00003,11.717834,31.526589)" stroke-width=".79701" stroke-linecap="butt" stroke-miterlimit="10" stroke-linejoin="miter" fill="none" stroke="#000000" d="M85.04042 14.17339V19.84267"/>
<use data-text="4" xlink:href="#font_1_57" transform="matrix(8.966848,0,0,-8.966669,88.56667,7.9658815)"/>
<use data-text="0" xlink:href="#font_1_121" transform="matrix(8.966848,0,0,-8.966669,93.17563,7.9658815)"/>
<use data-text="." xlink:href="#font_1_88" transform="matrix(8.966848,0,0,-8.966669,97.78459,7.9658815)"/>
<use data-text="0" xlink:href="#font_1_121" transform="matrix(8.966848,0,0,-8.966669,100.349109,7.9658815)"/>
<path transform="matrix(1.00005,0,0,-1.00003,11.717834,31.526589)" stroke-width=".79701" stroke-linecap="butt" stroke-miterlimit="10" stroke-linejoin="miter" fill="none" stroke="#000000" d="M113.38724 14.17339V19.84267"/>
<use data-text="3" xlink:href="#font_1_106" transform="matrix(8.966848,0,0,-8.966669,116.91509,7.9658815)"/>
<use data-text="5" xlink:href="#font_1_56" transform="matrix(8.966848,0,0,-8.966669,121.52405,7.9658815)"/>
<use data-text="." xlink:href="#font_1_88" transform="matrix(8.966848,0,0,-8.966669,126.13301,7.9658815)"/>
<use data-text="0" xlink:href="#font_1_121" transform="matrix(8.966848,0,0,-8.966669,128.69753,7.9658815)"/>
<path transform="matrix(1.00005,0,0,-1.00003,11.717834,31.526589)" stroke-width=".79701" stroke-linecap="butt" stroke-miterlimit="10" stroke-linejoin="miter" fill="none" stroke="#000000" d="M141.73404 14.17339V19.84267"/>
<use data-text="3" xlink:href="#font_1_106" transform="matrix(8.966848,0,0,-8.966669,145.2635,7.9658815)"/>
<use data-text="0" xlink:href="#font_1_121" transform="matrix(8.966848,0,0,-8.966669,149.87247,7.9658815)"/>
<use data-text="." xlink:href="#font_1_88" transform="matrix(8.966848,0,0,-8.966669,154.48142,7.9658815)"/>
<use data-text="0" xlink:href="#font_1_121" transform="matrix(8.966848,0,0,-8.966669,157.04593,7.9658815)"/>
<path transform="matrix(1.00005,0,0,-1.00003,11.717834,31.526589)" stroke-width=".79701" stroke-linecap="butt" stroke-miterlimit="10" stroke-linejoin="miter" fill="none" stroke="#000000" d="M170.08086 14.17339V19.84267"/>
<use data-text="2" xlink:href="#font_1_107" transform="matrix(8.966848,0,0,-8.966669,173.61092,7.9658815)"/>
<use data-text="5" xlink:href="#font_1_56" transform="matrix(8.966848,0,0,-8.966669,178.21988,7.9658815)"/>
<use data-text="." xlink:href="#font_1_88" transform="matrix(8.966848,0,0,-8.966669,182.82883,7.9658815)"/>
<use data-text="0" xlink:href="#font_1_121" transform="matrix(8.966848,0,0,-8.966669,185.39334,7.9658815)"/>
<path transform="matrix(1.00005,0,0,-1.00003,11.717834,31.526589)" stroke-width=".79701" stroke-linecap="butt" stroke-miterlimit="10" stroke-linejoin="miter" fill="none" stroke="#000000" d="M198.42766 14.17339V19.84267"/>
<use data-text="2" xlink:href="#font_1_107" transform="matrix(8.966848,0,0,-8.966669,201.95934,7.9658815)"/>
<use data-text="0" xlink:href="#font_1_121" transform="matrix(8.966848,0,0,-8.966669,206.5683,7.9658815)"/>
<use data-text="." xlink:href="#font_1_88" transform="matrix(8.966848,0,0,-8.966669,211.17725,7.9658815)"/>
<use data-text="0" xlink:href="#font_1_121" transform="matrix(8.966848,0,0,-8.966669,213.74176,7.9658815)"/>
<path transform="matrix(1.00005,0,0,-1.00003,11.717834,31.526589)" stroke-width=".79701" stroke-linecap="butt" stroke-miterlimit="10" stroke-linejoin="miter" fill="none" stroke="#000000" d="M226.77448 14.17339V19.84267"/>
<use data-text="1" xlink:href="#font_1_82" transform="matrix(8.966848,0,0,-8.966669,230.30776,7.9658815)"/>
<use data-text="5" xlink:href="#font_1_56" transform="matrix(8.966848,0,0,-8.966669,234.91672,7.9658815)"/>
<use data-text="." xlink:href="#font_1_88" transform="matrix(8.966848,0,0,-8.966669,239.52567,7.9658815)"/>
<use data-text="0" xlink:href="#font_1_121" transform="matrix(8.966848,0,0,-8.966669,242.09018,7.9658815)"/>
<path transform="matrix(1.00005,0,0,-1.00003,11.717834,31.526589)" stroke-width=".79701" stroke-linecap="butt" stroke-miterlimit="10" stroke-linejoin="miter" fill="none" stroke="#000000" d="M255.12128 14.17339V19.84267"/>
<use data-text="1" xlink:href="#font_1_82" transform="matrix(8.966848,0,0,-8.966669,258.65617,7.9658815)"/>
<use data-text="0" xlink:href="#font_1_121" transform="matrix(8.966848,0,0,-8.966669,263.2651,7.9658815)"/>
<use data-text="." xlink:href="#font_1_88" transform="matrix(8.966848,0,0,-8.966669,267.87409,7.9658815)"/>
<use data-text="0" xlink:href="#font_1_121" transform="matrix(8.966848,0,0,-8.966669,270.4386,7.9658815)"/>
<path transform="matrix(1.00005,0,0,-1.00003,11.717834,31.526589)" stroke-width=".79701" stroke-linecap="butt" stroke-miterlimit="10" stroke-linejoin="miter" fill="none" stroke="#000000" d="M283.4681 14.17339V19.84267"/>
<use data-text="5" xlink:href="#font_1_56" transform="matrix(8.966848,0,0,-8.966669,289.3087,7.9658815)"/>
<use data-text="." xlink:href="#font_1_88" transform="matrix(8.966848,0,0,-8.966669,293.91764,7.9658815)"/>
<use data-text="0" xlink:href="#font_1_121" transform="matrix(8.966848,0,0,-8.966669,296.48219,7.9658815)"/>
<path transform="matrix(1.00005,0,0,-1.00003,11.717834,31.526589)" stroke-width=".79701" stroke-linecap="butt" stroke-miterlimit="10" stroke-linejoin="miter" fill="none" stroke="#000000" d="M311.8149 14.17339V19.84267"/>
<use data-text="0" xlink:href="#font_1_121" transform="matrix(8.966848,0,0,-8.966669,317.65715,7.9658815)"/>
<use data-text="." xlink:href="#font_1_88" transform="matrix(8.966848,0,0,-8.966669,322.26609,7.9658815)"/>
<use data-text="0" xlink:href="#font_1_121" transform="matrix(8.966848,0,0,-8.966669,324.83064,7.9658815)"/>
<use data-text="&#x00b0;" xlink:href="#font_2_234" transform="matrix(9.963098,0,0,-9.962899,355.41703,7.94388)"/>
<use data-text="C" xlink:href="#font_2_42" transform="matrix(9.963098,0,0,-9.962899,359.1532,7.94388)"/>
<path transform="matrix(1.00005,0,0,-1.00003,11.717834,31.526589)" stroke-width=".79701" stroke-linecap="butt" stroke-miterlimit="10" stroke-linejoin="miter" fill="none" stroke="#000000" d="M0 0V-5.66927"/>
<use data-text="3" xlink:href="#font_1_106" transform="matrix(8.966848,0,0,-8.966669,1.217308,46.688047)"/>
<use data-text="2" xlink:href="#font_1_107" transform="matrix(8.966848,0,0,-8.966669,5.8262636,46.688047)"/>
<use data-text="8" xlink:href="#font_1_51" transform="matrix(8.966848,0,0,-8.966669,10.435226,46.688047)"/>
<use data-text="." xlink:href="#font_1_88" transform="matrix(8.966848,0,0,-8.966669,15.044182,46.688047)"/>
<use data-text="0" xlink:href="#font_1_121" transform="matrix(8.966848,0,0,-8.966669,17.608704,46.688047)"/>
<path transform="matrix(1.00005,0,0,-1.00003,11.717834,31.526589)" stroke-width=".79701" stroke-linecap="butt" stroke-miterlimit="10" stroke-linejoin="miter" fill="none" stroke="#000000" d="M28.3468 0V-5.66927"/>
<use data-text="3" xlink:href="#font_1_106" transform="matrix(8.966848,0,0,-8.966669,29.565728,46.688047)"/>
<use data-text="2" xlink:href="#font_1_107" transform="matrix(8.966848,0,0,-8.966669,34.174684,46.688047)"/>
<use data-text="3" xlink:href="#font_1_106" transform="matrix(8.966848,0,0,-8.966669,38.783647,46.688047)"/>
<use data-text="." xlink:href="#font_1_88" transform="matrix(8.966848,0,0,-8.966669,43.3926,46.688047)"/>
<use data-text="0" xlink:href="#font_1_121" transform="matrix(8.966848,0,0,-8.966669,45.957124,46.688047)"/>
<path transform="matrix(1.00005,0,0,-1.00003,11.717834,31.526589)" stroke-width=".79701" stroke-linecap="butt" stroke-miterlimit="10" stroke-linejoin="miter" fill="none" stroke="#000000" d="M56.69362 0V-5.66927"/>
<use data-text="3" xlink:href="#font_1_106" transform="matrix(8.966848,0,0,-8.966669,57.914144,46.688047)"/>
<use data-text="1" xlink:href="#font_1_82" transform="matrix(8.966848,0,0,-8.966669,62.523099,46.688047)"/>
<use data-text="8" xlink:href="#font_1_51" transform="matrix(8.966848,0,0,-8.966669,67.132068,46.688047)"/>
<use data-text="." xlink:href="#font_1_88" transform="matrix(8.966848,0,0,-8.966669,71.74101,46.688047)"/>
<use data-text="0" xlink:href="#font_1_121" transform="matrix(8.966848,0,0,-8.966669,74.30554,46.688047)"/>
<path transform="matrix(1.00005,0,0,-1.00003,11.717834,31.526589)" stroke-width=".79701" stroke-linecap="butt" stroke-miterlimit="10" stroke-linejoin="miter" fill="none" stroke="#000000" d="M85.04042 0V-5.66927"/>
<use data-text="3" xlink:href="#font_1_106" transform="matrix(8.966848,0,0,-8.966669,86.26256,46.688047)"/>
<use data-text="1" xlink:href="#font_1_82" transform="matrix(8.966848,0,0,-8.966669,90.87151,46.688047)"/>
<use data-text="3" xlink:href="#font_1_106" transform="matrix(8.966848,0,0,-8.966669,95.48048,46.688047)"/>
<use data-text="." xlink:href="#font_1_88" transform="matrix(8.966848,0,0,-8.966669,100.08943,46.688047)"/>
<use data-text="0" xlink:href="#font_1_121" transform="matrix(8.966848,0,0,-8.966669,102.65395,46.688047)"/>
<path transform="matrix(1.00005,0,0,-1.00003,11.717834,31.526589)" stroke-width=".79701" stroke-linecap="butt" stroke-miterlimit="10" stroke-linejoin="miter" fill="none" stroke="#000000" d="M113.38724 0V-5.66927"/>
<use data-text="3" xlink:href="#font_1_106" transform="matrix(8.966848,0,0,-8.966669,114.60998,46.688047)"/>
<use data-text="0" xlink:href="#font_1_121" transform="matrix(8.966848,0,0,-8.966669,119.21893,46.688047)"/>
<use data-text="8" xlink:href="#font_1_51" transform="matrix(8.966848,0,0,-8.966669,123.827899,46.688047)"/>
<use data-text="." xlink:href="#font_1_88" transform="matrix(8.966848,0,0,-8.966669,128.43686,46.688047)"/>
<use data-text="0" xlink:href="#font_1_121" transform="matrix(8.966848,0,0,-8.966669,131.00138,46.688047)"/>
<path transform="matrix(1.00005,0,0,-1.00003,11.717834,31.526589)" stroke-width=".79701" stroke-linecap="butt" stroke-miterlimit="10" stroke-linejoin="miter" fill="none" stroke="#000000" d="M141.73404 0V-5.66927"/>
<use data-text="3" xlink:href="#font_1_106" transform="matrix(8.966848,0,0,-8.966669,142.95839,46.688047)"/>
<use data-text="0" xlink:href="#font_1_121" transform="matrix(8.966848,0,0,-8.966669,147.56735,46.688047)"/>
<use data-text="3" xlink:href="#font_1_106" transform="matrix(8.966848,0,0,-8.966669,152.1763,46.688047)"/>
<use data-text="." xlink:href="#font_1_88" transform="matrix(8.966848,0,0,-8.966669,156.78527,46.688047)"/>
<use data-text="0" xlink:href="#font_1_121" transform="matrix(8.966848,0,0,-8.966669,159.3498,46.688047)"/>
<path transform="matrix(1.00005,0,0,-1.00003,11.717834,31.526589)" stroke-width=".79701" stroke-linecap="butt" stroke-miterlimit="10" stroke-linejoin="miter" fill="none" stroke="#000000" d="M170.08086 0V-5.66927"/>
<use data-text="2" xlink:href="#font_1_107" transform="matrix(8.966848,0,0,-8.966669,171.3068,46.688047)"/>
<use data-text="9" xlink:href="#font_1_78" transform="matrix(8.966848,0,0,-8.966669,175.91574,46.688047)"/>
<use data-text="8" xlink:href="#font_1_51" transform="matrix(8.966848,0,0,-8.966669,180.52472,46.688047)"/>
<use data-text="." xlink:href="#font_1_88" transform="matrix(8.966848,0,0,-8.966669,185.13367,46.688047)"/>
<use data-text="0" xlink:href="#font_1_121" transform="matrix(8.966848,0,0,-8.966669,187.69818,46.688047)"/>
<path transform="matrix(1.00005,0,0,-1.00003,11.717834,31.526589)" stroke-width=".79701" stroke-linecap="butt" stroke-miterlimit="10" stroke-linejoin="miter" fill="none" stroke="#000000" d="M198.42766 0V-5.66927"/>
<use data-text="2" xlink:href="#font_1_107" transform="matrix(8.966848,0,0,-8.966669,199.65522,46.688047)"/>
<use data-text="9" xlink:href="#font_1_78" transform="matrix(8.966848,0,0,-8.966669,204.26416,46.688047)"/>
<use data-text="3" xlink:href="#font_1_106" transform="matrix(8.966848,0,0,-8.966669,208.87314,46.688047)"/>
<use data-text="." xlink:href="#font_1_88" transform="matrix(8.966848,0,0,-8.966669,213.48209,46.688047)"/>
<use data-text="0" xlink:href="#font_1_121" transform="matrix(8.966848,0,0,-8.966669,216.0466,46.688047)"/>
<path transform="matrix(1.00005,0,0,-1.00003,11.717834,31.526589)" stroke-width=".79701" stroke-linecap="butt" stroke-miterlimit="10" stroke-linejoin="miter" fill="none" stroke="#000000" d="M226.77448 0V-5.66927"/>
<use data-text="2" xlink:href="#font_1_107" transform="matrix(8.966848,0,0,-8.966669,228.00363,46.688047)"/>
<use data-text="8" xlink:href="#font_1_51" transform="matrix(8.966848,0,0,-8.966669,232.61258,46.688047)"/>
<use data-text="8" xlink:href="#font_1_51" transform="matrix(8.966848,0,0,-8.966669,237.22156,46.688047)"/>
<use data-text="." xlink:href="#font_1_88" transform="matrix(8.966848,0,0,-8.966669,241.8305,46.688047)"/>
<use data-text="0" xlink:href="#font_1_121" transform="matrix(8.966848,0,0,-8.966669,244.39502,46.688047)"/>
<path transform="matrix(1.00005,0,0,-1.00003,11.717834,31.526589)" stroke-width=".79701" stroke-linecap="butt" stroke-miterlimit="10" stroke-linejoin="miter" fill="none" stroke="#000000" d="M255.12128 0V-5.66927"/>
<use data-text="2" xlink:href="#font_1_107" transform="matrix(8.966848,0,0,-8.966669,256.35206,46.688047)"/>
<use data-text="8" xlink:href="#font_1_51" transform="matrix(8.966848,0,0,-8.966669,260.961,46.688047)"/>
<use data-text="3" xlink:href="#font_1_106" transform="matrix(8.966848,0,0,-8.966669,265.56999,46.688047)"/>
<use data-text="." xlink:href="#font_1_88" transform="matrix(8.966848,0,0,-8.966669,270.17893,46.688047)"/>
<use data-text="0" xlink:href="#font_1_121" transform="matrix(8.966848,0,0,-8.966669,272.74345,46.688047)"/>
<path transform="matrix(1.00005,0,0,-1.00003,11.717834,31.526589)" stroke-width=".79701" stroke-linecap="butt" stroke-miterlimit="10" stroke-linejoin="miter" fill="none" stroke="#000000" d="M283.4681 0V-5.66927"/>
<use data-text="2" xlink:href="#font_1_107" transform="matrix(8.966848,0,0,-8.966669,284.69947,46.777048)"/>
<use data-text="7" xlink:href="#font_1_100" transform="matrix(8.966848,0,0,-8.966669,289.3084,46.777048)"/>
<use data-text="8" xlink:href="#font_1_51" transform="matrix(8.966848,0,0,-8.966669,293.9174,46.777048)"/>
<use data-text="." xlink:href="#font_1_88" transform="matrix(8.966848,0,0,-8.966669,298.52635,46.777048)"/>
<use data-text="0" xlink:href="#font_1_121" transform="matrix(8.966848,0,0,-8.966669,301.09086,46.777048)"/>
<path transform="matrix(1.00005,0,0,-1.00003,11.717834,31.526589)" stroke-width=".79701" stroke-linecap="butt" stroke-miterlimit="10" stroke-linejoin="miter" fill="none" stroke="#000000" d="M311.8149 0V-5.66927"/>
<use data-text="2" xlink:href="#font_1_107" transform="matrix(8.966848,0,0,-8.966669,313.04789,46.777048)"/>
<use data-text="7" xlink:href="#font_1_100" transform="matrix(8.966848,0,0,-8.966669,317.65684,46.777048)"/>
<use data-text="3" xlink:href="#font_1_106" transform="matrix(8.966848,0,0,-8.966669,322.2658,46.777048)"/>
<use data-text="." xlink:href="#font_1_88" transform="matrix(8.966848,0,0,-8.966669,326.87477,46.777048)"/>
<use data-text="0" xlink:href="#font_1_121" transform="matrix(8.966848,0,0,-8.966669,329.43928,46.777048)"/>
<use data-text="K" xlink:href="#font_2_69" transform="matrix(9.963098,0,0,-9.962899,355.41703,47.52107)"/>
<path transform="matrix(1.00005,0,0,-1.00003,11.717834,31.526589)" d="M226.77448 0V14.17339H340.1617V0ZM340.1617 14.17339" fill="#bf0040"/>
<path transform="matrix(1.00005,0,0,-1.00003,11.717834,31.526589)" stroke-width=".79701" stroke-linecap="butt" stroke-miterlimit="10" stroke-linejoin="miter" fill="none" stroke="#000000" d="M351.50028 7.08669C351.50028 13.34886 346.4239 18.42523 340.1617 18.42523 333.89955 18.42523 328.82319 13.34886 328.82319 7.08669 328.82319 .82451 333.89955-4.25185 340.1617-4.25185 346.4239-4.25185 351.50028 .82451 351.50028 7.08669ZM340.1617 7.08669"/>
<path transform="matrix(1.00005,0,0,-1.00003,11.717834,31.526589)" d="M351.50028 7.08669C351.50028 13.34886 346.4239 18.42523 340.1617 18.42523 333.89955 18.42523 328.82319 13.34886 328.82319 7.08669 328.82319 .82451 333.89955-4.25185 340.1617-4.25185 346.4239-4.25185 351.50028 .82451 351.50028 7.08669ZM340.1617 7.08669" fill="#bf0040"/>
</svg>
