<svg xmlns="http://www.w3.org/2000/svg" xmlns:xlink="http://www.w3.org/1999/xlink" xmlns:inkscape="http://www.inkscape.org/namespaces/inkscape" version="1.1" width="118" height="117" viewBox="0 0 118 117">
<path transform="matrix(1.00003,0,0,-1,2.2955018,115.384)" stroke-width=".79701" stroke-linecap="butt" stroke-miterlimit="10" stroke-linejoin="miter" fill="none" stroke="#0000ff" d="M0 0V113.38724"/>
<path transform="matrix(1.00003,0,0,-1,2.2955018,115.384)" stroke-width=".79701" stroke-linecap="butt" stroke-miterlimit="10" stroke-linejoin="miter" fill="none" stroke="#0000ff" d="M28.3468 0V113.38724"/>
<path transform="matrix(1.00003,0,0,-1,2.2955018,115.384)" stroke-width=".79701" stroke-linecap="butt" stroke-miterlimit="10" stroke-linejoin="miter" fill="none" stroke="#0000ff" d="M56.69362 0V113.38724"/>
<path transform="matrix(1.00003,0,0,-1,2.2955018,115.384)" stroke-width=".79701" stroke-linecap="butt" stroke-miterlimit="10" stroke-linejoin="miter" fill="none" stroke="#0000ff" d="M85.04042 0V113.38724"/>
<path transform="matrix(1.00003,0,0,-1,2.2955018,115.384)" stroke-width=".79701" stroke-linecap="butt" stroke-miterlimit="10" stroke-linejoin="miter" fill="none" stroke="#0000ff" d="M113.38724 0V113.38724"/>
<path transform="matrix(1.00003,0,0,-1,2.2955018,115.384)" stroke-width=".79701" stroke-linecap="butt" stroke-miterlimit="10" stroke-linejoin="miter" fill="none" stroke="#0000ff" d="M0 0H113.38724"/>
<path transform="matrix(1.00003,0,0,-1,2.2955018,115.384)" stroke-width=".79701" stroke-linecap="butt" stroke-miterlimit="10" stroke-linejoin="miter" fill="none" stroke="#0000ff" d="M0 28.3468H113.38724"/>
<path transform="matrix(1.00003,0,0,-1,2.2955018,115.384)" stroke-width=".79701" stroke-linecap="butt" stroke-miterlimit="10" stroke-linejoin="miter" fill="none" stroke="#0000ff" d="M0 56.69362H113.38724"/>
<path transform="matrix(1.00003,0,0,-1,2.2955018,115.384)" stroke-width=".79701" stroke-linecap="butt" stroke-miterlimit="10" stroke-linejoin="miter" fill="none" stroke="#0000ff" d="M0 85.04042H113.38724"/>
<path transform="matrix(1.00003,0,0,-1,2.2955018,115.384)" stroke-width=".79701" stroke-linecap="butt" stroke-miterlimit="10" stroke-linejoin="miter" fill="none" stroke="#0000ff" d="M0 113.38724H113.38724"/>
</svg>
