<svg xmlns="http://www.w3.org/2000/svg" xmlns:xlink="http://www.w3.org/1999/xlink" xmlns:inkscape="http://www.inkscape.org/namespaces/inkscape" version="1.1" width="174" height="71" viewBox="0 0 174 71">
<path transform="matrix(1.00002,0,0,-1.00009,1.2946701,64.167339)" stroke-width=".79701" stroke-linecap="butt" stroke-miterlimit="10" stroke-linejoin="miter" fill="none" stroke="#0000ff" d="M0 0H113.38724L170.08086 56.69362H56.69362L0 0"/>
<path transform="matrix(1.00002,0,0,-1.00009,1.2946701,64.167339)" stroke-width=".3985" stroke-linecap="butt" stroke-miterlimit="10" stroke-linejoin="miter" fill="none" stroke="#ff8000" d="M53.85875 5.66927 56.69362 0 53.85875-5.66927"/>
<path transform="matrix(1.00002,0,0,-1.00009,1.2946701,64.167339)" stroke-width=".3985" stroke-linecap="butt" stroke-miterlimit="10" stroke-linejoin="miter" fill="none" stroke="#ff8000" d="M56.69362 5.66927 59.52846 0 56.69362-5.66927"/>
<path transform="matrix(1.00002,0,0,-1.00009,1.2946701,64.167339)" stroke-width=".3985" stroke-linecap="butt" stroke-miterlimit="10" stroke-linejoin="miter" fill="none" stroke="#ff8000" d="M79.37114 62.36288 85.04042 56.69362 79.37114 51.02432"/>
<path transform="matrix(1.00002,0,0,-1.00009,1.2946701,64.167339)" stroke-width=".3985" stroke-linecap="butt" stroke-miterlimit="10" stroke-linejoin="miter" fill="none" stroke="#ff8000" d="M82.20555 62.36288 87.87527 56.69362 82.20555 51.02432"/>
<path transform="matrix(1.00002,0,0,-1.00009,1.2946701,64.167339)" stroke-width=".3985" stroke-linecap="butt" stroke-miterlimit="10" stroke-linejoin="miter" fill="none" stroke="#ff0000" d="M136.06476 25.51193 141.73404 28.3468 144.5689 25.51193"/>
<path transform="matrix(1.00002,0,0,-1.00009,1.2946701,64.167339)" stroke-width=".3985" stroke-linecap="butt" stroke-miterlimit="10" stroke-linejoin="miter" fill="none" stroke="#ff0000" d="M22.67752 25.51193 28.3468 28.3468 31.18166 25.51193"/>
</svg>
