<svg xmlns="http://www.w3.org/2000/svg" xmlns:xlink="http://www.w3.org/1999/xlink" xmlns:inkscape="http://www.inkscape.org/namespaces/inkscape" version="1.1" width="144" height="102" viewBox="0 0 144 102">
<defs>
<path id="font_1_3" d="M.46899415 .2733307C.46899415 .3773651 .39898683 .4423828 .30899049 .4423828 .1749878 .4423828 .040985109 .30033876 .040985109 .15829468 .040985109 .059265138 .10798645-.0107421879 .20098877-.0107421879 .33399964-.0107421879 .46899415 .12728882 .46899415 .2733307M.20199585 .011245728C.15899658 .011245728 .114990238 .042266847 .114990238 .120285037 .114990238 .16929627 .14099121 .2773285 .17298889 .32833863 .22299195 .405365 .27999879 .42037965 .30799867 .42037965 .3659973 .42037965 .3959961 .37236024 .3959961 .3123474 .3959961 .2733307 .37599183 .16830445 .33799745 .103271488 .30299378 .04525757 .24798584 .011245728 .20199585 .011245728Z"/>
<path id="font_1_4" d="M.04499817-.122177127C.036987306-.15631104 .034988405-.16334534-.009002686-.16334534-.021011353-.16334534-.03201294-.16334534-.03201294-.18234253-.03201294-.19033814-.027008057-.19433594-.019012452-.19433594 .0079956059-.19433594 .036987306-.19134522 .06498718-.19134522 .09799194-.19134522 .13198853-.19433594 .1639862-.19433594 .16899109-.19433594 .18199158-.19433594 .18199158-.17434693 .18199158-.16334534 .17199707-.16334534 .1579895-.16334534 .10798645-.16334534 .10798645-.15631104 .10798645-.14727783 .10798645-.13523865 .1499939 .028259278 .15699768 .053268434 .16999817 .024261475 .19799805-.0107421879 .24899292-.0107421879 .36499024-.0107421879 .48999024 .13528443 .48999024 .28233338 .48999024 .37635804 .43299867 .4423828 .35699464 .4423828 .30699159 .4423828 .25898744 .40637208 .22599793 .36735536 .21598816 .42137147 .17298889 .4423828 .13598633 .4423828 .08999634 .4423828 .070999149 .4033661 .06199646 .38536073 .04399109 .35134889 .0309906 .29133607 .0309906 .28833009 .0309906 .27833558 .040985109 .27833558 .042999269 .27833558 .052993776 .27833558 .053985597 .2793274 .05999756 .30133058 .07699585 .37236024 .09700012 .42037965 .1329956 .42037965 .1499939 .42037965 .1639862 .41236878 .1639862 .37435914 .1639862 .35134889 .16099549 .3403473 .15699768 .323349L.04499817-.122177127M.22099304 .3123474C.22799683 .33935548 .25498963 .36735536 .272995 .38235475 .30799867 .41337586 .33699037 .42037965 .35398866 .42037965 .3939972 .42037965 .41799928 .38536073 .41799928 .32633973 .41799928 .26733399 .3849945 .15229798 .36698915 .11428833 .33299256 .044265748 .2849884 .011245728 .24798584 .011245728 .18199158 .011245728 .16899109 .0942688 .16899109 .10028076 .16899109 .10227966 .16899109 .104278568 .17199707 .11628723L.22099304 .3123474Z"/>
<path id="font_1_1" d="M.08799744 .059265138C.084991458 .044265748 .07899475 .021255494 .07899475 .01625061 .07899475-.0017547608 .09298706-.0107421879 .10798645-.0107421879 .11999512-.0107421879 .13798523-.002746582 .14498902 .01725769 .1459961 .019256592 .1579895 .06626892 .1639862 .091278079L.18598938 .18130493C.19198609 .2033081 .19799805 .22531128 .20298767 .24832154 .20698548 .26531983 .21499634 .29434205 .21598816 .29833985 .23098755 .3293457 .28399659 .42037965 .3789978 .42037965 .42399598 .42037965 .43299867 .38336183 .43299867 .35035707 .43299867 .3253479 .42599488 .29733277 .41799928 .26733399L.3899994 .1512909 .36999513 .07527161C.3659973 .055267335 .35699464 .021255494 .35699464 .01625061 .35699464-.0017547608 .37098695-.0107421879 .38598634-.0107421879 .4169922-.0107421879 .4229889 .014251709 .43099977 .04626465 .44499208 .10227966 .48199464 .24832154 .4909973 .28733827 .49398805 .30033876 .5469971 .42037965 .6559906 .42037965 .69898989 .42037965 .70999148 .3863678 .70999148 .35035707 .70999148 .29333497 .66799929 .17930603 .647995 .12628174 .6389923 .10227966 .6349945 .091278079 .6349945 .0712738 .6349945 .024261475 .66999819-.0107421879 .71699526-.0107421879 .8109894-.0107421879 .84799197 .13528443 .84799197 .14329529 .84799197 .1532898 .83898928 .1532898 .83599856 .1532898 .82598879 .1532898 .82598879 .15029907 .82099917 .13528443 .80599978 .08227539 .7739868 .011245728 .71899417 .011245728 .70199587 .011245728 .69499209 .021255494 .69499209 .044265748 .69499209 .0692749 .70399478 .09327698 .71299746 .11528015 .7319946 .16729737 .7739868 .27833558 .7739868 .3353424 .7739868 .4003601 .73399356 .4423828 .6589966 .4423828 .58399966 .4423828 .5329895 .3983612 .49598695 .34535218 .49499513 .35835267 .49198915 .3923645 .46398927 .41636659 .43899537 .43737794 .40699769 .4423828 .38198854 .4423828 .2919922 .4423828 .24299622 .37835694 .22599793 .35534669 .22099304 .41236878 .1789856 .4423828 .13398743 .4423828 .08799744 .4423828 .068984989 .4033661 .05999756 .38536073 .041992189 .35035707 .0289917 .29133607 .0289917 .28833009 .0289917 .27833558 .038986207 .27833558 .040985109 .27833558 .050994874 .27833558 .051986696 .2793274 .057998659 .30133058 .07499695 .37236024 .09498596 .42037965 .1309967 .42037965 .14698792 .42037965 .1619873 .41236878 .1619873 .37435914 .1619873 .35334779 .15899658 .3423462 .1459961 .29032899L.08799744 .059265138Z"/>
<path id="font_1_2" d="M.08799744 .059265138C.084991458 .044265748 .07899475 .021255494 .07899475 .01625061 .07899475-.0017547608 .09298706-.0107421879 .10798645-.0107421879 .11999512-.0107421879 .13798523-.002746582 .14498902 .01725769 .1459961 .019256592 .1579895 .06626892 .1639862 .091278079L.18598938 .18130493C.19198609 .2033081 .19799805 .22531128 .20298767 .24832154 .20698548 .26531983 .21499634 .29434205 .21598816 .29833985 .23098755 .3293457 .28399659 .42037965 .3789978 .42037965 .42399598 .42037965 .43299867 .38336183 .43299867 .35035707 .43299867 .28833009 .38398744 .16029358 .36799623 .11727905 .35899354 .0942688 .35798646 .08227539 .35798646 .0712738 .35798646 .024261475 .3929901-.0107421879 .43998719-.0107421879 .5339966-.0107421879 .57099917 .13528443 .57099917 .14329529 .57099917 .1532898 .56199648 .1532898 .5589905 .1532898 .548996 .1532898 .548996 .15029907 .5439911 .13528443 .5239868 .06726074 .4909973 .011245728 .44198609 .011245728 .4249878 .011245728 .41799928 .021255494 .41799928 .044265748 .41799928 .0692749 .4269867 .09327698 .43598939 .11528015 .45498658 .16830445 .49699403 .27833558 .49699403 .3353424 .49699403 .40237428 .45399476 .4423828 .38198854 .4423828 .2919922 .4423828 .24299622 .37835694 .22599793 .35534669 .22099304 .41137696 .17999268 .4423828 .13398743 .4423828 .08799744 .4423828 .068984989 .4033661 .05899048 .38536073 .042999269 .35134889 .0289917 .29232789 .0289917 .28833009 .0289917 .27833558 .038986207 .27833558 .040985109 .27833558 .050994874 .27833558 .051986696 .2793274 .057998659 .30133058 .07499695 .37236024 .09498596 .42037965 .1309967 .42037965 .15098572 .42037965 .1619873 .4073639 .1619873 .37435914 .1619873 .35334779 .15899658 .3423462 .1459961 .29032899L.08799744 .059265138Z"/>
</defs>
<path transform="matrix(1.00002,0,0,-1.00003,57.988817,75.64679)" d="M0 0 4.25204 7.36479C.18452 9.71317-5.01642 8.31956-7.36479 4.25204-8.11098 2.95961-8.50412 1.49239-8.50412 0" fill="#ff0000"/>
<path transform="matrix(1.00002,0,0,-1.00003,57.988817,75.64679)" stroke-width=".3985" stroke-linecap="butt" stroke-miterlimit="10" stroke-linejoin="miter" fill="none" stroke="#000000" d="M0 0 4.25204 7.36479C.18452 9.71317-5.01642 8.31956-7.36479 4.25204-8.11098 2.95961-8.50412 1.49239-8.50412 0"/>
<path transform="matrix(1.00002,0,0,-1.00003,57.988817,75.64679)" stroke-width=".3985" stroke-linecap="butt" stroke-miterlimit="10" stroke-linejoin="miter" fill="none" stroke="#000000" d="M-5.66927 9.81949"/>
<use data-text="o" xlink:href="#font_1_3" transform="matrix(9.962799,0,0,-9.962899,49.904657,67.97156)"/>
<path transform="matrix(1.00002,0,0,-1.00003,57.988817,75.64679)" d="M0 0H11.33855C11.33855 4.05038 9.177 7.7943 5.66927 9.81949" fill="#0000ff"/>
<path transform="matrix(1.00002,0,0,-1.00003,57.988817,75.64679)" stroke-width=".3985" stroke-linecap="butt" stroke-miterlimit="10" stroke-linejoin="miter" fill="none" stroke="#000000" d="M0 0H11.33855C11.33855 4.05038 9.177 7.7943 5.66927 9.81949"/>
<path transform="matrix(1.00002,0,0,-1.00003,57.988817,75.64679)" stroke-width=".3985" stroke-linecap="butt" stroke-miterlimit="10" stroke-linejoin="miter" fill="none" stroke="#000000" d="M14.72961 8.50412"/>
<use data-text="p" xlink:href="#font_1_4" transform="matrix(9.962799,0,0,-9.962899,70.21206,68.31857)"/>
<path transform="matrix(1.00002,0,0,-1.00003,57.988817,75.64679)" d="M0 0H-14.17339C-14.17339-5.06305-11.47144-9.74301-7.08669-12.27454" fill="#fff200"/>
<path transform="matrix(1.00002,0,0,-1.00003,57.988817,75.64679)" stroke-width=".3985" stroke-linecap="butt" stroke-miterlimit="10" stroke-linejoin="miter" fill="none" stroke="#000000" d="M0 0H-14.17339C-14.17339-5.06305-11.47144-9.74301-7.08669-12.27454"/>
<path transform="matrix(1.00002,0,0,-1.00003,57.988817,75.64679)" d="M0 0-4.96077-8.59233C-.2153-11.33212 5.85254-9.70622 8.59233-4.96077 9.4629-3.4529 9.92155-1.74113 9.92155 0" fill="#00ff00"/>
<path transform="matrix(1.00002,0,0,-1.00003,57.988817,75.64679)" stroke-width=".3985" stroke-linecap="butt" stroke-miterlimit="10" stroke-linejoin="miter" fill="none" stroke="#000000" d="M0 0-4.96077-8.59233C-.2153-11.33212 5.85254-9.70622 8.59233-4.96077 9.4629-3.4529 9.92155-1.74113 9.92155 0"/>
<path transform="matrix(1.00002,0,0,-1.00003,57.988817,75.64679)" d="M28.3468 49.09825H17.00826C17.00826 45.04787 19.1698 41.30396 22.67754 39.27876" fill="#fff200"/>
<path transform="matrix(1.00002,0,0,-1.00003,57.988817,75.64679)" stroke-width=".3985" stroke-linecap="butt" stroke-miterlimit="10" stroke-linejoin="miter" fill="none" stroke="#000000" d="M28.3468 49.09825H17.00826C17.00826 45.04787 19.1698 41.30396 22.67754 39.27876"/>
<path transform="matrix(1.00002,0,0,-1.00003,57.988817,75.64679)" stroke-width=".3985" stroke-linecap="butt" stroke-miterlimit="10" stroke-linejoin="miter" fill="none" stroke="#000000" d="M13.61717 40.59413"/>
<use data-text="m" xlink:href="#font_1_1" transform="matrix(9.962799,0,0,-9.962899,67.232,37.196634)"/>
<path transform="matrix(1.00002,0,0,-1.00003,57.988817,75.64679)" d="M28.3468 49.09825 23.38603 40.5059C28.1315 37.76611 34.19936 39.39201 36.93915 44.13748 37.80971 45.64534 38.26836 47.3571 38.26836 49.09825" fill="#0000ff"/>
<path transform="matrix(1.00002,0,0,-1.00003,57.988817,75.64679)" stroke-width=".3985" stroke-linecap="butt" stroke-miterlimit="10" stroke-linejoin="miter" fill="none" stroke="#000000" d="M28.3468 49.09825 23.38603 40.5059C28.1315 37.76611 34.19936 39.39201 36.93915 44.13748 37.80971 45.64534 38.26836 47.3571 38.26836 49.09825"/>
<path transform="matrix(1.00002,0,0,-1.00003,57.988817,75.64679)" stroke-width=".3985" stroke-linecap="butt" stroke-miterlimit="10" stroke-linejoin="miter" fill="none" stroke="#000000" d="M36.85092 34.36862"/>
<use data-text="n" xlink:href="#font_1_2" transform="matrix(9.962799,0,0,-9.962899,91.850498,43.42182)"/>
<path transform="matrix(1.00002,0,0,-1.00003,57.988817,75.64679)" d="M28.3468 49.09825 33.30757 57.69058C28.5621 60.43037 22.49425 58.80449 19.75446 54.05902 18.8839 52.55115 18.42525 50.83939 18.42525 49.09825" fill="#00ff00"/>
<path transform="matrix(1.00002,0,0,-1.00003,57.988817,75.64679)" stroke-width=".3985" stroke-linecap="butt" stroke-miterlimit="10" stroke-linejoin="miter" fill="none" stroke="#000000" d="M28.3468 49.09825 33.30757 57.69058C28.5621 60.43037 22.49425 58.80449 19.75446 54.05902 18.8839 52.55115 18.42525 50.83939 18.42525 49.09825"/>
<path transform="matrix(1.00002,0,0,-1.00003,57.988817,75.64679)" d="M28.3468 49.09825H39.68535C39.68535 53.14864 37.5238 56.89255 34.01608 58.91774" fill="#ff0000"/>
<path transform="matrix(1.00002,0,0,-1.00003,57.988817,75.64679)" stroke-width=".3985" stroke-linecap="butt" stroke-miterlimit="10" stroke-linejoin="miter" fill="none" stroke="#000000" d="M28.3468 49.09825H39.68535C39.68535 53.14864 37.5238 56.89255 34.01608 58.91774"/>
<path transform="matrix(1.00002,0,0,-1.00003,57.988817,75.64679)" stroke-width=".79701" stroke-linecap="butt" stroke-miterlimit="10" stroke-linejoin="miter" fill="none" stroke="#000000" d="M-14.17339-24.5491 42.52022 73.64738"/>
<path transform="matrix(1.00002,0,0,-1.00003,57.988817,75.64679)" stroke-width=".79701" stroke-linecap="butt" stroke-miterlimit="10" stroke-linejoin="miter" fill="none" stroke="#000000" d="M-56.69362 0H85.04042"/>
<path transform="matrix(1.00002,0,0,-1.00003,57.988817,75.64679)" stroke-width=".79701" stroke-linecap="butt" stroke-miterlimit="10" stroke-linejoin="miter" fill="none" stroke="#000000" d="M-56.69362 49.09825H85.04042"/>
</svg>
