<svg xmlns="http://www.w3.org/2000/svg" xmlns:xlink="http://www.w3.org/1999/xlink" xmlns:inkscape="http://www.inkscape.org/namespaces/inkscape" version="1.1" width="144" height="102" viewBox="0 0 144 102">
<defs>
<path id="font_1_2" d="M.44898988 .20022583C.44898988 .3193512 .36698915 .41944886 .25898744 .41944886 .21099854 .41944886 .16799927 .40345765 .13198853 .36842347V.5637665C.1519928 .5577698 .18499756 .55078127 .21699524 .55078127 .33999635 .55078127 .4099884 .6417694 .4099884 .6547699 .4099884 .6607666 .40699769 .6657715 .3999939 .6657715 .39898683 .6657715 .39698792 .6657715 .3919983 .66278079 .37199403 .6537781 .32299806 .6337738 .2559967 .6337738 .21598816 .6337738 .16999817 .6407776 .12298584 .6617737 .114990238 .66477969 .11299133 .66477969 .11099243 .66477969 .100997928 .66477969 .100997928 .6567688 .100997928 .6407776V.34439088C.100997928 .32637025 .100997928 .31835938 .114990238 .31835938 .12199402 .31835938 .12399292 .32136537 .12799073 .32736207 .13899231 .3433838 .17599488 .39746095 .25698854 .39746095 .30899049 .39746095 .33399964 .35139466 .34199525 .33337403 .35798646 .29632569 .3600006 .25727845 .3600006 .20722962 .3600006 .17222595 .3600006 .11222839 .33599855 .07035828 .31199647 .031463624 .2749939 .0055389406 .22898865 .0055389406 .1559906 .0055389406 .09899902 .058380128 .08198547 .11723328 .084991458 .1162262 .08799744 .115234378 .09899902 .115234378 .13198853 .115234378 .14898682 .14022827 .14898682 .16423035 .14898682 .18823242 .13198853 .21322632 .09899902 .21322632 .084991458 .21322632 .049987794 .20622254 .049987794 .16023255 .049987794 .07434082 .11898804-.022460938 .23098755-.022460938 .34700013-.022460938 .44898988 .073349 .44898988 .20022583Z"/>
<path id="font_1_1" d="M.45999146 .31976319C.45999146 .39982606 .45498658 .47988893 .41999818 .5539398 .37399293 .65000918 .2919922 .6660156 .25 .6660156 .18998719 .6660156 .116989139 .64001467 .07598877 .54693606 .04399109 .47789 .038986207 .39982606 .038986207 .31976319 .038986207 .24472046 .042999269 .15464783 .083999637 .07859802 .1269989-.0024719239 .19999695-.022460938 .24899292-.022460938 .30299378-.022460938 .3789978-.0014648438 .4229889 .09359741 .45498658 .16265869 .45999146 .2407074 .45999146 .31976319M.24899292-.00047302247C.20999146-.00047302247 .15098572 .024551392 .1329956 .12062073 .12199402 .18066406 .12199402 .2727356 .12199402 .3317871 .12199402 .39582826 .12199402 .46188355 .12998963 .5159149 .14898682 .63500979 .22399903 .64401248 .24899292 .64401248 .28199769 .64401248 .34799195 .6259918 .36698915 .52693179 .3769989 .47088624 .3769989 .39482118 .3769989 .3317871 .3769989 .25672914 .3769989 .18867493 .3659973 .12461853 .35099793 .029556275 .2939911-.00047302247 .24899292-.00047302247Z"/>
<path id="font_2_1" d="M.5069885 .24998474C.5069885 .3710022 .4099884 .4650116 .2919922 .4650116 .17199707 .4650116 .07699585 .36799623 .07699585 .25097657 .07699585 .1299591 .17399597 .035949708 .2919922 .035949708 .4119873 .035949708 .5069885 .13296509 .5069885 .24998474M.2919922 .08496094C.19799805 .08496094 .12599182 .16096497 .12599182 .24998474 .12599182 .34300233 .19999695 .41601563 .2919922 .41601563 .38598634 .41601563 .45799256 .33999635 .45799256 .25097657 .45799256 .15795899 .38398744 .08496094 .2919922 .08496094Z"/>
<path id="font_3_1" d="M.08799744 .059265138C.084991458 .044265748 .07899475 .021255494 .07899475 .01625061 .07899475-.0017547608 .09298706-.0107421879 .10798645-.0107421879 .11999512-.0107421879 .13798523-.002746582 .14498902 .01725769 .1459961 .019256592 .1579895 .06626892 .1639862 .091278079L.18598938 .18130493C.19198609 .2033081 .19799805 .22531128 .20298767 .24832154 .20698548 .26531983 .21499634 .29434205 .21598816 .29833985 .23098755 .3293457 .28399659 .42037965 .3789978 .42037965 .42399598 .42037965 .43299867 .38336183 .43299867 .35035707 .43299867 .28833009 .38398744 .16029358 .36799623 .11727905 .35899354 .0942688 .35798646 .08227539 .35798646 .0712738 .35798646 .024261475 .3929901-.0107421879 .43998719-.0107421879 .5339966-.0107421879 .57099917 .13528443 .57099917 .14329529 .57099917 .1532898 .56199648 .1532898 .5589905 .1532898 .548996 .1532898 .548996 .15029907 .5439911 .13528443 .5239868 .06726074 .4909973 .011245728 .44198609 .011245728 .4249878 .011245728 .41799928 .021255494 .41799928 .044265748 .41799928 .0692749 .4269867 .09327698 .43598939 .11528015 .45498658 .16830445 .49699403 .27833558 .49699403 .3353424 .49699403 .40237428 .45399476 .4423828 .38198854 .4423828 .2919922 .4423828 .24299622 .37835694 .22599793 .35534669 .22099304 .41137696 .17999268 .4423828 .13398743 .4423828 .08799744 .4423828 .068984989 .4033661 .05899048 .38536073 .042999269 .35134889 .0289917 .29232789 .0289917 .28833009 .0289917 .27833558 .038986207 .27833558 .040985109 .27833558 .050994874 .27833558 .051986696 .2793274 .057998659 .30133058 .07499695 .37236024 .09498596 .42037965 .1309967 .42037965 .15098572 .42037965 .1619873 .4073639 .1619873 .37435914 .1619873 .35334779 .15899658 .3423462 .1459961 .29032899L.08799744 .059265138Z"/>
</defs>
<path transform="matrix(1.00002,0,0,-1.00003,57.988817,75.64679)" d="M0 0 4.25204 7.36479C.18452 9.71317-5.01642 8.31956-7.36479 4.25204-8.11098 2.95961-8.50412 1.49239-8.50412 0" fill="#ff0000"/>
<path transform="matrix(1.00002,0,0,-1.00003,57.988817,75.64679)" stroke-width=".3985" stroke-linecap="butt" stroke-miterlimit="10" stroke-linejoin="miter" fill="none" stroke="#000000" d="M0 0 4.25204 7.36479C.18452 9.71317-5.01642 8.31956-7.36479 4.25204-8.11098 2.95961-8.50412 1.49239-8.50412 0"/>
<path transform="matrix(1.00002,0,0,-1.00003,57.988817,75.64679)" d="M0 0H11.33855C11.33855 4.05038 9.177 7.7943 5.66927 9.81949" fill="#ff0000"/>
<path transform="matrix(1.00002,0,0,-1.00003,57.988817,75.64679)" stroke-width=".3985" stroke-linecap="butt" stroke-miterlimit="10" stroke-linejoin="miter" fill="none" stroke="#000000" d="M0 0H11.33855C11.33855 4.05038 9.177 7.7943 5.66927 9.81949"/>
<path transform="matrix(1.00002,0,0,-1.00003,57.988817,75.64679)" stroke-width=".3985" stroke-linecap="butt" stroke-miterlimit="10" stroke-linejoin="miter" fill="none" stroke="#000000" d="M19.63937 11.33876"/>
<use data-text="5" xlink:href="#font_1_2" transform="matrix(9.962799,0,0,-9.962899,70.35706,67.73755)"/>
<use data-text="0" xlink:href="#font_1_1" transform="matrix(9.962799,0,0,-9.962899,75.33845,67.73755)"/>
<use data-text="&#x25e6;" xlink:href="#font_2_1" transform="matrix(6.97394,0,0,-6.9740097,80.32026,64.12244)"/>
<path transform="matrix(1.00002,0,0,-1.00003,57.988817,75.64679)" d="M0 0H-14.17339C-14.17339-5.06305-11.47144-9.74301-7.08669-12.27454" fill="#0000ff"/>
<path transform="matrix(1.00002,0,0,-1.00003,57.988817,75.64679)" stroke-width=".3985" stroke-linecap="butt" stroke-miterlimit="10" stroke-linejoin="miter" fill="none" stroke="#000000" d="M0 0H-14.17339C-14.17339-5.06305-11.47144-9.74301-7.08669-12.27454"/>
<path transform="matrix(1.00002,0,0,-1.00003,57.988817,75.64679)" d="M0 0-4.96077-8.59233C-.2153-11.33212 5.85254-9.70622 8.59233-4.96077 9.4629-3.4529 9.92155-1.74113 9.92155 0" fill="#0000ff"/>
<path transform="matrix(1.00002,0,0,-1.00003,57.988817,75.64679)" stroke-width=".3985" stroke-linecap="butt" stroke-miterlimit="10" stroke-linejoin="miter" fill="none" stroke="#000000" d="M0 0-4.96077-8.59233C-.2153-11.33212 5.85254-9.70622 8.59233-4.96077 9.4629-3.4529 9.92155-1.74113 9.92155 0"/>
<path transform="matrix(1.00002,0,0,-1.00003,57.988817,75.64679)" d="M28.3468 49.09825H17.00826C17.00826 45.04787 19.1698 41.30396 22.67754 39.27876" fill="#0000ff"/>
<path transform="matrix(1.00002,0,0,-1.00003,57.988817,75.64679)" stroke-width=".3985" stroke-linecap="butt" stroke-miterlimit="10" stroke-linejoin="miter" fill="none" stroke="#000000" d="M28.3468 49.09825H17.00826C17.00826 45.04787 19.1698 41.30396 22.67754 39.27876"/>
<path transform="matrix(1.00002,0,0,-1.00003,57.988817,75.64679)" d="M28.3468 49.09825 23.38603 40.5059C28.1315 37.76611 34.19936 39.39201 36.93915 44.13748 37.80971 45.64534 38.26836 47.3571 38.26836 49.09825" fill="#0000ff"/>
<path transform="matrix(1.00002,0,0,-1.00003,57.988817,75.64679)" stroke-width=".3985" stroke-linecap="butt" stroke-miterlimit="10" stroke-linejoin="miter" fill="none" stroke="#000000" d="M28.3468 49.09825 23.38603 40.5059C28.1315 37.76611 34.19936 39.39201 36.93915 44.13748 37.80971 45.64534 38.26836 47.3571 38.26836 49.09825"/>
<path transform="matrix(1.00002,0,0,-1.00003,57.988817,75.64679)" stroke-width=".3985" stroke-linecap="butt" stroke-miterlimit="10" stroke-linejoin="miter" fill="none" stroke="#000000" d="M35.43349 36.8237"/>
<use data-text="n" xlink:href="#font_3_1" transform="matrix(9.962799,0,0,-9.962899,90.433467,40.966749)"/>
<path transform="matrix(1.00002,0,0,-1.00003,57.988817,75.64679)" d="M28.3468 49.09825 33.30757 57.69058C28.5621 60.43037 22.49425 58.80449 19.75446 54.05902 18.8839 52.55115 18.42525 50.83939 18.42525 49.09825" fill="#ff0000"/>
<path transform="matrix(1.00002,0,0,-1.00003,57.988817,75.64679)" stroke-width=".3985" stroke-linecap="butt" stroke-miterlimit="10" stroke-linejoin="miter" fill="none" stroke="#000000" d="M28.3468 49.09825 33.30757 57.69058C28.5621 60.43037 22.49425 58.80449 19.75446 54.05902 18.8839 52.55115 18.42525 50.83939 18.42525 49.09825"/>
<path transform="matrix(1.00002,0,0,-1.00003,57.988817,75.64679)" d="M28.3468 49.09825H39.68535C39.68535 53.14864 37.5238 56.89255 34.01608 58.91774" fill="#ff0000"/>
<path transform="matrix(1.00002,0,0,-1.00003,57.988817,75.64679)" stroke-width=".3985" stroke-linecap="butt" stroke-miterlimit="10" stroke-linejoin="miter" fill="none" stroke="#000000" d="M28.3468 49.09825H39.68535C39.68535 53.14864 37.5238 56.89255 34.01608 58.91774"/>
<path transform="matrix(1.00002,0,0,-1.00003,57.988817,75.64679)" stroke-width=".79701" stroke-linecap="butt" stroke-miterlimit="10" stroke-linejoin="miter" fill="none" stroke="#000000" d="M-14.17339-24.5491 42.52022 73.64738"/>
<path transform="matrix(1.00002,0,0,-1.00003,57.988817,75.64679)" stroke-width=".79701" stroke-linecap="butt" stroke-miterlimit="10" stroke-linejoin="miter" fill="none" stroke="#000000" d="M-56.69362 0H85.04042"/>
<path transform="matrix(1.00002,0,0,-1.00003,57.988817,75.64679)" stroke-width=".79701" stroke-linecap="butt" stroke-miterlimit="10" stroke-linejoin="miter" fill="none" stroke="#000000" d="M-56.69362 49.09825H85.04042"/>
</svg>
