<svg xmlns="http://www.w3.org/2000/svg" xmlns:xlink="http://www.w3.org/1999/xlink" xmlns:inkscape="http://www.inkscape.org/namespaces/inkscape" version="1.1" width="174" height="174" viewBox="0 0 174 174">
<defs>
<path id="font_1_1" d="M.3889923 .40924073C.35798646 .4032135 .34199525 .3812256 .34199525 .3592224 .34199525 .33522035 .36099244 .32722474 .375 .32722474 .40299989 .32722474 .42599488 .35121156 .42599488 .3812256 .42599488 .41329957 .394989 .44140626 .34498597 .44140626 .30499269 .44140626 .25898744 .42340089 .21699524 .36221314 .20999146 .41532899 .16999817 .44140626 .12998963 .44140626 .09098816 .44140626 .070999149 .41127015 .05899048 .3892212 .041992189 .3532257 .026992798 .2932129 .026992798 .28822328 .026992798 .28422547 .0309906 .27922059 .037994386 .27922059 .04598999 .27922059 .04699707 .2802124 .052993776 .30322267 .067993167 .3632202 .08699036 .42140199 .1269989 .42140199 .15098572 .42140199 .1579895 .40422059 .1579895 .37521363 .1579895 .3532257 .147995 .31422425 .14099121 .28321839L.11299133 .17521668C.10899353 .15621948 .09799194 .11122131 .09298706 .0932312 .085998538 .067230228 .07499695 .020233155 .07499695 .0152282719 .07499695 .0012207031 .085998538-.009765625 .100997928-.009765625 .11199951-.009765625 .1309967-.0027770997 .13699341 .017227173 .13999939 .025222779 .1769867 .17622376 .18299866 .19921875 .18798828 .22122193 .19400025 .24221802 .19898987 .2642212 .20298767 .2782135 .20698548 .29421998 .20999146 .30722047 .21299744 .31622315 .23999024 .36521913 .2649994 .3872223 .2769928 .39822389 .30299378 .42140199 .34399415 .42140199 .3600006 .42140199 .37599183 .41836549 .3889923 .40924073Z"/>
<path id="font_2_27" d="M.82699587 0V.04699707H.7299957L.47399903 .6722412C.46299745 .6982422 .45098878 .6982422 .43399049 .6982422 .4059906 .6982422 .4019928 .6902313 .394989 .6722412L.14698792 .07002258C.14099121 .055007936 .13798523 .04699707 .06199646 .04699707H.040985109V0L.1579895 .0029907227C.19699097 .0029907227 .25299073 .0029907227 .2899933 0V.04699707C.2899933 .04699707 .20098877 .04699707 .20098877 .060012819L.20498657 .07203674 .25498963 .19322205H.522995L.58299258 .04699707H.48799134V0C.526001 .0029907227 .62098696 .0029907227 .6639862 .0029907227 .70399478 .0029907227 .7919922 .0029907227 .82699587 0M.5029907 .24023438H.2749939L.3889923 .51823428 .5029907 .24023438Z"/>
<path id="font_2_96" d="M.44198609 .36819459C.44198609 .42118836 .3880005 .4501953 .33599855 .4501953 .2659912 .4501953 .22599793 .40019227 .20298767 .33718873V.4501953L.036987306 .4423828V.39537049C.09899902 .39537049 .10598755 .39537049 .10598755 .3563385V.04699707H.036987306V0L.16299439 .0029907227C.20098877 .0029907227 .2649994 .0029907227 .30099488 0V.04699707H.21398926V.22218323C.21398926 .29226686 .23899842 .41436769 .33898927 .41436769 .33898927 .41436769 .31999208 .39736939 .31999208 .36834718 .31999208 .32730104 .35198976 .3072815 .3809967 .3072815 .4099884 .3072815 .44198609 .3283081 .44198609 .36834718V.36819459Z"/>
<path id="font_2_50" d="M.49398805 .11706543C.49398805 .13504029 .47499085 .13504029 .46998597 .13504029 .45298768 .13504029 .45098878 .13005066 .44499208 .11405945 .42399598 .066101077 .36698915 .03413391 .3019867 .03413391 .16099549 .03413391 .1599884 .16700745 .1599884 .2179718H.46199037C.48399354 .2179718 .49398805 .2179718 .49398805 .2449646 .49398805 .27598573 .48799134 .34906007 .43798829 .3991089 .40098573 .43511964 .34799195 .453125 .2789917 .453125 .11898804 .453125 .03199768 .35005189 .03199768 .22497559 .03199768 .09107971 .13198853-.005859375 .29299928-.005859375 .45098878-.005859375 .49398805 .10006714 .49398805 .11706543M.39898683 .25097657H.1599884C.1619873 .29000855 .16299439 .3320465 .18399048 .36506654 .20999146 .4051056 .25 .41711427 .2789917 .41711427 .3959961 .41711427 .397995 .28599549 .39898683 .25097657Z"/>
<path id="font_2_28" d="M.5529938 .023986817C.5529938 .04699707 .5399933 .04699707 .5269928 .04699707 .46598817 .04798889 .46598817 .06100464 .46598817 .083999637V.29907228C.46598817 .3881073 .394989 .453125 .24598694 .453125 .18899536 .453125 .066986087 .44911195 .066986087 .36109925 .066986087 .3170929 .101989749 .29808045 .1289978 .29808045 .1599884 .29808045 .19198609 .3190918 .19198609 .36109925 .19198609 .39111329 .17298889 .40811158 .16999817 .41011048 .19799805 .41612245 .22999573 .41711427 .24198914 .41711427 .31698609 .41711427 .35198976 .3751068 .35198976 .29907228V.26506043C.2809906 .2620697 .026992798 .25306703 .026992798 .10801697 .026992798 .012130737 .15098572-.005859375 .21998596-.005859375 .2999878-.005859375 .34700013 .035125734 .36898805 .07713318 .36898805 .04598999 .36898805 0 .47299195 0H.5209961C.54100039 0 .5529938 0 .5529938 .023986817M.35198976 .13899231C.35198976 .043151857 .2599945 .030136109 .23498535 .030136109 .18399048 .030136109 .14399719 .06517029 .14399719 .10922241 .14399719 .21734619 .3019867 .23136902 .35198976 .234375V.13899231Z"/>
<path id="font_2_52" d="M.82899478 .36203004C.82899478 .39302064 .7979889 .39302064 .7829895 .39302064H.10998535C.09498596 .39302064 .06399536 .39302064 .06399536 .36203004 .06399536 .33203126 .09298706 .33203126 .10499573 .33203126H.7879944C.7999878 .33203126 .82899478 .33203126 .82899478 .36203004M.82899478 .13893128C.82899478 .16894531 .7999878 .16894531 .7879944 .16894531H.10499573C.09298706 .16894531 .06399536 .16894531 .06399536 .13893128 .06399536 .107940677 .09498596 .107940677 .10998535 .107940677H.7829895C.7979889 .107940677 .82899478 .107940677 .82899478 .13893128Z"/>
<path id="font_3_1" d="M.2649994 .37265016H.37799073C.34498597 .22489929 .33599855 .18196106 .33599855 .11508179 .33599855 .100097659 .33599855 .073150638 .34399415 .03919983 .35398866-.0047454836 .36499024-.0107421879 .37998963-.0107421879 .3999939-.0107421879 .42099 .007247925 .42099 .02722168 .42099 .033218385 .42099 .035202028 .4149933 .049179079 .38598634 .12106323 .38598634 .18595886 .38598634 .21391297 .38598634 .26683045 .3929901 .32073976 .4039917 .37265016H.5179901C.5309906 .37265016 .5669861 .37265016 .5669861 .406662 .5669861 .43066407 .54599 .43066407 .5269928 .43066407H.19198609C.16999817 .43066407 .13198853 .43066407 .08799744 .38365174 .052993776 .34469605 .026992798 .29878236 .026992798 .29379273 .026992798 .29278565 .026992798 .28379823 .038986207 .28379823 .04699707 .28379823 .04899597 .28779603 .054992677 .29577638 .10398865 .37265016 .1619873 .37265016 .18199158 .37265016H.23899842C.20698548 .25186158 .15299988 .13105774 .11099243 .04020691 .102996829 .025222779 .102996829 .023223877 .102996829 .016235352 .102996829-.002746582 .11898804-.0107421879 .13198853-.0107421879 .1619873-.0107421879 .16999817 .017242432 .18199158 .05418396 .19599915 .100097659 .19599915 .10209656 .20899964 .15202332L.2649994 .37265016Z"/>
<path id="font_4_1" d="M.3889923 .27801515 .18899536 .47720338C.1769867 .48919679 .1749878 .49121095 .16699219 .49121095 .15699768 .49121095 .14698792 .48220826 .14698792 .47120667 .14698792 .46420289 .14898682 .46218873 .1599884 .45118714L.3600006 .24998474 .1599884 .048797609C.14898682 .03779602 .14698792 .03578186 .14698792 .028778077 .14698792 .01777649 .15699768 .0087890629 .16699219 .0087890629 .1749878 .0087890629 .1769867 .010787964 .18899536 .022781373L.3880005 .2219696 .59498599 .014785767C.5970001 .0137786869 .60398867 .0087890629 .6100006 .0087890629 .621994 .0087890629 .6299896 .01777649 .6299896 .028778077 .6299896 .030776978 .6299896 .03479004 .6269989 .039794923 .6259918 .041793825 .46699525 .19894409 .4169922 .24998474L.59999087 .4331665C.6049957 .43917848 .6199951 .45217896 .625 .45819093 .6259918 .46018983 .6299896 .46420289 .6299896 .47120667 .6299896 .48220826 .621994 .49121095 .6100006 .49121095 .60198977 .49121095 .59799197 .48719789 .58699038 .4761963L.3889923 .27801515Z"/>
<path id="font_3_2" d="M.08799744 .059265138C.084991458 .044265748 .07899475 .021255494 .07899475 .01625061 .07899475-.0017547608 .09298706-.0107421879 .10798645-.0107421879 .11999512-.0107421879 .13798523-.002746582 .14498902 .01725769 .14698792 .021255494 .18099976 .15730286 .18499756 .17530823 .19299317 .20831299 .21099854 .27833558 .21699524 .30534364 .22099304 .31835938 .24899292 .36535646 .272995 .38734437 .2809906 .39434815 .30999757 .42037965 .35299684 .42037965 .3789978 .42037965 .3939972 .4083557 .394989 .4083557 .36499024 .40335084 .34298707 .37934876 .34298707 .35334779 .34298707 .33735658 .35398866 .31835938 .3809967 .31835938 .4079895 .31835938 .43598939 .34135438 .43598939 .37734986 .43598939 .41235353 .4039917 .4423828 .35299684 .4423828 .28799439 .4423828 .24398804 .39335633 .22499085 .36535646 .21699524 .4103546 .18099976 .4423828 .13398743 .4423828 .08799744 .4423828 .068984989 .40335084 .05999756 .38534547 .041992189 .35134889 .0289917 .29133607 .0289917 .28834535 .0289917 .27833558 .038986207 .27833558 .040985109 .27833558 .050994874 .27833558 .051986696 .27934266 .057998659 .30134584 .07499695 .37234498 .09498596 .42037965 .1309967 .42037965 .147995 .42037965 .1619873 .41235353 .1619873 .37435914 .1619873 .35334779 .15899658 .3423462 .1459961 .29034425L.08799744 .059265138Z"/>
<path id="font_5_1" d="M.5049896 .18203736H.47099305C.46798707 .16001892 .45799256 .100997928 .44499208 .09098816 .43699647 .084991458 .3600006 .084991458 .34599305 .084991458H.1619873C.2669983 .17803955 .3019867 .20603943 .3619995 .25306703 .43598939 .312088 .5049896 .374115 .5049896 .46914674 .5049896 .5900879 .39898683 .6640625 .2709961 .6640625 .14698792 .6640625 .06298828 .57710269 .06298828 .4851532 .06298828 .43414308 .10598755 .42915345 .115997318 .42915345 .13999939 .42915345 .16899109 .44615174 .16899109 .48214723 .16899109 .5001526 .1619873 .53515627 .10998535 .53515627 .14099121 .6060791 .20899964 .62805178 .2559967 .62805178 .35598756 .62805178 .4079895 .5501404 .4079895 .46914674 .4079895 .38212586 .34599305 .3130951 .31399537 .27708436L.07299805 .038986207C.06298828 .02999878 .06298828 .027999878 .06298828 0H.47499085L.5049896 .18203736Z"/>
</defs>
<path transform="matrix(1.00002,0,0,-1,87.33537,87.038)" d="M85.04042 0C85.04042 46.96713 46.96713 85.04042 0 85.04042-46.96713 85.04042-85.04042 46.96713-85.04042 0-85.04042-46.96713-46.96713-85.04042 0-85.04042 46.96713-85.04042 85.04042-46.96713 85.04042 0ZM0 0" fill="#fff200"/>
<path transform="matrix(1.00002,0,0,-1,87.33537,87.038)" stroke-width=".79701" stroke-linecap="butt" stroke-miterlimit="10" stroke-linejoin="miter" fill="none" stroke="#bf0040" d="M85.04042 0C85.04042 46.96713 46.96713 85.04042 0 85.04042-46.96713 85.04042-85.04042 46.96713-85.04042 0-85.04042-46.96713-46.96713-85.04042 0-85.04042 46.96713-85.04042 85.04042-46.96713 85.04042 0ZM0 0"/>
<path transform="matrix(1.00002,0,0,-1,87.33537,87.038)" stroke-width=".79701" stroke-linecap="butt" stroke-miterlimit="10" stroke-linejoin="miter" fill="none" stroke="#ec008c" d="M0 0H85.04042"/>
<path transform="matrix(1.00002,0,0,-1,87.33537,87.038)" d="M2.98883 0C2.98883 1.6507 1.6507 2.98883 0 2.98883-1.6507 2.98883-2.98883 1.6507-2.98883 0-2.98883-1.6507-1.6507-2.98883 0-2.98883 1.6507-2.98883 2.98883-1.6507 2.98883 0ZM0 0" fill="#ec008c"/>
<path transform="matrix(1.00002,0,0,-1,87.33537,87.038)" stroke-width=".3985" stroke-linecap="butt" stroke-miterlimit="10" stroke-linejoin="miter" fill="none" stroke="#ec008c" d="M2.98883 0C2.98883 1.6507 1.6507 2.98883 0 2.98883-1.6507 2.98883-2.98883 1.6507-2.98883 0-2.98883-1.6507-1.6507-2.98883 0-2.98883 1.6507-2.98883 2.98883-1.6507 2.98883 0ZM0 0"/>
<use data-text="r" xlink:href="#font_1_1" transform="matrix(11.95544,0,0,-11.9552,112.88289,83.518009)"/>
<use data-text="A" xlink:href="#font_2_27" transform="matrix(11.95536,0,0,-11.95512,63.211717,129.3406)"/>
<use data-text="r" xlink:href="#font_2_96" transform="matrix(11.95536,0,0,-11.95512,73.60092,129.3406)"/>
<use data-text="e" xlink:href="#font_2_50" transform="matrix(11.95536,0,0,-11.95512,79.26776,129.3406)"/>
<use data-text="a" xlink:href="#font_2_28" transform="matrix(11.95536,0,0,-11.95512,85.56824,129.3406)"/>
<use data-text="=" xlink:href="#font_2_52" transform="matrix(11.95536,0,0,-11.95512,96.830188,129.3406)"/>
<use data-text="&#x03c0;" xlink:href="#font_3_1" transform="matrix(11.95536,0,0,-11.95512,112.09828,129.3406)"/>
<use data-text="&#x00d7;" xlink:href="#font_4_1" transform="matrix(11.95536,0,0,-11.95512,121.998477,129.3406)"/>
<use data-text="r" xlink:href="#font_3_2" transform="matrix(11.95536,0,0,-11.95512,133.95432,129.3406)"/>
<use data-text="2" xlink:href="#font_5_1" transform="matrix(8.368729,0,0,-8.368561,139.67963,125.00141)"/>
</svg>
