<svg xmlns="http://www.w3.org/2000/svg" xmlns:xlink="http://www.w3.org/1999/xlink" xmlns:inkscape="http://www.inkscape.org/namespaces/inkscape" version="1.1" width="182" height="212" viewBox="0 0 182 212">
<defs>
<path id="font_1_58" d="M.8450012 .22935486V.2763672C.80999758 .2733612 .72299197 .2733612 .6839905 .2733612 .6259918 .2733612 .5329895 .2733612 .47898866 .2763672V.22935486H.6230011V.1282959C.6230011 .109298709 .6230011 .08027649 .58399966 .057266237 .55799868 .042251588 .526001 .036254884 .49398805 .036254884 .4079895 .036254884 .32199098 .06526184 .272995 .12730408 .22999573 .18232727 .21699524 .25335694 .21699524 .3443451 .21699524 .4563141 .23699951 .5142975 .27398683 .5632782 .31399537 .613266 .3909912 .6502533 .4869995 .6502533 .59399417 .6502533 .68899539 .5742798 .71099856 .4473114 .71398928 .4283142 .71499636 .4263153 .73799136 .4263153 .7639923 .4263153 .7649994 .4283142 .7649994 .4543152V.6692505C.7649994 .68826296 .7649994 .6972656 .746994 .6972656 .73799136 .6972656 .73599246 .69525149 .7279968 .68826296L.6619873 .62927249C.58898928 .68725588 .5169983 .6972656 .46499635 .6972656 .21899414 .6972656 .06399536 .55029299 .06399536 .343338 .06399536 .14431763 .20899964-.0107421879 .46699525-.0107421879 .5-.0107421879 .6029968-.008743286 .6529999 .053253175 .6839905 .026245118 .74398806 .00024414063 .7509918 .00024414063 .7649994 .00024414063 .7649994 .013244629 .7649994 .028244019V.22935486H.8450012Z"/>
<path id="font_1_81" d="M.5419922 .21812439C.5419922 .35212709 .44999696 .453125 .2869873 .453125 .12298584 .453125 .03199768 .35112 .03199768 .21812439 .03199768 .09413147 .11999512-.005859375 .2869873-.005859375 .45498658-.005859375 .5419922 .09512329 .5419922 .21812439M.4139862 .22912598C.4139862 .14213562 .4139862 .03413391 .2869873 .03413391 .1599884 .03413391 .1599884 .14213562 .1599884 .22912598 .1599884 .27412416 .1599884 .32511903 .1769867 .3591156 .19599915 .39611817 .23799134 .41711427 .2869873 .41711427 .32899476 .41711427 .37098695 .40112306 .3929901 .36611939 .4139862 .3321228 .4139862 .27713014 .4139862 .22912598Z"/>
<path id="font_1_28" d="M.5529938 .023986817C.5529938 .04699707 .5399933 .04699707 .5269928 .04699707 .46598817 .04798889 .46598817 .06100464 .46598817 .083999637V.29907228C.46598817 .3881073 .394989 .453125 .24598694 .453125 .18899536 .453125 .066986087 .44911195 .066986087 .36109925 .066986087 .3170929 .101989749 .29808045 .1289978 .29808045 .1599884 .29808045 .19198609 .3190918 .19198609 .36109925 .19198609 .39111329 .17298889 .40811158 .16999817 .41011048 .19799805 .41612245 .22999573 .41711427 .24198914 .41711427 .31698609 .41711427 .35198976 .3751068 .35198976 .29907228V.26506043C.2809906 .2620697 .026992798 .25306703 .026992798 .10801697 .026992798 .012130737 .15098572-.005859375 .21998596-.005859375 .2999878-.005859375 .34700013 .035125734 .36898805 .07713318 .36898805 .04598999 .36898805 0 .47299195 0H.5209961C.54100039 0 .5529938 0 .5529938 .023986817M.35198976 .13899231C.35198976 .043151857 .2599945 .030136109 .23498535 .030136109 .18399048 .030136109 .14399719 .06517029 .14399719 .10922241 .14399719 .21734619 .3019867 .23136902 .35198976 .234375V.13899231Z"/>
<path id="font_1_105" d="M.38198854 .124176029V.17721558H.33499146V.12619019C.33499146 .058151246 .30299378 .03413391 .2749939 .03413391 .21699524 .03413391 .21699524 .09817505 .21699524 .1211853V.3973236H.36299134V.44433595H.21699524V.6357422H.16999817C.16899109 .53552249 .11999512 .43632508 .020996094 .43333436V.3973236H.102996829V.123184207C.102996829 .01612854 .18998719-.005859375 .26098634-.005859375 .33699037-.005859375 .38198854 .05114746 .38198854 .124176029Z"/>
<path id="font_1_98" d="M.4149933 .14012146C.4149933 .18312073 .394989 .21812439 .3600006 .24612427 .32099916 .27511598 .2889862 .28112794 .21099854 .29412843 .17399597 .30111695 .10899353 .31211854 .10899353 .3591156 .10899353 .42111207 .20199585 .42111207 .22099304 .42111207 .29599 .42111207 .33399964 .39212037 .33898927 .33711244 .33999635 .32211305 .34098817 .3171234 .3619995 .3171234 .38598634 .3171234 .38598634 .32211305 .38598634 .3451233V.42510987C.38598634 .4441223 .38598634 .453125 .36799623 .453125 .3639984 .453125 .3619995 .453125 .32299806 .43411256 .29699708 .44711305 .2619934 .453125 .22200012 .453125 .19198609 .453125 .037994386 .453125 .037994386 .32211305 .037994386 .28211976 .057998659 .25512696 .07798767 .23812866 .117996219 .203125 .1559906 .1971283 .23298645 .18312073 .2689972 .17712403 .34399415 .16412354 .34399415 .10513306 .34399415 .030136109 .2519989 .030136109 .22999573 .030136109 .12399292 .030136109 .09799194 .103134158 .085998538 .14613343 .08099365 .16012573 .07598877 .16012573 .06199646 .16012573 .037994386 .16012573 .037994386 .15412903 .037994386 .13113404V.022140503C.037994386 .0031280518 .037994386-.005859375 .055999757-.005859375 .06298828-.005859375 .06498718-.005859375 .085998538 .009140015L.11199951 .026138306C.1579895-.005859375 .20999146-.005859375 .22999573-.005859375 .26098634-.005859375 .4149933-.005859375 .4149933 .14013672V.14012146Z"/>
<path id="font_2_82" d="M.4189911 0V.0309906H.3869934C.29699708 .0309906 .2939911 .041992189 .2939911 .07902527V.64012148C.2939911 .6640167 .2939911 .6660156 .2709961 .6660156 .20899964 .60227969 .12098694 .60227969 .08898926 .60227969V.57128909C.10899353 .57128909 .16799927 .57128909 .21998596 .5972748V.07902527C.21998596 .042999269 .21699524 .0309906 .1269989 .0309906H.09498596V0C.12998963 .0029907227 .21699524 .0029907227 .25698854 .0029907227 .29699708 .0029907227 .38398744 .0029907227 .4189911 0Z"/>
<path id="font_2_57" d="M.47099305 .16503906V.19602967H.37098695V.6507721C.37098695 .6707611 .37098695 .6767578 .35499574 .6767578 .34599305 .6767578 .34298707 .6767578 .33499146 .6647644L.027999878 .19602967V.16503906H.2939911V.07800293C.2939911 .041992189 .2919922 .0309906 .21798706 .0309906H.19699097V0C.23799134 .0029907227 .2899933 .0029907227 .33198548 .0029907227 .37399293 .0029907227 .4269867 .0029907227 .46798707 0V.0309906H.44699098C.37298585 .0309906 .37098695 .041992189 .37098695 .07800293V.16503906H.47099305M.2999878 .19602967H.055999757L.2999878 .56881716V.19602967Z"/>
<path id="font_2_234" d="M.32598878 .5439453C.32598878 .62068179 .2639923 .6826172 .18798828 .6826172 .11099243 .6826172 .04899597 .62068179 .04899597 .5439453 .04899597 .46820069 .11099243 .40628053 .18798828 .40628053 .2639923 .40628053 .32598878 .46820069 .32598878 .5439453M.28599549 .5439453C.28599549 .49012757 .24198914 .44628907 .18798828 .44628907 .1329956 .44628907 .08898926 .49012757 .08898926 .5439453 .08898926 .5987549 .1329956 .64260867 .18798828 .64260867 .24198914 .64260867 .28599549 .5987549 .28599549 .5439453Z"/>
<path id="font_1_97" d="M.57398989 .20323181C.57398989 .31422425 .49299623 .39523316 .4019928 .41423036L.25698854 .4452362C.21699524 .4542389 .16099549 .48823548 .16099549 .5492401 .16099549 .59225466 .18899536 .6542511 .2889862 .6542511 .36898805 .6542511 .46998597 .6202545 .49299623 .48423768 .49699403 .4602356 .49699403 .4582367 .5179901 .4582367 .5419922 .4582367 .5419922 .46324159 .5419922 .48623658V.6692505C.5419922 .68826296 .5419922 .6972656 .5239868 .6972656 .5159912 .6972656 .5149994 .69625857 .5039978 .68626406L.45899964 .6422577C.40098573 .68826296 .33599855 .6972656 .28799439 .6972656 .13598633 .6972656 .06399536 .6012573 .06399536 .49624635 .06399536 .4312439 .09700012 .38523866 .117996219 .36323548 .16699219 .31422425 .20098877 .30723573 .30999757 .28323365 .397995 .2642212 .4149933 .26123048 .43699647 .24023438 .45199586 .22523499 .47698976 .19923401 .47698976 .15324402 .47698976 .10523987 .45098878 .036254884 .34700013 .036254884 .2709961 .036254884 .11898804 .056243898 .11099243 .20523072 .10998535 .22322083 .10998535 .22822571 .08799744 .22822571 .06399536 .22822571 .06399536 .222229 .06399536 .19923401V.01725769C.06399536-.0017547608 .06399536-.0107421879 .08198547-.0107421879 .09098816-.0107421879 .09298706-.008743286 .100997928-.0017547608L.14698792 .04425049C.21299744-.0047454836 .30599977-.0107421879 .34700013-.0107421879 .5119934-.0107421879 .57398989 .102249149 .57398989 .20323181Z"/>
<path id="font_1_63" d="M.61499026 0V.04699707H.54599V.30613709C.54599 .41119386 .49198915 .4501953 .3919983 .4501953 .29599 .4501953 .24499512 .3921814 .22299195 .3541565H.22200012V.69433596L.04499817 .6855469V.63853457C.10699463 .63853457 .11399841 .63853457 .11399841 .5996704V.04699707H.04499817V0L.17098999 .0029907227 .29699708 0V.04699707H.22799683V.25610353C.22799683 .36515809 .31399537 .41418458 .3769989 .41418458 .41099549 .41418458 .43199159 .39317323 .43199159 .31713868V.04699707H.36299134V0L.4889984 .0029907227 .61499026 0Z"/>
<path id="font_1_50" d="M.49398805 .11706543C.49398805 .13504029 .47499085 .13504029 .46998597 .13504029 .45298768 .13504029 .45098878 .13005066 .44499208 .11405945 .42399598 .066101077 .36698915 .03413391 .3019867 .03413391 .16099549 .03413391 .1599884 .16700745 .1599884 .2179718H.46199037C.48399354 .2179718 .49398805 .2179718 .49398805 .2449646 .49398805 .27598573 .48799134 .34906007 .43798829 .3991089 .40098573 .43511964 .34799195 .453125 .2789917 .453125 .11898804 .453125 .03199768 .35005189 .03199768 .22497559 .03199768 .09107971 .13198853-.005859375 .29299928-.005859375 .45098878-.005859375 .49398805 .10006714 .49398805 .11706543M.39898683 .25097657H.1599884C.1619873 .29000855 .16299439 .3320465 .18399048 .36506654 .20999146 .4051056 .25 .41711427 .2789917 .41711427 .3959961 .41711427 .397995 .28599549 .39898683 .25097657Z"/>
<path id="font_1_84" d="M.59999087 .22319031C.59999087 .3561859 .5089874 .4501953 .36499024 .4501953 .2899933 .4501953 .23699951 .41918946 .21398926 .40118409V.4501953L.036987306 .4423828V.39537049C.09899902 .39537049 .10598755 .39537049 .10598755 .3573761V-.14648438H.036987306V-.1934967L.16299439-.19049073 .2889862-.1934967V-.14648438H.21998596V.03945923C.2630005 .004135132 .30699159-.005859375 .34799195-.005859375 .49798585-.005859375 .59999087 .08413696 .59999087 .22312927V.22319031M.47200013 .22312927C.47200013 .08213806 .4019928 .030136109 .33699037 .030136109 .32299806 .030136109 .27598573 .030136109 .23098755 .08413696 .21998596 .09713745 .21998596 .09812927 .21998596 .117126468V.32913209C.21998596 .34814454 .22099304 .3491516 .23498535 .36314393 .2749939 .4041443 .32699586 .41015626 .34899903 .41015626 .41600038 .41015626 .47200013 .3491516 .47200013 .22314453V.22312927Z"/>
<path id="font_2_121" d="M.45999146 .31976319C.45999146 .39982606 .45498658 .47988893 .41999818 .5539398 .37399293 .65000918 .2919922 .6660156 .25 .6660156 .18998719 .6660156 .116989139 .64001467 .07598877 .54693606 .04399109 .47789 .038986207 .39982606 .038986207 .31976319 .038986207 .24472046 .042999269 .15464783 .083999637 .07859802 .1269989-.0024719239 .19999695-.022460938 .24899292-.022460938 .30299378-.022460938 .3789978-.0014648438 .4229889 .09359741 .45498658 .16265869 .45999146 .2407074 .45999146 .31976319M.3769989 .3317871C.3769989 .25672914 .3769989 .18867493 .3659973 .12461853 .35099793 .029556275 .2939911-.00047302247 .24899292-.00047302247 .20999146-.00047302247 .15098572 .024551392 .1329956 .12062073 .12199402 .18066406 .12199402 .2727356 .12199402 .3317871 .12199402 .39582826 .12199402 .46188355 .12998963 .5159149 .14898682 .63500979 .22399903 .64401248 .24899292 .64401248 .28199769 .64401248 .34799195 .6259918 .36698915 .52693179 .3769989 .47088624 .3769989 .39482118 .3769989 .3317871Z"/>
<path id="font_2_51" d="M.45700074 .16764832C.45700074 .20367432 .44599916 .24871826 .4079895 .29074098 .3889923 .31176759 .37298585 .32176209 .30899049 .36180116 .3809967 .39881898 .42999269 .4508667 .42999269 .51690676 .42999269 .6089783 .34098817 .6660156 .25 .6660156 .1499939 .6660156 .068984989 .5919647 .068984989 .49890138 .068984989 .48088075 .070999149 .43585206 .11299133 .38882447 .12399292 .3768158 .16099549 .35179139 .18598938 .33477784 .12799073 .30575563 .041992189 .24971009 .041992189 .15063477 .041992189 .044555665 .14399719-.022460938 .24899292-.022460938 .3619995-.022460938 .45700074 .060577394 .45700074 .16764832M.38598634 .51690676C.38598634 .45986939 .34700013 .41183473 .2869873 .3768158L.16299439 .4568634C.116989139 .4868927 .11299133 .5209198 .11299133 .53793337 .11299133 .5989685 .17799378 .64100649 .24899292 .64100649 .32199098 .64100649 .38598634 .588974 .38598634 .51690676M.40699769 .13162232C.40699769 .05757141 .33198548 .0055389406 .25 .0055389406 .1639862 .0055389406 .09199524 .06758118 .09199524 .15063477 .09199524 .2086792 .12399292 .2727356 .20899964 .31976319L.33198548 .24171448C.3600006 .22268677 .40699769 .19267273 .40699769 .13162232Z"/>
<path id="font_1_83" d="M.72099307 .49064637C.72099307 .6005707 .621994 .6855469 .45599366 .6855469H.038986207V.63853457H.14698792V.04699707H.038986207V0C.07699585 .0029907227 .1749878 .0029907227 .21798706 .0029907227 .26098634 .0029907227 .35899354 .0029907227 .39698792 0V.04699707H.2889862V.30177308H.46598817C.6049957 .30177308 .72099307 .37374879 .72099307 .49064637M.56799319 .49064637C.56799319 .41970826 .56799319 .34277345 .4169922 .34277345H.2829895V.63853457H.41799928C.56799319 .63853457 .56799319 .56259158 .56799319 .49064637Z"/>
<path id="font_1_66" d="M.28599549 0V.04699707H.22399903V.4501953L.049987794 .4423828V.39537049C.10899353 .39537049 .115997318 .39537049 .115997318 .3563385V.04699707H.04699707V0L.16899109 .0029907227 .28599549 0M.23799134 .60728457C.23799134 .6502838 .20298767 .6852875 .1599884 .6852875 .116989139 .6852875 .08198547 .6502838 .08198547 .60728457 .08198547 .5642853 .116989139 .5292969 .1599884 .5292969 .20298767 .5292969 .23799134 .5642853 .23799134 .60728457Z"/>
<path id="font_1_59" d="M.55799868 .3970642C.55799868 .42007447 .54100039 .45507813 .49499513 .45507813 .47999574 .45507813 .43299867 .45207215 .3889923 .41706849 .37098695 .42918397 .32899476 .4501953 .25498963 .4501953 .11099243 .4501953 .055999757 .37243653 .055999757 .3024292 .055999757 .26127626 .07598877 .22012329 .10798645 .19703675 .07998657 .16191101 .07398987 .12878418 .07398987 .10771179 .07398987 .0927124 .07798767 .04371643 .117996219 .01171875 .10499573 .008712769 .03199768-.012252808 .03199768-.075164798 .03199768-.12609864 .08699036-.2010498 .2869873-.2010498 .46398927-.2010498 .5419922-.14207459 .5419922-.07217407 .5419922-.04222107 .5339966 .020706177 .46699525 .054718019 .41099549 .08300781 .35099793 .08300781 .25498963 .08300781 .22898865 .08300781 .18299866 .08300781 .17799378 .083984378 .13398743 .0909729 .12298584 .12898255 .12298584 .14697266 .12298584 .15698242 .1269989 .17198181 .1329956 .17997742 .1789856 .15629578 .22999573 .15429688 .25498963 .15429688 .39898683 .15429688 .45399476 .23234558 .45399476 .3024292 .45399476 .34942628 .42900086 .38243104 .4139862 .3984375 .44400025 .4144287 .46499635 .4164276 .47599793 .4174347 .47399903 .4124298 .47200013 .40342713 .47200013 .39743043 .47200013 .37219239 .4889984 .354187 .5149994 .354187 .54100039 .354187 .55799868 .3731842 .55799868 .39718629V.3970642M.34298707 .30221559C.34298707 .25724793 .34298707 .19029236 .25498963 .19029236 .16699219 .19021607 .16699219 .25733949 .16699219 .3024292 .16699219 .34742738 .16699219 .41418458 .25498963 .41418458 .34298707 .41418458 .34298707 .34742738 .34298707 .3024292V.30221559M.45599366-.07501221C.45599366-.11102295 .4169922-.16503906 .2869873-.16503906 .16699219-.16503906 .117996219-.11903381 .117996219-.073013309 .117996219-.013000488 .18099976-.013000488 .19499207-.013000488H.31199647C.34298707-.013000488 .45599366-.013000488 .45599366-.07501221Z"/>
<path id="font_2_106" d="M.45700074 .17037964C.45700074 .252594 .3939972 .33088685 .2899933 .35191346 .37199403 .37893678 .42999269 .4490509 .42999269 .52809146 .42999269 .6100464 .34199525 .6660156 .24598694 .6660156 .14498902 .6660156 .068984989 .60606387 .068984989 .53009036 .068984989 .49710084 .09098816 .47808839 .11999512 .47808839 .15098572 .47808839 .17098999 .50009158 .17098999 .5290985 .17098999 .57910159 .12399292 .57910159 .10899353 .57910159 .13999939 .62802127 .20599365 .64100649 .24198914 .64100649 .2829895 .64100649 .33799745 .6190338 .33799745 .5290985 .33799745 .51708987 .33599855 .45906068 .30999757 .4149933 .27999879 .36691285 .24598694 .36390687 .22099304 .36291505 .21299744 .36190797 .18899536 .35990907 .18199158 .35990907 .17399597 .35890199 .16699219 .35791017 .16699219 .3479004 .16699219 .33691407 .17399597 .33691407 .19099427 .33691407H.23498535C.31698609 .33691407 .35398866 .2686615 .35398866 .17037964 .35398866 .034469606 .2849884 .0055389406 .24099732 .0055389406 .19799805 .0055389406 .12298584 .022491456 .08799744 .08137512 .12298584 .07637024 .1539917 .09837341 .1539917 .1363678 .1539917 .17237854 .1269989 .19238281 .09799194 .19238281 .07398987 .19238281 .041992189 .17837525 .041992189 .1343689 .041992189 .043441774 .1349945-.022460938 .24398804-.022460938 .3659973-.022460938 .45700074 .06838989 .45700074 .17037964Z"/>
<path id="font_2_101" d="M.45700074 .2036438C.45700074 .33070375 .36799623 .4267578 .25698854 .4267578 .18899536 .4267578 .1519928 .37573243 .13198853 .327713V.35173036C.13198853 .6047821 .2559967 .64100649 .30699159 .64100649 .33099366 .64100649 .37298585 .634964 .394989 .6007538 .37998963 .6007538 .33999635 .6007538 .33999635 .5557556 .33999635 .524765 .3639984 .5097656 .38598634 .5097656 .4019928 .5097656 .43199159 .51875308 .43199159 .5577545 .43199159 .6178589 .3880005 .6660156 .30499269 .6660156 .1769867 .6660156 .041992189 .5367584 .041992189 .31570436 .041992189 .048553468 .1579895-.022460938 .25099183-.022460938 .3619995-.022460938 .45700074 .07156372 .45700074 .2036438M.36698915 .20463562C.36698915 .15661621 .36698915 .10658264 .34999085 .0705719 .31999208 .010528564 .27398683 .0055389406 .25099183 .0055389406 .18798828 .0055389406 .1579895 .06556702 .1519928 .080566409 .13398743 .127594 .13398743 .2076416 .13398743 .22564698 .13398743 .30369569 .1659851 .40374757 .2559967 .40374757 .27198792 .40374757 .31799317 .40374757 .34899903 .34172059 .36698915 .30470277 .36698915 .2536621 .36698915 .20463562Z"/>
<path id="font_1_42" d="M.7659912 .22724915C.7659912 .24725342 .7589874 .2482605 .74198916 .2482605 .72898867 .2482605 .7200012 .2482605 .71899417 .23124695 .71199038 .09724426 .59098818 .036254884 .48999024 .036254884 .4119873 .036254884 .32798768 .060256959 .27598573 .12124634 .22898865 .17825318 .21699524 .25325013 .21699524 .34326173 .21699524 .39926148 .21998596 .5072632 .2829895 .57325747 .34799195 .63926699 .43499757 .6502533 .4869995 .6502533 .59498599 .6502533 .6899872 .5742645 .71199038 .44725038 .71499636 .42825318 .71598818 .42625428 .7389984 .42625428 .7649994 .42625428 .7659912 .42825318 .7659912 .45425416V.6692505C.7659912 .68826296 .7659912 .6972656 .7480011 .6972656 .7389984 .6972656 .7369995 .69525149 .72898867 .68826296L.6629944 .6292572C.6009979 .67926028 .5339966 .6972656 .46598817 .6972656 .21699524 .6972656 .06399536 .54826357 .06399536 .34326173 .06399536 .13824463 .21699524-.0107421879 .46598817-.0107421879 .6529999-.0107421879 .7659912 .11225891 .7659912 .22724915Z"/>
<path id="font_1_114" d="M.8049927 .3973236V.44433595C.7819977 .44232179 .7519989 .44132997 .7279968 .44132997L.6319885 .44433595V.3973236C.6409912 .3973236 .6899872 .3963318 .6899872 .3853302 .6899872 .38232423 .68699648 .3763275 .6859894 .37332154L.58099368 .11732483 .46699525 .3973236H.522995V.44433595L.40899659 .44132997C.36698915 .44132997 .32499696 .44332887 .30899049 .44433595V.3973236H.36799623C.3889923 .34732057 .3889923 .34432984 .3889923 .34432984 .3889923 .34033204 .38598634 .33433534 .3849945 .33132936L.30599977 .139328 .20098877 .3973236H.25698854V.44433595L.13398743 .44132997 .024993897 .44433595V.3973236H.083999637L.23699951 .023101807C.24398804 .006088257 .24798584-.00390625 .272995-.00390625 .2979889-.00390625 .3019867 .006088257 .30899049 .023101807L.4149933 .28208924 .5209961 .023086548C.5279999 .006088257 .5319977-.00390625 .5569916-.00390625 .58200076-.00390625 .58599856 .006088257 .59298709 .023086548L.7369995 .37608338C.74198916 .389328 .74598696 .3973236 .8049927 .3973236Z"/>
<path id="font_2_100" d="M.4850006 .6435547H.24198914C.11999512 .6435547 .117996219 .6566467 .11399841 .67578127H.08898926L.055999757 .46954347H.08099365C.083999637 .48554994 .09298706 .54855349 .10598755 .5605469 .11299133 .5665436 .19099427 .5665436 .20399475 .5665436H.41099549L.29899598 .40853883C.20899964 .2735443 .17599488 .13453675 .17599488 .03253174 .17599488 .022537232 .17599488-.022460938 .22200012-.022460938 .2679901-.022460938 .2679901 .022537232 .2679901 .03253174V.08354187C.2679901 .13853455 .2709961 .19354248 .2789917 .24754334 .2829895 .27053834 .29699708 .35653688 .34098817 .41854859L.47599793 .608551C.4850006 .62054446 .4850006 .62254336 .4850006 .6435547Z"/>
<path id="font_2_107" d="M.44898988 .17396546H.42399598C.4189911 .14398194 .4119873 .099990848 .4019928 .084991458 .394989 .07699585 .32899476 .07699585 .30699159 .07699585H.1269989L.23298645 .17996216C.3889923 .31803895 .44898988 .37210084 .44898988 .47216798 .44898988 .5860901 .35899354 .6660156 .23699951 .6660156 .12399292 .6660156 .049987794 .57411196 .049987794 .48516847 .049987794 .4291687 .099990848 .4291687 .102996829 .4291687 .11999512 .4291687 .15499878 .44117738 .15499878 .48217774 .15499878 .5081787 .13699341 .5341797 .101989749 .5341797 .09399414 .5341797 .09199524 .5341797 .08898926 .5331726 .11199951 .59806826 .1659851 .63500979 .22399903 .63500979 .31498719 .63500979 .35798646 .5541382 .35798646 .47216798 .35798646 .39196778 .30799867 .31297303 .25299073 .25097657L.06098938 .036987306C.049987794 .025985718 .049987794 .023986817 .049987794 0H.42099L.44898988 .17396546Z"/>
<path id="font_3_83" d="M.61099246 .49769593C.61099246 .59465029 .5139923 .6826172 .3789978 .6826172H.041992189V.6536102H.06199646C.13398743 .6536102 .13699341 .6436157 .13699341 .6066284V.07595825C.13699341 .038986207 .13398743 .0289917 .06199646 .0289917H.041992189V0C.06599426 .0019989014 .147995 .0019989014 .1769867 .0019989014 .20698548 .0019989014 .2889862 .0019989014 .31298829 0V.0289917H.29299928C.22099304 .0289917 .21798706 .038986207 .21798706 .07595825V.3177948H.3869934C.5039978 .3177948 .61099246 .39675904 .61099246 .49769593M.5179901 .49769593C.5179901 .455719 .5179901 .34179688 .35499574 .34179688H.21598816V.6136322C.21598816 .64660647 .21798706 .6536102 .2619934 .6536102H.35598756C.5179901 .6536102 .5179901 .54067996 .5179901 .49769593Z"/>
<path id="font_3_66" d="M.24099732 0V.0289917C.17599488 .0289917 .17199707 .033996583 .17199707 .07304382V.44140626L.035995485 .4303589V.4013672C.099990848 .4013672 .10899353 .39535523 .10899353 .34629823V.074035648C.10899353 .0289917 .09799194 .0289917 .032989503 .0289917V0C.06098938 .0019989014 .10899353 .0019989014 .13798523 .0019989014 .14898682 .0019989014 .20698548 .0019989014 .24099732 0M.18499756 .6043091C.18499756 .63430789 .16099549 .6533203 .13699341 .6533203 .10899353 .6533203 .08799744 .63131716 .08799744 .6043091 .08799744 .5783081 .10998535 .55630496 .13598633 .55630496 .1659851 .55630496 .18499756 .580307 .18499756 .6043091Z"/>
<path id="font_3_50" d="M.40699769 .11932373C.40699769 .1253357 .4019928 .1293335 .3959961 .1293335 .3880005 .1293335 .38598634 .12432861 .38398744 .11932373 .35798646 .035247804 .29100038 .01222229 .24899292 .01222229 .20698548 .01222229 .10598755 .040252687 .10598755 .21340943V.23242188H.3829956C.40499879 .23242188 .40699769 .23242188 .40699769 .25141908 .40699769 .3523407 .35299684 .44628907 .23199463 .44628907 .117996219 .44628907 .02999878 .34335328 .02999878 .21940613 .02999878 .08729553 .13198853-.009765625 .24299622-.009765625 .3619995-.009765625 .40699769 .09829712 .40699769 .11932373M.34498597 .25141908H.10699463C.114990238 .40830995 .20298767 .42630006 .23098755 .42630006 .33799745 .42630006 .34399415 .28538514 .34498597 .25141908Z"/>
<path id="font_3_42" d="M.6519928 .23170471C.6519928 .24272156 .6519928 .24871826 .6409912 .24871826 .6309967 .24871826 .6299896 .24371338 .6299896 .2367096 .62098696 .07757568 .5049896 .007507324 .4079895 .007507324 .33799745 .007507324 .14698792 .049545289 .14698792 .34179688 .14698792 .63105776 .33499146 .6750946 .40699769 .6750946 .5119934 .6750946 .60398867 .5860138 .6239929 .43588258 .6259918 .4238739 .6259918 .42086793 .6380005 .42086793 .6519928 .42086793 .6519928 .4238739 .6519928 .44389344V.6810913C.6519928 .6990967 .6519928 .70410159 .6419983 .70410159 .6359863 .70410159 .6349945 .7020874 .6289978 .6920929L.5799866 .6130371C.5349884 .6690979 .46699525 .70410159 .394989 .70410159 .21199036 .70410159 .053985597 .54597476 .053985597 .34179688 .053985597 .13461304 .21398926-.021484375 .394989-.021484375 .5589905-.021484375 .6519928 .12161255 .6519928 .23170471Z"/>
<path id="font_3_63" d="M.5209961 0V.0289917C.47099305 .0289917 .44599916 .0289917 .44499208 .059020997V.24320984C.44499208 .3363037 .44499208 .3643341 .42199708 .39637757 .3929901 .4353943 .34599305 .44140626 .31199647 .44140626 .22599793 .44140626 .18598938 .37634278 .17199707 .34532167H.17098999V.69433596L.03199768 .6826172V.6536102C.099990848 .6536102 .10798645 .64663699 .10798645 .59780886V.074035648C.10798645 .0289917 .09700012 .0289917 .03199768 .0289917V0C.057998659 .0019989014 .11199951 .0019989014 .13999939 .0019989014 .16899109 .0019989014 .22299195 .0019989014 .24899292 0V.0289917C.18499756 .0289917 .17298889 .0289917 .17298889 .074035648V.2602234C.17298889 .3653412 .24198914 .42140199 .3039856 .42140199 .3659973 .42140199 .37998963 .37034608 .37998963 .3092804V.074035648C.37998963 .0289917 .36898805 .0289917 .3039856 .0289917V0C.32998658 .0019989014 .38398744 .0019989014 .4119873 .0019989014 .44099427 .0019989014 .49499513 .0019989014 .5209961 0Z"/>
<path id="font_3_28" d="M.47399903 .08912659V.14515686H.45199586V.08912659C.45199586 .03211975 .42799378 .024108887 .4139862 .024108887 .37599183 .024108887 .37599183 .07713318 .37599183 .09213257V.26719667C.37599183 .3211975 .37599183 .36120606 .33198548 .40023805 .29699708 .43226625 .2519989 .44628907 .20799256 .44628907 .12599182 .44628907 .06298828 .39222718 .06298828 .32720948 .06298828 .2982025 .08198547 .2842102 .10499573 .2842102 .1289978 .2842102 .1459961 .3012085 .1459961 .32521058 .1459961 .36621095 .10998535 .36621095 .09498596 .36621095 .117996219 .4082489 .1659851 .42625428 .20599365 .42625428 .2519989 .42625428 .31098939 .38822938 .31098939 .2982025V.25819398C.10998535 .255188 .033996583 .17115784 .033996583 .09413147 .033996583 .0152282719 .12599182-.009765625 .18699646-.009765625 .25299073-.009765625 .2979889 .030227662 .31698609 .07823181 .32099916 .03111267 .35198976-.0048828127 .394989-.0048828127 .41600038-.0048828127 .47399903 .009109497 .47399903 .089141849V.08912659M.31098939 .14117432C.31098939 .043121339 .23799134 .010116577 .19499207 .010116577 .1459961 .010116577 .10499573 .04612732 .10499573 .09414673 .10499573 .22621155 .2749939 .23822022 .31098939 .24023438V.14117432Z"/>
<path id="font_3_96" d="M.35299684 .38339234C.35299684 .4133911 .32598878 .44140626 .2829895 .44140626 .19799805 .44140626 .16899109 .34939576 .16299439 .33039857H.1619873V.44140626L.027999878 .4303589V.4013672C.09599304 .4013672 .10398865 .39434815 .10398865 .3453064V.074035648C.10398865 .0289917 .09298706 .0289917 .027999878 .0289917V0C.055999757 .0019989014 .11099243 .0019989014 .14099121 .0019989014 .16799927 .0019989014 .23899842 .0019989014 .2619934 0V.0289917H.24198914C.16899109 .02973938 .16699219 .040740968 .16699219 .07673645V.23374939C.16699219 .3307495 .20698548 .42173768 .28399659 .42173768 .2919922 .42173768 .2939911 .42173768 .2979889 .42074586 .2899933 .41674806 .27398683 .41073609 .27398683 .3837433 .27398683 .35473634 .29699708 .34375 .31298829 .34375 .33299256 .34375 .35299684 .35673524 .35299684 .3837433V.38339234Z"/>
<path id="font_3_105" d="M.32598878 .124069217V.1809845H.3039856V.12606812C.3039856 .0541687 .2749939 .01222229 .23599243 .01222229 .16799927 .01222229 .16799927 .10508728 .16799927 .12207031V.4016571H.30899049V.43066407H.16799927V.6142578H.1459961C.14498902 .52046206 .10899353 .4246521 .017990113 .42166139V.4016571H.102996829V.124069217C.102996829 .01322937 .1769867-.009765625 .22999573-.009765625 .29299928-.009765625 .32598878 .0521698 .32598878 .124069217Z"/>
<path id="font_3_81" d="M.45899964 .21424866C.45899964 .34326173 .36099244 .44628907 .24499512 .44628907 .125 .44628907 .02999878 .340271 .02999878 .21424866 .02999878 .086242679 .12998963-.009765625 .24398804-.009765625 .3619995-.009765625 .45899964 .08824158 .45899964 .21424866M.3829956 .22325135C.3829956 .18824768 .3829956 .12623596 .35699464 .07923889 .32899476 .031234742 .2829895 .01222229 .24499512 .01222229 .20799256 .01222229 .16299439 .02822876 .13398743 .07723999 .10699463 .12223816 .10598755 .1812439 .10598755 .22325135 .10598755 .261261 .10598755 .32226563 .13699341 .3672638 .16499329 .41027833 .20899964 .42626954 .24398804 .42626954 .2829895 .42626954 .32499696 .40827943 .35198976 .3692627 .3829956 .32325746 .3829956 .2602539 .3829956 .22325135Z"/>
<path id="font_3_55" d="M.34199525 .6379852C.34199525 .6750488 .30599977 .70410159 .2579956 .70410159 .18798828 .70410159 .10899353 .65000918 .10899353 .5478363V.43066407H.0309906V.4016571H.10899353V.07394409C.10899353 .0289917 .09799194 .0289917 .032989503 .0289917V0C.06098938 .0019989014 .115997318 .0019989014 .1459961 .0019989014 .17298889 .0019989014 .24398804 .0019989014 .2669983 0V.0289917H.24699402C.17399597 .0289917 .17199707 .039978029 .17199707 .07594299V.4016571H.2849884V.43066407H.16999817V.5478363C.16999817 .6379852 .21598816 .6840668 .25698854 .6840668 .2649994 .6840668 .27999879 .6820526 .2919922 .67604067 .28799439 .6750488 .2630005 .6660309 .2630005 .63697817 .2630005 .61395266 .2789917 .59791567 .3019867 .59791567 .32598878 .59791567 .34199525 .61395266 .34199525 .6379852Z"/>
<path id="font_3_71" d="M.56999209 .25585938H.5479889C.5379944 .1559143 .5249939 .0289917 .34999085 .0289917H.2630005C.21899414 .0289917 .21699524 .035995485 .21699524 .06896973V.6056366C.21699524 .6416168 .21899414 .6536102 .30599977 .6536102H.33599855V.6826172C.30699159 .680603 .21899414 .680603 .18399048 .680603 .1539917 .680603 .06498718 .680603 .040985109 .6826172V.6536102H.06098938C.1329956 .6536102 .13598633 .6436157 .13598633 .6066437V.07595825C.13598633 .038986207 .1329956 .0289917 .06098938 .0289917H.040985109V0H.5439911L.56999209 .25585938Z"/>
<path id="font_3_112" d="M.49798585 .4016571V.43066407C.46899415 .4286499 .45498658 .4286499 .42399598 .4286499L.34199525 .43066407V.4016571C.38398744 .3996582 .3889923 .3697052 .3889923 .35871888 .3889923 .34973146 .3869934 .34474183 .38198854 .3327484L.27999879 .07510376 .16799927 .35671998C.16299439 .37069703 .1619873 .37069703 .1619873 .37568666 .1619873 .4016571 .19999695 .4016571 .21798706 .4016571V.43066407C.19299317 .4286499 .14099121 .4286499 .11399841 .4286499L.017990113 .43066407V.4016571C.07398987 .4016571 .083999637 .3976593 .09599304 .36669923L.23899842 .00920105C.24398804-.004776001 .24598694-.009765625 .2579956-.009765625 .2649994-.009765625 .2709961-.0077819826 .27799989 .00920105L.4079895 .3357544C.4169922 .3577118 .43399049 .40066529 .49798585 .4016571Z"/>
<path id="font_3_98" d="M.35198976 .12739563C.35198976 .181427 .31900025 .21340943 .30999757 .22239685 .27398683 .25338746 .24699402 .25938417 .18099976 .27137757 .15098572 .27737428 .07798767 .29136659 .07798767 .35131837 .07798767 .38230897 .09899902 .4282837 .18899536 .4282837 .2979889 .4282837 .3039856 .33532716 .30599977 .3043518 .30699159 .2963562 .31399537 .2963562 .31698609 .2963562 .32798768 .2963562 .32798768 .30136109 .32798768 .3193512V.4232788C.32798768 .44128419 .32798768 .44628907 .31799317 .44628907 .30999757 .44628907 .29100038 .4242859 .28399659 .4152832 .25299073 .4402771 .22200012 .44628907 .18998719 .44628907 .068984989 .44628907 .032989503 .38031007 .032989503 .32533265 .032989503 .3143463 .032989503 .27937318 .070999149 .24438477 .102996829 .21640015 .13699341 .20941162 .18299866 .20040894 .23799134 .1894226 .25099183 .18641663 .27598573 .16642761 .2939911 .15142823 .30699159 .12940979 .30699159 .101364139 .30699159 .05831909 .28199769 .010253906 .19400025 .010253906 .12799073 .010253906 .07998657 .048294069 .057998659 .1484375 .053985597 .16642761 .052993776 .16842652 .052993776 .16842652 .050994874 .17242432 .04699707 .17242432 .04399109 .17242432 .032989503 .17242432 .032989503 .16743469 .032989503 .14942932V.013259888C.032989503-.004760742 .032989503-.009765625 .042999269-.009765625 .04798889-.009765625 .04899597-.008773804 .06599426 .012252808 .070999149 .019256592 .070999149 .021270752 .085998538 .03729248 .12399292-.009765625 .17799378-.009765625 .19499207-.009765625 .2999878-.009765625 .35198976 .048294069 .35198976 .12739563Z"/>
<path id="font_3_43" d="M.4059906 .1191864C.4059906 .12817383 .39898683 .12817383 .3959961 .12817383 .3869934 .12817383 .38598634 .1251831 .3829956 .1131897 .36099244 .04222107 .30699159 .01222229 .25299073 .01222229 .19198609 .01222229 .11099243 .065200809 .11099243 .21713257 .11099243 .3831482 .19599915 .4242859 .24598694 .4242859 .28399659 .4242859 .33898927 .40924073 .3619995 .3701172 .34999085 .3701172 .31298829 .3701172 .31298829 .32911683 .31298829 .30511476 .32998658 .28811646 .35398866 .28811646 .3769989 .28811646 .3959961 .30210877 .3959961 .33111573 .3959961 .39819337 .32598878 .44628907 .24499512 .44628907 .12799073 .44628907 .034988405 .34210206 .034988405 .21614075 .034988405 .0881958 .1309967-.009765625 .24398804-.009765625 .37599183-.009765625 .4059906 .110183719 .4059906 .1191864Z"/>
<path id="font_3_70" d="M.5 0V.0289917C.47299195 .0289917 .44198609 .0289917 .4139862 .06991577L.27999879 .26464845 .272995 .27464295C.272995 .27764894 .33599855 .33164979 .34399415 .3396454 .41299439 .3996582 .45700074 .40065003 .47799684 .4016571V.43066407C.45799256 .4286499 .43199159 .4286499 .4019928 .4286499 .37599183 .4286499 .32499696 .4286499 .3019867 .43066407V.4016571C.31900025 .40065003 .33099366 .39164735 .33099366 .37565614 .33099366 .35565187 .30999757 .33764649 .30999757 .33764649L.16699219 .21168518V.69433596L.027999878 .6826172V.6536102C.09599304 .6536102 .10398865 .64660647 .10398865 .5976105V.073913577C.10398865 .0289917 .09298706 .0289917 .027999878 .0289917V0C.055999757 .0019989014 .10398865 .0019989014 .13398743 .0019989014 .1639862 .0019989014 .21199036 .0019989014 .23999024 0V.0289917C.17599488 .0289917 .1639862 .0289917 .1639862 .073913577V.17973328L.22799683 .23564148 .32398988 .09786987C.33898927 .0769043 .34599305 .06593323 .34599305 .051956178 .34599305 .033981325 .33198548 .0289917 .31098939 .0289917V0C.33599855 .0019989014 .3849945 .0019989014 .4119873 .0019989014 .45498658 .0019989014 .45700074 .0019989014 .5 0Z"/>
<path id="font_3_104" d="M.67099 .45480348 .6529999 .6777344H.052993776L.034988405 .45480348H.056991579C.070999149 .6127472 .07998657 .6487274 .23799134 .6487274 .2559967 .6487274 .28399659 .6487274 .2919922 .6467285 .31199647 .64372256 .31298829 .6317291 .31298829 .6087494V.07696533C.31298829 .04298401 .31298829 .0289917 .21499634 .0289917H.1789856V0C.21099854 .0019989014 .31399537 .0019989014 .35299684 .0019989014 .3919983 .0019989014 .49598695 .0019989014 .5279999 0V.0289917H.49198915C.3939972 .0289917 .3939972 .04298401 .3939972 .07696533V.6087494C.3939972 .633728 .3959961 .6427307 .4119873 .6467285 .41999818 .6487274 .44898988 .6487274 .46798707 .6487274 .6259918 .6487274 .6349945 .6127472 .6489868 .45480348H.67099Z"/>
<path id="font_3_118" d="M.49798585 .4016571V.43066407C.46899415 .4286499 .45498658 .4286499 .4229889 .4286499L.34199525 .43066407V.4016571C.3789978 .3996582 .3880005 .3766632 .3880005 .35865785 .3880005 .34965516 .38598634 .34465028 .38198854 .33465577L.27999879 .08265686 .16899109 .35466004C.16299439 .36865235 .16299439 .37565614 .16299439 .37565614 .16299439 .4016571 .19799805 .4016571 .21798706 .4016571V.43066407C.19198609 .4286499 .14299011 .4286499 .114990238 .4286499L.017990113 .43066407V.4016571C.07598877 .4016571 .083999637 .39665223 .09700012 .36567689L.24598694-.000076293948C.20199585-.10601807 .20199585-.10801697 .19799805-.11602783 .18099976-.14602661 .1539917-.184021 .10899353-.184021 .07798767-.184021 .05899048-.16601563 .05899048-.16601563 .05899048-.16601563 .09399414-.16201782 .09399414-.12702942 .09399414-.103027347 .07499695-.090026859 .056991579-.090026859 .039993287-.090148929 .018997193-.10014343 .018997193-.12913513 .018997193-.16712952 .055999757-.20410156 .10899353-.20410156 .16499329-.20410156 .20599365-.15512085 .23199463-.09214783L.40499879 .3336792C.43199159 .40065003 .47898866 .4016571 .49798585 .4016571Z"/>
<path id="font_3_84" d="M.5079956 .21640015C.5079956 .34339906 .4139862 .44140626 .30499269 .44140626 .21699524 .44140626 .16999817 .3784027 .16699219 .3744049V.44140626L.027999878 .4303589V.4013672C.09799194 .4013672 .10398865 .3943634 .10398865 .3503418V-.1199646C.10398865-.16503906 .09298706-.16503906 .027999878-.16503906V-.19404602C.053985597-.19204712 .10798645-.19204712 .13598633-.19204712 .16499329-.19204712 .21899414-.19204712 .24499512-.19404602V-.16503906C.18099976-.16503906 .16899109-.16503906 .16899109-.1199646V.054244996C.18699646 .02923584 .22799683-.009765625 .2919922-.009765625 .40699769-.009765625 .5079956 .087249759 .5079956 .21629334V.21640015M.43199159 .21629334C.43199159 .09725952 .3639984 .010223389 .2869873 .010223389 .2559967 .010223389 .22698975 .023223877 .20698548 .042236329 .18399048 .06524658 .16899109 .085250858 .16899109 .11326599V.31933595C.16899109 .33833314 .16899109 .3393402 .17999268 .35534669 .20999146 .40040589 .25898744 .41940309 .29699708 .41940309 .37199403 .41940309 .43199159 .32839967 .43199159 .21640015V.21629334Z"/>
</defs>
<path transform="matrix(1.00006,0,0,-1.00006,91.053279,86.64423)" d="M0 0H85.04045C85.04045 46.96715 46.96715 85.04045 0 85.04045-27.21745 85.04045-52.80154 72.00488-68.79951 49.98538Z" fill="#d9668c"/>
<use data-text="G" xlink:href="#font_1_58" transform="matrix(9.963197,0,0,-9.963197,95.68456,24.823525)"/>
<use data-text="o" xlink:href="#font_1_81" transform="matrix(9.963197,0,0,-9.963197,104.69129,24.823525)"/>
<use data-text="a" xlink:href="#font_1_28" transform="matrix(9.963197,0,0,-9.963197,110.42013,24.823525)"/>
<use data-text="t" xlink:href="#font_1_105" transform="matrix(9.963197,0,0,-9.963197,115.989559,24.823525)"/>
<use data-text="s" xlink:href="#font_1_98" transform="matrix(9.963197,0,0,-9.963197,120.44311,24.823525)"/>
<use data-text="1" xlink:href="#font_2_82" transform="matrix(9.963197,0,0,-9.963197,100.98487,36.779245)"/>
<use data-text="4" xlink:href="#font_2_57" transform="matrix(9.963197,0,0,-9.963197,105.96647,36.779245)"/>
<use data-text="4" xlink:href="#font_2_57" transform="matrix(9.963197,0,0,-9.963197,110.94807,36.779245)"/>
<use data-text="&#x00b0;" xlink:href="#font_2_234" transform="matrix(9.963197,0,0,-9.963197,115.92965,36.779245)"/>
<path transform="matrix(1.00006,0,0,-1.00006,91.053279,86.64423)" d="M0 0-68.79951 49.98538C-86.65547 25.4086-90.04425-6.83716-77.68817-34.58919-67.8866-56.60376-49.19801-73.43222-26.27927-80.879Z" fill="#ffb366"/>
<use data-text="S" xlink:href="#font_1_97" transform="matrix(9.963197,0,0,-9.963197,16.937836,103.30123)"/>
<use data-text="h" xlink:href="#font_1_63" transform="matrix(9.963197,0,0,-9.963197,23.304322,103.30123)"/>
<use data-text="e" xlink:href="#font_1_50" transform="matrix(9.963197,0,0,-9.963197,29.670807,103.30123)"/>
<use data-text="e" xlink:href="#font_1_50" transform="matrix(9.963197,0,0,-9.963197,34.921419,103.30123)"/>
<use data-text="p" xlink:href="#font_1_84" transform="matrix(9.963197,0,0,-9.963197,40.172014,103.30123)"/>
<use data-text="1" xlink:href="#font_2_82" transform="matrix(9.963197,0,0,-9.963197,22.398163,115.25695)"/>
<use data-text="0" xlink:href="#font_2_121" transform="matrix(9.963197,0,0,-9.963197,27.37976,115.25695)"/>
<use data-text="8" xlink:href="#font_2_51" transform="matrix(9.963197,0,0,-9.963197,32.36136,115.25695)"/>
<use data-text="&#x00b0;" xlink:href="#font_2_234" transform="matrix(9.963197,0,0,-9.963197,37.34294,115.25695)"/>
<path transform="matrix(1.00006,0,0,-1.00006,91.053279,86.64423)" d="M0 0-26.27927-80.879C-9.2016-86.42789 9.2016-86.42789 26.27927-80.879Z" fill="#66ff66"/>
<use data-text="P" xlink:href="#font_1_83" transform="matrix(9.963197,0,0,-9.963197,80.42264,140.67148)"/>
<use data-text="i" xlink:href="#font_1_66" transform="matrix(9.963197,0,0,-9.963197,88.25371,140.67148)"/>
<use data-text="g" xlink:href="#font_1_59" transform="matrix(9.963197,0,0,-9.963197,91.43198,140.67148)"/>
<use data-text="s" xlink:href="#font_1_98" transform="matrix(9.963197,0,0,-9.963197,97.16081,140.67148)"/>
<use data-text="3" xlink:href="#font_2_106" transform="matrix(9.963197,0,0,-9.963197,84.20387,152.6272)"/>
<use data-text="6" xlink:href="#font_2_101" transform="matrix(9.963197,0,0,-9.963197,89.18547,152.6272)"/>
<use data-text="&#x00b0;" xlink:href="#font_2_234" transform="matrix(9.963197,0,0,-9.963197,94.16705,152.6272)"/>
<path transform="matrix(1.00006,0,0,-1.00006,91.053279,86.64423)" d="M0 0 26.27927-80.879C61.31581-69.49489 85.04045-36.83926 85.04045 0Z" fill="#ffd9d9"/>
<use data-text="C" xlink:href="#font_1_42" transform="matrix(9.963197,0,0,-9.963197,128.26352,120.68727)"/>
<use data-text="o" xlink:href="#font_1_81" transform="matrix(9.963197,0,0,-9.963197,136.54294,120.68727)"/>
<use data-text="w" xlink:href="#font_1_114" transform="matrix(9.963197,0,0,-9.963197,141.95296,120.68727)"/>
<use data-text="s" xlink:href="#font_1_98" transform="matrix(9.963197,0,0,-9.963197,150.23236,120.68727)"/>
<use data-text="7" xlink:href="#font_2_100" transform="matrix(9.963197,0,0,-9.963197,134.6599,132.64299)"/>
<use data-text="2" xlink:href="#font_2_107" transform="matrix(9.963197,0,0,-9.963197,139.6415,132.64299)"/>
<use data-text="&#x00b0;" xlink:href="#font_2_234" transform="matrix(9.963197,0,0,-9.963197,144.62308,132.64299)"/>
<use data-text="P" xlink:href="#font_3_83" transform="matrix(14.34706,0,0,-14.34706,.83787539,207.98952)"/>
<use data-text="i" xlink:href="#font_3_66" transform="matrix(14.34706,0,0,-14.34706,10.393021,207.98952)"/>
<use data-text="e" xlink:href="#font_3_50" transform="matrix(14.34706,0,0,-14.34706,14.29541,207.98952)"/>
<use data-text="C" xlink:href="#font_3_42" transform="matrix(14.34706,0,0,-14.34706,25.213532,207.98952)"/>
<use data-text="h" xlink:href="#font_3_63" transform="matrix(14.34706,0,0,-14.34706,35.356904,207.98952)"/>
<use data-text="a" xlink:href="#font_3_28" transform="matrix(14.34706,0,0,-14.34706,43.161699,207.98952)"/>
<use data-text="r" xlink:href="#font_3_96" transform="matrix(14.34706,0,0,-14.34706,50.191759,207.98952)"/>
<use data-text="t" xlink:href="#font_3_105" transform="matrix(14.34706,0,0,-14.34706,55.657976,207.98952)"/>
<use data-text="o" xlink:href="#font_3_81" transform="matrix(14.34706,0,0,-14.34706,65.801349,207.98952)"/>
<use data-text="f" xlink:href="#font_3_55" transform="matrix(14.34706,0,0,-14.34706,72.83142,207.98952)"/>
<use data-text="L" xlink:href="#font_3_71" transform="matrix(14.34706,0,0,-14.34706,81.79834,207.98952)"/>
<use data-text="i" xlink:href="#font_3_66" transform="matrix(14.34706,0,0,-14.34706,90.578739,207.98952)"/>
<use data-text="v" xlink:href="#font_3_112" transform="matrix(14.34706,0,0,-14.34706,94.48111,207.98952)"/>
<use data-text="e" xlink:href="#font_3_50" transform="matrix(14.34706,0,0,-14.34706,101.52551,207.98952)"/>
<use data-text="s" xlink:href="#font_3_98" transform="matrix(14.34706,0,0,-14.34706,107.76651,207.98952)"/>
<use data-text="t" xlink:href="#font_3_105" transform="matrix(14.34706,0,0,-14.34706,113.30444,207.98952)"/>
<use data-text="o" xlink:href="#font_3_81" transform="matrix(14.34706,0,0,-14.34706,118.77069,207.98952)"/>
<use data-text="c" xlink:href="#font_3_43" transform="matrix(14.34706,0,0,-14.34706,126.1738,207.98952)"/>
<use data-text="k" xlink:href="#font_3_70" transform="matrix(14.34706,0,0,-14.34706,132.04172,207.98952)"/>
<use data-text="T" xlink:href="#font_3_104" transform="matrix(14.34706,0,0,-14.34706,144.12195,207.98952)"/>
<use data-text="y" xlink:href="#font_3_118" transform="matrix(14.34706,0,0,-14.34706,153.89228,207.98952)"/>
<use data-text="p" xlink:href="#font_3_84" transform="matrix(14.34706,0,0,-14.34706,161.30973,207.98952)"/>
<use data-text="e" xlink:href="#font_3_50" transform="matrix(14.34706,0,0,-14.34706,169.48755,207.98952)"/>
<use data-text="s" xlink:href="#font_3_98" transform="matrix(14.34706,0,0,-14.34706,175.72852,207.98952)"/>
</svg>
